<svg width="19" height="24" viewBox="0 0 19 24" fill="none" xmlns="http://www.w3.org/2000/svg">
<path fill-rule="evenodd" clip-rule="evenodd" d="M9.22036 10.9571L16.2916 18.0284C16.5274 18.2561 16.8431 18.3821 17.1709 18.3792C17.4986 18.3764 17.8121 18.2449 18.0439 18.0132C18.2756 17.7814 18.4071 17.4679 18.41 17.1401C18.4128 16.8124 18.2868 16.4966 18.0591 16.2609L10.9879 9.18964L18.0591 2.11839C18.2868 1.88264 18.4128 1.56688 18.41 1.23914C18.4071 0.911392 18.2756 0.597877 18.0439 0.366117C17.8121 0.134357 17.4986 0.00289528 17.1709 4.72533e-05C16.8431 -0.00280077 16.5274 0.123192 16.2916 0.35089L9.22036 7.42214L2.14911 0.35089C1.9123 0.128821 1.59838 0.00759663 1.27377 0.0128676C0.949169 0.0181386 0.63935 0.149491 0.409872 0.379132C0.180394 0.608773 0.0492598 0.918685 0.0442184 1.24329C0.0391771 1.5679 0.160623 1.88173 0.38286 2.11839L7.45286 9.18964L0.38161 16.2609C0.262222 16.3762 0.166995 16.5141 0.101484 16.6666C0.0359723 16.8191 0.00148947 16.9832 4.71963e-05 17.1491C-0.00139507 17.3151 0.0302318 17.4797 0.0930829 17.6333C0.155934 17.787 0.24875 17.9265 0.366116 18.0439C0.483482 18.1612 0.623047 18.2541 0.776668 18.3169C0.930288 18.3798 1.09489 18.4114 1.26086 18.41C1.42684 18.4085 1.59086 18.374 1.74337 18.3085C1.89587 18.243 2.0338 18.1478 2.14911 18.0284L9.22036 10.9571Z" fill="#5D5D5D"/>
</svg>
