<svg width="179" height="55" viewBox="0 0 179 55" fill="none" xmlns="http://www.w3.org/2000/svg">
<path d="M58.7608 41.874L53.7208 25.074H57.8728L60.3928 33.906C60.5048 34.306 60.6008 34.714 60.6808 35.13C60.7768 35.53 60.8488 35.914 60.8968 36.282C60.9608 36.65 61.0088 36.994 61.0408 37.314C61.0728 37.618 61.1048 37.874 61.1368 38.082H60.6088C60.7048 37.49 60.7848 36.962 60.8488 36.498C60.9288 36.034 61.0168 35.602 61.1128 35.202C61.2088 34.786 61.3288 34.354 61.4728 33.906L63.9688 27.258H67.2328L69.6808 33.906C69.8728 34.434 70.0328 34.93 70.1608 35.394C70.2888 35.858 70.3848 36.306 70.4488 36.738C70.5288 37.154 70.5928 37.57 70.6408 37.986L70.1608 38.058C70.1928 37.77 70.2168 37.506 70.2328 37.266C70.2488 37.01 70.2648 36.77 70.2808 36.546C70.3128 36.306 70.3448 36.058 70.3768 35.802C70.4088 35.546 70.4568 35.266 70.5208 34.962C70.5848 34.642 70.6728 34.282 70.7848 33.882L73.2808 25.074H77.3368L72.2968 41.874H69.1768L65.1928 32.202L65.6488 32.25L61.9768 41.874H58.7608ZM79.3807 41.874V29.13H83.2207V41.874H79.3807ZM81.3007 26.61C80.5807 26.61 80.0127 26.442 79.5967 26.106C79.1967 25.754 78.9967 25.258 78.9967 24.618C78.9967 24.042 79.2047 23.57 79.6207 23.202C80.0367 22.834 80.5967 22.65 81.3007 22.65C82.0207 22.65 82.5807 22.826 82.9807 23.178C83.3807 23.514 83.5807 23.994 83.5807 24.618C83.5807 25.21 83.3727 25.69 82.9567 26.058C82.5567 26.426 82.0047 26.61 81.3007 26.61ZM91.6528 42.138C90.5488 42.138 89.5648 41.858 88.7008 41.298C87.8528 40.722 87.1808 39.938 86.6848 38.946C86.1888 37.938 85.9408 36.794 85.9408 35.514C85.9408 34.234 86.1888 33.098 86.6848 32.106C87.1808 31.098 87.8608 30.306 88.7248 29.73C89.5888 29.154 90.5808 28.866 91.7008 28.866C92.2768 28.866 92.8288 28.954 93.3568 29.13C93.8848 29.306 94.3648 29.546 94.7968 29.85C95.2288 30.154 95.5808 30.506 95.8528 30.906C96.1248 31.29 96.2848 31.69 96.3328 32.106L95.4208 32.322V24.114H99.2848V41.874H95.7088L95.4928 38.97L96.2608 39.09C96.2128 39.49 96.0528 39.874 95.7808 40.242C95.5248 40.61 95.1888 40.938 94.7728 41.226C94.3568 41.498 93.8768 41.714 93.3328 41.874C92.8048 42.05 92.2448 42.138 91.6528 42.138ZM92.6368 38.946C93.2288 38.946 93.7408 38.802 94.1728 38.514C94.6048 38.226 94.9328 37.826 95.1568 37.314C95.3968 36.802 95.5168 36.202 95.5168 35.514C95.5168 34.81 95.3968 34.202 95.1568 33.69C94.9328 33.178 94.6048 32.778 94.1728 32.49C93.7408 32.202 93.2288 32.058 92.6368 32.058C92.0448 32.058 91.5328 32.202 91.1008 32.49C90.6848 32.778 90.3568 33.178 90.1168 33.69C89.8768 34.202 89.7568 34.81 89.7568 35.514C89.7568 36.202 89.8768 36.802 90.1168 37.314C90.3568 37.826 90.6848 38.226 91.1008 38.514C91.5328 38.802 92.0448 38.946 92.6368 38.946ZM102.748 41.874V29.13H106.588V41.874H102.748ZM104.668 26.61C103.948 26.61 103.38 26.442 102.964 26.106C102.564 25.754 102.364 25.258 102.364 24.618C102.364 24.042 102.572 23.57 102.988 23.202C103.404 22.834 103.964 22.65 104.668 22.65C105.388 22.65 105.948 22.826 106.348 23.178C106.748 23.514 106.948 23.994 106.948 24.618C106.948 25.21 106.74 25.69 106.324 26.058C105.924 26.426 105.372 26.61 104.668 26.61ZM113.525 41.874V28.674H108.533V25.074H122.717V28.674H117.605V41.874H113.525ZM127.149 42.138C126.205 42.138 125.397 41.938 124.725 41.538C124.069 41.122 123.557 40.53 123.189 39.762C122.837 38.994 122.661 38.074 122.661 37.002V29.13H126.525V36.474C126.525 36.986 126.605 37.426 126.765 37.794C126.925 38.162 127.165 38.45 127.485 38.658C127.805 38.85 128.189 38.946 128.637 38.946C128.973 38.946 129.277 38.89 129.549 38.778C129.837 38.666 130.077 38.514 130.269 38.322C130.477 38.114 130.637 37.882 130.749 37.626C130.861 37.354 130.917 37.058 130.917 36.738V29.13H134.781V41.874H131.157L130.989 39.258L131.709 38.97C131.517 39.578 131.197 40.122 130.749 40.602C130.301 41.066 129.765 41.442 129.141 41.73C128.517 42.002 127.853 42.138 127.149 42.138ZM139.26 41.874V25.914H143.1V41.874H139.26ZM137.004 32.49V29.13H145.572V32.49H137.004ZM153.649 42.114C152.321 42.114 151.137 41.826 150.097 41.25C149.073 40.674 148.257 39.89 147.649 38.898C147.057 37.906 146.761 36.77 146.761 35.49C146.761 34.21 147.057 33.074 147.649 32.082C148.257 31.09 149.073 30.306 150.097 29.73C151.137 29.154 152.321 28.866 153.649 28.866C154.977 28.866 156.153 29.154 157.177 29.73C158.217 30.306 159.033 31.09 159.625 32.082C160.217 33.074 160.513 34.21 160.513 35.49C160.513 36.77 160.217 37.906 159.625 38.898C159.033 39.89 158.217 40.674 157.177 41.25C156.153 41.826 154.977 42.114 153.649 42.114ZM153.649 38.802C154.225 38.802 154.737 38.658 155.185 38.37C155.633 38.082 155.985 37.69 156.241 37.194C156.497 36.698 156.617 36.13 156.601 35.49C156.617 34.85 156.497 34.282 156.241 33.786C155.985 33.274 155.633 32.874 155.185 32.586C154.737 32.298 154.225 32.154 153.649 32.154C153.073 32.154 152.553 32.298 152.089 32.586C151.641 32.874 151.289 33.274 151.033 33.786C150.777 34.282 150.657 34.85 150.673 35.49C150.657 36.13 150.777 36.698 151.033 37.194C151.289 37.69 151.641 38.082 152.089 38.37C152.553 38.658 153.073 38.802 153.649 38.802ZM163.024 41.874V29.13H166.672L166.84 33.282L166.12 32.49C166.312 31.802 166.624 31.186 167.056 30.642C167.504 30.098 168.024 29.666 168.616 29.346C169.208 29.026 169.84 28.866 170.512 28.866C170.8 28.866 171.064 28.89 171.304 28.938C171.56 28.986 171.792 29.042 172 29.106L170.944 33.354C170.768 33.242 170.528 33.154 170.224 33.09C169.936 33.01 169.632 32.97 169.312 32.97C168.96 32.97 168.632 33.034 168.328 33.162C168.024 33.274 167.768 33.442 167.56 33.666C167.352 33.89 167.184 34.154 167.056 34.458C166.944 34.762 166.888 35.106 166.888 35.49V41.874H163.024Z" fill="#F2F2F2"/>
<path d="M3.90942 3.79405L5.69498 3.79463L8.58065 7.79233L12.5756 10.9583L6.80424 14.334L5.69497 9.48019L3.49814 5.12605L3.90942 3.79405Z" fill="url(#paint0_linear_46_569)"/>
<path d="M46.6376 3.90075L47.2813 5.43995L44.2881 9.36955L42.5345 13.9551L37.0455 10.1988L41.5435 7.49137L45.145 4.02688L46.6376 3.90075Z" fill="url(#paint1_linear_46_569)"/>
<ellipse cx="24.6974" cy="28.712" rx="24.6974" ry="22.0635" fill="url(#paint2_linear_46_569)"/>
<g filter="url(#filter0_d_46_569)">
<path d="M9.05469 26.3706C9.05469 22.6656 12.0582 19.6621 15.7632 19.6621H32.8467C36.9841 19.6621 40.3381 23.0161 40.3381 27.1535C40.3381 30.6264 37.9512 33.6439 34.5717 34.4436L24.713 36.7764C24.702 36.779 24.6906 36.7804 24.6793 36.7804C24.5836 36.7804 24.5135 36.6902 24.5371 36.5975L25.2988 33.601C25.3087 33.5621 25.3277 33.5261 25.3544 33.4962C25.4981 33.3346 25.3834 33.0791 25.1672 33.0791H14.2188C11.3667 33.0791 9.05469 30.7671 9.05469 27.915V26.3706Z" fill="#FEFBFB"/>
</g>
<ellipse cx="32.7244" cy="27.2693" rx="2.67555" ry="2.66284" fill="#2F2E41"/>
<ellipse cx="15.4343" cy="27.2693" rx="2.67555" ry="2.66284" fill="#2F2E41"/>
<g clip-path="url(#clip0_46_569)">
<path d="M36.5072 40.3621C36.3657 39.8393 36.0897 39.3627 35.7068 38.9797C35.3238 38.5967 34.8472 38.3207 34.3244 38.1792C32.4104 37.6572 24.7072 37.6572 24.7072 37.6572C24.7072 37.6572 17.0036 37.673 15.0896 38.195C14.5668 38.3365 14.0901 38.6125 13.7072 38.9955C13.3242 39.3785 13.0482 39.8552 12.9068 40.378C12.3278 43.7788 12.1033 48.9607 12.9227 52.2254C13.0641 52.7483 13.3401 53.2249 13.7231 53.6079C14.106 53.9908 14.5827 54.2668 15.1055 54.4083C17.0195 54.9303 24.7229 54.9303 24.7229 54.9303C24.7229 54.9303 32.4262 54.9303 34.3401 54.4083C34.8629 54.2668 35.3395 53.9909 35.7225 53.6079C36.1055 53.2249 36.3815 52.7483 36.523 52.2254C37.1336 48.8199 37.3218 43.6411 36.5072 40.3621Z" fill="#FF0000"/>
<path d="M22.2554 49.9955L28.6458 46.2941L22.2554 42.5928V49.9955Z" fill="white"/>
</g>
<rect width="4.03132" height="8.4718" rx="2.01566" transform="matrix(0.703748 0.71045 -0.686151 0.727459 39.7224 39.7666)" fill="#FEFBFB"/>
<rect width="4.01116" height="8.51388" rx="2.00558" transform="matrix(-0.80221 0.597042 -0.570905 -0.821016 15.0139 47.6143)" fill="#FEFBFB"/>
<defs>
<filter id="filter0_d_46_569" x="3.55469" y="15.1621" width="42.2834" height="28.1182" filterUnits="userSpaceOnUse" color-interpolation-filters="sRGB">
<feFlood flood-opacity="0" result="BackgroundImageFix"/>
<feColorMatrix in="SourceAlpha" type="matrix" values="0 0 0 0 0 0 0 0 0 0 0 0 0 0 0 0 0 0 127 0" result="hardAlpha"/>
<feOffset dy="1"/>
<feGaussianBlur stdDeviation="2.75"/>
<feComposite in2="hardAlpha" operator="out"/>
<feColorMatrix type="matrix" values="0 0 0 0 0 0 0 0 0 0 0 0 0 0 0 0 0 0 0.25 0"/>
<feBlend mode="normal" in2="BackgroundImageFix" result="effect1_dropShadow_46_569"/>
<feBlend mode="normal" in="SourceGraphic" in2="effect1_dropShadow_46_569" result="shape"/>
</filter>
<linearGradient id="paint0_linear_46_569" x1="-1.00308" y1="2.93392" x2="9.62117" y2="8.97431" gradientUnits="userSpaceOnUse">
<stop stop-color="#A4B737"/>
<stop offset="1" stop-color="#00BB05"/>
</linearGradient>
<linearGradient id="paint1_linear_46_569" x1="45.7331" y1="-0.643707" x2="44.5149" y2="10.804" gradientUnits="userSpaceOnUse">
<stop stop-color="#A4B737"/>
<stop offset="1" stop-color="#00BB05"/>
</linearGradient>
<linearGradient id="paint2_linear_46_569" x1="1.77418e-06" y1="-6.81891" x2="16.2107" y2="44.7515" gradientUnits="userSpaceOnUse">
<stop stop-color="#A4B737"/>
<stop offset="1" stop-color="#00BB05"/>
</linearGradient>
<clipPath id="clip0_46_569">
<rect width="24.6644" height="17.342" fill="white" transform="translate(12.3875 37.6572)"/>
</clipPath>
</defs>
</svg>
