<svg width="50" height="50" viewBox="0 0 50 50" fill="none" xmlns="http://www.w3.org/2000/svg">
<circle cx="24.6328" cy="24.6328" r="19.4634" transform="rotate(18.497 24.6328 24.6328)" fill="#272727"/>
<g clip-path="url(#clip0_23_24)">
<path d="M15.9384 22.4741C16.8516 19.7445 17.3083 18.3793 18.4402 17.8155C19.5721 17.2517 20.9368 17.7074 23.6664 18.6206L26.5617 19.5892C29.2913 20.5023 30.6565 20.959 31.2203 22.0909C31.7841 23.2228 31.3284 24.5875 30.4152 27.3171C29.5021 30.0467 29.0454 31.4119 27.9135 31.9757C26.7816 32.5395 25.4169 32.0838 22.6873 31.1706L19.792 30.202C17.0623 29.2889 15.6972 28.8322 15.1334 27.7003C14.5696 26.5684 15.0253 25.2037 15.9384 22.4741Z" stroke="#F2F2F2" stroke-width="1.5"/>
<path d="M20.7605 27.3067L17.8652 26.3381M23.6559 28.2753L22.5701 27.9121M16.4227 21.0264L30.8995 25.8694" stroke="#F2F2F2" stroke-width="1.5" stroke-linecap="round"/>
</g>
<defs>
<clipPath id="clip0_23_24">
<rect width="18.3185" height="18.3185" fill="white" transform="translate(17.3966 13.3037) rotate(18.497)"/>
</clipPath>
</defs>
</svg>
