<svg width="32" height="32" viewBox="0 0 32 32" fill="none" xmlns="http://www.w3.org/2000/svg">
<path d="M15.8335 22.1667C17.5132 22.1667 19.1241 21.4994 20.3118 20.3117C21.4996 19.1239 22.1668 17.513 22.1668 15.8333C22.1668 14.1536 21.4996 12.5427 20.3118 11.355C19.1241 10.1673 17.5132 9.5 15.8335 9.5V22.1667Z" fill="#272727"/>
<path fill-rule="evenodd" clip-rule="evenodd" d="M15.8333 0C7.08859 0 0 7.08859 0 15.8333C0 24.5781 7.08859 31.6667 15.8333 31.6667C24.5781 31.6667 31.6667 24.5781 31.6667 15.8333C31.6667 7.08859 24.5781 0 15.8333 0ZM15.8333 3.16667V9.5C14.1536 9.5 12.5427 10.1673 11.355 11.355C10.1673 12.5427 9.5 14.1536 9.5 15.8333C9.5 17.513 10.1673 19.1239 11.355 20.3117C12.5427 21.4994 14.1536 22.1667 15.8333 22.1667V28.5C19.1927 28.5 22.4146 27.1655 24.79 24.79C27.1655 22.4146 28.5 19.1927 28.5 15.8333C28.5 12.4739 27.1655 9.25211 24.79 6.87665C22.4146 4.50119 19.1927 3.16667 15.8333 3.16667Z" fill="#272727"/>
</svg>
