<svg width="19" height="19" viewBox="0 0 19 19" fill="none" xmlns="http://www.w3.org/2000/svg">
<path fill-rule="evenodd" clip-rule="evenodd" d="M16.2529 9.08033C16.3641 9.19166 16.4265 9.34257 16.4265 9.49992C16.4265 9.65726 16.3641 9.80817 16.2529 9.9195L11.5029 14.6695C11.4485 14.7278 11.383 14.7746 11.3101 14.8071C11.2373 14.8395 11.1587 14.857 11.0789 14.8584C10.9992 14.8598 10.92 14.8451 10.8461 14.8153C10.7722 14.7854 10.705 14.741 10.6486 14.6846C10.5922 14.6282 10.5478 14.561 10.5179 14.4871C10.4881 14.4132 10.4734 14.334 10.4748 14.2543C10.4762 14.1745 10.4937 14.0959 10.5261 14.0231C10.5586 13.9502 10.6054 13.8847 10.6637 13.8303L14.4004 10.0937H3.16662C3.00915 10.0937 2.85812 10.0311 2.74677 9.91976C2.63542 9.80841 2.57287 9.65739 2.57287 9.49992C2.57287 9.34245 2.63542 9.19142 2.74677 9.08007C2.85812 8.96872 3.00915 8.90617 3.16662 8.90617H14.4004L10.6637 5.1695C10.6054 5.11514 10.5586 5.04959 10.5261 4.97676C10.4937 4.90393 10.4762 4.8253 10.4748 4.74558C10.4734 4.66586 10.4881 4.58667 10.5179 4.51274C10.5478 4.4388 10.5922 4.37164 10.6486 4.31526C10.705 4.25888 10.7722 4.21443 10.8461 4.18457C10.92 4.15471 10.9992 4.14004 11.0789 4.14145C11.1587 4.14286 11.2373 4.16031 11.3101 4.19276C11.383 4.22521 11.4485 4.272 11.5029 4.33033L16.2529 9.08033Z" fill="black"/>
</svg>
