<?xml version="1.0" encoding="UTF-8"?>
<svg version="1.1" xmlns="http://www.w3.org/2000/svg" width="1200" height="1200">
<path d="M0 0 C9.26829268 1.15853659 9.26829268 1.15853659 13 5 C15.0032698 8.21396052 15.23704924 10.66556838 15.1953125 14.421875 C15.18564453 15.95908203 15.18564453 15.95908203 15.17578125 17.52734375 C15.15902344 18.59082031 15.14226562 19.65429688 15.125 20.75 C15.11597656 21.82894531 15.10695313 22.90789063 15.09765625 24.01953125 C15.07411305 26.67991278 15.04122799 29.33984336 15 32 C15.61085953 31.99333817 16.22171906 31.98667633 16.85108948 31.97981262 C23.22660035 31.91328343 29.60201209 31.86812644 35.9777832 31.83520508 C38.35510262 31.82014748 40.73239439 31.79969711 43.10961914 31.77368164 C46.53278439 31.73716597 49.95558132 31.72024291 53.37890625 31.70703125 C54.43646622 31.69154739 55.49402618 31.67606354 56.58363342 31.66011047 C64.21991911 31.65838102 68.82111653 32.8184133 75.1875 37.1875 C81.81583436 43.81583436 82.52209834 50.03480032 82.58143616 59.06884766 C82.57759439 60.50423537 82.57255517 61.93962031 82.56640625 63.375 C82.57165014 64.86898178 82.57792941 66.36296025 82.58518982 67.85693359 C82.59555741 70.97704734 82.59108497 74.09670396 82.57641602 77.21679688 C82.55922183 81.1981154 82.58274833 85.17799144 82.61790562 89.15914917 C82.63995479 92.2408997 82.63842039 95.3223089 82.6301403 98.40411377 C82.6293251 99.87121159 82.63610553 101.33833555 82.65091133 102.80535889 C82.72975836 112.02937756 82.1948974 118.70722531 75.52198792 125.50585938 C70.45859573 130.06075489 66.06470383 131.25263749 59.3737793 131.22705078 C58.3915689 131.22741239 58.3915689 131.22741239 57.38951588 131.2277813 C55.2842753 131.22629665 53.17939541 131.21110349 51.07421875 131.1953125 C49.78181274 131.19329834 48.48940674 131.19128418 47.15783691 131.18920898 C42.33435512 131.17875234 37.51092396 131.15082977 32.6875 131.125 C21.900625 131.08375 11.11375 131.0425 0 131 C0 87.77 0 44.54 0 0 Z M16 50 C14.65895798 52.68208404 14.85062409 54.77581264 14.82299805 57.77905273 C14.81016281 58.99048447 14.79732758 60.2019162 14.78410339 61.45005798 C14.77671646 62.76462479 14.76932953 64.07919159 14.76171875 65.43359375 C14.75764322 66.10100145 14.7535677 66.76840916 14.74936867 67.45604134 C14.7285155 70.98672298 14.71420906 74.51736581 14.70483398 78.0480957 C14.69375456 81.69800223 14.65933613 85.34730158 14.61966228 88.99699306 C14.59354714 91.80138805 14.58514691 94.605637 14.58155251 97.4101429 C14.5743024 99.41051524 14.54784483 101.41078795 14.52116394 103.41099548 C14.52408951 104.62557938 14.52701508 105.84016327 14.5300293 107.09155273 C14.52416306 108.16251694 14.51829681 109.23348114 14.51225281 110.3368988 C14.76571412 113.08980901 14.76571412 113.08980901 16.75152588 114.84501648 C19.21534086 116.11061508 20.69262766 116.37958018 23.44555664 116.38818359 C24.75194847 116.40236832 24.75194847 116.40236832 26.08473206 116.4168396 C27.01712204 116.41076691 27.94951202 116.40469421 28.91015625 116.3984375 C29.87400742 116.40130768 30.83785858 116.40417786 31.83091736 116.40713501 C33.86588123 116.40917433 35.90086476 116.40365371 37.93579102 116.39111328 C41.05464338 116.37504049 44.17220325 116.39097566 47.29101562 116.41015625 C49.26823203 116.40817414 51.24544763 116.40433113 53.22265625 116.3984375 C54.62427757 116.40754654 54.62427757 116.40754654 56.05421448 116.4168396 C57.35587807 116.40265488 57.35587807 116.40265488 58.68383789 116.38818359 C59.44676651 116.38579681 60.20969513 116.38341003 60.9957428 116.38095093 C63.53538485 115.89823893 64.39637323 114.98569505 66 113 C67.31496478 110.37007045 67.14881451 108.38154283 67.17700195 105.4362793 C67.18983719 104.27134445 67.20267242 103.10640961 67.21589661 101.90617371 C67.22328354 100.64162857 67.23067047 99.37708344 67.23828125 98.07421875 C67.246353 96.77934036 67.25442474 95.48446198 67.26274109 94.15034485 C67.27776822 91.40565115 67.2876059 88.66098333 67.29516602 85.91625977 C67.30622323 82.40554232 67.34061448 78.89545999 67.38033772 75.38496685 C67.41281689 72.03140963 67.41728395 68.67792111 67.42578125 65.32421875 C67.44328934 64.06574631 67.46079742 62.80727386 67.47883606 61.51066589 C67.47591049 60.33627457 67.47298492 59.16188324 67.4699707 57.9519043 C67.47583694 56.9209111 67.48170319 55.88991791 67.48774719 54.8276825 C66.86163342 51.19782879 65.63718611 49.54099135 63 47 C60.86845885 46.26956727 60.86845885 46.26956727 58.55444336 46.38476562 C57.68351547 46.37546021 56.81258759 46.36615479 55.91526794 46.35656738 C54.51668297 46.38116028 54.51668297 46.38116028 53.08984375 46.40625 C52.12599258 46.40620972 51.16214142 46.40616943 50.16908264 46.40612793 C48.13405833 46.41148388 46.09903459 46.42906979 44.06420898 46.45800781 C40.94516 46.49989713 37.82826743 46.49907388 34.70898438 46.4921875 C32.73175579 46.50267874 30.75453836 46.51561649 28.77734375 46.53125 C27.84292953 46.53145142 26.90851532 46.53165283 25.94578552 46.53186035 C25.0780098 46.54777222 24.21023407 46.56368408 23.31616211 46.58007812 C22.55323349 46.58849731 21.79030487 46.5969165 21.0042572 46.60559082 C18.47203282 47.1038964 17.60264328 48.01798194 16 50 Z " fill="#404C56" transform="translate(369,555)"/>
<path d="M0 0 C0.99485916 -0.0127597 1.98971832 -0.02551941 3.01472473 -0.03866577 C4.07938461 -0.04089142 5.14404449 -0.04311707 6.2409668 -0.04541016 C7.89989204 -0.05539536 7.89989204 -0.05539536 9.59233093 -0.06558228 C11.92986389 -0.07569634 14.26742565 -0.08039968 16.60498047 -0.08007812 C20.16707392 -0.08444433 23.7279211 -0.12075983 27.28979492 -0.15869141 C29.56518133 -0.1645613 31.8405736 -0.16852954 34.1159668 -0.17041016 C35.17455399 -0.18478119 36.23314117 -0.19915222 37.32380676 -0.21395874 C44.9289584 -0.16736336 50.41787431 1.19865487 56.1550293 6.32568359 C56.70288086 6.99470703 57.25073242 7.66373047 57.81518555 8.35302734 C58.38108398 9.02462891 58.94698242 9.69623047 59.5300293 10.38818359 C63.2311322 15.612639 62.10216351 22.48730824 62.12768555 28.60302734 C62.14831055 29.82699219 62.16893555 31.05095703 62.19018555 32.31201172 C62.19791992 34.08995117 62.19791992 34.08995117 62.20581055 35.90380859 C62.21515625 36.9844458 62.22450195 38.06508301 62.23413086 39.1784668 C61.60253014 44.69286018 59.176132 48.50040545 55.00268555 52.04052734 C54.34526367 52.61287109 53.6878418 53.18521484 53.01049805 53.77490234 C48.95771761 56.65490016 45.37721104 57.54112174 40.44482422 57.51757812 C38.85374092 57.51735153 38.85374092 57.51735153 37.23051453 57.51712036 C35.53025871 57.50163651 35.53025871 57.50163651 33.7956543 57.48583984 C32.62633865 57.48300995 31.45702301 57.48018005 30.25227356 57.4772644 C26.52313947 57.46608297 22.79424687 57.44098169 19.06518555 57.41552734 C16.53459006 57.40549493 14.0039908 57.39636954 11.47338867 57.38818359 C5.27473878 57.36615026 -0.92377058 57.33269268 -7.12231445 57.29052734 C-6.87430644 61.25064092 -6.5950665 65.20793597 -6.30981445 69.16552734 C-6.23956055 70.29345703 -6.16930664 71.42138672 -6.09692383 72.58349609 C-6.01635742 73.65986328 -5.93579102 74.73623047 -5.8527832 75.84521484 C-5.78470459 76.84020996 -5.71662598 77.83520508 -5.64648438 78.86035156 C-5.34036823 81.64810708 -5.34036823 81.64810708 -2.12231445 83.29052734 C0.76885591 83.6201819 0.76885591 83.6201819 4.09326172 83.609375 C5.37436325 83.62924469 6.65546478 83.64911438 7.97538757 83.66958618 C9.37380806 83.68146261 10.77223037 83.69312547 12.1706543 83.70458984 C13.6012738 83.72329996 15.03188226 83.74287326 16.46247864 83.76327515 C20.22546881 83.81461917 23.98849478 83.85423256 27.75164795 83.89141846 C31.59257883 83.93144399 35.43336055 83.98254292 39.27416992 84.03271484 C46.80857282 84.12950095 54.34304784 84.21389695 61.87768555 84.29052734 C60.94081432 93.45312795 60.94081432 93.45312795 56.87768555 97.29052734 C53.18890065 99.09366122 50.19755871 99.54976172 46.11279297 99.58105469 C44.97778854 99.59381439 43.84278412 99.6065741 42.67338562 99.61972046 C40.84672112 99.62305893 40.84672112 99.62305893 38.9831543 99.62646484 C37.09117058 99.63645004 37.09117058 99.63645004 35.16096497 99.64663696 C32.49372228 99.65675682 29.82688729 99.66232023 27.15966797 99.66113281 C23.76025233 99.66092995 20.3616758 99.68820614 16.96245861 99.72267723 C13.69855626 99.7504135 10.43465839 99.74909869 7.1706543 99.75146484 C5.35309883 99.77302139 5.35309883 99.77302139 3.49882507 99.79501343 C-4.62096123 99.75135693 -10.0907073 98.76891225 -16.3996582 93.32568359 C-16.94750977 92.67470703 -17.49536133 92.02373047 -18.05981445 91.35302734 C-18.62571289 90.70462891 -19.19161133 90.05623047 -19.7746582 89.38818359 C-22.44115061 85.23773019 -22.26076474 80.60370852 -22.31518555 75.79125977 C-22.33124847 74.49608932 -22.3473114 73.20091888 -22.36386108 71.86650085 C-22.37534903 70.45967268 -22.38595749 69.05283708 -22.39575195 67.64599609 C-22.40107563 66.93241755 -22.40639931 66.218839 -22.41188431 65.48363686 C-22.43854036 61.70728254 -22.45794008 57.93096044 -22.47241211 54.15454102 C-22.48574894 51.04193725 -22.51360621 47.92998943 -22.55444336 44.81762695 C-22.60393247 41.04461177 -22.62855189 37.27219095 -22.63563919 33.49886513 C-22.64232165 32.06800139 -22.657465 30.63714936 -22.68153 29.2064724 C-22.83766569 19.36372686 -21.90834436 13.54299237 -15.27856445 6.26708984 C-14.73200195 5.82107422 -14.18543945 5.37505859 -13.62231445 4.91552734 C-13.07575195 4.45404297 -12.52918945 3.99255859 -11.96606445 3.51708984 C-8.11900654 0.95781827 -4.58621806 0.04015205 0 0 Z M-4.69067383 17.20092773 C-10.42553938 25.57144517 -7.12231445 26.58727634 -7.12231445 42.29052734 C10.69768555 42.29052734 28.51768555 42.29052734 46.87768555 42.29052734 C49.16823405 22.08652561 49.16823405 22.08652561 42.87768555 15.29052734 C40.71296113 14.55312241 40.71296113 14.55312241 38.35620117 14.65942383 C37.02461975 14.64062416 37.02461975 14.64062416 35.6661377 14.6214447 C34.23944763 14.64133202 34.23944763 14.64133202 32.78393555 14.66162109 C31.80026001 14.65920914 30.81658447 14.65679718 29.80310059 14.65431213 C27.72521937 14.65529079 25.64731215 14.66868873 23.56958008 14.69360352 C20.38882894 14.72790716 17.21085633 14.71426452 14.0300293 14.69482422 C12.01048622 14.70172277 9.99095031 14.71139523 7.97143555 14.72412109 C7.02030884 14.71916122 6.06918213 14.71420135 5.0892334 14.70909119 C-0.17391753 14.74430847 -0.17391753 14.74430847 -4.69067383 17.20092773 Z " fill="#3D4A53" transform="translate(694.122314453125,586.70947265625)"/>
<path d="M0 0 C0.99485916 -0.0127597 1.98971832 -0.02551941 3.01472473 -0.03866577 C4.07938461 -0.04089142 5.14404449 -0.04311707 6.2409668 -0.04541016 C7.89989204 -0.05539536 7.89989204 -0.05539536 9.59233093 -0.06558228 C11.92986389 -0.07569634 14.26742565 -0.08039968 16.60498047 -0.08007812 C20.16707392 -0.08444433 23.7279211 -0.12075983 27.28979492 -0.15869141 C29.56518133 -0.1645613 31.8405736 -0.16852954 34.1159668 -0.17041016 C35.17455399 -0.18478119 36.23314117 -0.19915222 37.32380676 -0.21395874 C44.77110355 -0.16833051 50.14448932 1.00416156 55.90112305 6.07177734 C56.34713867 6.63896484 56.7931543 7.20615234 57.25268555 7.79052734 C57.94491211 8.64130859 57.94491211 8.64130859 58.65112305 9.50927734 C61.58212554 13.76576503 62.13228653 16.76470615 62.15234375 21.98339844 C62.15745468 22.64734116 62.16256561 23.31128387 62.16783142 23.99534607 C62.18170395 26.18497799 62.18077225 28.37429426 62.1784668 30.56396484 C62.18235548 32.09087236 62.1866905 33.6177788 62.19145203 35.14468384 C62.19890953 38.34405016 62.19862673 41.54330613 62.19335938 44.74267578 C62.18757018 48.8338064 62.20448435 52.92448349 62.22770405 57.01553917 C62.24246915 60.16920595 62.24330925 63.32276427 62.24019432 66.4764595 C62.2407063 67.98427859 62.24592084 69.49210393 62.25600624 70.99988937 C62.26840556 73.11317747 62.26155875 75.22559206 62.25 77.33886719 C62.25062943 78.53925629 62.25125885 79.73964539 62.25190735 80.97640991 C61.42345492 88.31320489 57.23090743 92.44536939 51.81518555 97.04052734 C48.32919831 99.28955137 44.92970636 99.41988488 40.85302734 99.45166016 C39.35578377 99.46607147 39.35578377 99.46607147 37.82829285 99.48077393 C36.21885551 99.48714874 36.21885551 99.48714874 34.5769043 99.49365234 C33.46716751 99.49935242 32.35743073 99.50505249 31.21406555 99.51092529 C28.86635286 99.52036806 26.51862695 99.5269064 24.17089844 99.53076172 C20.58920023 99.5404623 17.00807713 99.57149125 13.42651367 99.60302734 C11.14331395 99.60955824 8.86011013 99.61480837 6.5769043 99.61865234 C4.976576 99.63717255 4.976576 99.63717255 3.34391785 99.65606689 C-4.08390328 99.63394382 -9.1437064 98.93065721 -14.87231445 93.85302734 C-20.20703499 87.7773734 -21.22892415 83.92331145 -21.29931641 75.79125977 C-21.31215164 74.49608932 -21.32498688 73.20091888 -21.33821106 71.86650085 C-21.3463794 70.45966986 -21.35382295 69.0528345 -21.3605957 67.64599609 C-21.36467123 66.93241755 -21.36874676 66.218839 -21.37294579 65.48363686 C-21.39375223 61.70727458 -21.40807787 57.93094808 -21.41748047 54.15454102 C-21.42854024 50.27093922 -21.46295002 46.38791107 -21.50265217 42.50451183 C-21.52889238 39.50261934 -21.53717875 36.5008622 -21.54076195 33.49886513 C-21.54560796 32.06802809 -21.55716493 30.63719629 -21.57579994 29.2064724 C-21.68683596 20.11758408 -21.52074301 13.38758773 -15.3762207 6.26708984 C-14.81805664 5.82107422 -14.25989258 5.37505859 -13.68481445 4.91552734 C-13.12922852 4.45404297 -12.57364258 3.99255859 -12.0012207 3.51708984 C-8.12210732 0.98477882 -4.60428672 0.04031024 0 0 Z M-4.20629883 16.98999023 C-7.30925079 22.3351492 -6.81436903 27.69482868 -6.7512207 33.76318359 C-6.75363266 35.07838486 -6.75604462 36.39358612 -6.75852966 37.74864197 C-6.76138244 40.52699832 -6.74673784 43.30454617 -6.71923828 46.08276367 C-6.68512092 49.63962555 -6.69118846 53.19504562 -6.70990086 56.75197697 C-6.72302234 60.15168886 -6.70475525 63.55098177 -6.6887207 66.95068359 C-6.69368057 68.22677994 -6.69864044 69.50287628 -6.70375061 70.81764221 C-6.68791428 72.00244675 -6.67207794 73.18725128 -6.65576172 74.40795898 C-6.64956314 75.44988907 -6.64336456 76.49181915 -6.63697815 77.56532288 C-5.98299261 81.02825278 -4.93505991 82.21095113 -2.12231445 84.29052734 C0.06039094 84.88050833 0.06039094 84.88050833 2.41503906 84.79223633 C3.75146202 84.80630775 3.75146202 84.80630775 5.11488342 84.82066345 C6.06914719 84.80942947 7.02341095 84.7981955 8.0065918 84.78662109 C9.48566261 84.78880394 9.48566261 84.78880394 10.99461365 84.79103088 C13.07668008 84.78937247 15.15875884 84.77781773 17.24072266 84.75708008 C20.43208698 84.72810088 23.62179288 84.7364774 26.81323242 84.74951172 C28.83602697 84.74327505 30.85881627 84.73488466 32.8815918 84.72412109 C33.83787979 84.72705673 34.79416779 84.72999237 35.7794342 84.73301697 C36.66723068 84.72033279 37.55502716 84.70764862 38.46972656 84.69458008 C39.25042007 84.68917709 40.03111359 84.68377411 40.83546448 84.6782074 C43.40003813 84.19136782 44.26189414 83.29895922 45.87768555 81.29052734 C47.19265032 78.66059779 47.02650006 76.67207017 47.0546875 73.72680664 C47.06752274 72.5618718 47.08035797 71.39693695 47.09358215 70.19670105 C47.10096909 68.93215591 47.10835602 67.66761078 47.1159668 66.36474609 C47.12403854 65.06986771 47.13211029 63.77498932 47.14042664 62.44087219 C47.15545376 59.69617849 47.16529145 56.95151067 47.17285156 54.20678711 C47.18390878 50.69606966 47.21830003 47.18598733 47.25802326 43.67549419 C47.29050244 40.32193698 47.29496949 36.96844846 47.3034668 33.61474609 C47.32097488 32.35627365 47.33848297 31.09780121 47.35652161 29.80119324 C47.35359604 28.62680191 47.35067047 27.45241058 47.34765625 26.24243164 C47.35352249 25.21143845 47.35938873 24.18044525 47.36543274 23.11820984 C46.73948464 19.4893166 45.51167531 17.83300571 42.87768555 15.29052734 C40.76182413 14.54764816 40.76182413 14.54764816 38.46386719 14.64355469 C37.59939468 14.62779388 36.73492218 14.61203308 35.84425354 14.59579468 C34.45507973 14.61097641 34.45507973 14.61097641 33.0378418 14.62646484 C32.07873398 14.62168121 31.11962616 14.61689758 30.13145447 14.61196899 C28.10487222 14.6085695 26.07823517 14.61777538 24.05175781 14.63867188 C20.95407337 14.66540748 17.86002203 14.63894092 14.76245117 14.60693359 C12.79174006 14.61023826 10.82103121 14.61664566 8.8503418 14.62646484 C7.92625015 14.61634369 7.00215851 14.60622253 6.05006409 14.59579468 C1.95822064 14.67012491 -0.58115522 14.99231571 -4.20629883 16.98999023 Z " fill="#3D4A53" transform="translate(290.122314453125,586.70947265625)"/>
<path d="M0 0 C9 1 9 1 12 3.4375 C14.86724991 7.11116395 15.12186776 8.84512633 15.09765625 13.4453125 C15.09443359 14.52167969 15.09121094 15.59804688 15.08789062 16.70703125 C15.07951172 17.83496094 15.07113281 18.96289062 15.0625 20.125 C15.05798828 21.26066406 15.05347656 22.39632812 15.04882812 23.56640625 C15.03701615 26.37765638 15.02054507 29.1888023 15 32 C15.64622314 31.99111755 16.29244629 31.98223511 16.95825195 31.9730835 C23.70694094 31.88433175 30.45546309 31.82415022 37.20458984 31.78027344 C39.72060891 31.76020484 42.23658161 31.7329437 44.75244141 31.69824219 C48.37674428 31.64951688 52.00042841 31.62698278 55.625 31.609375 C56.74302002 31.58872986 57.86104004 31.56808472 59.01293945 31.54681396 C66.23392589 31.54475678 72.07441659 32.34676341 77.51757812 37.41229248 C82.48912334 42.99835109 83.2950408 48.02163032 83.22705078 55.27856445 C83.22734283 56.09859451 83.22763489 56.91862457 83.22793579 57.76350403 C83.22654675 60.46353885 83.21100567 63.16329486 83.1953125 65.86328125 C83.19158085 67.7394343 83.1887346 69.6155893 83.18673706 71.491745 C83.17911254 76.42206228 83.15947417 81.35226114 83.1373291 86.28253174 C83.11684524 91.31659341 83.10772991 96.35067427 83.09765625 101.38476562 C83.07622719 111.25656236 83.04210547 121.12827132 83 131 C78.05 131 73.1 131 68 131 C67.67 103.94 67.34 76.88 67 49 C63.86438352 48.21609588 61.69489714 47.86347768 58.55444336 47.82299805 C57.68351547 47.81016281 56.81258759 47.79732758 55.91526794 47.78410339 C54.98287796 47.77671646 54.05048798 47.76932953 53.08984375 47.76171875 C52.12599258 47.753647 51.16214142 47.74557526 50.16908264 47.73725891 C48.13414292 47.72344731 46.09918032 47.71271212 44.06420898 47.70483398 C40.94536157 47.68754358 37.82755351 47.64362293 34.70898438 47.59960938 C32.73177862 47.58948865 30.75456388 47.58097061 28.77734375 47.57421875 C27.84292953 47.55671066 26.90851532 47.53920258 25.94578552 47.52116394 C25.0780098 47.52408951 24.21023407 47.52701508 23.31616211 47.5300293 C22.55323349 47.52416306 21.79030487 47.51829681 21.0042572 47.51225281 C18.87960117 47.8635636 18.87960117 47.8635636 17.25726318 49.54774475 C15.53455062 52.90784548 15.56031371 56.01486988 15.56762695 59.70605469 C15.5574353 60.47717087 15.54724365 61.24828705 15.53674316 62.04277039 C15.50660297 64.58587907 15.49734584 67.12861114 15.48828125 69.671875 C15.47143529 71.43737033 15.45328516 73.20285366 15.43388367 74.96832275 C15.3863684 79.61086274 15.35656895 84.25335406 15.33044434 88.89605713 C15.30064651 93.63522958 15.25411351 98.37423438 15.20898438 103.11328125 C15.12293373 112.40878579 15.05714328 121.70427276 15 131 C10.05 131 5.1 131 0 131 C0 87.77 0 44.54 0 0 Z " fill="#3E4B54" transform="translate(873,555)"/>
<path d="M0 0 C16.5825 -0.12375 16.5825 -0.12375 33.5 -0.25 C36.97724609 -0.28641602 40.45449219 -0.32283203 44.03710938 -0.36035156 C48.31738281 -0.37841797 48.31738281 -0.37841797 50.32775879 -0.3817749 C51.7174595 -0.38787562 53.1071404 -0.40185706 54.4967041 -0.42230225 C63.63341776 -0.54989277 70.78621002 -0.49915854 78.0234375 5.74609375 C78.69246094 6.58333984 78.69246094 6.58333984 79.375 7.4375 C80.06722656 8.27087891 80.06722656 8.27087891 80.7734375 9.12109375 C83.957279 13.99825223 84.28113187 18.48473445 84.22705078 24.18676758 C84.22734283 24.99704407 84.22763489 25.80732056 84.22793579 26.64215088 C84.2265469 29.30972145 84.21100652 31.97700971 84.1953125 34.64453125 C84.1915808 36.49826403 84.18873457 38.35199879 84.18673706 40.20573425 C84.17911295 45.07686846 84.15947494 49.94788278 84.1373291 54.81896973 C84.11684435 59.79270811 84.10772972 64.76646593 84.09765625 69.74023438 C84.07622791 79.49354216 84.0421067 89.2467611 84 99 C79.05 99 74.1 99 69 99 C68.98541748 96.62256592 68.97083496 94.24513184 68.95581055 91.7956543 C68.90551693 83.94846234 68.83893134 76.10146991 68.76428509 68.25447369 C68.71952064 63.49591953 68.68027806 58.7374522 68.65356445 53.97875977 C68.62759188 49.38799704 68.5872328 44.79756734 68.53681374 40.20701027 C68.52010397 38.45393828 68.50861535 36.70080863 68.50238609 34.94766808 C68.49278941 32.49559836 68.4647848 30.04438858 68.43237305 27.5925293 C68.43380814 26.86460678 68.43524323 26.13668427 68.4367218 25.38670349 C68.37117522 21.47616626 68.37117522 21.47616626 66.59797668 18.08796692 C63.83267745 16.20523977 62.08883813 15.86538238 58.78149414 15.82299805 C57.91041519 15.81016281 57.03933624 15.79732758 56.14186096 15.78410339 C55.19914841 15.77671646 54.25643585 15.76932953 53.28515625 15.76171875 C52.31847519 15.753647 51.35179413 15.74557526 50.3558197 15.73725891 C48.30892737 15.72341649 46.26201193 15.71269505 44.21508789 15.70483398 C41.07849769 15.68758796 37.94295239 15.64369952 34.80664062 15.59960938 C32.82032027 15.58948556 30.83399094 15.58096849 28.84765625 15.57421875 C27.43662376 15.54795662 27.43662376 15.54795662 25.99708557 15.52116394 C24.68573891 15.52555229 24.68573891 15.52555229 23.34790039 15.5300293 C22.57893936 15.52416306 21.80997833 15.51829681 21.01771545 15.51225281 C18.88098004 15.86174158 18.88098004 15.86174158 17.25527954 17.54774475 C15.53518452 20.90804172 15.56031527 24.01565668 15.56762695 27.70605469 C15.5574353 28.47717087 15.54724365 29.24828705 15.53674316 30.04277039 C15.50660297 32.58587907 15.49734584 35.12861114 15.48828125 37.671875 C15.47143529 39.43737033 15.45328516 41.20285366 15.43388367 42.96832275 C15.3863684 47.61086274 15.35656895 52.25335406 15.33044434 56.89605713 C15.30064651 61.63522958 15.25411351 66.37423438 15.20898438 71.11328125 C15.12293373 80.40878579 15.05714328 89.70427276 15 99 C10.05 99 5.1 99 0 99 C0 66.33 0 33.66 0 0 Z " fill="#6D9549" transform="translate(498,587)"/>
<path d="M0 0 C1.1446875 -0.00960754 2.289375 -0.01921509 3.46875 -0.02911377 C5.30953125 -0.03548859 5.30953125 -0.03548859 7.1875 -0.04199219 C8.4559375 -0.04769226 9.724375 -0.05339233 11.03125 -0.05926514 C13.71097397 -0.06870253 16.39058628 -0.0756065 19.0703125 -0.07910156 C22.49675529 -0.08459527 25.92280254 -0.10865597 29.34912109 -0.13707352 C32.62855059 -0.16021166 35.90800031 -0.16214918 39.1875 -0.16699219 C41.02828125 -0.18551239 41.02828125 -0.18551239 42.90625 -0.20440674 C44.62328125 -0.19990509 44.62328125 -0.19990509 46.375 -0.1953125 C47.37917969 -0.19895813 48.38335938 -0.20260376 49.41796875 -0.20635986 C52.66799724 0.22489061 54.54086964 1.25933071 57.1875 3.16113281 C58.55078125 5.06347656 58.55078125 5.06347656 59.5 7.09863281 C59.82613281 7.76765625 60.15226563 8.43667969 60.48828125 9.12597656 C61.1875 11.16113281 61.1875 11.16113281 61.1875 15.16113281 C38.86319277 16.18778882 16.52865831 16.67069022 -5.8125 17.16113281 C-7.82930724 20.51844946 -8.06976998 23.09569334 -8.0871582 26.98364258 C-8.09669022 28.15488174 -8.10622223 29.32612091 -8.11604309 30.53285217 C-8.11513168 31.79334885 -8.11422028 33.05384552 -8.11328125 34.35253906 C-8.11756638 35.6493309 -8.1218515 36.94612274 -8.12626648 38.2822113 C-8.13371756 41.02338761 -8.13344477 43.76443507 -8.12817383 46.50561523 C-8.12236904 50.01863199 -8.13933911 53.53112325 -8.1625185 57.04405308 C-8.18078358 60.39690418 -8.1770711 63.74963843 -8.17578125 67.10253906 C-8.184991 68.36505997 -8.19420074 69.62758087 -8.20368958 70.92835999 C-8.19746078 72.09644699 -8.19123199 73.264534 -8.18481445 74.46801758 C-8.18544388 75.49741959 -8.1860733 76.52682159 -8.1867218 77.5874176 C-7.98790063 80.14576626 -7.98790063 80.14576626 -6.68917847 81.9899292 C-3.91883825 83.71885215 -1.66358112 83.56255109 1.58666992 83.59350586 C2.23084366 83.60369751 2.8750174 83.61388916 3.53871155 83.62438965 C5.66521869 83.65455321 7.79127566 83.66379013 9.91796875 83.67285156 C11.39343263 83.68969587 12.86888213 83.70784578 14.34431458 83.72724915 C18.22569284 83.77478274 22.10701285 83.80457007 25.98858643 83.83068848 C29.95019031 83.86047726 33.91159337 83.90701329 37.87304688 83.95214844 C45.64443168 84.03821965 53.41583102 84.10554762 61.1875 84.16113281 C60.25062877 93.32373342 60.25062877 93.32373342 56.1875 97.16113281 C52.46119079 98.9896257 49.44358051 99.4170667 45.31494141 99.43579102 C44.15668854 99.44532303 42.99843567 99.45485504 41.80508423 99.4646759 C39.94090347 99.46330879 39.94090347 99.46330879 38.0390625 99.46191406 C36.1102272 99.46834175 36.1102272 99.46834175 34.14242554 99.47489929 C31.42400991 99.48234572 28.70572419 99.48208213 25.98730469 99.47680664 C22.51842629 99.47101925 19.0500831 99.48793225 15.58129311 99.51115131 C12.25469467 99.5295034 8.92821118 99.5257018 5.6015625 99.52441406 C4.36282379 99.53362381 3.12408508 99.54283356 1.84780884 99.55232239 C-6.06195496 99.51001596 -11.46439184 99.12877413 -17.5625 93.72363281 C-22.69866601 87.87411041 -23.92683755 84.58948089 -23.97363281 76.75952148 C-23.98324036 75.46104782 -23.9928479 74.16257416 -24.00274658 72.82475281 C-24.00759513 71.40953752 -24.01187382 69.99432018 -24.015625 68.57910156 C-24.02138152 67.1218516 -24.02713919 65.66460164 -24.03289795 64.20735168 C-24.04339175 61.15344898 -24.0492449 58.09957248 -24.05273438 55.0456543 C-24.05821352 51.14521567 -24.08223566 47.2451271 -24.11070633 43.34479809 C-24.12939228 40.33436594 -24.13454148 37.3240171 -24.13607025 34.31353188 C-24.13908425 32.87630616 -24.14707022 31.43908147 -24.16025543 30.00191307 C-24.25315714 19.09679262 -23.47141049 12.18475333 -15.8125 4.16113281 C-10.78924935 0.51927609 -6.08640476 0.04138501 0 0 Z " fill="#404D56" transform="translate(795.8125,586.8388671875)"/>
<path d="M0 0 C5.75170337 -0.17718517 8.54729764 0.15448433 13 4 C16.67258814 9.4613546 16.35470094 14.54708759 16.1875 20.875 C16.16719727 22.33679688 16.16719727 22.33679688 16.14648438 23.828125 C16.11131962 26.21932863 16.0621067 28.60936975 16 31 C16.9379541 30.98428955 17.8759082 30.9685791 18.84228516 30.95239258 C22.34234205 30.90108035 25.8419957 30.86356128 29.34228516 30.83520508 C30.85341727 30.82017457 32.36450618 30.79974436 33.87548828 30.77368164 C36.05512187 30.73704311 38.23417575 30.72021662 40.4140625 30.70703125 C41.7232666 30.6913208 43.0324707 30.67561035 44.38134766 30.65942383 C49.40950541 31.13265821 52.6640816 32.7362934 56.3125 36.1875 C58 39 58 39 59 47 C44.81 47 30.62 47 16 47 C16.09065919 58.68182884 16.09065919 58.68182884 16.20898438 70.36328125 C16.26337253 75.12578352 16.31447922 79.88816642 16.34643555 84.65087891 C16.3723936 88.48954551 16.41274148 92.32781285 16.46318626 96.16623306 C16.47990605 97.63264129 16.49138842 99.09911865 16.49761391 100.56560898 C16.50720021 102.61561968 16.53518981 104.66459712 16.56762695 106.71435547 C16.57873001 107.88239716 16.58983307 109.05043884 16.60127258 110.25387573 C16.73285263 111.16009674 16.86443268 112.06631775 17 113 C20.85604425 115.57069617 24.12746343 115.35065056 28.60546875 115.4140625 C29.44467361 115.43342865 30.28387848 115.4527948 31.14851379 115.4727478 C33.82807258 115.53251213 36.5076744 115.57891612 39.1875 115.625 C41.00457599 115.6631827 42.82163394 115.70223461 44.63867188 115.7421875 C49.09230132 115.83821103 53.54601551 115.92225359 58 116 C59.14174721 120.34311684 58.67925531 122.34758985 56.49609375 126.3515625 C53.46973406 129.68608936 49.89157516 130.90132912 45.49243164 131.38818359 C44.22778076 131.39156738 42.96312988 131.39495117 41.66015625 131.3984375 C40.97497421 131.40130768 40.28979218 131.40417786 39.58384705 131.40713501 C38.14255949 131.40916564 36.70124374 131.40370612 35.26000977 131.39111328 C33.07179144 131.37506813 30.88542662 131.39098126 28.69726562 131.41015625 C27.28905848 131.40817316 25.88085247 131.40432811 24.47265625 131.3984375 C23.20687744 131.39505371 21.94109863 131.39166992 20.63696289 131.38818359 C13.79180116 130.65757964 8.9121118 127.68883399 4 123 C0.57872321 118.28099754 -0.12663526 113.84509556 -0.12025452 108.10881042 C-0.12162918 107.1511377 -0.12300385 106.19346497 -0.12442017 105.20677185 C-0.12082489 104.16811478 -0.11722961 103.1294577 -0.11352539 102.05932617 C-0.11367142 100.95644257 -0.11381744 99.85355896 -0.1139679 98.71725464 C-0.11327184 95.07580593 -0.10549373 91.43440851 -0.09765625 87.79296875 C-0.09579098 85.26662728 -0.09436759 82.74028544 -0.09336853 80.21394348 C-0.08994192 74.24650924 -0.08206226 68.27909699 -0.07201904 62.31167156 C-0.06083089 55.51604054 -0.05534065 48.72040864 -0.05032361 41.92477071 C-0.03987891 27.94983698 -0.02229632 13.97491949 0 0 Z " fill="#445059" transform="translate(598,555)"/>
<path d="M0 0 C1.43957789 0.12133074 2.87823072 0.25366955 4.31640625 0.390625 C5.11763916 0.46313477 5.91887207 0.53564453 6.74438477 0.61035156 C10.06794088 1.18448248 11.74761742 2.54285537 14 5 C16.60482663 9.74711828 16.28188186 14.53776242 16.25878906 19.80395508 C16.2622937 20.78669907 16.26579834 21.76944305 16.26940918 22.78196716 C16.27820496 26.02789392 16.27238348 29.2736023 16.265625 32.51953125 C16.26697259 34.78008567 16.26891391 37.04063981 16.27142334 39.30119324 C16.27437196 44.03977212 16.27008651 48.77827559 16.26074219 53.5168457 C16.24936745 59.57947985 16.25589632 65.64193651 16.26788712 71.70456409 C16.27512944 76.37409287 16.27280654 81.0435799 16.26763153 85.71310997 C16.26630058 87.94774077 16.26792325 90.1823754 16.27259064 92.41700172 C16.27769264 95.54738965 16.26989311 98.67749438 16.25878906 101.80786133 C16.26283752 102.72501923 16.26688599 103.64217712 16.27105713 104.58712769 C16.21844123 112.62942125 15.26575982 119.56407133 10 126 C4.95317626 129.89025996 1.28147194 131.10003323 -4.97705078 131.19287109 C-5.96553009 131.20893402 -6.9540094 131.22499695 -7.97244263 131.24154663 C-12.49561674 131.28630424 -17.01864795 131.32707651 -21.54199219 131.35009766 C-23.92002165 131.36662525 -26.29800209 131.39387256 -28.67578125 131.43212891 C-32.12005155 131.48720275 -35.56315975 131.50882096 -39.0078125 131.5234375 C-40.05921417 131.54610687 -41.11061584 131.56877625 -42.19387817 131.59213257 C-50.07060045 131.56984835 -56.84789716 129.83295801 -62.77078247 124.36532593 C-68.24750531 118.08539155 -66.37193442 107.73623597 -66 100 C-61.38 100 -56.76 100 -52 100 C-51.14778004 103.40887983 -50.89216245 105.80434631 -50.9375 109.25 C-50.94652344 110.14203125 -50.95554688 111.0340625 -50.96484375 111.953125 C-50.97644531 112.62859375 -50.98804688 113.3040625 -51 114 C-48.11267977 114.82354079 -45.53739503 115.13035524 -42.53857422 115.14526367 C-41.22734085 115.15483345 -41.22734085 115.15483345 -39.88961792 115.16459656 C-38.48632736 115.16626579 -38.48632736 115.16626579 -37.0546875 115.16796875 C-35.60535324 115.17296135 -35.60535324 115.17296135 -34.1267395 115.17805481 C-32.08759029 115.18311144 -30.04843282 115.18546353 -28.00927734 115.18530273 C-24.87974602 115.18749667 -21.75056306 115.20568609 -18.62109375 115.22460938 C-16.64062621 115.22754199 -14.66015699 115.22952767 -12.6796875 115.23046875 C-11.27032425 115.24124702 -11.27032425 115.24124702 -9.83248901 115.25224304 C-8.96463776 115.24916641 -8.0967865 115.24608978 -7.20263672 115.24291992 C-6.43748749 115.24434494 -5.67233826 115.24576996 -4.88400269 115.24723816 C-2.75653844 115.16259889 -2.75653844 115.16259889 -1 113 C-0.68633737 110.91067855 -0.68633737 110.91067855 -0.7215271 108.46957397 C-0.71036362 107.51602524 -0.69920013 106.5624765 -0.68769836 105.58003235 C-0.68553818 104.53058945 -0.68337799 103.48114655 -0.68115234 102.39990234 C-0.67110672 101.29745682 -0.6610611 100.19501129 -0.65071106 99.05915833 C-0.6197269 95.40142354 -0.6028016 91.74376244 -0.5859375 88.0859375 C-0.56723811 85.5553015 -0.54766564 83.02467182 -0.5272522 80.49404907 C-0.48105954 74.50530028 -0.4436981 68.51655886 -0.41057932 62.52772868 C-0.37238839 55.71034069 -0.32297037 48.89304868 -0.27259517 42.07574153 C-0.16921105 28.0505655 -0.07997181 14.02532766 0 0 Z " fill="#48555D" transform="translate(236,555)"/>
<path d="M0 0 C9.26829268 1.15853659 9.26829268 1.15853659 13 5 C15.71738959 8.86728538 15.26643347 13.18532144 15.22705078 17.71582031 C15.22734283 18.59422577 15.22763489 19.47263123 15.22793579 20.37765503 C15.22654367 23.27791255 15.21098794 26.17791242 15.1953125 29.078125 C15.19158195 31.09022888 15.18873518 33.10233457 15.18673706 35.11444092 C15.1791039 40.40809146 15.15945807 45.70163211 15.1373291 50.99523926 C15.11686389 56.39785272 15.10773389 61.80048395 15.09765625 67.203125 C15.07621193 77.80213159 15.04207975 88.40105666 15 99 C10.05 99 5.1 99 0 99 C0 66.33 0 33.66 0 0 Z " fill="#6B9447" transform="translate(467,587)"/>
<path d="M0 0 C0.73989166 0.25418701 1.47978333 0.50837402 2.24209595 0.77026367 C3.02509064 1.03282959 3.80808533 1.29539551 4.61480713 1.56591797 C7.08936415 2.39782649 9.56018233 3.24028675 12.03115845 4.08276367 C13.71192593 4.64852809 15.39291373 5.21363843 17.0741272 5.77807617 C29.26154753 9.88545821 29.26154753 9.88545821 31.65615845 11.08276367 C30.34110515 14.04861158 29.00405273 15.92803137 26.53897095 18.02807617 C25.62824829 18.80731445 25.62824829 18.80731445 24.6991272 19.60229492 C24.06619751 20.13209961 23.43326782 20.6619043 22.78115845 21.20776367 C22.15596313 21.74530273 21.53076782 22.2828418 20.8866272 22.83666992 C15.54919503 27.36163884 11.87190742 29.59677035 4.73721313 29.44360352 C-1.08288476 28.76197874 -6.58134896 26.91940794 -12.12313843 25.08496094 C-14.22895392 24.39193568 -16.34358192 23.73341071 -18.46102905 23.0769043 C-19.81585021 22.63947312 -21.17004246 22.20008818 -22.52352905 21.75854492 C-23.73766479 21.36578369 -24.95180054 20.97302246 -26.20272827 20.56835938 C-29.69057676 18.91877457 -31.20724691 17.24986914 -33.34384155 14.08276367 C-27.57462228 -0.07804727 -13.22773456 -4.39163699 0 0 Z " fill="#6C9448" transform="translate(999.3438415527344,572.917236328125)"/>
<path d="M0 0 C2.68488699 9.22461173 4.85340303 18.5334211 6.8125 27.9375 C7.04348389 29.00282959 7.27446777 30.06815918 7.51245117 31.16577148 C8.95036825 38.24427792 9.84472378 44.23034706 6.5625 50.9375 C2.83996085 55.38638825 -1.12685974 59.80880646 -6 63 C-9.5555968 62.83622065 -10.99726221 62.0018252 -14 60 C-14.9831543 57.07006836 -14.9831543 57.07006836 -15.82421875 53.33984375 C-15.97534622 52.67594131 -16.12647369 52.01203888 -16.28218079 51.32801819 C-16.5996793 49.91961675 -16.91114678 48.50984422 -17.21704102 47.09887695 C-17.68124811 44.96622234 -18.16808087 42.83971966 -18.65820312 40.71289062 C-22.40118582 24.10924686 -22.40118582 24.10924686 -20.1875 17.6171875 C-16.74761822 12.57051884 -12.74166959 8.8230291 -8 5 C-6.87497732 4.02085939 -5.74997478 3.04169565 -4.625 2.0625 C-2 0 -2 0 0 0 Z " fill="#6D9549" transform="translate(968,514)"/>
<path d="M0 0 C5.28 0 10.56 0 16 0 C17.40321331 2.80642662 17.12725084 5.13066916 17.12939453 8.26977539 C17.13254669 9.58776627 17.13569885 10.90575714 17.13894653 12.26368713 C17.13715689 13.70834384 17.13510597 15.15300025 17.1328125 16.59765625 C17.13348577 18.07213863 17.13445599 19.5466209 17.13571167 21.02110291 C17.13718708 24.1121425 17.13503881 27.20315321 17.13037109 30.29418945 C17.1246689 34.2646492 17.12795689 38.23504142 17.13394356 42.2054987 C17.13754914 45.25000013 17.13641069 48.29448544 17.13381577 51.33898735 C17.13314675 52.8034815 17.13397405 54.2679771 17.13629532 55.73246956 C17.1388223 57.77485248 17.13429088 59.81724052 17.12939453 61.85961914 C17.12859894 63.02384903 17.12780334 64.18807892 17.12698364 65.3875885 C17 68 17 68 16 69 C13.46950598 69.07313567 10.96695163 69.09247527 8.4375 69.0625 C7.72658203 69.05798828 7.01566406 69.05347656 6.28320312 69.04882812 C4.52209987 69.03700864 2.76103964 69.01907263 1 69 C1.16200394 68.29677612 1.32400787 67.59355225 1.49092102 66.86901855 C2.02075493 63.88303137 2.13395663 61.12712437 2.14526367 58.09570312 C2.15164352 56.93099487 2.15802338 55.76628662 2.16459656 54.56628418 C2.16570938 53.3172229 2.1668222 52.06816162 2.16796875 50.78125 C2.17129715 49.49061646 2.17462555 48.19998291 2.17805481 46.87023926 C2.18402843 44.14346479 2.18589644 41.41672195 2.18530273 38.68994141 C2.185201 35.20305396 2.19887244 31.71636962 2.21607494 28.22953033 C2.22988913 24.8926005 2.22928401 21.55570806 2.23046875 18.21875 C2.23765427 16.96968872 2.24483978 15.72062744 2.25224304 14.43371582 C2.24916641 13.26900757 2.24608978 12.10429932 2.24291992 10.90429688 C2.24434494 9.88235229 2.24576996 8.86040771 2.24723816 7.80749512 C2.09571733 4.542063 2.09571733 4.542063 0 0 Z " fill="#34424B" transform="translate(433,602)"/>
<path d="M0 0 C4.95 0 9.9 0 15 0 C16.41697193 2.83394387 16.11945929 5.20873738 16.11352539 8.37744141 C16.11367142 9.03122269 16.11381744 9.68500397 16.1139679 10.3585968 C16.11327036 12.52295227 16.1054854 14.68722204 16.09765625 16.8515625 C16.09579151 18.35086012 16.09436787 19.85015834 16.09336853 21.34945679 C16.08954779 25.29831622 16.07972128 29.24713896 16.06866455 33.19598389 C16.05844091 37.22440087 16.05386887 41.25282378 16.04882812 45.28125 C16.03809862 53.18751873 16.0205054 61.09375057 16 69 C11.05 69 6.1 69 1 69 C1.00523682 67.08743408 1.01047363 65.17486816 1.01586914 63.2043457 C1.03200855 56.87802364 1.04349133 50.55170645 1.05181217 44.22536945 C1.05702586 40.39055034 1.06409599 36.55575354 1.07543945 32.72094727 C1.08632217 29.01864084 1.09228825 25.31635585 1.09487724 21.61403465 C1.09672179 20.20308279 1.10032371 18.79213206 1.10573006 17.38118935 C1.11301184 15.40168024 1.11340867 13.42214945 1.11352539 11.44262695 C1.115746 10.31677689 1.11796661 9.19092682 1.12025452 8.03096008 C1.06545688 4.64657137 1.06545688 4.64657137 0 0 Z " fill="#3A4750" transform="translate(335,602)"/>
<path d="M0 0 C5.61 0 11.22 0 17 0 C17 8.91 17 17.82 17 27 C12.38 27 7.76 27 3 27 C2.95101562 25.38609375 2.90203125 23.7721875 2.8515625 22.109375 C2.77652502 19.98956617 2.70097761 17.86977534 2.625 15.75 C2.57859375 14.15478516 2.57859375 14.15478516 2.53125 12.52734375 C2.49257813 11.50253906 2.45390625 10.47773437 2.4140625 9.421875 C2.3826416 8.47924805 2.3512207 7.53662109 2.31884766 6.56542969 C2.10075684 3.64570903 2.10075684 3.64570903 0 0 Z " fill="#33414A" transform="translate(739,602)"/>
<path d="M0 0 C6.17733665 0 7.45874419 0.28442706 12 4 C14.59650665 7.54069089 14 9.14846402 14 14 C9.38 14 4.76 14 0 14 C0 9.38 0 4.76 0 0 Z " fill="#7DA15E" transform="translate(468,555)"/>
<path d="M0 0 C0.99 0.66 1.98 1.32 3 2 C3.34057617 4.33837891 3.34057617 4.33837891 3.29296875 7.2265625 C3.2784668 8.7734375 3.2784668 8.7734375 3.26367188 10.3515625 C3.23853516 11.43179688 3.21339844 12.51203125 3.1875 13.625 C3.16719727 15.25695312 3.16719727 15.25695312 3.14648438 16.921875 C3.11105124 19.61479291 3.05724303 22.30745741 3 25 C7.29 25 11.58 25 16 25 C15.505 27.475 15.505 27.475 15 30 C14.505 28.515 14.505 28.515 14 27 C-7.78 27 -29.56 27 -52 27 C-52 26.34 -52 25.68 -52 25 C-34.18 25 -16.36 25 2 25 C2.13202228 12.28980876 2.13202228 12.28980876 0 0 Z " fill="#7F888D" transform="translate(739,604)"/>
<path d="M0 0 C0.495 1.485 0.495 1.485 1 3 C5.95 3 10.9 3 16 3 C15.67 4.65 15.34 6.3 15 8 C14.505 6.515 14.505 6.515 14 5 C-6.13 5 -26.26 5 -47 5 C-47 4.01 -47 3.02 -47 2 C-31.49 2 -15.98 2 0 2 C0 1.34 0 0.68 0 0 Z " fill="#969DA2" transform="translate(335,668)"/>
<path d="M0 0 C0.48049805 0.32145996 0.96099609 0.64291992 1.45605469 0.97412109 C5.13825713 2.45901693 8.78828426 2.3582724 12.703125 2.4140625 C13.54091492 2.43342865 14.37870483 2.4527948 15.24188232 2.4727478 C17.91115213 2.53240724 20.58046539 2.57887413 23.25 2.625 C25.06251854 2.66319236 26.87501918 2.70224482 28.6875 2.7421875 C33.12485415 2.83809752 37.56229325 2.9221788 42 3 C43.1171875 7.7109375 43.1171875 7.7109375 42.0625 10.3125 C41.5365625 11.1478125 41.5365625 11.1478125 41 12 C39.66667905 9.3333581 40.32897967 7.83319697 41 5 C39.90010742 5.01571045 38.80021484 5.0314209 37.66699219 5.04760742 C33.58194313 5.10195303 29.49692597 5.13636684 25.41162109 5.16479492 C23.64431381 5.17987102 21.87704386 5.20033522 20.10986328 5.22631836 C17.56794005 5.26275402 15.02651194 5.27973794 12.484375 5.29296875 C11.69569031 5.30845261 10.90700562 5.32393646 10.09442139 5.33988953 C6.77079778 5.3409066 4.41158803 5.22664347 1.46972656 3.60668945 C0 2 0 2 0 0 Z " fill="#9AA1A6" transform="translate(614,668)"/>
<path d="M0 0 C0.66 0.33 1.32 0.66 2 1 C-8.61437191 12.93527153 -8.61437191 12.93527153 -13 17 C-13.66 17 -14.32 17 -15 17 C-13.61077846 12.55763055 -11.57384479 10.37588498 -8.0625 7.375 C-3.91716017 3.80934787 -3.91716017 3.80934787 0 0 Z " fill="#93B078" transform="translate(964,515)"/>
<path d="M0 0 C0.66 0.33 1.32 0.66 2 1 C1.22914063 1.75925781 0.45828125 2.51851562 -0.3359375 3.30078125 C-1.34909096 4.30455366 -2.36210448 5.30846732 -3.375 6.3125 C-3.88289062 6.81201172 -4.39078125 7.31152344 -4.9140625 7.82617188 C-7.22854133 10.12542387 -9.18347483 12.27521225 -11 15 C-11.8125 13.375 -11.8125 13.375 -12 11 C-8.7047333 6.16007703 -4.84334546 3.22889698 0 0 Z " fill="#97B47E" transform="translate(978,574)"/>
<path d="M0 0 C0.69738281 0.00902344 1.39476562 0.01804687 2.11328125 0.02734375 C3.82566958 0.05080112 5.53788004 0.08666896 7.25 0.125 C6.92 1.775 6.59 3.425 6.25 5.125 C5.92 4.135 5.59 3.145 5.25 2.125 C-0.36 2.125 -5.97 2.125 -11.75 2.125 C-7.50197923 0.00098962 -4.58238937 -0.1126107 0 0 Z " fill="#556168" transform="translate(343.75,670.875)"/>
<path d="M0 0 C3.63 0 7.26 0 11 0 C10.67 1.65 10.34 3.3 10 5 C9.67 4.01 9.34 3.02 9 2 C5.7 2 2.4 2 -1 2 C-0.67 1.34 -0.34 0.68 0 0 Z " fill="#56626A" transform="translate(744,629)"/>
<path d="M0 0 C0.66 0.33 1.32 0.66 2 1 C-0.31 3.64 -2.62 6.28 -5 9 C-5 4.61031544 -2.87194899 3.23094261 0 0 Z " fill="#788187" transform="translate(780,591)"/>
</svg>
