<svg width="72" height="28" viewBox="0 0 72 28" fill="none" xmlns="http://www.w3.org/2000/svg">
<rect width="72" height="28" rx="14" fill="#4CAF50" fill-opacity="0.28"/>
<path d="M10.1985 20V9.09091H14.087C14.9357 9.09091 15.6388 9.24538 16.1964 9.55433C16.7539 9.86328 17.1712 10.2859 17.4482 10.8221C17.7251 11.3548 17.8636 11.9549 17.8636 12.6225C17.8636 13.2937 17.7234 13.8974 17.4428 14.4336C17.1658 14.9663 16.7468 15.3888 16.1857 15.7013C15.6282 16.0103 14.9268 16.1648 14.0817 16.1648H11.4077V14.7692H13.9325C14.4688 14.7692 14.9038 14.6768 15.2376 14.4922C15.5714 14.304 15.8164 14.0483 15.9727 13.7251C16.1289 13.402 16.207 13.0344 16.207 12.6225C16.207 12.2106 16.1289 11.8448 15.9727 11.5252C15.8164 11.2056 15.5696 10.9553 15.2322 10.7741C14.8984 10.593 14.4581 10.5025 13.9112 10.5025H11.8445V20H10.1985ZM23.0092 20.1651C22.2422 20.1651 21.5728 19.9893 21.0011 19.6378C20.4293 19.2862 19.9854 18.7944 19.6694 18.1623C19.3533 17.5302 19.1953 16.7915 19.1953 15.9464C19.1953 15.0977 19.3533 14.3555 19.6694 13.7198C19.9854 13.0842 20.4293 12.5906 21.0011 12.239C21.5728 11.8874 22.2422 11.7116 23.0092 11.7116C23.7763 11.7116 24.4457 11.8874 25.0174 12.239C25.5891 12.5906 26.033 13.0842 26.3491 13.7198C26.6651 14.3555 26.8232 15.0977 26.8232 15.9464C26.8232 16.7915 26.6651 17.5302 26.3491 18.1623C26.033 18.7944 25.5891 19.2862 25.0174 19.6378C24.4457 19.9893 23.7763 20.1651 23.0092 20.1651ZM23.0146 18.8281C23.5117 18.8281 23.9237 18.6967 24.2504 18.4339C24.5771 18.1712 24.8185 17.8214 24.9748 17.3846C25.1346 16.9478 25.2145 16.4666 25.2145 15.9411C25.2145 15.419 25.1346 14.9396 24.9748 14.5028C24.8185 14.0625 24.5771 13.7092 24.2504 13.4428C23.9237 13.1765 23.5117 13.0433 23.0146 13.0433C22.5138 13.0433 22.0984 13.1765 21.7681 13.4428C21.4414 13.7092 21.1982 14.0625 21.0384 14.5028C20.8821 14.9396 20.804 15.419 20.804 15.9411C20.804 16.4666 20.8821 16.9478 21.0384 17.3846C21.1982 17.8214 21.4414 18.1712 21.7681 18.4339C22.0984 18.6967 22.5138 18.8281 23.0146 18.8281ZM28.6009 23.0682V11.8182H30.1563V13.1445H30.2895C30.3818 12.9741 30.515 12.777 30.689 12.5533C30.863 12.3295 31.1045 12.1342 31.4134 11.9673C31.7224 11.7969 32.1308 11.7116 32.6386 11.7116C33.2991 11.7116 33.8886 11.8786 34.407 12.2124C34.9255 12.5462 35.3321 13.0273 35.6269 13.6559C35.9252 14.2844 36.0743 15.0408 36.0743 15.9251C36.0743 16.8093 35.9269 17.5675 35.6322 18.1996C35.3374 18.8281 34.9326 19.3129 34.4177 19.6538C33.9028 19.9911 33.3151 20.1598 32.6546 20.1598C32.1574 20.1598 31.7508 20.0763 31.4347 19.9094C31.1222 19.7425 30.8772 19.5472 30.6997 19.3235C30.5221 19.0998 30.3854 18.9009 30.2895 18.7269H30.1936V23.0682H28.6009ZM30.1617 15.9091C30.1617 16.4844 30.2451 16.9886 30.412 17.4219C30.5789 17.8551 30.8204 18.1942 31.1365 18.4393C31.4525 18.6808 31.8396 18.8015 32.2977 18.8015C32.7735 18.8015 33.1713 18.6754 33.4909 18.4233C33.8105 18.1676 34.0519 17.8214 34.2153 17.3846C34.3822 16.9478 34.4656 16.456 34.4656 15.9091C34.4656 15.3693 34.384 14.8846 34.2206 14.4549C34.0608 14.0252 33.8193 13.6861 33.4962 13.4375C33.1766 13.1889 32.7771 13.0646 32.2977 13.0646C31.836 13.0646 31.4454 13.1836 31.1258 13.4215C30.8097 13.6594 30.57 13.9915 30.4067 14.4176C30.2433 14.8437 30.1617 15.3409 30.1617 15.9091ZM43.0416 16.6069V11.8182H44.6396V20H43.0736V18.5831H42.9884C42.8002 19.0199 42.4983 19.3839 42.0828 19.6751C41.6709 19.9627 41.1578 20.1065 40.5434 20.1065C40.0178 20.1065 39.5526 19.9911 39.1478 19.7603C38.7465 19.5259 38.4305 19.1797 38.1997 18.7216C37.9724 18.2635 37.8588 17.6971 37.8588 17.0224V11.8182H39.4514V16.8306C39.4514 17.3881 39.6059 17.832 39.9149 18.1623C40.2238 18.4925 40.6251 18.6577 41.1187 18.6577C41.417 18.6577 41.7135 18.5831 42.0083 18.4339C42.3066 18.2848 42.5534 18.0593 42.7487 17.7575C42.9475 17.4556 43.0452 17.0721 43.0416 16.6069ZM48.3723 9.09091V20H46.7797V9.09091H48.3723ZM52.896 20.1811C52.3776 20.1811 51.9088 20.0852 51.4898 19.8935C51.0708 19.6982 50.7387 19.4158 50.4937 19.0465C50.2522 18.6772 50.1315 18.2244 50.1315 17.6882C50.1315 17.2266 50.2203 16.8466 50.3978 16.5483C50.5754 16.25 50.8151 16.0138 51.1169 15.8398C51.4188 15.6658 51.7561 15.5344 52.129 15.4457C52.5019 15.3569 52.8818 15.2894 53.2689 15.2433C53.759 15.1864 54.1567 15.1403 54.4621 15.1048C54.7675 15.0657 54.9894 15.0036 55.1279 14.9183C55.2664 14.8331 55.3357 14.6946 55.3357 14.5028V14.4656C55.3357 14.0004 55.2043 13.6399 54.9415 13.3842C54.6823 13.1286 54.2952 13.0007 53.7803 13.0007C53.2441 13.0007 52.8215 13.1197 52.5125 13.3576C52.2071 13.592 51.9958 13.853 51.8786 14.1406L50.3818 13.7997C50.5594 13.3026 50.8186 12.9013 51.1595 12.5959C51.504 12.2869 51.8999 12.0632 52.3474 11.9247C52.7948 11.7827 53.2654 11.7116 53.759 11.7116C54.0857 11.7116 54.4319 11.7507 54.7977 11.8288C55.167 11.9034 55.5115 12.0419 55.8311 12.2443C56.1542 12.4467 56.4188 12.7362 56.6247 13.1126C56.8307 13.4854 56.9337 13.9702 56.9337 14.5668V20H55.3783V18.8814H55.3144C55.2114 19.0874 55.0569 19.2898 54.8509 19.4886C54.645 19.6875 54.3804 19.8526 54.0573 19.984C53.7341 20.1154 53.347 20.1811 52.896 20.1811ZM53.2423 18.9027C53.6826 18.9027 54.059 18.8157 54.3715 18.6417C54.6876 18.4677 54.9273 18.2404 55.0906 17.9599C55.2575 17.6758 55.341 17.3722 55.341 17.049V15.9943C55.2842 16.0511 55.1741 16.1044 55.0107 16.1541C54.8509 16.2003 54.6681 16.2411 54.4621 16.2766C54.2561 16.3086 54.0555 16.3388 53.8602 16.3672C53.6649 16.392 53.5015 16.4134 53.3701 16.4311C53.0612 16.4702 52.7789 16.5359 52.5232 16.6282C52.271 16.7205 52.0686 16.8537 51.9159 17.0277C51.7668 17.1982 51.6922 17.4254 51.6922 17.7095C51.6922 18.1037 51.8378 18.402 52.129 18.6044C52.4202 18.8033 52.7913 18.9027 53.2423 18.9027ZM59.055 20V11.8182H60.5945V13.1179H60.6797C60.8288 12.6776 61.0916 12.3313 61.468 12.0792C61.848 11.8235 62.2777 11.6957 62.7571 11.6957C62.8565 11.6957 62.9737 11.6992 63.1087 11.7063C63.2472 11.7134 63.3555 11.7223 63.4336 11.733V13.2564C63.3697 13.2386 63.256 13.2191 63.0927 13.1978C62.9293 13.1729 62.766 13.1605 62.6026 13.1605C62.2262 13.1605 61.8906 13.2404 61.5959 13.4002C61.3047 13.5565 61.0739 13.7749 60.9034 14.0554C60.733 14.3324 60.6477 14.6484 60.6477 15.0036V20H59.055Z" fill="url(#paint0_linear_46_389)"/>
<defs>
<linearGradient id="paint0_linear_46_389" x1="9" y1="0.811688" x2="11.1204" y2="22.4345" gradientUnits="userSpaceOnUse">
<stop stop-color="#A4B737"/>
<stop offset="1" stop-color="#00BB05"/>
</linearGradient>
</defs>
</svg>
