<svg width="35" height="42" viewBox="0 0 35 42" fill="none" xmlns="http://www.w3.org/2000/svg">
<path d="M16.0034 8.94928C16.2234 8.94928 16.3342 8.82043 16.39 8.61771C16.9604 5.54243 16.9243 5.46857 20.1284 4.86121C20.3484 4.82428 20.4781 4.69621 20.4781 4.47464C20.4781 4.25386 20.3492 4.125 20.1276 4.08807C16.9424 3.44378 17.0343 3.36993 16.39 0.330786C16.335 0.128857 16.2242 0 16.0034 0C15.7826 0 15.6719 0.128857 15.6161 0.330786C14.9718 3.36993 15.0818 3.443 11.8784 4.08807C11.6757 4.12421 11.528 4.25307 11.528 4.47464C11.528 4.69543 11.6757 4.82428 11.8776 4.86121C15.0826 5.5055 15.0456 5.54243 15.6161 8.61771C15.6711 8.82043 15.7826 8.94928 16.0034 8.94928ZM7.09029 21.6189C7.43993 21.6189 7.67957 21.3981 7.7165 21.0666C8.37886 16.1496 8.54465 16.1496 13.6274 15.1737C13.959 15.1187 14.1986 14.8971 14.1986 14.5475C14.1986 14.2159 13.959 13.9771 13.6274 13.9213C8.54465 13.222 8.36079 13.0562 7.7165 8.04728C7.67957 7.71571 7.43993 7.47607 7.09029 7.47607C6.75872 7.47607 6.51907 7.71571 6.48214 8.06535C5.87479 13.0004 5.61707 12.9824 0.571214 13.9213C0.239643 13.9951 0 14.2159 0 14.5475C0 14.916 0.239643 15.1187 0.644286 15.1737C5.654 15.9838 5.87479 16.1126 6.48214 21.0296C6.51907 21.3981 6.75872 21.6189 7.09029 21.6189ZM19.5753 42.0051C20.0546 42.0051 20.4042 41.6546 20.4961 41.1573C21.8036 31.0663 23.2218 29.5373 33.2027 28.4326C33.7182 28.3776 34.0686 27.9911 34.0686 27.5118C34.0686 27.0325 33.7182 26.6648 33.2027 26.5909C23.2218 25.4862 21.8036 23.958 20.4961 13.8663C20.4042 13.3689 20.0546 13.0374 19.5753 13.0374C19.096 13.0374 18.7471 13.3689 18.6733 13.8663C17.3659 23.958 15.9296 25.4862 5.96672 26.5909C5.43243 26.6648 5.08279 27.0333 5.08279 27.5118C5.08279 27.9911 5.43243 28.3776 5.96672 28.4326C15.9107 29.7401 17.292 31.0844 18.6733 41.1573C18.7471 41.6546 19.0968 42.0051 19.5753 42.0051Z" fill="black"/>
</svg>
