<svg width="45" height="45" viewBox="0 0 45 45" fill="none" xmlns="http://www.w3.org/2000/svg">
<path d="M34.6875 37.5H10.3125L4.6875 43.125V11.25C4.6875 8.15625 7.21875 5.625 10.3125 5.625H34.6875C37.7812 5.625 40.3125 8.15625 40.3125 11.25V31.875C40.3125 34.9688 37.7812 37.5 34.6875 37.5Z" fill="url(#paint0_linear_462_1230)"/>
<path d="M20.625 18.75H24.375V29.0625H20.625V18.75Z" fill="white"/>
<path d="M22.5 15.9375C23.5355 15.9375 24.375 15.098 24.375 14.0625C24.375 13.027 23.5355 12.1875 22.5 12.1875C21.4645 12.1875 20.625 13.027 20.625 14.0625C20.625 15.098 21.4645 15.9375 22.5 15.9375Z" fill="white"/>
<defs>
<linearGradient id="paint0_linear_462_1230" x1="4.6875" y1="-5.81981" x2="20.3721" y2="36.5268" gradientUnits="userSpaceOnUse">
<stop stop-color="#A4B737"/>
<stop offset="1" stop-color="#00BB05"/>
</linearGradient>
</defs>
</svg>
