<svg width="75" height="78" viewBox="0 0 75 78" fill="none" xmlns="http://www.w3.org/2000/svg">
<path d="M5.8602 5.82897L8.53619 5.82987L12.8609 11.9715L18.8481 16.8353L10.1986 22.0214L8.53617 14.5645L5.24382 7.87532L5.8602 5.82897Z" fill="url(#paint0_linear_2014_440)" fill-opacity="0.81"/>
<path d="M69.8952 5.99398L70.8598 8.35863L66.374 14.3957L63.746 21.4404L55.5195 15.6696L62.2608 11.5102L67.6582 6.18775L69.8952 5.99398Z" fill="url(#paint1_linear_2014_440)" fill-opacity="0.81"/>
<ellipse cx="37.0137" cy="44.1043" rx="37.0137" ry="33.896" fill="url(#paint2_linear_2014_440)" fill-opacity="0.81"/>
<g filter="url(#filter0_d_2014_440)">
<path d="M13.5718 44.5539C13.5718 38.8619 18.186 34.2477 23.878 34.2477H48.9175C55.2899 34.2477 60.4558 39.4136 60.4558 45.786C60.4558 51.1107 56.812 55.744 51.6374 56.9992L37.0394 60.5401C37.0224 60.5442 37.0049 60.5463 36.9874 60.5463C36.844 60.5463 36.7387 60.4117 36.7732 60.2725L37.9167 55.6612C37.9314 55.6018 37.96 55.5468 38.0001 55.5007C38.2175 55.2502 38.0396 54.8601 37.7079 54.8601H21.3988C17.0761 54.8601 13.5718 51.3558 13.5718 47.0331V44.5539Z" fill="#FEFBFB"/>
</g>
<ellipse cx="49.044" cy="45.9401" rx="4.00982" ry="4.0909" fill="#2F2E41"/>
<ellipse cx="23.1348" cy="45.9401" rx="4.00982" ry="4.0909" fill="#2F2E41"/>
<defs>
<filter id="filter0_d_2014_440" x="8.07178" y="29.7477" width="57.8838" height="37.2986" filterUnits="userSpaceOnUse" color-interpolation-filters="sRGB">
<feFlood flood-opacity="0" result="BackgroundImageFix"/>
<feColorMatrix in="SourceAlpha" type="matrix" values="0 0 0 0 0 0 0 0 0 0 0 0 0 0 0 0 0 0 127 0" result="hardAlpha"/>
<feOffset dy="1"/>
<feGaussianBlur stdDeviation="2.75"/>
<feComposite in2="hardAlpha" operator="out"/>
<feColorMatrix type="matrix" values="0 0 0 0 0 0 0 0 0 0 0 0 0 0 0 0 0 0 0.25 0"/>
<feBlend mode="normal" in2="BackgroundImageFix" result="effect1_dropShadow_2014_440"/>
<feBlend mode="normal" in="SourceGraphic" in2="effect1_dropShadow_2014_440" result="shape"/>
</filter>
<linearGradient id="paint0_linear_2014_440" x1="-1.5021" y1="4.50757" x2="14.6106" y2="13.4442" gradientUnits="userSpaceOnUse">
<stop stop-color="#A4B737"/>
<stop offset="1" stop-color="#00BB05"/>
</linearGradient>
<linearGradient id="paint1_linear_2014_440" x1="68.5396" y1="-0.987622" x2="66.6223" y2="16.5893" gradientUnits="userSpaceOnUse">
<stop stop-color="#A4B737"/>
<stop offset="1" stop-color="#00BB05"/>
</linearGradient>
<linearGradient id="paint2_linear_2014_440" x1="2.65894e-06" y1="-10.4815" x2="25.4132" y2="68.3853" gradientUnits="userSpaceOnUse">
<stop stop-color="#A4B737"/>
<stop offset="1" stop-color="#00BB05"/>
</linearGradient>
</defs>
</svg>
