<svg width="70" height="70" viewBox="0 0 70 70" fill="none" xmlns="http://www.w3.org/2000/svg">
<g clip-path="url(#clip0_2014_455)">
<path d="M40.5 43.75C41.3264 43.75 42.0439 43.4466 42.6525 42.84C43.2611 42.2333 43.5644 41.5158 43.5625 40.6875C43.5606 39.8591 43.2572 39.1426 42.6525 38.5379C42.0478 37.9332 41.3303 37.6289 40.5 37.625C39.6697 37.6211 38.9532 37.9254 38.3504 38.5379C37.7476 39.1504 37.4433 39.8669 37.4375 40.6875C37.4317 41.508 37.736 42.2255 38.3504 42.84C38.9649 43.4544 39.6814 43.7578 40.5 43.75ZM38.3125 34.4166H42.6875C42.6875 33.0069 42.8333 31.9744 43.125 31.3191C43.4167 30.6639 44.0972 29.8005 45.1667 28.7291C46.625 27.2708 47.5972 26.0925 48.0833 25.1941C48.5694 24.2958 48.8125 23.238 48.8125 22.0208C48.8125 19.8333 48.0464 18.0473 46.5142 16.6629C44.9819 15.2785 42.9772 14.5853 40.5 14.5833C38.5069 14.5833 36.7696 15.1423 35.2879 16.2604C33.8063 17.3785 32.7728 18.8611 32.1875 20.7083L36.125 22.3125C36.5625 21.0972 37.1585 20.1862 37.9129 19.5796C38.6674 18.9729 39.5297 18.6686 40.5 18.6666C41.6667 18.6666 42.6146 18.9953 43.3438 19.6525C44.0729 20.3097 44.4375 21.1964 44.4375 22.3125C44.4375 22.993 44.2431 23.6376 43.8542 24.2462C43.4653 24.8548 42.7847 25.62 41.8125 26.5416C40.2083 27.9514 39.2244 29.0578 38.8608 29.8608C38.4972 30.6639 38.3144 32.1825 38.3125 34.4166ZM23 52.5C21.3958 52.5 20.0231 51.9293 18.8817 50.7879C17.7403 49.6465 17.1686 48.2728 17.1667 46.6666V11.6666C17.1667 10.0625 17.7383 8.6897 18.8817 7.54831C20.025 6.40692 21.3978 5.83526 23 5.83331H58C59.6042 5.83331 60.9779 6.40498 62.1213 7.54831C63.2646 8.69165 63.8353 10.0644 63.8333 11.6666V46.6666C63.8333 48.2708 63.2626 49.6446 62.1213 50.7879C60.9799 51.9312 59.6061 52.5019 58 52.5H23ZM11.3333 64.1666C9.72917 64.1666 8.35639 63.5959 7.215 62.4546C6.07361 61.3132 5.50194 59.9394 5.5 58.3333V17.5H11.3333V58.3333H52.1667V64.1666H11.3333Z" fill="url(#paint0_linear_2014_455)" fill-opacity="0.81"/>
</g>
<defs>
<linearGradient id="paint0_linear_2014_455" x1="5.5" y1="-11.9697" x2="28.9542" y2="54.6868" gradientUnits="userSpaceOnUse">
<stop stop-color="#A4B737"/>
<stop offset="1" stop-color="#00BB05"/>
</linearGradient>
<clipPath id="clip0_2014_455">
<rect width="70" height="70" fill="white"/>
</clipPath>
</defs>
</svg>
