<svg width="70" height="70" viewBox="0 0 70 70" fill="none" xmlns="http://www.w3.org/2000/svg">
<path d="M51.1147 30.9896C51.7953 30.5521 52.1356 29.9444 52.1356 29.1666C52.1356 28.3889 51.7953 27.7812 51.1147 27.3437L36.896 18.2291C36.1668 17.743 35.425 17.7061 34.6706 18.1183C33.9161 18.5305 33.5399 19.1751 33.5418 20.0521V38.2812C33.5418 39.1562 33.919 39.8008 34.6735 40.215C35.4279 40.6291 36.1688 40.5922 36.896 40.1041L51.1147 30.9896ZM23.3335 52.5C21.7293 52.5 20.3565 51.9293 19.2152 50.7879C18.0738 49.6465 17.5021 48.2727 17.5002 46.6666V11.6666C17.5002 10.0625 18.0718 8.6897 19.2152 7.54831C20.3585 6.40692 21.7313 5.83526 23.3335 5.83331H58.3335C59.9377 5.83331 61.3114 6.40498 62.4547 7.54831C63.5981 8.69165 64.1688 10.0644 64.1668 11.6666V46.6666C64.1668 48.2708 63.5961 49.6445 62.4547 50.7879C61.3133 51.9312 59.9396 52.5019 58.3335 52.5H23.3335ZM11.6668 64.1666C10.0627 64.1666 8.68988 63.5959 7.5485 62.4545C6.40711 61.3131 5.83544 59.9394 5.8335 58.3333V20.4166C5.8335 19.5903 6.1135 18.898 6.6735 18.34C7.2335 17.7819 7.92572 17.5019 8.75016 17.5C9.57461 17.498 10.2678 17.778 10.8297 18.34C11.3917 18.9019 11.6707 19.5941 11.6668 20.4166V58.3333H49.5835C50.4099 58.3333 51.1031 58.6133 51.6631 59.1733C52.2231 59.7333 52.5021 60.4255 52.5002 61.25C52.4982 62.0744 52.2182 62.7676 51.6602 63.3295C51.1021 63.8915 50.4099 64.1705 49.5835 64.1666H11.6668Z" fill="url(#paint0_linear_2014_432)" fill-opacity="0.81"/>
<defs>
<linearGradient id="paint0_linear_2014_432" x1="5.8335" y1="-11.9697" x2="29.2877" y2="54.6868" gradientUnits="userSpaceOnUse">
<stop stop-color="#A4B737"/>
<stop offset="1" stop-color="#00BB05"/>
</linearGradient>
</defs>
</svg>
