<svg width="50" height="50" viewBox="0 0 50 50" fill="none" xmlns="http://www.w3.org/2000/svg">
<circle cx="24.6328" cy="24.6328" r="19.4634" transform="rotate(18.497 24.6328 24.6328)" fill="white"/>
<path d="M17.9383 21.4741C18.8515 18.7445 19.3082 17.3793 20.4401 16.8155C21.572 16.2517 22.9367 16.7074 25.6663 17.6206L28.5616 18.5892C31.2912 19.5023 32.6564 19.959 33.2202 21.0909C33.784 22.2228 33.3283 23.5875 32.4151 26.3171C31.502 29.0467 31.0453 30.4119 29.9134 30.9757C28.7815 31.5395 27.4168 31.0838 24.6872 30.1706L21.7919 29.202C19.0623 28.2889 17.6971 27.8322 17.1333 26.7003C16.5695 25.5684 17.0252 24.2037 17.9383 21.4741Z" stroke="#272727" stroke-width="1.5"/>
<path d="M22.7605 26.3067L19.8651 25.3381M25.6558 27.2753L24.5701 26.9121M18.4226 20.0264L32.8994 24.8694" stroke="#272727" stroke-width="1.5" stroke-linecap="round"/>
</svg>
