<svg width="49" height="49" viewBox="0 0 49 49" fill="none" xmlns="http://www.w3.org/2000/svg">
<circle cx="24.2025" cy="24.2025" r="17.8185" transform="rotate(15.9205 24.2025 24.2025)" fill="url(#paint0_linear_44_420)" stroke="white"/>
<path d="M26.6658 16.8417L26.3517 17.9427C30.0015 18.9838 32.1144 22.7832 31.0734 26.433C30.0323 30.0828 26.2329 32.1957 22.5831 31.1546L22.269 32.2556C26.5244 33.4694 30.9605 31.0024 32.1743 26.747C33.3882 22.4917 30.9211 18.0556 26.6658 16.8417ZM18.7604 28.3617L17.81 29.0014C18.3238 29.767 18.9696 30.4454 19.7279 31.001L20.3974 30.0728C19.7477 29.5958 19.1931 29.0149 18.7548 28.3601L18.7604 28.3617ZM17.652 23.7952L16.5032 23.7116C16.4013 24.6528 16.4694 25.583 16.6931 26.4683L17.7946 26.217C17.6056 25.4606 17.5659 24.5981 17.652 23.7952ZM19.6789 19.6111L18.8836 18.7889C18.232 19.4245 17.6756 20.2064 17.26 21.0582L18.2895 21.5602C18.6399 20.8327 19.1177 20.1594 19.6773 19.6166L19.6789 19.6111ZM23.9313 17.7047L23.8522 16.563C22.9149 16.635 22.0084 16.8705 21.168 17.2499L21.6379 18.2947C22.3556 17.9696 23.1332 17.7688 23.9368 17.7063L23.9313 17.7047Z" fill="white"/>
<path d="M28.1861 23.3687L28.5494 22.2829L26.3778 21.5565L26.9227 19.9278L25.8369 19.5646L25.2921 21.1932L24.2063 20.83C23.6075 20.6297 22.9577 20.9537 22.7573 21.5525L22.2125 23.1812C22.0122 23.78 22.3362 24.4298 22.935 24.6302L26.1923 25.7198L25.6475 27.3485L21.3044 25.8956L20.9412 26.9813L23.1127 27.7078L22.5679 29.3364L23.6537 29.6997L24.1985 28.071L25.2843 28.4342C25.883 28.6346 26.5329 28.3105 26.7332 27.7117L27.2781 26.0831C27.4784 25.4843 27.1543 24.8344 26.5555 24.6341L23.2983 23.5444L23.8431 21.9158L28.1861 23.3687Z" fill="white"/>
<defs>
<linearGradient id="paint0_linear_44_420" x1="5.88398" y1="-5.29741" x2="20.6147" y2="36.567" gradientUnits="userSpaceOnUse">
<stop stop-color="#A4B737"/>
<stop offset="1" stop-color="#00BB05"/>
</linearGradient>
</defs>
</svg>
