<svg version="1.1" id="Layer_1" xmlns="http://www.w3.org/2000/svg" xmlns:xlink="http://www.w3.org/1999/xlink" x="0px" y="0px"
	 width="100%" viewBox="0 0 1200 1200" enable-background="new 0 0 1200 1200" xml:space="preserve">
<path fill="#000000" opacity="1.000000" stroke="none" 
	d="
M1058.000000,1201.000000 
	C705.333313,1201.000000 353.166656,1201.000000 1.000000,1201.000000 
	C1.000000,801.000000 1.000000,401.000000 1.000000,1.000000 
	C401.000000,1.000000 801.000000,1.000000 1201.000000,1.000000 
	C1201.000000,401.000000 1201.000000,801.000000 1201.000000,1201.000000 
	C1153.500000,1201.000000 1106.000000,1201.000000 1058.000000,1201.000000 
M854.968323,593.382812 
	C854.645508,593.185242 854.322632,592.987671 853.766602,592.343628 
	C853.464844,592.216919 853.163147,592.090149 852.722717,591.700012 
	C852.648987,591.496277 852.507324,591.367004 851.814453,590.936707 
	C851.546387,590.635559 851.278320,590.334412 850.976013,589.384338 
	C850.597168,589.230591 850.218262,589.076843 849.678284,588.835022 
	C849.678284,588.835022 849.576294,588.987793 848.955383,588.287354 
	C830.035339,588.178467 811.115295,588.061340 792.195129,588.004700 
	C791.684509,588.003174 791.171875,588.655029 790.230957,588.939209 
	C790.230957,588.939209 789.843018,589.133240 789.543030,589.186340 
	C789.543030,589.186340 789.238647,589.197754 788.504272,589.208801 
	C778.840271,592.072693 773.579590,600.276062 773.239868,608.342163 
	C773.127075,628.112793 773.006287,647.883484 772.943481,667.654236 
	C772.941772,668.193054 773.564270,668.733887 773.931885,670.041443 
	C775.343018,679.579468 782.987793,686.778259 791.314880,686.779419 
	C809.830383,686.888489 828.345825,687.005981 846.861450,687.060669 
	C847.349731,687.062134 847.839966,686.381226 849.043579,686.020020 
	C854.185669,685.313416 855.691589,681.308167 857.794739,676.732849 
	C857.794739,675.265869 857.794739,673.798889 857.794739,672.171387 
	C836.201416,672.171387 814.621338,672.171387 792.532349,672.003540 
	C792.356140,671.973816 792.179993,671.944153 792.003967,671.994324 
	C792.003967,671.994324 792.083862,671.993225 791.982849,671.432922 
	C791.664307,671.258972 791.345764,671.084961 791.018799,670.980652 
	C791.018799,670.980652 791.088074,670.969788 791.006775,670.408325 
	C790.687683,670.243530 790.368591,670.078735 790.015442,669.985046 
	C790.015442,669.985046 790.086182,669.950317 790.016785,669.391602 
	C789.699158,669.232971 789.381470,669.074341 789.010620,668.978149 
	C789.010620,668.978149 789.089661,668.956238 788.975769,668.331055 
	C788.650879,668.059631 788.325989,667.788208 788.148682,667.291687 
	C788.148682,667.291687 788.020508,667.054932 788.015198,666.108887 
	C788.040161,647.067078 788.065125,628.025269 788.012817,609.007568 
	C788.012817,609.007568 788.038879,609.084290 788.693970,608.958618 
	C788.831360,608.553467 788.968750,608.148376 789.139404,607.612915 
	C789.139404,607.612915 789.011658,607.570740 789.560303,607.078552 
	C789.738464,606.647278 789.916626,606.216003 790.149109,605.633484 
	C790.149109,605.633484 790.002380,605.568115 790.540771,605.093567 
	C790.845337,604.728088 791.149841,604.362671 791.751526,604.121338 
	C791.751526,604.121338 792.035095,603.968689 792.967712,603.923523 
	C801.291382,603.879456 809.614990,603.835388 818.879395,603.792908 
	C831.869446,603.792908 844.859558,603.792908 858.633789,603.792908 
	C857.447083,599.980286 856.739258,597.706299 856.169678,595.376282 
	C856.169678,595.376282 856.126526,595.233459 856.100708,594.568665 
	C855.751282,594.356567 855.401917,594.144470 855.000000,593.989624 
	C855.000000,593.989624 855.070007,593.956177 854.968323,593.382812 
M515.004395,607.030212 
	C515.004395,607.030212 515.080444,607.090515 515.699341,606.963562 
	C515.809509,606.581482 515.919678,606.199402 516.137878,605.616699 
	C516.137878,605.616699 516.011108,605.427368 516.493469,605.037659 
	C516.689026,604.691589 516.884583,604.345459 517.003723,604.004700 
	C517.003723,604.004700 517.010010,604.080994 517.551453,603.968384 
	C517.752930,603.671814 517.954346,603.375305 518.682373,603.055542 
	C518.848328,602.997742 519.014221,602.940002 520.085571,602.952271 
	C533.705078,602.948669 547.324585,602.945068 561.271912,603.097961 
	C561.271912,603.097961 561.628357,603.028076 561.966614,603.637878 
	C562.382690,603.772095 562.798828,603.906311 563.382935,604.150208 
	C563.382935,604.150208 563.537415,604.022278 563.927673,604.568604 
	C564.317566,604.723877 564.707397,604.879150 565.335327,605.140564 
	C565.335327,605.140564 565.563660,605.014893 565.927185,605.551147 
	C566.270996,605.799866 566.614868,606.048523 566.967102,606.817078 
	C567.047607,606.970459 567.128174,607.123901 567.355835,607.633545 
	C567.551025,607.809265 567.770569,607.945984 567.886780,608.123413 
	C567.886780,608.123413 567.957336,608.256470 568.018677,609.116638 
	C568.018677,634.999268 568.018677,660.881836 568.018677,686.691284 
	C573.296509,686.691284 578.032532,686.691284 582.896790,686.691284 
	C582.896790,660.010986 582.896790,633.586975 582.986816,606.401733 
	C580.541382,598.055603 576.137634,591.605957 566.998047,588.959961 
	C566.050232,588.619385 565.102783,587.983032 564.154480,587.981689 
	C543.609558,587.952881 523.064575,587.979553 502.519867,588.064514 
	C501.394836,588.069153 500.272308,588.672485 499.028961,589.927979 
	C499.028961,622.243958 499.028961,654.559998 499.028961,687.074890 
	C502.607422,687.074890 505.585052,687.097046 508.562073,687.063782 
	C509.718079,687.050903 510.872711,686.912903 512.903259,686.937500 
	C513.266785,685.678345 513.944702,684.419861 513.947388,683.159912 
	C514.000916,658.430725 513.975952,633.701294 514.123962,608.709778 
	C514.123962,608.709778 514.030762,608.418823 514.545349,608.084534 
	C514.729431,607.742065 514.913513,607.399658 515.004395,607.030212 
M347.040405,681.052063 
	C347.040405,681.052063 347.076538,681.042603 347.624634,680.760986 
	C347.846863,680.195984 348.069092,679.631042 348.618958,678.854614 
	C348.822540,678.684875 348.978485,678.479126 349.678802,677.874512 
	C350.459869,676.063965 351.240936,674.253357 352.782288,671.909729 
	C352.861816,649.969055 352.951172,628.028320 352.977692,606.087585 
	C352.978577,605.364868 352.341339,604.641418 352.058472,603.445557 
	C352.058472,603.445557 351.966248,602.978394 352.038025,602.309387 
	C351.359772,601.535522 350.681519,600.761597 350.094208,599.250244 
	C347.497894,594.313416 343.346527,591.402771 337.714386,589.225769 
	C336.575745,588.772461 335.439362,587.931335 334.298126,587.924683 
	C319.141144,587.836487 303.982788,587.797546 288.826965,587.958008 
	C287.097717,587.976318 285.381989,589.275330 283.191071,590.012634 
	C283.191071,590.012634 282.774048,590.229553 282.453369,590.394836 
	C282.301056,590.582031 282.164185,590.779907 281.332306,590.998291 
	C274.896637,594.819763 271.236053,600.334290 270.257019,608.396973 
	C270.184631,627.613647 270.102112,646.830322 270.080688,666.047058 
	C270.079926,666.743713 270.679565,667.441101 270.915436,668.938171 
	C271.235840,670.704346 271.427521,672.505676 271.899384,674.230408 
	C273.764008,681.045837 281.440247,686.647095 288.349335,686.765564 
	C303.538696,686.819336 318.728088,686.873169 334.707092,686.976074 
	C338.160522,685.414551 341.613953,683.853027 345.698395,682.190186 
	C346.150574,681.822266 346.602783,681.454407 347.040405,681.052063 
M692.919495,671.371338 
	C692.349182,671.293945 691.778931,671.216553 690.512817,670.710938 
	C690.027344,669.384521 689.203918,668.080750 689.113037,666.727844 
	C688.632507,659.571411 688.336365,652.402710 688.902161,645.052979 
	C704.882263,645.043091 720.862549,645.059998 736.842285,644.979614 
	C738.348816,644.971985 739.852356,644.352112 742.070984,644.047363 
	C748.987183,641.641785 754.206238,637.508240 756.645447,629.709351 
	C756.720886,629.142578 756.796326,628.575867 756.951416,627.073853 
	C756.928345,619.702576 756.905273,612.331299 756.747070,604.463257 
	C756.470276,604.263733 756.193420,604.064270 755.802124,603.519653 
	C755.734558,603.266968 755.582458,603.084839 755.462158,602.313049 
	C755.379883,601.873779 755.297546,601.434509 754.922241,600.347290 
	C752.112671,595.056946 747.874939,591.542542 741.726562,589.224548 
	C740.592896,588.769653 739.461365,587.924744 738.325317,587.918701 
	C723.225098,587.838196 708.123535,587.814575 693.024475,587.975708 
	C691.485046,587.992188 689.959229,589.294006 687.756958,590.079285 
	C680.143494,591.840698 676.314209,597.006775 674.063477,604.110657 
	C673.693665,605.006042 673.003418,605.900513 673.001038,606.796875 
	C672.947754,626.909485 672.843506,647.024048 673.113159,667.133301 
	C673.154114,670.183716 674.998169,673.209900 676.260986,676.851257 
	C679.861206,681.925354 683.714722,686.595093 691.300354,686.779724 
	C709.451416,686.873535 727.602417,686.975647 745.753601,687.016663 
	C746.246216,687.017822 746.740295,686.359924 747.957764,686.003845 
	C754.118530,684.305786 757.303162,679.719727 756.646545,672.187256 
	C735.416077,672.089600 714.185608,671.991943 692.988770,671.991394 
	C692.988770,671.991394 693.085693,671.957153 692.919495,671.371338 
M616.010376,602.981140 
	C629.956665,602.981140 643.902954,602.981140 658.580933,602.981140 
	C657.951477,600.889282 657.472107,599.296265 657.005615,597.019897 
	C654.353943,594.374390 651.702209,591.728821 649.014282,588.380554 
	C648.604492,588.213379 648.194641,588.046143 647.549072,587.831238 
	C647.549072,587.831238 647.396179,588.016785 646.843506,587.286377 
	C636.281860,587.286377 625.720276,587.286377 615.043823,587.286377 
	C615.043823,583.120056 615.179749,579.955994 615.008301,576.808594 
	C614.808411,573.141602 614.339661,569.489319 614.004150,565.128601 
	C611.636475,558.459351 605.812317,557.193054 599.110535,556.476318 
	C599.070862,593.169250 599.024963,629.862244 599.032288,666.555176 
	C599.032471,667.359070 599.641418,668.162781 600.549927,669.450012 
	C601.371826,678.833069 608.778137,686.318176 616.143555,686.839844 
	C626.386963,686.929626 636.630371,687.034607 646.873962,687.062317 
	C647.364319,687.063660 647.856567,686.382812 649.043640,686.026794 
	C655.323792,683.177795 658.496826,677.920959 656.563354,672.156494 
	C644.075500,672.127625 631.587708,672.098694 618.490906,671.756714 
	C617.282288,670.773132 616.073669,669.789612 614.952271,667.896790 
	C614.996399,646.272278 615.040527,624.647705 616.010376,602.981140 
M942.004883,606.981567 
	C942.004883,606.981567 941.899170,606.940552 942.037231,607.878357 
	C942.026611,632.963013 942.000488,658.047729 942.049683,683.132324 
	C942.052246,684.427185 942.698914,685.720825 943.960327,687.182800 
	C948.201416,687.182800 952.442505,687.182800 956.991150,687.182800 
	C956.991150,684.420349 956.990906,682.447144 956.991150,680.473938 
	C956.994568,656.695679 956.980408,632.917419 957.014160,609.139160 
	C957.022522,603.278442 955.430664,598.038086 950.746582,594.324890 
	C948.131165,592.251648 944.988464,590.843567 941.883789,588.233032 
	C940.573364,588.135559 939.263367,587.958618 937.952515,587.952454 
	C921.628723,587.876099 905.304810,587.824524 889.011536,586.859070 
	C889.004761,582.205383 888.993347,577.551697 888.992065,572.898010 
	C888.988953,561.236328 886.729248,558.541443 874.127563,556.488342 
	C874.085205,599.157959 874.037598,641.827637 874.040344,684.497253 
	C874.040405,685.294495 874.636780,686.091797 875.890137,686.972107 
	C880.152344,686.972107 884.414490,686.972107 889.083374,686.972107 
	C889.083374,660.344360 889.083374,634.165649 889.707642,607.757507 
	C891.176392,606.143066 892.645142,604.528625 895.035339,602.970398 
	C909.032227,603.052429 923.029175,603.134460 937.342773,603.789612 
	C938.560791,604.193542 939.778748,604.597473 941.021118,605.661804 
	C941.335876,606.137146 941.650696,606.612549 942.004883,606.981567 
M482.999695,568.269897 
	C482.951599,567.299011 483.076538,566.281189 482.827667,565.364807 
	C481.037659,558.773804 475.395355,557.511230 469.128510,556.527039 
	C469.128510,560.905640 469.128510,565.284241 469.128510,570.458862 
	C473.898132,569.982544 478.405853,569.532349 482.999695,568.269897 
M450.878784,672.246277 
	C451.265198,671.124695 451.985138,670.004211 451.988556,668.881470 
	C452.051178,648.357056 452.044189,627.832336 451.979004,607.307922 
	C451.975372,606.166748 451.338562,605.027527 450.988495,603.199036 
	C450.025818,601.714050 449.063141,600.229065 448.045868,598.040833 
	C445.816864,593.413330 441.686218,591.379517 436.694855,589.277954 
	C435.013458,588.825439 433.334564,587.991577 431.650238,587.980530 
	C417.736786,587.888916 403.822296,587.949768 389.908142,587.963989 
	C388.331238,587.965637 386.754303,587.964233 384.895691,587.964233 
	C384.895691,584.073242 385.023865,580.931152 384.864258,577.803711 
	C384.648926,573.583679 384.212158,569.374817 383.800385,564.461792 
	C381.112793,558.626892 376.371704,556.663757 370.129791,556.941406 
	C370.129791,600.223572 370.129791,643.166199 370.587097,686.808899 
	C391.822052,686.898071 413.056946,686.996887 434.291992,687.031189 
	C434.951447,687.032288 435.611908,686.365845 436.936584,686.022339 
	C438.302002,685.413635 439.667450,684.804932 441.685944,684.104431 
	C442.229858,683.773987 442.773773,683.443604 443.818115,682.784302 
	C444.917999,681.631042 446.017883,680.477783 447.693390,678.896606 
	C448.461945,676.757019 449.230469,674.617493 450.878784,672.246277 
M966.318481,516.183472 
	C962.357239,519.674438 958.408997,523.180298 954.431458,526.652588 
	C949.882263,530.624023 946.833008,535.422852 948.024902,541.625854 
	C950.093933,552.394470 952.434753,563.118713 955.002991,573.779358 
	C955.939148,577.665161 961.543579,578.846863 964.476135,576.230103 
	C965.437622,575.372131 966.722229,574.826050 967.539978,573.865662 
	C971.730225,568.944092 978.132812,564.761169 977.654297,557.678772 
	C977.158386,550.340271 974.632507,543.138977 972.941650,535.029968 
	C971.732300,528.949646 970.568298,522.859192 969.222168,516.809265 
	C969.120972,516.354248 967.720154,516.188354 966.318481,516.183472 
M469.860321,686.976257 
	C474.122253,686.976257 478.384186,686.976257 483.020020,686.976257 
	C483.020020,684.497253 483.020020,682.690979 483.020020,680.884705 
	C483.020020,655.409241 482.793945,629.930542 483.153503,604.460144 
	C483.265961,596.495056 480.479279,591.473328 472.767883,588.205750 
	C471.218262,588.205750 469.668640,588.205750 467.997711,588.205750 
	C467.997711,620.747498 467.992340,652.859009 468.036224,684.970459 
	C468.037109,685.619507 468.612610,686.267700 469.860321,686.976257 
M233.234894,671.979004 
	C218.861801,672.012939 204.488724,672.046875 189.328705,671.957581 
	C188.220398,670.406616 186.542435,668.993652 186.126053,667.275085 
	C185.334213,664.006836 185.263733,660.563843 184.901413,657.263794 
	C179.995651,657.263794 175.755722,657.263794 170.615067,657.263794 
	C171.073898,662.166626 171.734711,666.672607 171.865845,671.193909 
	C172.095169,679.100098 179.895401,686.462891 188.321472,686.779419 
	C203.530441,686.835938 218.739426,686.892456 234.741486,686.976379 
	C245.732971,684.478333 251.413025,678.295105 252.773102,667.770020 
	C252.859573,667.281677 253.021530,666.793457 253.021744,666.305054 
	C253.036118,633.820984 253.046646,601.336975 252.995819,568.852966 
	C252.994278,567.867554 252.340698,566.883118 252.068527,565.181335 
	C249.410629,559.333618 243.767273,555.628357 237.204971,556.267090 
	C237.120544,557.588623 236.962753,558.910156 236.962372,560.231689 
	C236.952316,596.188599 236.958359,632.145569 236.762451,668.653687 
	C235.849533,669.577942 234.936630,670.502197 233.234894,671.979004 
M994.190308,573.047424 
	C988.504211,570.826965 983.300232,571.698669 978.661316,575.619324 
	C975.899597,577.953491 973.196716,580.366211 970.582581,582.864136 
	C966.236328,587.017273 966.999207,590.904724 972.661316,592.849121 
	C982.421448,596.200867 992.179138,599.591919 1002.073425,602.506165 
	C1006.678833,603.862610 1011.771118,603.895020 1015.754028,600.662231 
	C1021.090881,596.330444 1026.004272,591.477051 1032.091675,585.946167 
	C1018.902222,581.488586 1006.924438,577.440491 994.190308,573.047424 
z"/>
<path fill="#313F49" opacity="1.000000" stroke="none" 
	d="
M756.882263,604.960022 
	C756.905273,612.331299 756.928345,619.702576 756.638672,627.598206 
	C756.297180,628.792114 756.268494,629.461731 756.239746,630.131287 
	C754.206238,637.508240 748.987183,641.641785 741.229614,643.930420 
	C724.742493,643.864502 709.096252,643.874451 693.451355,644.021912 
	C691.622681,644.039124 689.801086,644.814392 687.976257,645.238220 
	C688.336365,652.402710 688.632507,659.571411 689.113037,666.727844 
	C689.203918,668.080750 690.027344,669.384521 690.994751,671.209961 
	C692.013000,671.791626 692.549316,671.874390 693.085693,671.957153 
	C693.085693,671.957153 692.988770,671.991394 693.121338,672.366211 
	C714.498779,672.827026 735.743591,672.913025 756.988403,672.999084 
	C757.303162,679.719727 754.118530,684.305786 747.115356,685.937256 
	C727.803833,685.914429 709.334778,685.958252 690.865723,686.002075 
	C683.714722,686.595093 679.861206,681.925354 676.198120,676.128479 
	C675.405029,670.829895 674.117249,666.262939 674.045044,661.676758 
	C673.788086,645.358948 673.899963,629.034363 673.988586,612.713013 
	C674.003662,609.925903 674.589539,607.141785 674.911743,604.356323 
	C676.314209,597.006775 680.143494,591.840698 688.550110,590.003296 
	C706.913147,589.951050 724.482971,589.974731 742.052856,589.998413 
	C747.874939,591.542542 752.112671,595.056946 754.579834,600.671997 
	C748.821533,601.341125 743.405701,601.685486 737.522888,601.997742 
	C724.246643,601.952026 711.437195,601.902832 698.628296,601.971619 
	C697.088562,601.979858 695.552185,602.628357 693.708801,603.151367 
	C689.592834,605.208374 688.073547,608.502136 688.020874,612.521362 
	C687.945129,618.295349 688.042664,624.071533 687.815430,630.101440 
	C688.132080,630.602112 688.698975,631.061584 689.266846,631.062927 
	C705.883301,631.103271 722.499878,631.117859 739.116150,631.049744 
	C740.089539,631.045776 741.059875,630.314636 742.032104,629.976318 
	C742.032471,630.030823 741.923767,630.037964 742.302734,629.825928 
	C742.449463,622.727600 742.217163,615.841248 741.918640,608.838135 
	C741.852356,608.721375 742.000732,608.497559 742.069336,608.090820 
	C741.728333,607.468018 741.318726,607.251953 740.950684,607.041138 
	C740.992249,607.046387 740.907349,607.057983 741.169434,606.823730 
	C740.992126,606.106995 740.552734,605.624573 739.991638,604.863098 
	C739.541687,604.071472 739.213379,603.559021 739.359253,603.034424 
	C745.004272,603.005920 750.175110,602.989624 755.345886,602.973267 
	C755.582458,603.084839 755.734558,603.266968 755.984985,603.907471 
	C756.353516,604.573242 756.591675,604.794800 756.882263,604.960022 
z"/>
<path fill="#313F49" opacity="1.000000" stroke="none" 
	d="
M942.083374,589.135803 
	C944.988464,590.843567 948.131165,592.251648 950.746582,594.324890 
	C955.430664,598.038086 957.022522,603.278442 957.014160,609.139160 
	C956.980408,632.917419 956.994568,656.695679 956.991150,680.473938 
	C956.990906,682.447144 956.991150,684.420349 956.991150,687.182800 
	C952.442505,687.182800 948.201416,687.182800 943.641907,686.646729 
	C943.276367,661.701294 943.258667,637.291748 943.127197,612.882935 
	C943.116516,610.899963 942.326843,608.921265 941.899170,606.940552 
	C941.899170,606.940552 942.004883,606.981567 942.170166,606.723633 
	C941.889221,605.977661 941.442993,605.489502 940.996765,605.001404 
	C939.778748,604.597473 938.560791,604.193542 937.011597,603.093506 
	C922.873108,602.283569 909.065857,602.162903 895.258362,602.092407 
	C894.878235,602.090454 894.495422,602.628113 894.113892,602.914185 
	C892.645142,604.528625 891.176392,606.143066 889.092163,608.165039 
	C888.324585,610.549133 888.042847,612.525635 888.039978,614.502441 
	C888.008362,636.323914 888.027100,658.145386 888.008118,679.966858 
	C888.006470,681.883484 887.835449,683.800049 887.735291,685.879517 
	C883.098022,685.879517 879.114258,685.879517 875.075073,685.421387 
	C874.976440,642.007080 874.933289,599.050842 874.890137,556.094666 
	C886.729248,558.541443 888.988953,561.236328 888.992065,572.898010 
	C888.993347,577.551697 889.004761,582.205383 889.201050,587.699585 
	C890.359558,588.704224 891.327881,589.008057 892.297424,589.011780 
	C908.892639,589.075134 925.488037,589.101379 942.083374,589.135803 
z"/>
<path fill="#313F49" opacity="1.000000" stroke="none" 
	d="
M441.032898,684.196289 
	C439.667450,684.804932 438.302002,685.413635 436.122162,685.939331 
	C413.581757,685.940430 391.855774,686.024658 370.129791,686.108765 
	C370.129791,643.166199 370.129791,600.223572 370.129791,556.941406 
	C376.371704,556.663757 381.112793,558.626892 383.588013,565.124023 
	C383.296783,571.574402 383.432190,577.375977 383.070496,583.146423 
	C382.786774,587.672485 384.324463,589.137756 388.966583,589.147278 
	C405.003876,589.180176 421.040253,589.677734 437.076965,589.998413 
	C441.686218,591.379517 445.816864,593.413330 447.947144,598.794678 
	C446.060364,600.032288 444.295227,600.643066 442.479034,600.970642 
	C439.647522,601.481201 436.781372,601.799683 433.466553,602.168152 
	C418.638794,602.080688 404.274323,602.024597 389.596558,601.977051 
	C388.584412,602.701538 387.885620,603.417480 387.124817,604.347534 
	C387.062836,604.561646 386.985321,605.000671 386.651855,605.044922 
	C385.544434,606.056152 384.770447,607.023071 383.955872,608.458252 
	C383.870178,627.509277 383.801422,646.092163 383.827820,664.674866 
	C383.829773,666.060181 384.513580,667.444519 385.059143,669.116394 
	C386.519653,670.289368 387.801453,671.175232 389.279846,672.444275 
	C404.302704,672.833374 419.128967,672.839233 434.256531,673.137695 
	C438.835907,673.770142 443.114014,674.109985 447.411194,674.451355 
	C447.292358,676.424561 447.205048,677.874573 447.117737,679.324524 
	C446.017883,680.477783 444.917999,681.631042 443.226532,682.949158 
	C442.100922,683.474731 441.566895,683.835510 441.032898,684.196289 
z"/>
<path fill="#648F3E" opacity="1.000000" stroke="none" 
	d="
M565.563660,605.014893 
	C565.563660,605.014893 565.335327,605.140564 565.148071,604.718628 
	C564.486328,604.205200 564.011841,604.113708 563.537415,604.022278 
	C563.537415,604.022278 563.382935,604.150208 563.226074,603.719604 
	C562.588989,603.201965 562.108643,603.114990 561.628357,603.028076 
	C561.628357,603.028076 561.271912,603.097961 560.812500,602.733398 
	C548.217285,602.264709 536.081604,602.129089 523.945679,602.094971 
	C522.357910,602.090454 520.768677,602.606995 519.180115,602.882202 
	C519.014221,602.940002 518.848328,602.997742 518.137085,603.113403 
	C517.397827,603.474426 517.203918,603.777710 517.010010,604.080994 
	C517.010010,604.080994 517.003723,604.004700 516.739685,604.114502 
	C516.320801,604.625366 516.165955,605.026367 516.011108,605.427368 
	C516.011108,605.427368 516.137878,605.616699 515.728760,605.732544 
	C515.239929,606.262451 515.160217,606.676453 515.080444,607.090515 
	C515.080444,607.090515 515.004395,607.030212 514.679321,607.037476 
	C514.246399,607.502747 514.138611,607.960815 514.030762,608.418823 
	C514.030762,608.418823 514.123962,608.709778 513.711914,609.106689 
	C513.190247,611.315002 512.987183,613.126221 512.985352,614.937683 
	C512.963379,636.826477 512.996277,658.715393 512.926453,680.604004 
	C512.920471,682.487549 512.285400,684.369080 511.488586,686.180969 
	C509.869659,686.078064 508.704865,686.025146 507.539703,686.016846 
	C499.102814,685.956787 499.917175,686.807251 499.905975,678.083130 
	C499.867950,648.436523 499.858734,618.789978 500.318787,589.062561 
	C515.065918,588.958923 529.333740,588.831665 543.599304,588.954956 
	C551.376038,589.022095 559.149048,589.514038 566.923767,589.814331 
	C576.137634,591.605957 580.541382,598.055603 582.652466,607.063477 
	C582.232056,609.547119 582.072449,611.368896 582.071045,613.190796 
	C582.053894,635.494690 581.850647,657.801941 582.209412,680.100098 
	C582.297424,685.568787 580.327026,686.399475 575.629822,686.273438 
	C571.296814,686.157227 568.730225,686.098267 568.833069,680.302002 
	C569.225647,658.171509 569.016418,636.029846 568.946472,613.892578 
	C568.940552,612.012878 568.302002,610.135132 567.957336,608.256470 
	C567.957336,608.256470 567.886780,608.123413 567.751343,608.036499 
	C567.493958,607.717102 567.358276,607.493042 567.208740,607.277344 
	C567.128174,607.123901 567.047607,606.970459 566.959839,606.170593 
	C566.489624,605.354370 566.026611,605.184631 565.563660,605.014893 
z"/>
<path fill="#32404A" opacity="1.000000" stroke="none" 
	d="
M856.126526,595.233459 
	C856.126526,595.233459 856.169678,595.376282 855.919617,595.852356 
	C855.759277,597.942932 855.848938,599.557434 855.998352,602.247253 
	C845.117554,602.247253 834.686462,602.196045 824.256714,602.290466 
	C822.169373,602.309326 820.087036,602.883301 817.548462,603.072876 
	C808.741455,603.285828 800.388245,603.627258 792.035095,603.968689 
	C792.035095,603.968689 791.751526,604.121338 791.125000,604.002930 
	C790.333069,604.445740 790.167725,605.006958 790.002380,605.568115 
	C790.002380,605.568115 790.149109,605.633484 789.660461,605.743164 
	C789.118408,606.425537 789.065063,606.998108 789.011658,607.570740 
	C789.011658,607.570740 789.139404,607.612915 788.703125,607.580566 
	C788.190796,608.060303 788.114868,608.572266 788.038879,609.084290 
	C788.038879,609.084290 788.012817,609.007568 787.650269,609.176025 
	C787.166260,609.823547 786.939514,610.302368 786.938660,610.781555 
	C786.906250,628.549683 786.876404,646.317810 786.929138,664.085754 
	C786.932068,665.076538 787.640503,666.065247 788.020508,667.054932 
	C788.020508,667.054932 788.148682,667.291687 787.986511,667.818115 
	C788.246094,668.548401 788.667908,668.752319 789.089661,668.956238 
	C789.089661,668.956238 789.010620,668.978149 788.890137,669.309326 
	C789.208496,669.743835 789.647339,669.847046 790.086182,669.950317 
	C790.086182,669.950317 790.015442,669.985046 789.929321,670.297974 
	C790.258118,670.730530 790.673096,670.850159 791.088074,670.969788 
	C791.088074,670.969788 791.018799,670.980652 790.976074,671.276001 
	C791.316895,671.711975 791.700378,671.852600 792.083862,671.993225 
	C792.083862,671.993225 792.003967,671.994324 792.005493,672.250366 
	C792.347534,672.650269 792.688110,672.794189 793.488281,673.027100 
	C814.848938,673.116028 835.750000,673.116028 856.477844,673.116028 
	C856.739563,674.934998 856.901062,676.057739 857.062622,677.180542 
	C855.691589,681.308167 854.185669,685.313416 848.204102,685.917725 
	C828.537354,685.878113 809.710144,685.940918 790.882935,686.003662 
	C782.987793,686.778259 775.343018,679.579468 773.948059,669.167969 
	C773.947327,648.118347 773.930481,627.942200 773.913635,607.766113 
	C773.579590,600.276062 778.840271,592.072693 788.965210,589.261108 
	C789.426147,589.313416 789.632324,589.376465 789.632324,589.376465 
	C789.632324,589.376465 789.843018,589.133240 789.843018,589.133240 
	C789.843018,589.133240 790.230957,588.939209 790.922729,589.100586 
	C793.927124,589.193176 796.239624,589.069641 798.552368,589.064331 
	C815.560364,589.025574 832.568298,589.010376 849.576294,588.987793 
	C849.576294,588.987793 849.678284,588.835022 849.666199,589.243652 
	C850.106140,589.779236 850.558228,589.906250 851.010254,590.033264 
	C851.278320,590.334412 851.546387,590.635559 852.176392,591.211609 
	C852.743530,591.579346 852.851257,591.738281 852.861389,591.963440 
	C853.163147,592.090149 853.464844,592.216919 853.896667,592.890564 
	C854.374451,593.610413 854.722229,593.783325 855.070007,593.956177 
	C855.070007,593.956177 855.000000,593.989624 854.968018,594.333557 
	C855.332825,594.862793 855.729675,595.048096 856.126526,595.233459 
z"/>
<path fill="#32404A" opacity="1.000000" stroke="none" 
	d="
M656.945740,672.935120 
	C658.496826,677.920959 655.323792,683.177795 648.212646,685.918579 
	C636.837097,685.877686 626.292664,685.945068 615.748169,686.012451 
	C608.778137,686.318176 601.371826,678.833069 600.354736,668.750366 
	C600.102722,665.386719 599.999817,662.722717 599.996216,660.058655 
	C599.949768,625.403687 599.917297,590.748718 599.881348,556.093750 
	C605.812317,557.193054 611.636475,558.459351 613.905640,565.951782 
	C613.807190,573.850586 613.807190,580.926147 613.807190,588.016785 
	C625.526550,588.016785 636.461365,588.016785 647.396179,588.016785 
	C647.396179,588.016785 647.549072,587.831238 647.633179,588.226807 
	C648.161743,588.776062 648.606140,588.929688 649.050537,589.083313 
	C651.702209,591.728821 654.353943,594.374390 656.857422,597.787781 
	C657.484924,601.783081 655.616699,602.021484 653.102051,602.004517 
	C641.776794,601.927979 630.450317,601.928650 619.125244,602.018860 
	C617.438416,602.032227 615.756592,602.670959 613.956299,603.475220 
	C613.824707,623.834106 613.782837,643.738281 613.840515,663.642151 
	C613.845459,665.364380 614.507935,667.084778 614.865051,668.806030 
	C616.073669,669.789612 617.282288,670.773132 619.003418,672.286804 
	C631.992493,672.856323 644.469116,672.895691 656.945740,672.935120 
z"/>
<path fill="#35434D" opacity="1.000000" stroke="none" 
	d="
M187.892365,686.003296 
	C179.895401,686.462891 172.095169,679.100098 171.865845,671.193909 
	C171.734711,666.672607 171.073898,662.166626 170.615067,657.263794 
	C175.755722,657.263794 179.995651,657.263794 184.901413,657.263794 
	C185.263733,660.563843 185.334213,664.006836 186.126053,667.275085 
	C186.542435,668.993652 188.220398,670.406616 189.890411,672.421265 
	C204.156830,673.019836 217.861481,673.186951 231.566345,673.208740 
	C232.384537,673.210083 233.204559,672.047424 234.023727,671.426453 
	C234.936630,670.502197 235.849533,669.577942 237.326706,668.296997 
	C238.115158,666.321106 238.533203,664.702148 238.535004,663.082703 
	C238.573029,628.840637 238.570465,594.598450 238.542877,560.356323 
	C238.541702,558.897339 238.224136,557.438660 238.053970,555.979797 
	C243.767273,555.628357 249.410629,559.333618 252.013763,566.014893 
	C251.967209,600.634521 251.975418,634.420654 251.983612,668.206787 
	C251.413025,678.295105 245.732971,684.478333 234.098648,686.622070 
	C218.267990,686.179626 203.080185,686.091492 187.892365,686.003296 
z"/>
<path fill="#313F49" opacity="1.000000" stroke="none" 
	d="
M287.907135,686.002502 
	C281.440247,686.647095 273.764008,681.045837 271.899384,674.230408 
	C271.427521,672.505676 271.235840,670.704346 270.962280,668.059570 
	C271.005432,647.432983 271.001709,627.684937 270.997986,607.936890 
	C271.236053,600.334290 274.896637,594.819763 281.784332,590.843140 
	C282.440430,590.564270 282.619659,590.411499 282.774048,590.229553 
	C282.774048,590.229553 283.191071,590.012634 283.866943,590.122375 
	C302.374939,590.154175 320.207092,590.076233 338.039215,589.998291 
	C343.346527,591.402771 347.497894,594.313416 350.005188,600.043579 
	C348.134064,601.311584 346.351837,602.197205 344.569824,602.196838 
	C328.173859,602.193542 311.777924,601.993347 295.381897,601.986084 
	C293.570038,601.985291 291.757812,602.832092 289.752533,603.546631 
	C288.029358,605.208679 286.499451,606.609985 284.681519,608.317383 
	C284.242432,609.596863 283.959503,610.570312 283.959747,611.543701 
	C283.964447,630.311035 284.002350,649.078430 284.176758,668.098145 
	C284.652893,668.536926 284.985718,668.723328 285.574463,669.098999 
	C286.936584,670.226318 288.042816,671.164490 289.388977,672.446533 
	C304.751495,672.855774 319.874054,672.921143 335.312317,673.254272 
	C340.026276,673.778381 344.424530,674.034668 349.086853,674.306396 
	C349.086853,675.688843 349.086853,676.963074 349.086853,678.237305 
	C348.978485,678.479126 348.822540,678.684875 348.174316,679.102417 
	C347.511932,679.914368 347.294250,680.478516 347.076538,681.042603 
	C347.076538,681.042603 347.040405,681.052063 346.731995,681.085693 
	C345.971527,681.510071 345.519470,681.900818 345.067383,682.291504 
	C341.613953,683.853027 338.160522,685.414551 334.049927,686.629822 
	C318.230865,686.189880 303.069000,686.096191 287.907135,686.002502 
z"/>
<path fill="#648F3E" opacity="1.000000" stroke="none" 
	d="
M472.970276,589.049805 
	C480.479279,591.473328 483.265961,596.495056 483.153503,604.460144 
	C482.793945,629.930542 483.020020,655.409241 483.020020,680.884705 
	C483.020020,682.690979 483.020020,684.497253 483.020020,686.976257 
	C478.384186,686.976257 474.122253,686.976257 469.424988,686.484009 
	C468.989655,653.817322 468.989655,621.642883 468.989655,589.444458 
	C470.690735,589.275818 471.830505,589.162781 472.970276,589.049805 
z"/>
<path fill="#669041" opacity="1.000000" stroke="none" 
	d="
M972.994568,535.877625 
	C974.632507,543.138977 977.158386,550.340271 977.654297,557.678772 
	C978.132812,564.761169 971.730225,568.944092 967.539978,573.865662 
	C966.722229,574.826050 965.437622,575.372131 964.476135,576.230103 
	C961.543579,578.846863 955.939148,577.665161 955.002991,573.779358 
	C952.434753,563.118713 950.093933,552.394470 948.024902,541.625854 
	C946.833008,535.422852 949.882263,530.624023 954.431458,526.652588 
	C958.408997,523.180298 962.357239,519.674438 966.937012,516.257996 
	C969.368530,522.847534 971.181580,529.362610 972.994568,535.877625 
z"/>
<path fill="#669041" opacity="1.000000" stroke="none" 
	d="
M994.568481,573.219910 
	C1006.924438,577.440491 1018.902222,581.488586 1032.091675,585.946167 
	C1026.004272,591.477051 1021.090881,596.330444 1015.754028,600.662231 
	C1011.771118,603.895020 1006.678833,603.862610 1002.073425,602.506165 
	C992.179138,599.591919 982.421448,596.200867 972.661316,592.849121 
	C966.999207,590.904724 966.236328,587.017273 970.582581,582.864136 
	C973.196716,580.366211 975.899597,577.953491 978.661316,575.619324 
	C983.300232,571.698669 988.504211,570.826965 994.568481,573.219910 
z"/>
<path fill="#35434D" opacity="1.000000" stroke="none" 
	d="
M433.929901,602.199524 
	C436.781372,601.799683 439.647522,601.481201 442.479034,600.970642 
	C444.295227,600.643066 446.060364,600.032288 447.974426,599.146240 
	C449.063141,600.229065 450.025818,601.714050 450.872681,604.006958 
	C450.841614,624.260803 450.972534,643.706848 450.964081,663.152832 
	C450.962738,666.261292 450.336426,669.369568 449.999023,672.477905 
	C449.230469,674.617493 448.461945,676.757019 447.405579,679.110596 
	C447.205048,677.874573 447.292358,676.424561 447.411194,674.451355 
	C443.114014,674.109985 438.835907,673.770142 434.336670,672.900024 
	C434.397644,671.958191 434.679779,671.546631 435.025146,670.787292 
	C435.788391,669.226807 436.488403,668.014099 437.424377,666.481506 
	C437.752625,647.841919 437.855743,629.522278 437.897675,611.202515 
	C437.899353,610.470276 437.321198,609.736816 436.830475,608.752258 
	C435.766266,607.191895 434.884766,605.883240 434.045959,604.178345 
	C434.035736,603.254578 433.982819,602.727051 433.929901,602.199524 
z"/>
<path fill="#35434D" opacity="1.000000" stroke="none" 
	d="
M349.382812,678.055908 
	C349.086853,676.963074 349.086853,675.688843 349.086853,674.306396 
	C344.424530,674.034668 340.026276,673.778381 335.433167,673.009888 
	C335.453156,672.028198 335.668030,671.558716 336.051270,670.922119 
	C336.734558,669.511658 337.249420,668.268372 338.178864,666.861450 
	C338.738464,666.225586 339.009369,665.753662 339.010406,665.281128 
	C339.049622,647.303406 339.078613,629.325623 339.034454,611.348022 
	C339.032471,610.537170 338.338226,609.727966 337.897156,608.824219 
	C337.827850,608.730408 337.990204,608.562927 338.155090,608.184570 
	C337.851501,607.200439 337.382996,606.594666 336.709839,605.988770 
	C336.221863,605.879761 336.058716,605.675110 336.167542,604.962769 
	C337.448822,603.936218 338.562134,602.833069 339.710724,602.794983 
	C343.789398,602.659851 347.880096,602.887878 351.966248,602.978394 
	C351.966248,602.978394 352.058472,603.445557 352.023010,604.157166 
	C351.999023,627.393433 352.010529,649.918152 352.022034,672.442810 
	C351.240936,674.253357 350.459869,676.063965 349.382812,678.055908 
z"/>
<path fill="#A8AEB2" opacity="1.000000" stroke="none" 
	d="
M567.988037,608.686523 
	C568.302002,610.135132 568.940552,612.012878 568.946472,613.892578 
	C569.016418,636.029846 569.225647,658.171509 568.833069,680.302002 
	C568.730225,686.098267 571.296814,686.157227 575.629822,686.273438 
	C580.327026,686.399475 582.297424,685.568787 582.209412,680.100098 
	C581.850647,657.801941 582.053894,635.494690 582.071045,613.190796 
	C582.072449,611.368896 582.232056,609.547119 582.607422,607.444092 
	C582.896790,633.586975 582.896790,660.010986 582.896790,686.691284 
	C578.032532,686.691284 573.296509,686.691284 568.018677,686.691284 
	C568.018677,660.881836 568.018677,634.999268 567.988037,608.686523 
z"/>
<path fill="#B8BDC0" opacity="1.000000" stroke="none" 
	d="
M874.508850,556.291504 
	C874.933289,599.050842 874.976440,642.007080 875.033386,685.674194 
	C875.016418,686.553101 874.985657,686.721069 874.954895,686.889038 
	C874.636780,686.091797 874.040405,685.294495 874.040344,684.497253 
	C874.037598,641.827637 874.085205,599.157959 874.508850,556.291504 
z"/>
<path fill="#669041" opacity="1.000000" stroke="none" 
	d="
M469.866821,556.115967 
	C475.395355,557.511230 481.037659,558.773804 482.827667,565.364807 
	C483.076538,566.281189 482.951599,567.299011 482.499298,568.623657 
	C478.130035,568.977356 474.261169,568.977356 469.866821,568.977356 
	C469.866821,564.227417 469.866821,560.171692 469.866821,556.115967 
z"/>
<path fill="#D4D7D9" opacity="1.000000" stroke="none" 
	d="
M599.495972,556.285034 
	C599.917297,590.748718 599.949768,625.403687 599.996216,660.058655 
	C599.999817,662.722717 600.102722,665.386719 600.062988,668.508667 
	C599.641418,668.162781 599.032471,667.359070 599.032288,666.555176 
	C599.024963,629.862244 599.070862,593.169250 599.495972,556.285034 
z"/>
<path fill="#D4D7D9" opacity="1.000000" stroke="none" 
	d="
M237.629471,556.123413 
	C238.224136,557.438660 238.541702,558.897339 238.542877,560.356323 
	C238.570465,594.598450 238.573029,628.840637 238.535004,663.082703 
	C238.533203,664.702148 238.115158,666.321106 237.426331,668.021362 
	C236.958359,632.145569 236.952316,596.188599 236.962372,560.231689 
	C236.962753,558.910156 237.120544,557.588623 237.629471,556.123413 
z"/>
<path fill="#7C858B" opacity="1.000000" stroke="none" 
	d="
M499.838501,589.143372 
	C499.858734,618.789978 499.867950,648.436523 499.905975,678.083130 
	C499.917175,686.807251 499.102814,685.956787 507.539703,686.016846 
	C508.704865,686.025146 509.869659,686.078064 511.528992,686.322998 
	C512.023315,686.535645 512.027954,686.831848 512.027954,686.831848 
	C510.872711,686.912903 509.718079,687.050903 508.562073,687.063782 
	C505.585052,687.097046 502.607422,687.074890 499.028961,687.074890 
	C499.028961,654.559998 499.028961,622.243958 499.262848,589.491089 
	C499.496735,589.054199 499.838501,589.143372 499.838501,589.143372 
z"/>
<path fill="#B8BDC0" opacity="1.000000" stroke="none" 
	d="
M472.869080,588.627808 
	C471.830505,589.162781 470.690735,589.275818 468.989655,589.444458 
	C468.989655,621.642883 468.989655,653.817322 468.954865,686.453979 
	C468.612610,686.267700 468.037109,685.619507 468.036224,684.970459 
	C467.992340,652.859009 467.997711,620.747498 467.997711,588.205750 
	C469.668640,588.205750 471.218262,588.205750 472.869080,588.627808 
z"/>
<path fill="#D4D7D9" opacity="1.000000" stroke="none" 
	d="
M252.378357,667.988403 
	C251.975418,634.420654 251.967209,600.634521 251.975067,566.373291 
	C252.340698,566.883118 252.994278,567.867554 252.995819,568.852966 
	C253.046646,601.336975 253.036118,633.820984 253.021744,666.305054 
	C253.021530,666.793457 252.859573,667.281677 252.378357,667.988403 
z"/>
<path fill="#7C858B" opacity="1.000000" stroke="none" 
	d="
M436.885925,589.638184 
	C421.040253,589.677734 405.003876,589.180176 388.966583,589.147278 
	C384.324463,589.137756 382.786774,587.672485 383.070496,583.146423 
	C383.432190,577.375977 383.296783,571.574402 383.623047,565.473755 
	C384.212158,569.374817 384.648926,573.583679 384.864258,577.803711 
	C385.023865,580.931152 384.895691,584.073242 384.895691,587.964233 
	C386.754303,587.964233 388.331238,587.965637 389.908142,587.963989 
	C403.822296,587.949768 417.736786,587.888916 431.650238,587.980530 
	C433.334564,587.991577 435.013458,588.825439 436.885925,589.638184 
z"/>
<path fill="#7C858B" opacity="1.000000" stroke="none" 
	d="
M875.422485,686.930542 
	C874.985657,686.721069 875.016418,686.553101 875.088867,686.132324 
	C879.114258,685.879517 883.098022,685.879517 887.735291,685.879517 
	C887.835449,683.800049 888.006470,681.883484 888.008118,679.966858 
	C888.027100,658.145386 888.008362,636.323914 888.039978,614.502441 
	C888.042847,612.525635 888.324585,610.549133 888.780029,608.279663 
	C889.083374,634.165649 889.083374,660.344360 889.083374,686.972107 
	C884.414490,686.972107 880.152344,686.972107 875.422485,686.930542 
z"/>
<path fill="#D4D7D9" opacity="1.000000" stroke="none" 
	d="
M941.968201,607.409424 
	C942.326843,608.921265 943.116516,610.899963 943.127197,612.882935 
	C943.258667,637.291748 943.276367,661.701294 943.184570,686.562805 
	C942.698914,685.720825 942.052246,684.427185 942.049683,683.132324 
	C942.000488,658.047729 942.026611,632.963013 941.968201,607.409424 
z"/>
<path fill="#B8BDC0" opacity="1.000000" stroke="none" 
	d="
M512.465576,686.884644 
	C512.027954,686.831848 512.023315,686.535645 511.982941,686.393616 
	C512.285400,684.369080 512.920471,682.487549 512.926453,680.604004 
	C512.996277,658.715393 512.963379,636.826477 512.985352,614.937683 
	C512.987183,613.126221 513.190247,611.315002 513.633423,609.237793 
	C513.975952,633.701294 514.000916,658.430725 513.947388,683.159912 
	C513.944702,684.419861 513.266785,685.678345 512.465576,686.884644 
z"/>
<path fill="#A8AEB2" opacity="1.000000" stroke="none" 
	d="
M674.487610,604.233521 
	C674.589539,607.141785 674.003662,609.925903 673.988586,612.713013 
	C673.899963,629.034363 673.788086,645.358948 674.045044,661.676758 
	C674.117249,666.262939 675.405029,670.829895 676.071777,675.826538 
	C674.998169,673.209900 673.154114,670.183716 673.113159,667.133301 
	C672.843506,647.024048 672.947754,626.909485 673.001038,606.796875 
	C673.003418,605.900513 673.693665,605.006042 674.487610,604.233521 
z"/>
<path fill="#A8AEB2" opacity="1.000000" stroke="none" 
	d="
M500.318787,589.062561 
	C499.838501,589.143372 499.496735,589.054199 499.322693,589.025635 
	C500.272308,588.672485 501.394836,588.069153 502.519867,588.064514 
	C523.064575,587.979553 543.609558,587.952881 564.154480,587.981689 
	C565.102783,587.983032 566.050232,588.619385 566.960938,589.387207 
	C559.149048,589.514038 551.376038,589.022095 543.599304,588.954956 
	C529.333740,588.831665 515.065918,588.958923 500.318787,589.062561 
z"/>
<path fill="#D4D7D9" opacity="1.000000" stroke="none" 
	d="
M857.428711,676.956665 
	C856.901062,676.057739 856.739563,674.934998 856.477844,673.116028 
	C835.750000,673.116028 814.848938,673.116028 793.490540,672.835693 
	C793.033203,672.555298 793.041321,672.171387 793.041321,672.171387 
	C814.621338,672.171387 836.201416,672.171387 857.794739,672.171387 
	C857.794739,673.798889 857.794739,675.265869 857.428711,676.956665 
z"/>
<path fill="#B8BDC0" opacity="1.000000" stroke="none" 
	d="
M450.438904,672.362061 
	C450.336426,669.369568 450.962738,666.261292 450.964081,663.152832 
	C450.972534,643.706848 450.841614,624.260803 450.876648,604.351074 
	C451.338562,605.027527 451.975372,606.166748 451.979004,607.307922 
	C452.044189,627.832336 452.051178,648.357056 451.988556,668.881470 
	C451.985138,670.004211 451.265198,671.124695 450.438904,672.362061 
z"/>
<path fill="#7C858B" opacity="1.000000" stroke="none" 
	d="
M352.402161,672.176270 
	C352.010529,649.918152 351.999023,627.393433 351.994537,604.393555 
	C352.341339,604.641418 352.978577,605.364868 352.977692,606.087585 
	C352.951172,628.028320 352.861816,649.969055 352.402161,672.176270 
z"/>
<path fill="#7C858B" opacity="1.000000" stroke="none" 
	d="
M352.002136,602.643921 
	C347.880096,602.887878 343.789398,602.659851 339.710724,602.794983 
	C338.562134,602.833069 337.448822,603.936218 335.803436,604.772888 
	C334.060059,604.341919 332.834778,603.126587 331.604858,603.121948 
	C317.718903,603.069397 303.832245,603.202515 289.945770,603.285828 
	C291.757812,602.832092 293.570038,601.985291 295.381897,601.986084 
	C311.777924,601.993347 328.173859,602.193542 344.569824,602.196838 
	C346.351837,602.197205 348.134064,601.311584 349.959747,600.412292 
	C350.681519,600.761597 351.359772,601.535522 352.002136,602.643921 
z"/>
<path fill="#D4D7D9" opacity="1.000000" stroke="none" 
	d="
M614.908691,668.351440 
	C614.507935,667.084778 613.845459,665.364380 613.840515,663.642151 
	C613.782837,643.738281 613.824707,623.834106 614.209351,603.482666 
	C614.747192,603.031311 614.915894,603.027283 615.084656,603.023193 
	C615.040527,624.647705 614.996399,646.272278 614.908691,668.351440 
z"/>
<path fill="#7C858B" opacity="1.000000" stroke="none" 
	d="
M370.358459,686.458862 
	C391.855774,686.024658 413.581757,685.940430 435.789825,685.933472 
	C435.611908,686.365845 434.951447,687.032288 434.291992,687.031189 
	C413.056946,686.996887 391.822052,686.898071 370.358459,686.458862 
z"/>
<path fill="#D4D7D9" opacity="1.000000" stroke="none" 
	d="
M756.817505,672.593140 
	C735.743591,672.913025 714.498779,672.827026 693.104553,672.317627 
	C714.185608,671.991943 735.416077,672.089600 756.817505,672.593140 
z"/>
<path fill="#7C858B" opacity="1.000000" stroke="none" 
	d="
M818.002380,603.201294 
	C820.087036,602.883301 822.169373,602.309326 824.256714,602.290466 
	C834.686462,602.196045 845.117554,602.247253 855.998352,602.247253 
	C855.848938,599.557434 855.759277,597.942932 855.850525,595.880371 
	C856.739258,597.706299 857.447083,599.980286 858.633789,603.792908 
	C844.859558,603.792908 831.869446,603.792908 818.407959,603.642822 
	C817.936584,603.492676 818.002380,603.201294 818.002380,603.201294 
z"/>
<path fill="#35434D" opacity="1.000000" stroke="none" 
	d="
M773.576782,608.054138 
	C773.930481,627.942200 773.947327,648.118347 773.929932,668.784119 
	C773.564270,668.733887 772.941772,668.193054 772.943481,667.654236 
	C773.006287,647.883484 773.127075,628.112793 773.576782,608.054138 
z"/>
<path fill="#7C858B" opacity="1.000000" stroke="none" 
	d="
M270.627502,608.166931 
	C271.001709,627.684937 271.005432,647.432983 271.004272,667.659546 
	C270.679565,667.441101 270.079926,666.743713 270.080688,666.047058 
	C270.102112,646.830322 270.184631,627.613647 270.627502,608.166931 
z"/>
<path fill="#7C858B" opacity="1.000000" stroke="none" 
	d="
M337.876801,589.612061 
	C320.207092,590.076233 302.374939,590.154175 284.101410,590.106323 
	C285.381989,589.275330 287.097717,587.976318 288.826965,587.958008 
	C303.982788,587.797546 319.141144,587.836487 334.298126,587.924683 
	C335.439362,587.931335 336.575745,588.772461 337.876801,589.612061 
z"/>
<path fill="#A8AEB2" opacity="1.000000" stroke="none" 
	d="
M788.017822,666.581909 
	C787.640503,666.065247 786.932068,665.076538 786.929138,664.085754 
	C786.876404,646.317810 786.906250,628.549683 786.938660,610.781555 
	C786.939514,610.302368 787.166260,609.823547 787.688904,609.164001 
	C788.065125,628.025269 788.040161,647.067078 788.017822,666.581909 
z"/>
<path fill="#A8AEB2" opacity="1.000000" stroke="none" 
	d="
M849.265869,588.637573 
	C832.568298,589.010376 815.560364,589.025574 798.552368,589.064331 
	C796.239624,589.069641 793.927124,589.193176 791.137329,589.132080 
	C791.171875,588.655029 791.684509,588.003174 792.195129,588.004700 
	C811.115295,588.061340 830.035339,588.178467 849.265869,588.637573 
z"/>
<path fill="#7C858B" opacity="1.000000" stroke="none" 
	d="
M791.098877,686.391541 
	C809.710144,685.940918 828.537354,685.878113 847.846924,685.916992 
	C847.839966,686.381226 847.349731,687.062134 846.861450,687.060669 
	C828.345825,687.005981 809.830383,686.888489 791.098877,686.391541 
z"/>
<path fill="#7C858B" opacity="1.000000" stroke="none" 
	d="
M741.889709,589.611450 
	C724.482971,589.974731 706.913147,589.951050 688.885193,589.963318 
	C689.959229,589.294006 691.485046,587.992188 693.024475,587.975708 
	C708.123535,587.814575 723.225098,587.838196 738.325317,587.918701 
	C739.461365,587.924744 740.592896,588.769653 741.889709,589.611450 
z"/>
<path fill="#7C858B" opacity="1.000000" stroke="none" 
	d="
M691.083008,686.390869 
	C709.334778,685.958252 727.803833,685.914429 746.753296,685.939941 
	C746.740295,686.359924 746.246216,687.017822 745.753601,687.016663 
	C727.602417,686.975647 709.451416,686.873535 691.083008,686.390869 
z"/>
<path fill="#D4D7D9" opacity="1.000000" stroke="none" 
	d="
M647.119873,587.651611 
	C636.461365,588.016785 625.526550,588.016785 613.807190,588.016785 
	C613.807190,580.926147 613.807190,573.850586 613.897400,566.302856 
	C614.339661,569.489319 614.808411,573.141602 615.008301,576.808594 
	C615.179749,579.955994 615.043823,583.120056 615.043823,587.286377 
	C625.720276,587.286377 636.281860,587.286377 647.119873,587.651611 
z"/>
<path fill="#7C858B" opacity="1.000000" stroke="none" 
	d="
M688.439209,645.145630 
	C689.801086,644.814392 691.622681,644.039124 693.451355,644.021912 
	C709.096252,643.874451 724.742493,643.864502 740.872803,643.914917 
	C739.852356,644.352112 738.348816,644.971985 736.842285,644.979614 
	C720.862549,645.059998 704.882263,645.043091 688.439209,645.145630 
z"/>
<path fill="#7C858B" opacity="1.000000" stroke="none" 
	d="
M941.983582,588.684448 
	C925.488037,589.101379 908.892639,589.075134 892.297424,589.011780 
	C891.327881,589.008057 890.359558,588.704224 889.185791,588.153320 
	C905.304810,587.824524 921.628723,587.876099 937.952515,587.952454 
	C939.263367,587.958618 940.573364,588.135559 941.983582,588.684448 
z"/>
<path fill="#B8BDC0" opacity="1.000000" stroke="none" 
	d="
M615.547485,603.002197 
	C614.915894,603.027283 614.747192,603.031311 614.325439,603.027893 
	C615.756592,602.670959 617.438416,602.032227 619.125244,602.018860 
	C630.450317,601.928650 641.776794,601.927979 653.102051,602.004517 
	C655.616699,602.021484 657.484924,601.783081 656.850952,598.129456 
	C657.472107,599.296265 657.951477,600.889282 658.580933,602.981140 
	C643.902954,602.981140 629.956665,602.981140 615.547485,603.002197 
z"/>
<path fill="#7C858B" opacity="1.000000" stroke="none" 
	d="
M288.128235,686.384033 
	C303.069000,686.096191 318.230865,686.189880 333.655090,686.605286 
	C318.728088,686.873169 303.538696,686.819336 288.128235,686.384033 
z"/>
<path fill="#7C858B" opacity="1.000000" stroke="none" 
	d="
M188.106918,686.391357 
	C203.080185,686.091492 218.267990,686.179626 233.702103,686.608398 
	C218.739426,686.892456 203.530441,686.835938 188.106918,686.391357 
z"/>
<path fill="#D4D7D9" opacity="1.000000" stroke="none" 
	d="
M233.629303,671.702759 
	C233.204559,672.047424 232.384537,673.210083 231.566345,673.208740 
	C217.861481,673.186951 204.156830,673.019836 190.283875,672.482910 
	C204.488724,672.046875 218.861801,672.012939 233.629303,671.702759 
z"/>
<path fill="#A8AEB2" opacity="1.000000" stroke="none" 
	d="
M894.574585,602.942261 
	C894.495422,602.628113 894.878235,602.090454 895.258362,602.092407 
	C909.065857,602.162903 922.873108,602.283569 936.853210,602.806946 
	C923.029175,603.134460 909.032227,603.052429 894.574585,602.942261 
z"/>
<path fill="#A8AEB2" opacity="1.000000" stroke="none" 
	d="
M519.632812,602.917236 
	C520.768677,602.606995 522.357910,602.090454 523.945679,602.094971 
	C536.081604,602.129089 548.217285,602.264709 560.648560,602.655151 
	C547.324585,602.945068 533.705078,602.948669 519.632812,602.917236 
z"/>
<path fill="#D4D7D9" opacity="1.000000" stroke="none" 
	d="
M656.754517,672.545776 
	C644.469116,672.895691 631.992493,672.856323 619.307861,672.443359 
	C631.587708,672.098694 644.075500,672.127625 656.754517,672.545776 
z"/>
<path fill="#32404A" opacity="1.000000" stroke="none" 
	d="
M737.989807,602.029907 
	C743.405701,601.685486 748.821533,601.341125 754.726318,600.995972 
	C755.297546,601.434509 755.379883,601.873779 755.404053,602.643188 
	C750.175110,602.989624 745.004272,603.005920 739.114441,603.008850 
	C738.395386,602.995483 737.912842,602.892761 737.945312,602.678223 
	C737.977844,602.463684 737.989807,602.029907 737.989807,602.029907 
z"/>
<path fill="#7C858B" opacity="1.000000" stroke="none" 
	d="
M615.945862,686.426147 
	C626.292664,685.945068 636.837097,685.877686 647.864746,685.915039 
	C647.856567,686.382812 647.364319,687.063660 646.873962,687.062317 
	C636.630371,687.034607 626.386963,686.929626 615.945862,686.426147 
z"/>
<path fill="#B8BDC0" opacity="1.000000" stroke="none" 
	d="
M972.968140,535.453796 
	C971.181580,529.362610 969.368530,522.847534 967.239502,516.110291 
	C967.720154,516.188354 969.120972,516.354248 969.222168,516.809265 
	C970.568298,522.859192 971.732300,528.949646 972.968140,535.453796 
z"/>
<path fill="#B8BDC0" opacity="1.000000" stroke="none" 
	d="
M469.497681,556.321533 
	C469.866821,560.171692 469.866821,564.227417 469.866821,568.977356 
	C474.261169,568.977356 478.130035,568.977356 482.456238,569.029785 
	C478.405853,569.532349 473.898132,569.982544 469.128510,570.458862 
	C469.128510,565.284241 469.128510,560.905640 469.497681,556.321533 
z"/>
<path fill="#A8AEB2" opacity="1.000000" stroke="none" 
	d="
M817.548462,603.072876 
	C818.002380,603.201294 817.936584,603.492676 817.937622,603.641968 
	C809.614990,603.835388 801.291382,603.879456 792.501404,603.946106 
	C800.388245,603.627258 808.741455,603.285828 817.548462,603.072876 
z"/>
<path fill="#32404A" opacity="1.000000" stroke="none" 
	d="
M756.442627,629.920288 
	C756.268494,629.461731 756.297180,628.792114 756.598877,628.065796 
	C756.796326,628.575867 756.720886,629.142578 756.442627,629.920288 
z"/>
<path fill="#35434D" opacity="1.000000" stroke="none" 
	d="
M347.350586,680.901794 
	C347.294250,680.478516 347.511932,679.914368 348.010498,679.208130 
	C348.069092,679.631042 347.846863,680.195984 347.350586,680.901794 
z"/>
<path fill="#35434D" opacity="1.000000" stroke="none" 
	d="
M345.382904,682.240845 
	C345.519470,681.900818 345.971527,681.510071 346.739288,681.102905 
	C346.602783,681.454407 346.150574,681.822266 345.382904,682.240845 
z"/>
<path fill="#35434D" opacity="1.000000" stroke="none" 
	d="
M441.359406,684.150391 
	C441.566895,683.835510 442.100922,683.474731 442.976318,683.113647 
	C442.773773,683.443604 442.229858,683.773987 441.359406,684.150391 
z"/>
<path fill="#D4D7D9" opacity="1.000000" stroke="none" 
	d="
M693.002563,671.664246 
	C692.549316,671.874390 692.013000,671.791626 691.342651,671.424072 
	C691.778931,671.216553 692.349182,671.293945 693.002563,671.664246 
z"/>
<path fill="#D4D7D9" opacity="1.000000" stroke="none" 
	d="
M941.008911,605.331604 
	C941.442993,605.489502 941.889221,605.977661 942.150452,606.776855 
	C941.650696,606.612549 941.335876,606.137146 941.008911,605.331604 
z"/>
<path fill="#A8AEB2" opacity="1.000000" stroke="none" 
	d="
M790.051514,669.670959 
	C789.647339,669.847046 789.208496,669.743835 788.916748,669.278137 
	C789.381470,669.074341 789.699158,669.232971 790.051514,669.670959 
z"/>
<path fill="#A8AEB2" opacity="1.000000" stroke="none" 
	d="
M791.047424,670.689087 
	C790.673096,670.850159 790.258118,670.730530 789.946289,670.262451 
	C790.368591,670.078735 790.687683,670.243530 791.047424,670.689087 
z"/>
<path fill="#A8AEB2" opacity="1.000000" stroke="none" 
	d="
M850.993164,589.708801 
	C850.558228,589.906250 850.106140,589.779236 849.746765,589.287659 
	C850.218262,589.076843 850.597168,589.230591 850.993164,589.708801 
z"/>
<path fill="#A8AEB2" opacity="1.000000" stroke="none" 
	d="
M792.033325,671.713074 
	C791.700378,671.852600 791.316895,671.711975 790.980347,671.241211 
	C791.345764,671.084961 791.664307,671.258972 792.033325,671.713074 
z"/>
<path fill="#7C858B" opacity="1.000000" stroke="none" 
	d="
M649.032410,588.731934 
	C648.606140,588.929688 648.161743,588.776062 647.751099,588.250610 
	C648.194641,588.046143 648.604492,588.213379 649.032410,588.731934 
z"/>
<path fill="#A8AEB2" opacity="1.000000" stroke="none" 
	d="
M792.786865,672.087463 
	C793.041321,672.171387 793.033203,672.555298 793.031006,672.746704 
	C792.688110,672.794189 792.347534,672.650269 792.005371,672.210388 
	C792.179993,671.944153 792.356140,671.973816 792.786865,672.087463 
z"/>
<path fill="#A8AEB2" opacity="1.000000" stroke="none" 
	d="
M567.282288,607.455444 
	C567.358276,607.493042 567.493958,607.717102 567.815186,607.996582 
	C567.770569,607.945984 567.551025,607.809265 567.282288,607.455444 
z"/>
<path fill="#A8AEB2" opacity="1.000000" stroke="none" 
	d="
M517.280762,604.024658 
	C517.203918,603.777710 517.397827,603.474426 517.873779,603.125000 
	C517.954346,603.375305 517.752930,603.671814 517.280762,604.024658 
z"/>
<path fill="#A8AEB2" opacity="1.000000" stroke="none" 
	d="
M516.252319,605.232544 
	C516.165955,605.026367 516.320801,604.625366 516.777832,604.111816 
	C516.884583,604.345459 516.689026,604.691589 516.252319,605.232544 
z"/>
<path fill="#A8AEB2" opacity="1.000000" stroke="none" 
	d="
M563.732544,604.295410 
	C564.011841,604.113708 564.486328,604.205200 565.029053,604.665527 
	C564.707397,604.879150 564.317566,604.723877 563.732544,604.295410 
z"/>
<path fill="#32404A" opacity="1.000000" stroke="none" 
	d="
M756.814697,604.711670 
	C756.591675,604.794800 756.353516,604.573242 756.042236,604.079956 
	C756.193420,604.064270 756.470276,604.263733 756.814697,604.711670 
z"/>
<path fill="#A8AEB2" opacity="1.000000" stroke="none" 
	d="
M790.271606,605.330811 
	C790.167725,605.006958 790.333069,604.445740 790.976440,603.940918 
	C791.149841,604.362671 790.845337,604.728088 790.271606,605.330811 
z"/>
<path fill="#A8AEB2" opacity="1.000000" stroke="none" 
	d="
M565.745422,605.283081 
	C566.026611,605.184631 566.489624,605.354370 566.955688,605.910645 
	C566.614868,606.048523 566.270996,605.799866 565.745422,605.283081 
z"/>
<path fill="#A8AEB2" opacity="1.000000" stroke="none" 
	d="
M515.389893,607.027039 
	C515.160217,606.676453 515.239929,606.262451 515.674683,605.832886 
	C515.919678,606.199402 515.809509,606.581482 515.389893,607.027039 
z"/>
<path fill="#A8AEB2" opacity="1.000000" stroke="none" 
	d="
M789.286011,607.324646 
	C789.065063,606.998108 789.118408,606.425537 789.633301,605.818848 
	C789.916626,606.216003 789.738464,606.647278 789.286011,607.324646 
z"/>
<path fill="#A8AEB2" opacity="1.000000" stroke="none" 
	d="
M514.288086,608.251709 
	C514.138611,607.960815 514.246399,607.502747 514.725891,607.050964 
	C514.913513,607.399658 514.729431,607.742065 514.288086,608.251709 
z"/>
<path fill="#A8AEB2" opacity="1.000000" stroke="none" 
	d="
M789.032715,668.643677 
	C788.667908,668.752319 788.246094,668.548401 787.912720,667.930664 
	C788.325989,667.788208 788.650879,668.059631 789.032715,668.643677 
z"/>
<path fill="#7C858B" opacity="1.000000" stroke="none" 
	d="
M856.113647,594.901062 
	C855.729675,595.048096 855.332825,594.862793 854.994263,594.304932 
	C855.401917,594.144470 855.751282,594.356567 856.113647,594.901062 
z"/>
<path fill="#7C858B" opacity="1.000000" stroke="none" 
	d="
M855.019165,593.669556 
	C854.722229,593.783325 854.374451,593.610413 854.013306,593.113770 
	C854.322632,592.987671 854.645508,593.185242 855.019165,593.669556 
z"/>
<path fill="#7C858B" opacity="1.000000" stroke="none" 
	d="
M852.792053,591.831726 
	C852.851257,591.738281 852.743530,591.579346 852.418030,591.399353 
	C852.507324,591.367004 852.648987,591.496277 852.792053,591.831726 
z"/>
<path fill="#A8AEB2" opacity="1.000000" stroke="none" 
	d="
M788.366455,609.021484 
	C788.114868,608.572266 788.190796,608.060303 788.686523,607.645752 
	C788.968750,608.148376 788.831360,608.553467 788.366455,609.021484 
z"/>
<path fill="#7C858B" opacity="1.000000" stroke="none" 
	d="
M282.613708,590.312195 
	C282.619659,590.411499 282.440430,590.564270 282.139587,590.838196 
	C282.164185,590.779907 282.301056,590.582031 282.613708,590.312195 
z"/>
<path fill="#A8AEB2" opacity="1.000000" stroke="none" 
	d="
M561.797485,603.333008 
	C562.108643,603.114990 562.588989,603.201965 563.142090,603.664795 
	C562.798828,603.906311 562.382690,603.772095 561.797485,603.333008 
z"/>
<path fill="#A8AEB2" opacity="1.000000" stroke="none" 
	d="
M789.692993,589.159790 
	C789.843018,589.133240 789.632324,589.376465 789.632324,589.376465 
	C789.632324,589.376465 789.426147,589.313416 789.332397,589.255615 
	C789.238647,589.197754 789.543030,589.186340 789.692993,589.159790 
z"/>
<path fill="#000000" opacity="1.000000" stroke="none" 
	d="
M737.912842,602.892822 
	C737.912842,602.892761 738.395386,602.995483 738.640259,603.020996 
	C739.213379,603.559021 739.541687,604.071472 739.928467,605.175110 
	C740.293823,606.196838 740.600586,606.627380 740.907349,607.057983 
	C740.907349,607.057983 740.992249,607.046387 741.013062,607.354065 
	C741.356140,607.940369 741.678467,608.218933 742.000732,608.497559 
	C742.000732,608.497559 741.852356,608.721375 741.934814,609.310425 
	C741.986145,616.612366 741.954956,623.325134 741.923767,630.037964 
	C741.923767,630.037964 742.032471,630.030823 741.561401,630.005920 
	C723.415588,629.936279 705.740906,629.891541 688.066162,629.846802 
	C688.042664,624.071533 687.945129,618.295349 688.020874,612.521362 
	C688.073547,608.502136 689.592834,605.208374 694.176514,603.170532 
	C709.270752,602.976440 723.591797,602.934631 737.912842,602.892822 
z"/>
<path fill="#A8AEB2" opacity="1.000000" stroke="none" 
	d="
M687.815430,630.101440 
	C705.740906,629.891541 723.415588,629.936279 741.561035,629.951416 
	C741.059875,630.314636 740.089539,631.045776 739.116150,631.049744 
	C722.499878,631.117859 705.883301,631.103271 689.266846,631.062927 
	C688.698975,631.061584 688.132080,630.602112 687.815430,630.101440 
z"/>
<path fill="#7C858B" opacity="1.000000" stroke="none" 
	d="
M737.945312,602.678223 
	C723.591797,602.934631 709.270752,602.976440 694.481995,602.999207 
	C695.552185,602.628357 697.088562,601.979858 698.628296,601.971619 
	C711.437195,601.902832 724.246643,601.952026 737.522888,601.997742 
	C737.989807,602.029907 737.977844,602.463684 737.945312,602.678223 
z"/>
<path fill="#A8AEB2" opacity="1.000000" stroke="none" 
	d="
M742.302734,629.825928 
	C741.954956,623.325134 741.986145,616.612366 742.001099,609.427246 
	C742.217163,615.841248 742.449463,622.727600 742.302734,629.825928 
z"/>
<path fill="#A8AEB2" opacity="1.000000" stroke="none" 
	d="
M741.169434,606.823730 
	C740.600586,606.627380 740.293823,606.196838 740.050171,605.454224 
	C740.552734,605.624573 740.992126,606.106995 741.169434,606.823730 
z"/>
<path fill="#A8AEB2" opacity="1.000000" stroke="none" 
	d="
M742.069336,608.090820 
	C741.678467,608.218933 741.356140,607.940369 740.971497,607.348816 
	C741.318726,607.251953 741.728333,607.468018 742.069336,608.090820 
z"/>
<path fill="#000000" opacity="1.000000" stroke="none" 
	d="
M437.188416,666.801392 
	C436.488403,668.014099 435.788391,669.226807 434.597534,670.760376 
	C432.390167,671.393372 430.675354,671.964905 428.956818,671.976440 
	C415.666046,672.065613 402.374542,672.046631 389.083282,672.061096 
	C387.801453,671.175232 386.519653,670.289368 385.086426,668.659241 
	C385.028290,647.931030 385.121613,627.947083 385.499634,607.854980 
	C386.184662,606.831482 386.585022,605.916077 386.985352,605.000671 
	C386.985321,605.000671 387.062836,604.561646 387.437836,604.311401 
	C388.555511,603.690186 389.298187,603.319214 390.506531,602.969727 
	C403.528778,602.999817 416.085968,602.946899 428.641083,603.086060 
	C430.433746,603.105896 432.216125,604.055359 434.003265,604.574524 
	C434.884766,605.883240 435.766266,607.191895 436.830261,609.221191 
	C437.071320,628.894958 437.129852,647.848145 437.188416,666.801392 
z"/>
<path fill="#D4D7D9" opacity="1.000000" stroke="none" 
	d="
M385.214966,607.963074 
	C385.121613,627.947083 385.028290,647.931030 384.907684,668.372192 
	C384.513580,667.444519 383.829773,666.060181 383.827820,664.674866 
	C383.801422,646.092163 383.870178,627.509277 384.259705,608.414734 
	C384.807739,607.923035 385.011353,607.943054 385.214966,607.963074 
z"/>
<path fill="#D4D7D9" opacity="1.000000" stroke="none" 
	d="
M389.279846,672.444275 
	C402.374542,672.046631 415.666046,672.065613 428.956818,671.976440 
	C430.675354,671.964905 432.390167,671.393372 434.534302,671.108154 
	C434.679779,671.546631 434.397644,671.958191 434.035370,672.607483 
	C419.128967,672.839233 404.302704,672.833374 389.279846,672.444275 
z"/>
<path fill="#A8AEB2" opacity="1.000000" stroke="none" 
	d="
M434.045959,604.178345 
	C432.216125,604.055359 430.433746,603.105896 428.641083,603.086060 
	C416.085968,602.946899 403.528778,602.999817 390.407166,602.733765 
	C389.864685,602.307068 389.887268,602.137817 389.909882,601.968506 
	C404.274323,602.024597 418.638794,602.080688 433.466553,602.168152 
	C433.982819,602.727051 434.035736,603.254578 434.045959,604.178345 
z"/>
<path fill="#35434D" opacity="1.000000" stroke="none" 
	d="
M389.596558,601.977051 
	C389.887268,602.137817 389.864685,602.307068 389.941467,602.712219 
	C389.298187,603.319214 388.555511,603.690186 387.499817,604.097290 
	C387.885620,603.417480 388.584412,602.701538 389.596558,601.977051 
z"/>
<path fill="#35434D" opacity="1.000000" stroke="none" 
	d="
M385.499634,607.854980 
	C385.011353,607.943054 384.807739,607.923035 384.300293,607.946533 
	C384.770447,607.023071 385.544434,606.056152 386.651886,605.044922 
	C386.585022,605.916077 386.184662,606.831482 385.499634,607.854980 
z"/>
<path fill="#000000" opacity="1.000000" stroke="none" 
	d="
M289.752533,603.546631 
	C303.832245,603.202515 317.718903,603.069397 331.604858,603.121948 
	C332.834778,603.126587 334.060059,604.341919 335.651611,605.184814 
	C336.058716,605.675110 336.221863,605.879761 336.750122,606.360352 
	C337.326813,607.342346 337.658508,607.952637 337.990204,608.562927 
	C337.990204,608.562927 337.827850,608.730408 337.912537,609.299316 
	C337.919556,628.920471 337.841919,647.972717 337.764282,667.025024 
	C337.249420,668.268372 336.734558,669.511658 335.627686,670.893677 
	C333.160156,671.360779 331.286804,671.959106 329.408722,671.974487 
	C315.989380,672.083862 302.569061,672.074341 289.149048,672.102661 
	C288.042816,671.164490 286.936584,670.226318 285.483917,668.834778 
	C285.052765,668.215759 284.968079,668.050110 284.908508,667.423645 
	C284.945557,647.312256 284.957520,627.661804 284.969482,608.011292 
	C286.499451,606.609985 288.029358,605.208679 289.752533,603.546631 
z"/>
<path fill="#A8AEB2" opacity="1.000000" stroke="none" 
	d="
M284.681519,608.317383 
	C284.957520,627.661804 284.945557,647.312256 284.694336,667.450439 
	C284.455078,667.938049 284.033386,667.845764 284.033386,667.845764 
	C284.002350,649.078430 283.964447,630.311035 283.959747,611.543701 
	C283.959503,610.570312 284.242432,609.596863 284.681519,608.317383 
z"/>
<path fill="#D4D7D9" opacity="1.000000" stroke="none" 
	d="
M289.388977,672.446533 
	C302.569061,672.074341 315.989380,672.083862 329.408722,671.974487 
	C331.286804,671.959106 333.160156,671.360779 335.459290,671.060791 
	C335.668030,671.558716 335.453156,672.028198 335.117462,672.742065 
	C319.874054,672.921143 304.751495,672.855774 289.388977,672.446533 
z"/>
<path fill="#35434D" opacity="1.000000" stroke="none" 
	d="
M284.176758,668.098145 
	C284.033386,667.845764 284.455078,667.938049 284.669250,667.911255 
	C284.968079,668.050110 285.052765,668.215759 285.228027,668.645508 
	C284.985718,668.723328 284.652893,668.536926 284.176758,668.098145 
z"/>
<path fill="#7C858B" opacity="1.000000" stroke="none" 
	d="
M437.424377,666.481506 
	C437.129852,647.848145 437.071320,628.894958 437.013000,609.472778 
	C437.321198,609.736816 437.899353,610.470276 437.897675,611.202515 
	C437.855743,629.522278 437.752625,647.841919 437.424377,666.481506 
z"/>
<path fill="#B8BDC0" opacity="1.000000" stroke="none" 
	d="
M338.178833,666.861450 
	C337.841919,647.972717 337.919556,628.920471 337.981812,609.393066 
	C338.338226,609.727966 339.032471,610.537170 339.034454,611.348022 
	C339.078613,629.325623 339.049622,647.303406 339.010406,665.281128 
	C339.009369,665.753662 338.738464,666.225586 338.178833,666.861450 
z"/>
<path fill="#B8BDC0" opacity="1.000000" stroke="none" 
	d="
M338.155090,608.184570 
	C337.658508,607.952637 337.326813,607.342346 336.954773,606.360474 
	C337.382996,606.594666 337.851501,607.200439 338.155090,608.184570 
z"/>
</svg>