<svg width="24" height="24" viewBox="0 0 24 24" fill="none" xmlns="http://www.w3.org/2000/svg">
<g clip-path="url(#clip0_46_552)">
<path d="M22.68 21.0309C17.7 16.0509 17.7 7.94788 22.68 2.96788L23.658 1.98988C23.878 1.76988 24 1.47688 24 1.16488C24 0.85288 23.878 0.56088 23.658 0.34088C23.218 -0.10012 22.451 -0.0991203 22.01 0.34088L21.031 1.31888C16.051 6.29888 7.947 6.29888 2.968 1.31888L1.99 0.33988C1.77082 0.122179 1.47443 0 1.1655 0C0.856574 0 0.560185 0.122179 0.341 0.33988C0.123299 0.559064 0.00112032 0.855453 0.00112032 1.16438C0.00112032 1.47331 0.123299 1.7697 0.341 1.98888L1.319 2.96688C6.299 7.94688 6.299 16.0499 1.319 21.0299L0.342 22.0079C0.121 22.2279 0 22.5209 0 22.8329C0 23.1429 0.121 23.4369 0.341 23.6569C0.783 24.0999 1.551 24.0979 1.991 23.6569L2.968 22.6799C7.948 17.6969 16.051 17.6999 21.032 22.6799L22.01 23.6569C22.23 23.8769 22.523 23.9989 22.834 23.9989C23.146 23.9989 23.439 23.8769 23.658 23.6569C23.878 23.4369 24 23.1449 24 22.8329C24 22.5199 23.878 22.2279 23.658 22.0079L22.681 21.0299L22.68 21.0309Z" fill="white"/>
</g>
<defs>
<clipPath id="clip0_46_552">
<rect width="24" height="24" fill="white"/>
</clipPath>
</defs>
</svg>
