<svg width="146" height="160" viewBox="0 0 146 160" fill="none" xmlns="http://www.w3.org/2000/svg">
<path d="M19.5551 11.0879L24.4567 11.3965L31.6909 22.8672L42.1133 32.2452L25.6894 40.5198L23.4789 27.0044L18.197 14.6738L19.5551 11.0879Z" fill="url(#paint0_linear_46_515)"/>
<path d="M136.831 18.7269L138.333 23.0629L129.44 33.3357L123.838 45.6225L109.416 34.3667L122.229 27.7078L132.711 18.8165L136.831 18.7269Z" fill="url(#paint1_linear_46_515)"/>
<ellipse cx="72.3335" cy="83.063" rx="67.9316" ry="60.6872" transform="rotate(3.58434 72.3335 83.063)" fill="url(#paint2_linear_46_515)"/>
<g filter="url(#filter0_d_46_515)">
<path d="M29.9497 71.5009C30.5021 62.6817 38.0994 55.9801 46.9186 56.5325L100.86 59.9114C109.679 60.4638 116.38 68.0611 115.828 76.8804L115.312 85.1128C114.849 92.5156 109.358 98.629 102.047 99.8824L70.9919 105.207C70.9611 105.212 70.9297 105.214 70.8985 105.212C70.6358 105.195 70.4589 104.936 70.5396 104.685L73.1459 96.5902C73.1797 96.4852 73.2383 96.3898 73.3166 96.3121C73.7389 95.8934 73.4681 95.1723 72.8745 95.1351L42.8192 93.2524C34.9898 92.762 29.0403 86.0174 29.5308 78.188L29.9497 71.5009Z" fill="#FEFBFB"/>
</g>
<ellipse cx="94.6169" cy="80.4815" rx="7.35925" ry="7.32431" transform="rotate(3.58434 94.6169 80.4815)" fill="#2F2E41"/>
<ellipse cx="47.154" cy="77.5083" rx="7.35925" ry="7.32431" transform="rotate(3.58434 47.154 77.5083)" fill="#2F2E41"/>
<g clip-path="url(#clip0_46_515)">
<path d="M103.045 117.149C102.745 115.683 102.066 114.32 101.076 113.198C100.086 112.076 98.8189 111.232 97.4016 110.751C92.2137 108.98 70.9726 107.643 70.9726 107.643C70.9726 107.643 49.7278 106.35 44.3604 107.458C42.8944 107.757 41.5327 108.435 40.4108 109.425C39.2889 110.415 38.446 111.681 37.9661 113.098C35.7849 122.375 34.2745 136.624 35.9726 145.768C36.2728 147.234 36.9518 148.596 37.942 149.719C38.9321 150.841 40.1989 151.685 41.6162 152.166C46.8041 153.937 68.0457 155.274 68.0457 155.274C68.0457 155.274 89.287 156.61 94.6542 155.503C96.1201 155.204 97.4819 154.525 98.6038 153.536C99.7258 152.546 100.569 151.28 101.049 149.863C103.318 140.578 104.728 126.331 103.045 117.149Z" fill="#FF0000"/>
<path d="M62.0901 141.237L80.3476 132.14L63.363 120.826L62.0901 141.237Z" fill="white"/>
</g>
<rect width="10.9029" height="22.8935" rx="5.45147" transform="matrix(0.670637 0.741785 -0.741764 0.670662 111.843 113.392)" fill="#FEFBFB"/>
<rect width="10.903" height="22.8935" rx="5.45148" transform="matrix(-0.846682 0.5321 -0.532074 -0.846698 42.7095 129.966)" fill="#FEFBFB"/>
<defs>
<filter id="filter0_d_46_515" x="24.0024" y="52.0005" width="97.3574" height="59.7119" filterUnits="userSpaceOnUse" color-interpolation-filters="sRGB">
<feFlood flood-opacity="0" result="BackgroundImageFix"/>
<feColorMatrix in="SourceAlpha" type="matrix" values="0 0 0 0 0 0 0 0 0 0 0 0 0 0 0 0 0 0 127 0" result="hardAlpha"/>
<feOffset dy="1"/>
<feGaussianBlur stdDeviation="2.75"/>
<feComposite in2="hardAlpha" operator="out"/>
<feColorMatrix type="matrix" values="0 0 0 0 0 0 0 0 0 0 0 0 0 0 0 0 0 0 0.25 0"/>
<feBlend mode="normal" in2="BackgroundImageFix" result="effect1_dropShadow_46_515"/>
<feBlend mode="normal" in="SourceGraphic" in2="effect1_dropShadow_46_515" result="shape"/>
</filter>
<linearGradient id="paint0_linear_46_515" x1="6.21732" y1="7.88194" x2="34.3441" y2="26.2907" gradientUnits="userSpaceOnUse">
<stop stop-color="#A4B737"/>
<stop offset="1" stop-color="#00BB05"/>
</linearGradient>
<linearGradient id="paint1_linear_46_515" x1="135.129" y1="6.09597" x2="129.816" y2="37.3125" gradientUnits="userSpaceOnUse">
<stop stop-color="#A4B737"/>
<stop offset="1" stop-color="#00BB05"/>
</linearGradient>
<linearGradient id="paint2_linear_46_515" x1="4.40194" y1="-14.6671" x2="48.9908" y2="127.181" gradientUnits="userSpaceOnUse">
<stop stop-color="#A4B737"/>
<stop offset="1" stop-color="#00BB05"/>
</linearGradient>
<clipPath id="clip0_46_515">
<rect width="68.1448" height="47.9106" fill="white" transform="matrix(0.998026 0.0627934 -0.0622431 0.998061 37.0019 105.506)"/>
</clipPath>
</defs>
</svg>
