<svg width="51" height="36" viewBox="0 0 51 36" fill="none" xmlns="http://www.w3.org/2000/svg">
<path d="M49.8749 5.61048C49.5823 4.52597 49.0117 3.53726 48.2197 2.74284C47.4277 1.94842 46.442 1.37603 45.3609 1.08267C41.4028 0 25.4742 0 25.4742 0C25.4742 0 9.5451 0.0328556 5.58761 1.11553C4.50652 1.40893 3.52093 1.98135 2.729 2.77576C1.93706 3.57017 1.36644 4.55886 1.07395 5.64334C-0.123248 12.6979 -0.587715 23.4467 1.1067 30.2187C1.39919 31.3032 1.96982 32.2919 2.76175 33.0863C3.55368 33.8807 4.53927 34.4531 5.62037 34.7465C9.57817 35.8292 25.507 35.8292 25.507 35.8292C25.507 35.8292 41.4358 35.8292 45.3936 34.7465C46.4747 34.4531 47.4603 33.8807 48.2523 33.0863C49.0442 32.2919 49.6148 31.3032 49.9073 30.2187C51.1697 23.1544 51.559 12.4122 49.8746 5.6108" fill="#D31D1D"/>
<path d="M21 25.1067L34 17.5535L21 10V25.1067Z" fill="white"/>
</svg>
