<svg width="23" height="26" viewBox="0 0 23 26" fill="none" xmlns="http://www.w3.org/2000/svg">
<path d="M18.2474 4.07333C17.245 2.94598 16.6924 1.49847 16.6926 0H12.1601V17.9111C12.1258 18.8806 11.7105 19.7991 11.0017 20.4728C10.2929 21.1466 9.34609 21.5228 8.36097 21.5222C6.27806 21.5222 4.54719 19.8467 4.54719 17.7667C4.54719 15.2822 6.98214 13.4189 9.49043 14.1844V9.62C4.42985 8.95555 0 12.8267 0 17.7667C0 22.5767 4.04847 26 8.3463 26C12.9522 26 16.6926 22.3167 16.6926 17.7667V8.68111C18.5305 9.98089 20.7372 10.6783 23 10.6744V6.21111C23 6.21111 20.2423 6.34111 18.2474 4.07333Z" fill="#272727"/>
</svg>
