<svg width="179" height="55" viewBox="0 0 179 55" fill="none" xmlns="http://www.w3.org/2000/svg">
<path d="M58.7605 41.876L53.7205 25.076H57.8725L60.3925 33.908C60.5045 34.308 60.6005 34.716 60.6805 35.132C60.7765 35.532 60.8485 35.916 60.8965 36.284C60.9605 36.652 61.0085 36.996 61.0405 37.316C61.0725 37.62 61.1045 37.876 61.1365 38.084H60.6085C60.7045 37.492 60.7845 36.964 60.8485 36.5C60.9285 36.036 61.0165 35.604 61.1125 35.204C61.2085 34.788 61.3285 34.356 61.4725 33.908L63.9685 27.26H67.2325L69.6805 33.908C69.8725 34.436 70.0325 34.932 70.1605 35.396C70.2885 35.86 70.3845 36.308 70.4485 36.74C70.5285 37.156 70.5925 37.572 70.6405 37.988L70.1605 38.06C70.1925 37.772 70.2165 37.508 70.2325 37.268C70.2485 37.012 70.2645 36.772 70.2805 36.548C70.3125 36.308 70.3445 36.06 70.3765 35.804C70.4085 35.548 70.4565 35.268 70.5205 34.964C70.5845 34.644 70.6725 34.284 70.7845 33.884L73.2805 25.076H77.3365L72.2965 41.876H69.1765L65.1925 32.204L65.6485 32.252L61.9765 41.876H58.7605ZM79.3804 41.876V29.132H83.2204V41.876H79.3804ZM81.3004 26.612C80.5804 26.612 80.0124 26.444 79.5964 26.108C79.1964 25.756 78.9964 25.26 78.9964 24.62C78.9964 24.044 79.2044 23.572 79.6204 23.204C80.0364 22.836 80.5964 22.652 81.3004 22.652C82.0204 22.652 82.5804 22.828 82.9804 23.18C83.3804 23.516 83.5804 23.996 83.5804 24.62C83.5804 25.212 83.3724 25.692 82.9564 26.06C82.5564 26.428 82.0044 26.612 81.3004 26.612ZM91.6525 42.14C90.5485 42.14 89.5645 41.86 88.7005 41.3C87.8525 40.724 87.1805 39.94 86.6845 38.948C86.1885 37.94 85.9405 36.796 85.9405 35.516C85.9405 34.236 86.1885 33.1 86.6845 32.108C87.1805 31.1 87.8605 30.308 88.7245 29.732C89.5885 29.156 90.5805 28.868 91.7005 28.868C92.2765 28.868 92.8285 28.956 93.3565 29.132C93.8845 29.308 94.3645 29.548 94.7965 29.852C95.2285 30.156 95.5805 30.508 95.8525 30.908C96.1245 31.292 96.2845 31.692 96.3325 32.108L95.4205 32.324V24.116H99.2845V41.876H95.7085L95.4925 38.972L96.2605 39.092C96.2125 39.492 96.0525 39.876 95.7805 40.244C95.5245 40.612 95.1885 40.94 94.7725 41.228C94.3565 41.5 93.8765 41.716 93.3325 41.876C92.8045 42.052 92.2445 42.14 91.6525 42.14ZM92.6365 38.948C93.2285 38.948 93.7405 38.804 94.1725 38.516C94.6045 38.228 94.9325 37.828 95.1565 37.316C95.3965 36.804 95.5165 36.204 95.5165 35.516C95.5165 34.812 95.3965 34.204 95.1565 33.692C94.9325 33.18 94.6045 32.78 94.1725 32.492C93.7405 32.204 93.2285 32.06 92.6365 32.06C92.0445 32.06 91.5325 32.204 91.1005 32.492C90.6845 32.78 90.3565 33.18 90.1165 33.692C89.8765 34.204 89.7565 34.812 89.7565 35.516C89.7565 36.204 89.8765 36.804 90.1165 37.316C90.3565 37.828 90.6845 38.228 91.1005 38.516C91.5325 38.804 92.0445 38.948 92.6365 38.948ZM102.748 41.876V29.132H106.588V41.876H102.748ZM104.668 26.612C103.948 26.612 103.38 26.444 102.964 26.108C102.564 25.756 102.364 25.26 102.364 24.62C102.364 24.044 102.572 23.572 102.988 23.204C103.404 22.836 103.964 22.652 104.668 22.652C105.388 22.652 105.948 22.828 106.348 23.18C106.748 23.516 106.948 23.996 106.948 24.62C106.948 25.212 106.74 25.692 106.324 26.06C105.924 26.428 105.372 26.612 104.668 26.612ZM113.525 41.876V28.676H108.533V25.076H122.717V28.676H117.605V41.876H113.525ZM127.149 42.14C126.205 42.14 125.397 41.94 124.725 41.54C124.069 41.124 123.557 40.532 123.189 39.764C122.837 38.996 122.661 38.076 122.661 37.004V29.132H126.525V36.476C126.525 36.988 126.605 37.428 126.765 37.796C126.925 38.164 127.165 38.452 127.485 38.66C127.805 38.852 128.189 38.948 128.637 38.948C128.973 38.948 129.277 38.892 129.549 38.78C129.837 38.668 130.077 38.516 130.269 38.324C130.477 38.116 130.637 37.884 130.749 37.628C130.861 37.356 130.917 37.06 130.917 36.74V29.132H134.781V41.876H131.157L130.989 39.26L131.709 38.972C131.517 39.58 131.197 40.124 130.749 40.604C130.301 41.068 129.765 41.444 129.141 41.732C128.517 42.004 127.853 42.14 127.149 42.14ZM139.26 41.876V25.916H143.1V41.876H139.26ZM137.004 32.492V29.132H145.572V32.492H137.004ZM153.649 42.116C152.321 42.116 151.137 41.828 150.097 41.252C149.073 40.676 148.257 39.892 147.649 38.9C147.057 37.908 146.761 36.772 146.761 35.492C146.761 34.212 147.057 33.076 147.649 32.084C148.257 31.092 149.073 30.308 150.097 29.732C151.137 29.156 152.321 28.868 153.649 28.868C154.977 28.868 156.153 29.156 157.177 29.732C158.217 30.308 159.033 31.092 159.625 32.084C160.217 33.076 160.513 34.212 160.513 35.492C160.513 36.772 160.217 37.908 159.625 38.9C159.033 39.892 158.217 40.676 157.177 41.252C156.153 41.828 154.977 42.116 153.649 42.116ZM153.649 38.804C154.225 38.804 154.737 38.66 155.185 38.372C155.633 38.084 155.985 37.692 156.241 37.196C156.497 36.7 156.617 36.132 156.601 35.492C156.617 34.852 156.497 34.284 156.241 33.788C155.985 33.276 155.633 32.876 155.185 32.588C154.737 32.3 154.225 32.156 153.649 32.156C153.073 32.156 152.553 32.3 152.089 32.588C151.641 32.876 151.289 33.276 151.033 33.788C150.777 34.284 150.657 34.852 150.673 35.492C150.657 36.132 150.777 36.7 151.033 37.196C151.289 37.692 151.641 38.084 152.089 38.372C152.553 38.66 153.073 38.804 153.649 38.804ZM163.024 41.876V29.132H166.672L166.84 33.284L166.12 32.492C166.312 31.804 166.624 31.188 167.056 30.644C167.504 30.1 168.024 29.668 168.616 29.348C169.208 29.028 169.84 28.868 170.512 28.868C170.8 28.868 171.064 28.892 171.304 28.94C171.56 28.988 171.792 29.044 172 29.108L170.944 33.356C170.768 33.244 170.528 33.156 170.224 33.092C169.936 33.012 169.632 32.972 169.312 32.972C168.96 32.972 168.632 33.036 168.328 33.164C168.024 33.276 167.768 33.444 167.56 33.668C167.352 33.892 167.184 34.156 167.056 34.46C166.944 34.764 166.888 35.108 166.888 35.492V41.876H163.024Z" fill="#272727"/>
<path d="M3.91006 3.79445L5.69563 3.79504L8.5813 7.79285L12.5763 10.9589L6.80489 14.3347L5.69561 9.48077L3.49879 5.1265L3.91006 3.79445Z" fill="url(#paint0_linear_26_40)"/>
<path d="M46.6378 3.89923L47.2815 5.43847L44.2883 9.3682L42.5348 13.9539L37.0457 10.1975L41.5438 7.48996L45.1452 4.02536L46.6378 3.89923Z" fill="url(#paint1_linear_26_40)"/>
<ellipse cx="24.6974" cy="28.7139" rx="24.6974" ry="22.0642" fill="url(#paint2_linear_26_40)"/>
<g filter="url(#filter0_d_26_40)">
<path d="M9.05511 26.3714C9.05511 22.6663 12.0587 19.6627 15.7638 19.6627H32.8469C36.9844 19.6627 40.3385 23.0168 40.3385 27.1544C40.3385 30.6273 37.9516 33.645 34.572 34.4447L24.7135 36.7776C24.7024 36.7802 24.6911 36.7815 24.6797 36.7815C24.584 36.7815 24.5139 36.6914 24.5375 36.5986L25.2992 33.602C25.3091 33.5631 25.3282 33.5272 25.3548 33.4972C25.4986 33.3357 25.3839 33.0801 25.1677 33.0801H14.2193C11.3672 33.0801 9.05511 30.7681 9.05511 27.916V26.3714Z" fill="#FEFBFB"/>
</g>
<ellipse cx="32.7242" cy="27.2706" rx="2.67556" ry="2.66292" fill="#2F2E41"/>
<ellipse cx="15.4345" cy="27.2706" rx="2.67556" ry="2.66292" fill="#2F2E41"/>
<g clip-path="url(#clip0_26_40)">
<path d="M36.507 40.3629C36.3655 39.8401 36.0895 39.3634 35.7066 38.9804C35.3236 38.5975 34.847 38.3215 34.3242 38.18C32.4102 37.658 24.7069 37.658 24.7069 37.658C24.7069 37.658 17.0033 37.6738 15.0893 38.1958C14.5665 38.3373 14.0899 38.6133 13.7069 38.9963C13.3239 39.3793 13.048 39.856 12.9065 40.3788C12.3276 43.7797 12.103 48.9618 12.9224 52.2266C13.0639 52.7495 13.3399 53.2261 13.7228 53.6091C14.1058 53.9921 14.5824 54.2681 15.1052 54.4096C17.0192 54.9316 24.7226 54.9316 24.7226 54.9316C24.7226 54.9316 32.426 54.9316 34.3399 54.4096C34.8627 54.2681 35.3393 53.9921 35.7223 53.6091C36.1053 53.2261 36.3813 52.7495 36.5228 52.2266C37.1334 48.8209 37.3216 43.642 36.507 40.3629Z" fill="#FF0000"/>
<path d="M22.255 49.9962L28.6454 46.2947L22.255 42.5933V49.9962Z" fill="white"/>
</g>
<rect width="4.03138" height="8.47195" rx="2.01569" transform="matrix(0.703737 0.71046 -0.686141 0.727469 39.7227 39.7682)" fill="#FEFBFB"/>
<rect width="4.01121" height="8.51406" rx="2.0056" transform="matrix(-0.802201 0.597054 -0.570894 -0.821024 15.0145 47.6155)" fill="#FEFBFB"/>
<defs>
<filter id="filter0_d_26_40" x="3.55511" y="15.1627" width="42.2834" height="28.1188" filterUnits="userSpaceOnUse" color-interpolation-filters="sRGB">
<feFlood flood-opacity="0" result="BackgroundImageFix"/>
<feColorMatrix in="SourceAlpha" type="matrix" values="0 0 0 0 0 0 0 0 0 0 0 0 0 0 0 0 0 0 127 0" result="hardAlpha"/>
<feOffset dy="1"/>
<feGaussianBlur stdDeviation="2.75"/>
<feComposite in2="hardAlpha" operator="out"/>
<feColorMatrix type="matrix" values="0 0 0 0 0 0 0 0 0 0 0 0 0 0 0 0 0 0 0.25 0"/>
<feBlend mode="normal" in2="BackgroundImageFix" result="effect1_dropShadow_26_40"/>
<feBlend mode="normal" in="SourceGraphic" in2="effect1_dropShadow_26_40" result="shape"/>
</filter>
<linearGradient id="paint0_linear_26_40" x1="-1.00244" y1="2.9343" x2="9.62197" y2="8.9746" gradientUnits="userSpaceOnUse">
<stop stop-color="#A4B737"/>
<stop offset="1" stop-color="#00BB05"/>
</linearGradient>
<linearGradient id="paint1_linear_26_40" x1="45.7333" y1="-0.645373" x2="44.5151" y2="10.8027" gradientUnits="userSpaceOnUse">
<stop stop-color="#A4B737"/>
<stop offset="1" stop-color="#00BB05"/>
</linearGradient>
<linearGradient id="paint2_linear_26_40" x1="1.77418e-06" y1="-6.81808" x2="16.2116" y2="44.7537" gradientUnits="userSpaceOnUse">
<stop stop-color="#A4B737"/>
<stop offset="1" stop-color="#00BB05"/>
</linearGradient>
<clipPath id="clip0_26_40">
<rect width="24.6645" height="17.3425" fill="white" transform="translate(12.3872 37.658)"/>
</clipPath>
</defs>
</svg>
