<svg width="109" height="34" viewBox="0 0 109 34" fill="none" xmlns="http://www.w3.org/2000/svg">
<path d="M36.606 23L33.456 12.5H36.051L37.626 18.02C37.696 18.27 37.756 18.525 37.806 18.785C37.866 19.035 37.911 19.275 37.941 19.505C37.981 19.735 38.011 19.95 38.031 20.15C38.051 20.34 38.071 20.5 38.091 20.63H37.761C37.821 20.26 37.871 19.93 37.911 19.64C37.961 19.35 38.016 19.08 38.076 18.83C38.136 18.57 38.211 18.3 38.301 18.02L39.861 13.865H41.901L43.431 18.02C43.551 18.35 43.651 18.66 43.731 18.95C43.811 19.24 43.871 19.52 43.911 19.79C43.961 20.05 44.001 20.31 44.031 20.57L43.731 20.615C43.751 20.435 43.766 20.27 43.776 20.12C43.786 19.96 43.796 19.81 43.806 19.67C43.826 19.52 43.846 19.365 43.866 19.205C43.886 19.045 43.916 18.87 43.956 18.68C43.996 18.48 44.051 18.255 44.121 18.005L45.681 12.5H48.216L45.066 23H43.116L40.626 16.955L40.911 16.985L38.616 23H36.606ZM49.4935 23V15.035H51.8935V23H49.4935ZM50.6935 13.46C50.2435 13.46 49.8885 13.355 49.6285 13.145C49.3785 12.925 49.2535 12.615 49.2535 12.215C49.2535 11.855 49.3835 11.56 49.6435 11.33C49.9035 11.1 50.2535 10.985 50.6935 10.985C51.1435 10.985 51.4935 11.095 51.7435 11.315C51.9935 11.525 52.1185 11.825 52.1185 12.215C52.1185 12.585 51.9885 12.885 51.7285 13.115C51.4785 13.345 51.1335 13.46 50.6935 13.46ZM57.1635 23.165C56.4735 23.165 55.8585 22.99 55.3185 22.64C54.7885 22.28 54.3685 21.79 54.0585 21.17C53.7485 20.54 53.5935 19.825 53.5935 19.025C53.5935 18.225 53.7485 17.515 54.0585 16.895C54.3685 16.265 54.7935 15.77 55.3335 15.41C55.8735 15.05 56.4935 14.87 57.1935 14.87C57.5535 14.87 57.8985 14.925 58.2285 15.035C58.5585 15.145 58.8585 15.295 59.1285 15.485C59.3985 15.675 59.6185 15.895 59.7885 16.145C59.9585 16.385 60.0585 16.635 60.0885 16.895L59.5185 17.03V11.9H61.9335V23H59.6985L59.5635 21.185L60.0435 21.26C60.0135 21.51 59.9135 21.75 59.7435 21.98C59.5835 22.21 59.3735 22.415 59.1135 22.595C58.8535 22.765 58.5535 22.9 58.2135 23C57.8835 23.11 57.5335 23.165 57.1635 23.165ZM57.7785 21.17C58.1485 21.17 58.4685 21.08 58.7385 20.9C59.0085 20.72 59.2135 20.47 59.3535 20.15C59.5035 19.83 59.5785 19.455 59.5785 19.025C59.5785 18.585 59.5035 18.205 59.3535 17.885C59.2135 17.565 59.0085 17.315 58.7385 17.135C58.4685 16.955 58.1485 16.865 57.7785 16.865C57.4085 16.865 57.0885 16.955 56.8185 17.135C56.5585 17.315 56.3535 17.565 56.2035 17.885C56.0535 18.205 55.9785 18.585 55.9785 19.025C55.9785 19.455 56.0535 19.83 56.2035 20.15C56.3535 20.47 56.5585 20.72 56.8185 20.9C57.0885 21.08 57.4085 21.17 57.7785 21.17ZM64.0979 23V15.035H66.4979V23H64.0979ZM65.2979 13.46C64.8479 13.46 64.4929 13.355 64.2329 13.145C63.9829 12.925 63.8579 12.615 63.8579 12.215C63.8579 11.855 63.9879 11.56 64.2479 11.33C64.5079 11.1 64.8579 10.985 65.2979 10.985C65.7479 10.985 66.0979 11.095 66.3479 11.315C66.5979 11.525 66.7229 11.825 66.7229 12.215C66.7229 12.585 66.5929 12.885 66.3329 13.115C66.0829 13.345 65.7379 13.46 65.2979 13.46ZM70.8339 23V14.75H67.7139V12.5H76.5789V14.75H73.3839V23H70.8339ZM79.3488 23.165C78.7588 23.165 78.2538 23.04 77.8338 22.79C77.4238 22.53 77.1038 22.16 76.8738 21.68C76.6538 21.2 76.5438 20.625 76.5438 19.955V15.035H78.9588V19.625C78.9588 19.945 79.0088 20.22 79.1088 20.45C79.2088 20.68 79.3588 20.86 79.5588 20.99C79.7588 21.11 79.9988 21.17 80.2788 21.17C80.4888 21.17 80.6788 21.135 80.8488 21.065C81.0288 20.995 81.1788 20.9 81.2988 20.78C81.4288 20.65 81.5288 20.505 81.5988 20.345C81.6688 20.175 81.7038 19.99 81.7038 19.79V15.035H84.1188V23H81.8538L81.7488 21.365L82.1988 21.185C82.0788 21.565 81.8788 21.905 81.5988 22.205C81.3188 22.495 80.9838 22.73 80.5938 22.91C80.2038 23.08 79.7888 23.165 79.3488 23.165ZM86.9179 23V13.025H89.3179V23H86.9179ZM85.5079 17.135V15.035H90.8629V17.135H85.5079ZM95.9112 23.15C95.0812 23.15 94.3412 22.97 93.6912 22.61C93.0512 22.25 92.5412 21.76 92.1612 21.14C91.7912 20.52 91.6062 19.81 91.6062 19.01C91.6062 18.21 91.7912 17.5 92.1612 16.88C92.5412 16.26 93.0512 15.77 93.6912 15.41C94.3412 15.05 95.0812 14.87 95.9112 14.87C96.7412 14.87 97.4762 15.05 98.1162 15.41C98.7662 15.77 99.2762 16.26 99.6462 16.88C100.016 17.5 100.201 18.21 100.201 19.01C100.201 19.81 100.016 20.52 99.6462 21.14C99.2762 21.76 98.7662 22.25 98.1162 22.61C97.4762 22.97 96.7412 23.15 95.9112 23.15ZM95.9112 21.08C96.2712 21.08 96.5912 20.99 96.8712 20.81C97.1512 20.63 97.3712 20.385 97.5312 20.075C97.6912 19.765 97.7662 19.41 97.7562 19.01C97.7662 18.61 97.6912 18.255 97.5312 17.945C97.3712 17.625 97.1512 17.375 96.8712 17.195C96.5912 17.015 96.2712 16.925 95.9112 16.925C95.5512 16.925 95.2262 17.015 94.9362 17.195C94.6562 17.375 94.4362 17.625 94.2762 17.945C94.1162 18.255 94.0412 18.61 94.0512 19.01C94.0412 19.41 94.1162 19.765 94.2762 20.075C94.4362 20.385 94.6562 20.63 94.9362 20.81C95.2262 20.99 95.5512 21.08 95.9112 21.08ZM101.771 23V15.035H104.051L104.156 17.63L103.706 17.135C103.826 16.705 104.021 16.32 104.291 15.98C104.571 15.64 104.896 15.37 105.266 15.17C105.636 14.97 106.031 14.87 106.451 14.87C106.631 14.87 106.796 14.885 106.946 14.915C107.106 14.945 107.251 14.98 107.381 15.02L106.721 17.675C106.611 17.605 106.461 17.55 106.271 17.51C106.091 17.46 105.901 17.435 105.701 17.435C105.481 17.435 105.276 17.475 105.086 17.555C104.896 17.625 104.736 17.73 104.606 17.87C104.476 18.01 104.371 18.175 104.291 18.365C104.221 18.555 104.186 18.77 104.186 19.01V23H101.771Z" fill="#272727"/>
<path d="M2.60001 2.13855L3.60642 2.13888L5.2329 4.39217L7.48461 6.17664L4.23164 8.07936L3.60642 5.34353L2.3682 2.88933L2.60001 2.13855Z" fill="url(#paint0_linear_46_1029)"/>
<path d="M26.6829 2.19837L27.0457 3.06593L25.3586 5.28085L24.3702 7.8655L21.2764 5.74824L23.8117 4.22222L25.8416 2.26946L26.6829 2.19837Z" fill="url(#paint1_linear_46_1029)"/>
<ellipse cx="14.3164" cy="16.1829" rx="13.9204" ry="12.4361" fill="url(#paint2_linear_46_1029)"/>
<g filter="url(#filter0_d_46_1029)">
<path d="M5.5 14.8635C5.5 12.7752 7.19292 11.0823 9.28123 11.0823H18.91C21.2421 11.0823 23.1325 12.9728 23.1325 15.3048C23.1325 17.2623 21.7872 18.9631 19.8823 19.4138L14.3257 20.7287C14.3194 20.7302 14.313 20.7309 14.3066 20.7309C14.2527 20.7309 14.2132 20.6801 14.2265 20.6279L14.6558 18.9389C14.6614 18.917 14.6721 18.8967 14.6872 18.8798C14.7682 18.7888 14.7035 18.6447 14.5817 18.6447H8.41071C6.80317 18.6447 5.5 17.3416 5.5 15.734V14.8635Z" fill="#FEFBFB"/>
</g>
<ellipse cx="18.8406" cy="15.3693" rx="1.50805" ry="1.5009" fill="#2F2E41"/>
<ellipse cx="9.09569" cy="15.3693" rx="1.50805" ry="1.5009" fill="#2F2E41"/>
<g clip-path="url(#clip0_46_1029)">
<path d="M20.9728 22.7497C20.893 22.455 20.7375 22.1864 20.5216 21.9705C20.3058 21.7546 20.0371 21.5991 19.7425 21.5193C18.6637 21.2251 14.3218 21.2251 14.3218 21.2251C14.3218 21.2251 9.97976 21.234 8.90096 21.5282C8.60627 21.608 8.33763 21.7635 8.12177 21.9794C7.90591 22.1953 7.75037 22.464 7.67064 22.7586C7.34433 24.6755 7.21774 27.5963 7.6796 29.4364C7.75934 29.7311 7.91488 29.9998 8.13074 30.2156C8.3466 30.4315 8.61524 30.5871 8.90992 30.6668C9.98872 30.961 14.3307 30.961 14.3307 30.961C14.3307 30.961 18.6726 30.961 19.7513 30.6668C20.046 30.5871 20.3147 30.4315 20.5305 30.2156C20.7464 29.9998 20.902 29.7311 20.9817 29.4364C21.3259 27.5169 21.4319 24.5979 20.9728 22.7497Z" fill="#FF0000"/>
<path d="M12.9399 28.1794L16.5418 26.0931L12.9399 24.0068V28.1794Z" fill="white"/>
</g>
<rect width="2.3667" height="4.98303" rx="1.18335" transform="matrix(0.675636 0.737235 -0.657497 0.753458 22.7852 26.9473)" fill="#FEFBFB"/>
<rect width="2.32764" height="5.06349" rx="1.16382" transform="matrix(-0.779178 0.626802 -0.541041 -0.840996 8.85864 31.7275)" fill="#FEFBFB"/>
<defs>
<filter id="filter0_d_46_1029" x="0" y="6.58228" width="28.6326" height="20.6487" filterUnits="userSpaceOnUse" color-interpolation-filters="sRGB">
<feFlood flood-opacity="0" result="BackgroundImageFix"/>
<feColorMatrix in="SourceAlpha" type="matrix" values="0 0 0 0 0 0 0 0 0 0 0 0 0 0 0 0 0 0 127 0" result="hardAlpha"/>
<feOffset dy="1"/>
<feGaussianBlur stdDeviation="2.75"/>
<feComposite in2="hardAlpha" operator="out"/>
<feColorMatrix type="matrix" values="0 0 0 0 0 0 0 0 0 0 0 0 0 0 0 0 0 0 0.25 0"/>
<feBlend mode="normal" in2="BackgroundImageFix" result="effect1_dropShadow_46_1029"/>
<feBlend mode="normal" in="SourceGraphic" in2="effect1_dropShadow_46_1029" result="shape"/>
</filter>
<linearGradient id="paint0_linear_46_1029" x1="-0.168868" y1="1.65374" x2="5.81942" y2="5.05831" gradientUnits="userSpaceOnUse">
<stop stop-color="#A4B737"/>
<stop offset="1" stop-color="#00BB05"/>
</linearGradient>
<linearGradient id="paint1_linear_46_1029" x1="26.1731" y1="-0.363103" x2="25.4864" y2="6.08935" gradientUnits="userSpaceOnUse">
<stop stop-color="#A4B737"/>
<stop offset="1" stop-color="#00BB05"/>
</linearGradient>
<linearGradient id="paint2_linear_46_1029" x1="0.395997" y1="-3.84401" x2="9.53325" y2="25.2235" gradientUnits="userSpaceOnUse">
<stop stop-color="#A4B737"/>
<stop offset="1" stop-color="#00BB05"/>
</linearGradient>
<clipPath id="clip0_46_1029">
<rect width="13.9019" height="9.77476" fill="white" transform="translate(7.37793 21.2251)"/>
</clipPath>
</defs>
</svg>
