<svg width="146" height="160" viewBox="0 0 146 160" fill="none" xmlns="http://www.w3.org/2000/svg">
<path d="M13.0962 16.0237L18.0054 15.8787L26.2674 26.6327L37.5108 35.0088L21.9207 44.7638L18.4723 31.5102L12.0749 19.7196L13.0962 16.0237Z" fill="url(#paint0_linear_462_4580)"/>
<path d="M130.576 12.8068L132.473 16.9857L124.566 28.0353L120.122 40.7867L104.722 30.91L116.866 23.097L126.483 13.2761L130.576 12.8068Z" fill="url(#paint1_linear_462_4580)"/>
<ellipse cx="72.2923" cy="82.8207" rx="67.9316" ry="60.6872" transform="rotate(-1.71109 72.2923 82.8207)" fill="url(#paint2_linear_462_4580)"/>
<g filter="url(#filter0_d_462_4580)">
<path d="M29.0215 75.2197C28.7576 66.3871 35.704 59.013 44.5366 58.7491L98.5592 57.1353C107.392 56.8714 114.766 63.8178 115.03 72.6504L115.276 80.8953C115.498 88.3093 110.595 94.9034 103.431 96.8261L72.9993 104.994C72.9691 105.002 72.938 105.007 72.9068 105.007C72.6437 105.015 72.4436 104.773 72.5008 104.516L74.3489 96.2153C74.3729 96.1076 74.4224 96.0072 74.4932 95.9226C74.8751 95.4667 74.5388 94.7737 73.9444 94.7914L43.8435 95.6906C36.0023 95.9249 29.4558 89.7582 29.2215 81.9169L29.0215 75.2197Z" fill="#FEFBFB"/>
</g>
<ellipse cx="94.2424" cy="78.1936" rx="7.35925" ry="7.32431" transform="rotate(-1.71109 94.2424 78.1936)" fill="#2F2E41"/>
<ellipse cx="46.7073" cy="79.6138" rx="7.35925" ry="7.32431" transform="rotate(-1.71109 46.7073 79.6138)" fill="#2F2E41"/>
<g clip-path="url(#clip0_462_4580)">
<path d="M106.018 113.927C105.584 112.495 104.782 111.201 103.693 110.175C102.603 109.148 101.264 108.425 99.8084 108.077C94.4791 106.792 73.2054 107.422 73.2054 107.422C73.2054 107.422 51.9319 108.095 46.6895 109.693C45.2575 110.127 43.9642 110.928 42.9384 112.017C41.9126 113.106 41.1902 114.445 40.8431 115.9C39.5274 125.339 39.3386 139.668 41.8733 148.617C42.3075 150.05 43.1093 151.343 44.1989 152.37C45.2884 153.396 46.6276 154.119 48.0832 154.467C53.4125 155.752 74.6868 155.123 74.6868 155.123C74.6868 155.123 95.9607 154.493 101.203 152.895C102.635 152.461 103.928 151.66 104.954 150.571C105.98 149.482 106.702 148.144 107.05 146.688C108.452 137.233 108.541 122.916 106.018 113.927Z" fill="#FF0000"/>
<path d="M67.4608 141.695L84.8008 130.951L66.8445 121.251L67.4608 141.695Z" fill="white"/>
</g>
<rect width="10.9029" height="22.8935" rx="5.45147" transform="matrix(0.706257 0.707955 -0.707933 0.70628 113.104 111.157)" fill="#FEFBFB"/>
<rect width="10.903" height="22.8935" rx="5.45148" transform="matrix(-0.819529 0.573038 -0.573013 -0.819546 44.867 131.107)" fill="#FEFBFB"/>
<defs>
<filter id="filter0_d_462_4580" x="23.5144" y="52.628" width="97.2686" height="58.8797" filterUnits="userSpaceOnUse" color-interpolation-filters="sRGB">
<feFlood flood-opacity="0" result="BackgroundImageFix"/>
<feColorMatrix in="SourceAlpha" type="matrix" values="0 0 0 0 0 0 0 0 0 0 0 0 0 0 0 0 0 0 127 0" result="hardAlpha"/>
<feOffset dy="1"/>
<feGaussianBlur stdDeviation="2.75"/>
<feComposite in2="hardAlpha" operator="out"/>
<feColorMatrix type="matrix" values="0 0 0 0 0 0 0 0 0 0 0 0 0 0 0 0 0 0 0.25 0"/>
<feBlend mode="normal" in2="BackgroundImageFix" result="effect1_dropShadow_462_4580"/>
<feBlend mode="normal" in="SourceGraphic" in2="effect1_dropShadow_462_4580" result="shape"/>
</filter>
<linearGradient id="paint0_linear_462_4580" x1="-0.4805" y1="14.0624" x2="29.2252" y2="29.7968" gradientUnits="userSpaceOnUse">
<stop stop-color="#A4B737"/>
<stop offset="1" stop-color="#00BB05"/>
</linearGradient>
<linearGradient id="paint1_linear_462_4580" x1="127.716" y1="0.386778" x2="125.308" y2="31.9604" gradientUnits="userSpaceOnUse">
<stop stop-color="#A4B737"/>
<stop offset="1" stop-color="#00BB05"/>
</linearGradient>
<linearGradient id="paint2_linear_462_4580" x1="4.3607" y1="-14.9093" x2="48.9495" y2="126.938" gradientUnits="userSpaceOnUse">
<stop stop-color="#A4B737"/>
<stop offset="1" stop-color="#00BB05"/>
</linearGradient>
<clipPath id="clip0_462_4580">
<rect width="68.1448" height="47.9141" fill="white" transform="matrix(0.999562 -0.029586 0.0301322 0.999546 39.1824 108.429)"/>
</clipPath>
</defs>
</svg>
