<svg width="16" height="16" viewBox="0 0 16 16" fill="none" xmlns="http://www.w3.org/2000/svg">
<path d="M13.4996 14.0002C13.434 14.0003 13.3689 13.9874 13.3083 13.9623C13.2476 13.9371 13.1925 13.9002 13.1462 13.8537L2.14621 2.85366C2.0564 2.75913 2.00707 2.63326 2.00874 2.50288C2.01041 2.3725 2.06294 2.24792 2.15514 2.15572C2.24735 2.06352 2.37192 2.01099 2.5023 2.00932C2.63268 2.00765 2.75855 2.05698 2.85308 2.14679L13.8531 13.1468C13.923 13.2167 13.9705 13.3058 13.9898 13.4027C14.0091 13.4997 13.9992 13.6002 13.9614 13.6915C13.9235 13.7829 13.8595 13.8609 13.7773 13.9159C13.6951 13.9708 13.5985 14.0002 13.4996 14.0002ZM7.98902 12.0002C6.69246 12.0002 5.44215 11.6165 4.27277 10.8596C3.20808 10.1721 2.24965 9.18741 1.5009 8.01585V8.01335C2.12402 7.12054 2.80652 6.36554 3.53965 5.75679C3.54628 5.75124 3.55169 5.74438 3.55553 5.73664C3.55938 5.7289 3.56158 5.72044 3.56199 5.71181C3.5624 5.70318 3.56102 5.69455 3.55792 5.68648C3.55483 5.67841 3.5501 5.67106 3.54402 5.66491L2.92152 5.04335C2.91046 5.0322 2.8956 5.02562 2.87991 5.02492C2.86422 5.02423 2.84884 5.02947 2.83683 5.0396C2.05808 5.69585 1.33527 6.50085 0.678084 7.44335C0.565017 7.60563 0.502746 7.79787 0.499185 7.99562C0.495624 8.19338 0.550933 8.38773 0.658084 8.55398C1.4834 9.84554 2.54558 10.9334 3.72933 11.6993C5.06215 12.5627 6.49652 13.0002 7.98902 13.0002C8.79464 12.9977 9.59455 12.865 10.3578 12.6071C10.3678 12.6037 10.3769 12.5978 10.384 12.5899C10.3912 12.582 10.3962 12.5724 10.3986 12.5621C10.401 12.5517 10.4007 12.5409 10.3978 12.5307C10.3948 12.5205 10.3894 12.5112 10.3818 12.5037L9.70746 11.8293C9.69193 11.8141 9.67274 11.8033 9.65175 11.7978C9.63077 11.7923 9.60872 11.7924 9.58777 11.798C9.0655 11.9325 8.52833 12.0005 7.98902 12.0002ZM15.3384 7.45648C14.5115 6.17773 13.4387 5.09148 12.2362 4.31491C10.9059 3.45491 9.43715 3.00023 7.98902 3.00023C7.19195 3.00162 6.40079 3.13716 5.64871 3.40116C5.63869 3.40465 5.62972 3.41063 5.62265 3.41854C5.61558 3.42645 5.61064 3.43603 5.60829 3.44638C5.60595 3.45673 5.60628 3.4675 5.60925 3.47769C5.61222 3.48787 5.61773 3.49713 5.62527 3.5046L6.29871 4.17804C6.31439 4.19345 6.33385 4.20445 6.35514 4.20994C6.37643 4.21543 6.39879 4.2152 6.41996 4.20929C6.93151 4.0709 7.45908 4.0006 7.98902 4.00023C9.26058 4.00023 10.5071 4.38866 11.6937 5.15648C12.7784 5.85648 13.7481 6.84023 14.4987 8.00023C14.4993 8.00094 14.4996 8.00182 14.4996 8.00273C14.4996 8.00363 14.4993 8.00451 14.4987 8.00523C13.9538 8.86302 13.2777 9.62996 12.495 10.278C12.4883 10.2836 12.4828 10.2904 12.4789 10.2982C12.475 10.3059 12.4727 10.3144 12.4723 10.3231C12.4718 10.3318 12.4732 10.3404 12.4763 10.3486C12.4794 10.3567 12.4842 10.3641 12.4903 10.3702L13.1121 10.9918C13.1232 11.0029 13.1379 11.0095 13.1535 11.0102C13.1692 11.011 13.1845 11.0059 13.1965 10.9959C14.0321 10.2923 14.7555 9.46523 15.3415 8.54335C15.4451 8.3809 15.4999 8.19212 15.4993 7.99945C15.4988 7.80679 15.4429 7.61833 15.3384 7.45648Z" fill="#AFAFAF"/>
<path d="M7.99966 5C7.77495 4.99991 7.55094 5.02507 7.33184 5.075C7.32078 5.0773 7.31054 5.08255 7.30223 5.09021C7.29391 5.09786 7.28782 5.10763 7.28462 5.11846C7.28141 5.1293 7.2812 5.14081 7.28402 5.15175C7.28683 5.1627 7.29256 5.17268 7.30059 5.18063L10.819 8.69813C10.827 8.70616 10.837 8.71189 10.8479 8.7147C10.8589 8.71751 10.8704 8.71731 10.8812 8.7141C10.892 8.71089 10.9018 8.70481 10.9094 8.69649C10.9171 8.68818 10.9224 8.67794 10.9247 8.66688C11.0248 8.22751 11.0247 7.77123 10.9244 7.33191C10.824 6.89259 10.626 6.48152 10.345 6.12923C10.064 5.77695 9.70719 5.49249 9.30117 5.297C8.89514 5.1015 8.45029 4.99999 7.99966 5ZM5.18028 7.30188C5.17233 7.29384 5.16235 7.28811 5.15141 7.2853C5.14046 7.28249 5.12896 7.28269 5.11812 7.2859C5.10728 7.28911 5.09752 7.29519 5.08986 7.30351C5.08221 7.31182 5.07695 7.32206 5.07466 7.33313C4.96133 7.82823 4.97556 8.34401 5.11601 8.83212C5.25647 9.32022 5.51855 9.76468 5.8777 10.1238C6.23685 10.483 6.68131 10.7451 7.16941 10.8855C7.65752 11.026 8.1733 11.0402 8.66841 10.9269C8.67947 10.9246 8.68971 10.9193 8.69802 10.9117C8.70634 10.904 8.71242 10.8942 8.71563 10.8834C8.71884 10.8726 8.71905 10.8611 8.71623 10.8501C8.71342 10.8392 8.70769 10.8292 8.69966 10.8213L5.18028 7.30188Z" fill="#AFAFAF"/>
</svg>
