<svg width="123" height="32" viewBox="0 0 123 32" fill="none" xmlns="http://www.w3.org/2000/svg">
<path d="M37.0834 24L33.3034 11.4H36.4174L38.3074 18.024C38.3914 18.324 38.4634 18.63 38.5234 18.942C38.5954 19.242 38.6494 19.53 38.6854 19.806C38.7334 20.082 38.7694 20.34 38.7934 20.58C38.8174 20.808 38.8414 21 38.8654 21.156H38.4694C38.5414 20.712 38.6014 20.316 38.6494 19.968C38.7094 19.62 38.7754 19.296 38.8474 18.996C38.9194 18.684 39.0094 18.36 39.1174 18.024L40.9894 13.038H43.4374L45.2734 18.024C45.4174 18.42 45.5374 18.792 45.6334 19.14C45.7294 19.488 45.8014 19.824 45.8494 20.148C45.9094 20.46 45.9574 20.772 45.9934 21.084L45.6334 21.138C45.6574 20.922 45.6754 20.724 45.6874 20.544C45.6994 20.352 45.7114 20.172 45.7234 20.004C45.7474 19.824 45.7714 19.638 45.7954 19.446C45.8194 19.254 45.8554 19.044 45.9034 18.816C45.9514 18.576 46.0174 18.306 46.1014 18.006L47.9734 11.4H51.0154L47.2354 24H44.8954L41.9074 16.746L42.2494 16.782L39.4954 24H37.0834ZM52.5484 24V14.442H55.4284V24H52.5484ZM53.9884 12.552C53.4484 12.552 53.0224 12.426 52.7104 12.174C52.4104 11.91 52.2604 11.538 52.2604 11.058C52.2604 10.626 52.4164 10.272 52.7284 9.996C53.0404 9.72 53.4604 9.582 53.9884 9.582C54.5284 9.582 54.9484 9.714 55.2484 9.978C55.5484 10.23 55.6984 10.59 55.6984 11.058C55.6984 11.502 55.5424 11.862 55.2304 12.138C54.9304 12.414 54.5164 12.552 53.9884 12.552ZM61.7524 24.198C60.9244 24.198 60.1864 23.988 59.5384 23.568C58.9024 23.136 58.3984 22.548 58.0264 21.804C57.6544 21.048 57.4684 20.19 57.4684 19.23C57.4684 18.27 57.6544 17.418 58.0264 16.674C58.3984 15.918 58.9084 15.324 59.5564 14.892C60.2044 14.46 60.9484 14.244 61.7884 14.244C62.2204 14.244 62.6344 14.31 63.0304 14.442C63.4264 14.574 63.7864 14.754 64.1104 14.982C64.4344 15.21 64.6984 15.474 64.9024 15.774C65.1064 16.062 65.2264 16.362 65.2624 16.674L64.5784 16.836V10.68H67.4764V24H64.7944L64.6324 21.822L65.2084 21.912C65.1724 22.212 65.0524 22.5 64.8484 22.776C64.6564 23.052 64.4044 23.298 64.0924 23.514C63.7804 23.718 63.4204 23.88 63.0124 24C62.6164 24.132 62.1964 24.198 61.7524 24.198ZM62.4904 21.804C62.9344 21.804 63.3184 21.696 63.6424 21.48C63.9664 21.264 64.2124 20.964 64.3804 20.58C64.5604 20.196 64.6504 19.746 64.6504 19.23C64.6504 18.702 64.5604 18.246 64.3804 17.862C64.2124 17.478 63.9664 17.178 63.6424 16.962C63.3184 16.746 62.9344 16.638 62.4904 16.638C62.0464 16.638 61.6624 16.746 61.3384 16.962C61.0264 17.178 60.7804 17.478 60.6004 17.862C60.4204 18.246 60.3304 18.702 60.3304 19.23C60.3304 19.746 60.4204 20.196 60.6004 20.58C60.7804 20.964 61.0264 21.264 61.3384 21.48C61.6624 21.696 62.0464 21.804 62.4904 21.804ZM70.0738 24V14.442H72.9538V24H70.0738ZM71.5138 12.552C70.9738 12.552 70.5478 12.426 70.2358 12.174C69.9358 11.91 69.7858 11.538 69.7858 11.058C69.7858 10.626 69.9418 10.272 70.2538 9.996C70.5658 9.72 70.9858 9.582 71.5138 9.582C72.0538 9.582 72.4738 9.714 72.7738 9.978C73.0738 10.23 73.2238 10.59 73.2238 11.058C73.2238 11.502 73.0678 11.862 72.7558 12.138C72.4558 12.414 72.0418 12.552 71.5138 12.552ZM78.1569 24V14.1H74.4129V11.4H85.0509V14.1H81.2169V24H78.1569ZM88.3749 24.198C87.6669 24.198 87.0609 24.048 86.5569 23.748C86.0649 23.436 85.6809 22.992 85.4049 22.416C85.1409 21.84 85.0089 21.15 85.0089 20.346V14.442H87.9069V19.95C87.9069 20.334 87.9669 20.664 88.0869 20.94C88.2069 21.216 88.3869 21.432 88.6269 21.588C88.8669 21.732 89.1549 21.804 89.4909 21.804C89.7429 21.804 89.9709 21.762 90.1749 21.678C90.3909 21.594 90.5709 21.48 90.7149 21.336C90.8709 21.18 90.9909 21.006 91.0749 20.814C91.1589 20.61 91.2009 20.388 91.2009 20.148V14.442H94.0989V24H91.3809L91.2549 22.038L91.7949 21.822C91.6509 22.278 91.4109 22.686 91.0749 23.046C90.7389 23.394 90.3369 23.676 89.8689 23.892C89.4009 24.096 88.9029 24.198 88.3749 24.198ZM97.4577 24V12.03H100.338V24H97.4577ZM95.7657 16.962V14.442H102.192V16.962H95.7657ZM108.25 24.18C107.254 24.18 106.366 23.964 105.586 23.532C104.818 23.1 104.206 22.512 103.75 21.768C103.306 21.024 103.084 20.172 103.084 19.212C103.084 18.252 103.306 17.4 103.75 16.656C104.206 15.912 104.818 15.324 105.586 14.892C106.366 14.46 107.254 14.244 108.25 14.244C109.246 14.244 110.128 14.46 110.896 14.892C111.676 15.324 112.288 15.912 112.732 16.656C113.176 17.4 113.398 18.252 113.398 19.212C113.398 20.172 113.176 21.024 112.732 21.768C112.288 22.512 111.676 23.1 110.896 23.532C110.128 23.964 109.246 24.18 108.25 24.18ZM108.25 21.696C108.682 21.696 109.066 21.588 109.402 21.372C109.738 21.156 110.002 20.862 110.194 20.49C110.386 20.118 110.476 19.692 110.464 19.212C110.476 18.732 110.386 18.306 110.194 17.934C110.002 17.55 109.738 17.25 109.402 17.034C109.066 16.818 108.682 16.71 108.25 16.71C107.818 16.71 107.428 16.818 107.08 17.034C106.744 17.25 106.48 17.55 106.288 17.934C106.096 18.306 106.006 18.732 106.018 19.212C106.006 19.692 106.096 20.118 106.288 20.49C106.48 20.862 106.744 21.156 107.08 21.372C107.428 21.588 107.818 21.696 108.25 21.696ZM115.281 24V14.442H118.017L118.143 17.556L117.603 16.962C117.747 16.446 117.981 15.984 118.305 15.576C118.641 15.168 119.031 14.844 119.475 14.604C119.919 14.364 120.393 14.244 120.897 14.244C121.113 14.244 121.311 14.262 121.491 14.298C121.683 14.334 121.857 14.376 122.013 14.424L121.221 17.61C121.089 17.526 120.909 17.46 120.681 17.412C120.465 17.352 120.237 17.322 119.997 17.322C119.733 17.322 119.487 17.37 119.259 17.466C119.031 17.55 118.839 17.676 118.683 17.844C118.527 18.012 118.401 18.21 118.305 18.438C118.221 18.666 118.179 18.924 118.179 19.212V24H115.281Z" fill="#272727"/>
<path d="M2.50696 2.20754L3.54583 2.20788L5.22476 4.53383L7.5491 6.37584L4.19122 8.33992L3.54582 5.51587L2.26767 2.98253L2.50696 2.20754Z" fill="url(#paint0_linear_46_3498)"/>
<path d="M27.3664 2.26931L27.7409 3.16485L25.9994 5.45119L24.9792 8.11919L21.7855 5.93365L24.4026 4.35842L26.4979 2.3427L27.3664 2.26931Z" fill="url(#paint1_linear_46_3498)"/>
<ellipse cx="14.6008" cy="16.7047" rx="14.3694" ry="12.8371" fill="url(#paint2_linear_46_3498)"/>
<g filter="url(#filter0_d_46_3498)">
<path d="M5.5 15.3426C5.5 13.187 7.2475 11.4395 9.40316 11.4395H19.3426C21.7498 11.4395 23.7012 13.3909 23.7012 15.7981C23.7012 17.8187 22.3125 19.5744 20.3462 20.0397L14.6103 21.397C14.6039 21.3985 14.5973 21.3992 14.5907 21.3992C14.535 21.3992 14.4942 21.3468 14.5079 21.2928L14.9511 19.5494C14.9569 19.5268 14.968 19.5059 14.9835 19.4884C15.0671 19.3944 15.0004 19.2458 14.8746 19.2458H8.50459C6.8452 19.2458 5.5 17.9006 5.5 16.2412V15.3426Z" fill="#FEFBFB"/>
</g>
<ellipse cx="19.2706" cy="15.8652" rx="1.55668" ry="1.5493" fill="#2F2E41"/>
<ellipse cx="9.21196" cy="15.8652" rx="1.55668" ry="1.5493" fill="#2F2E41"/>
<g clip-path="url(#clip0_46_3498)">
<path d="M21.4717 23.4839C21.3894 23.1797 21.2288 22.9024 21.006 22.6796C20.7832 22.4568 20.5059 22.2962 20.2017 22.2139C19.0881 21.9102 14.6063 21.9102 14.6063 21.9102C14.6063 21.9102 10.1242 21.9193 9.01062 22.2231C8.70643 22.3054 8.42912 22.466 8.2063 22.6888C7.98348 22.9116 7.82293 23.189 7.74063 23.4932C7.40379 25.4718 7.27312 28.4868 7.74987 30.3863C7.83218 30.6905 7.99274 30.9678 8.21556 31.1906C8.43838 31.4134 8.71569 31.574 9.01986 31.6563C10.1335 31.96 14.6154 31.96 14.6154 31.96C14.6154 31.96 19.0973 31.96 20.2109 31.6563C20.5151 31.574 20.7924 31.4134 21.0152 31.1906C21.238 30.9678 21.3986 30.6905 21.4809 30.3863C21.8362 28.4048 21.9457 25.3917 21.4717 23.4839Z" fill="#FF0000"/>
<path d="M13.1797 29.0886L16.8977 26.935L13.1797 24.7815V29.0886Z" fill="white"/>
</g>
<rect width="2.30628" height="4.84261" rx="1.15314" transform="matrix(0.715712 0.698395 -0.698397 0.715711 23.3428 22.5842)" fill="#FEFBFB"/>
<rect width="2.30628" height="4.84261" rx="1.15314" transform="matrix(-0.811769 0.583978 -0.58398 -0.811768 8.9668 26.9958)" fill="#FEFBFB"/>
<defs>
<filter id="filter0_d_46_3498" x="0" y="6.93945" width="29.2012" height="20.9597" filterUnits="userSpaceOnUse" color-interpolation-filters="sRGB">
<feFlood flood-opacity="0" result="BackgroundImageFix"/>
<feColorMatrix in="SourceAlpha" type="matrix" values="0 0 0 0 0 0 0 0 0 0 0 0 0 0 0 0 0 0 127 0" result="hardAlpha"/>
<feOffset dy="1"/>
<feGaussianBlur stdDeviation="2.75"/>
<feComposite in2="hardAlpha" operator="out"/>
<feColorMatrix type="matrix" values="0 0 0 0 0 0 0 0 0 0 0 0 0 0 0 0 0 0 0.25 0"/>
<feBlend mode="normal" in2="BackgroundImageFix" result="effect1_dropShadow_46_3498"/>
<feBlend mode="normal" in="SourceGraphic" in2="effect1_dropShadow_46_3498" result="shape"/>
</filter>
<linearGradient id="paint0_linear_46_3498" x1="7.72064" y1="9.56004" x2="0.610118" y2="0.0274921" gradientUnits="userSpaceOnUse">
<stop stop-color="#D3FFCA"/>
<stop offset="0.423688" stop-color="#5CDC43"/>
<stop offset="0.999372" stop-color="#0A710D"/>
</linearGradient>
<linearGradient id="paint1_linear_46_3498" x1="21.8277" y1="9.41594" x2="27.3539" y2="-0.965602" gradientUnits="userSpaceOnUse">
<stop stop-color="#D3FFCA"/>
<stop offset="0.423688" stop-color="#5CDC43"/>
<stop offset="0.999372" stop-color="#0A710D"/>
</linearGradient>
<linearGradient id="paint2_linear_46_3498" x1="16.6928" y1="41.3897" x2="13.5842" y2="-8.0265" gradientUnits="userSpaceOnUse">
<stop stop-color="#D3FFCA"/>
<stop offset="0.423688" stop-color="#5CDC43"/>
<stop offset="0.999372" stop-color="#0A710D"/>
</linearGradient>
<clipPath id="clip0_46_3498">
<rect width="14.3502" height="10.09" fill="white" transform="translate(7.43848 21.9102)"/>
</clipPath>
</defs>
</svg>
