<svg width="33" height="33" viewBox="0 0 33 33" fill="none" xmlns="http://www.w3.org/2000/svg">
<path d="M16.5 22.1402L11.5088 25.1542C11.3621 25.2267 11.226 25.256 11.1004 25.2422C10.9758 25.2276 10.8543 25.1845 10.736 25.113C10.6169 25.0397 10.527 24.9361 10.4665 24.8022C10.406 24.6684 10.4005 24.5222 10.45 24.3636L11.7783 18.7124L7.38517 14.9036C7.26142 14.8028 7.17984 14.6822 7.14042 14.542C7.10101 14.4017 7.10972 14.2674 7.16655 14.1391C7.22338 14.0108 7.29901 13.9054 7.39342 13.8229C7.48876 13.7431 7.61709 13.689 7.77842 13.6606L13.5754 13.1546L15.8359 7.80311C15.8983 7.65186 15.9881 7.54278 16.1054 7.47586C16.2228 7.40895 16.3543 7.37549 16.5 7.37549C16.6458 7.37549 16.7778 7.40895 16.896 7.47586C17.0143 7.54278 17.1037 7.65186 17.1642 7.80311L19.4247 13.1546L25.2203 13.6606C25.3825 13.6881 25.5113 13.7427 25.6067 13.8242C25.702 13.9049 25.7781 14.0099 25.8349 14.1391C25.8908 14.2674 25.8991 14.4017 25.8597 14.542C25.8203 14.6822 25.7387 14.8028 25.6149 14.9036L21.2218 18.7124L22.55 24.3636C22.6014 24.5204 22.5963 24.6661 22.5349 24.8009C22.4735 24.9356 22.3832 25.0392 22.264 25.1116C22.1467 25.1849 22.0253 25.2285 21.8997 25.2422C21.775 25.256 21.6393 25.2267 21.4927 25.1542L16.5 22.1402Z" fill="url(#paint0_linear_549_217)"/>
<defs>
<linearGradient id="paint0_linear_549_217" x1="7.11621" y1="1.92164" x2="14.0286" y2="22.5537" gradientUnits="userSpaceOnUse">
<stop stop-color="#A4B737"/>
<stop offset="1" stop-color="#00BB05"/>
</linearGradient>
</defs>
</svg>
