<svg width="34" height="34" viewBox="0 0 34 34" fill="none" xmlns="http://www.w3.org/2000/svg">
<circle cx="17" cy="17" r="12.9324" transform="rotate(18.497 17 17)" fill="url(#paint0_linear_46_655)" stroke="white"/>
<g clip-path="url(#clip0_46_655)">
<path d="M22.0071 16.1044C22.2534 16.2429 22.4574 16.4457 22.5972 16.6913C22.737 16.9368 22.8074 17.2157 22.8008 17.4982C22.7942 17.7807 22.7108 18.056 22.5597 18.2947C22.4086 18.5335 22.1953 18.7266 21.9428 18.8534L15.2055 22.3154C14.1206 22.8735 12.8225 22.0846 12.8506 20.8856L13.0198 13.6498C13.0479 12.4503 14.3814 11.7235 15.439 12.3306L22.0071 16.1044Z" stroke="white" stroke-width="1.5"/>
</g>
<defs>
<linearGradient id="paint0_linear_46_655" x1="3.56755" y1="-4.63143" x2="14.3692" y2="26.0666" gradientUnits="userSpaceOnUse">
<stop stop-color="#A4B737"/>
<stop offset="1" stop-color="#00BB05"/>
</linearGradient>
<clipPath id="clip0_46_655">
<rect width="12.4656" height="12.4656" fill="white" transform="translate(11.5232 11) rotate(1.33982)"/>
</clipPath>
</defs>
</svg>
