<svg width="22" height="22" viewBox="0 0 22 22" fill="none" xmlns="http://www.w3.org/2000/svg">
<rect width="11" height="11" transform="translate(6 6)" fill="#FBFAFF"/>
<circle cx="11" cy="11" r="11" fill="#EBF8F1"/>
<path d="M8.16667 11.0833C8.16667 11.3707 8.05253 11.6462 7.84937 11.8494C7.6462 12.0525 7.37065 12.1667 7.08333 12.1667C6.79602 12.1667 6.52047 12.0525 6.3173 11.8494C6.11414 11.6462 6 11.3707 6 11.0833C6 10.796 6.11414 10.5205 6.3173 10.3173C6.52047 10.1141 6.79602 10 7.08333 10C7.37065 10 7.6462 10.1141 7.84937 10.3173C8.05253 10.5205 8.16667 10.796 8.16667 11.0833ZM11.9583 11.0833C11.9583 11.3707 11.8442 11.6462 11.641 11.8494C11.4379 12.0525 11.1623 12.1667 10.875 12.1667C10.5877 12.1667 10.3121 12.0525 10.109 11.8494C9.9058 11.6462 9.79167 11.3707 9.79167 11.0833C9.79167 10.796 9.9058 10.5205 10.109 10.3173C10.3121 10.1141 10.5877 10 10.875 10C11.1623 10 11.4379 10.1141 11.641 10.3173C11.8442 10.5205 11.9583 10.796 11.9583 11.0833ZM15.75 11.0833C15.75 11.3707 15.6359 11.6462 15.4327 11.8494C15.2295 12.0525 14.954 12.1667 14.6667 12.1667C14.3793 12.1667 14.1038 12.0525 13.9006 11.8494C13.6975 11.6462 13.5833 11.3707 13.5833 11.0833C13.5833 10.796 13.6975 10.5205 13.9006 10.3173C14.1038 10.1141 14.3793 10 14.6667 10C14.954 10 15.2295 10.1141 15.4327 10.3173C15.6359 10.5205 15.75 10.796 15.75 11.0833Z" fill="#272727"/>
</svg>
