<svg width="20" height="20" viewBox="0 0 20 20" fill="none" xmlns="http://www.w3.org/2000/svg">
<path d="M9.63478 14.7998C11.199 14.7998 12.5288 14.2505 13.6242 13.152C14.7196 12.0534 15.2671 10.72 15.2666 9.15171C15.2666 7.98914 14.935 6.92188 14.2719 5.94994C13.6083 4.97705 12.6673 4.2774 11.4489 3.85096C11.3053 3.8006 11.1795 3.78742 11.0716 3.81143C10.9637 3.83543 10.8743 3.88226 10.8034 3.95192C10.7325 4.02158 10.6875 4.11101 10.6682 4.22021C10.6494 4.32988 10.6642 4.44496 10.7126 4.56545C10.8036 4.78996 10.8698 5.0173 10.9111 5.24746C10.9524 5.47762 10.9728 5.72001 10.9723 5.97465C10.9723 7.22994 10.5345 8.29672 9.65872 9.175C8.78297 10.0533 7.71902 10.4927 6.46688 10.4931C6.1393 10.4931 5.83964 10.4583 5.5679 10.3886C5.2957 10.319 5.06386 10.2625 4.87237 10.2192C4.77006 10.2004 4.67643 10.2027 4.59149 10.2263C4.50654 10.2498 4.43872 10.2912 4.38804 10.3505C4.33266 10.4093 4.29511 10.4818 4.2754 10.568C4.25663 10.6541 4.26789 10.7522 4.30919 10.8624C4.64476 12.0155 5.3025 12.9599 6.28244 13.6956C7.26238 14.4313 8.37982 14.7993 9.63478 14.7998ZM9.63478 14.0938C8.60228 14.0938 7.67538 13.8083 6.85407 13.2374C6.03276 12.6665 5.43438 11.9223 5.05893 11.005C5.29359 11.0638 5.52825 11.1109 5.76291 11.1462C5.99756 11.1815 6.23222 11.1991 6.46688 11.1991C7.91004 11.1991 9.13918 10.6903 10.1543 9.67274C11.1695 8.65514 11.6768 7.42245 11.6763 5.97465C11.6763 5.73931 11.6587 5.50397 11.6235 5.26864C11.5883 5.0333 11.5414 4.79796 11.4827 4.56262C12.3979 4.93916 13.1401 5.53928 13.7094 6.36296C14.2787 7.18664 14.5631 8.11622 14.5626 9.15171C14.5626 10.5167 14.0816 11.6816 13.1195 12.6465C12.1574 13.6114 10.9958 14.0938 9.63478 14.0938Z" fill="black"/>
</svg>
