<svg width="30" height="30" viewBox="0 0 30 30" fill="none" xmlns="http://www.w3.org/2000/svg">
<circle cx="15" cy="15" r="15" fill="#FAFAFA"/>
<path d="M15.0077 26C13.6303 26 12.333 25.7239 11.1158 25.1717C9.89856 24.6187 8.83849 23.8681 7.93558 22.92C7.03267 21.9719 6.31731 20.8597 5.7895 19.5833C5.26169 18.307 4.99852 16.9459 5.00001 15.5C5.00001 14.0502 5.26317 12.6879 5.7895 11.4132C6.31657 10.1376 7.03193 9.02655 7.93558 8.08C8.83924 7.13344 9.89931 6.38289 11.1158 5.82833C12.333 5.27611 13.6303 5 15.0077 5C16.3895 5 17.6879 5.27611 18.9029 5.82833C20.1186 6.38133 21.1779 7.13189 22.0808 8.08C22.9837 9.02811 23.6987 10.1392 24.2258 11.4132C24.7521 12.6887 25.0153 14.051 25.0153 15.5C25.0153 16.9451 24.7521 18.3062 24.2258 19.5833C23.6987 20.8604 22.9834 21.9727 22.0797 22.92C21.1761 23.8673 20.1171 24.6179 18.9029 25.1717C17.6886 25.7254 16.3902 26.0015 15.0077 26ZM15.0077 24.8427C15.66 23.963 16.1982 23.0993 16.6222 22.2515C17.0455 21.4037 17.3898 20.4548 17.6552 19.4048H12.3601C12.6544 20.5139 13.0058 21.4924 13.4142 22.3402C13.8234 23.1879 14.3546 24.0221 15.0077 24.8427ZM13.5921 24.6677C13.0732 24.026 12.5995 23.2327 12.171 22.2877C11.7426 21.3434 11.4238 20.3821 11.2148 19.4037H6.95039C7.58791 20.8542 8.49119 22.0442 9.66023 22.9737C10.83 23.9023 12.1406 24.467 13.5921 24.6677ZM16.4232 24.6677C17.8747 24.467 19.1853 23.9023 20.3551 22.9737C21.5241 22.0442 22.4274 20.8542 23.0649 19.4037H18.8017C18.52 20.3969 18.1653 21.3656 17.7375 22.3098C17.309 23.2548 16.8709 24.0416 16.4232 24.6677ZM6.49671 18.2382H10.9835C10.899 17.7591 10.8397 17.2924 10.8056 16.8382C10.77 16.3847 10.7522 15.9387 10.7522 15.5C10.7522 15.0613 10.7696 14.6153 10.8044 14.1618C10.8393 13.7084 10.8986 13.2417 10.9824 12.7618H6.49782C6.37698 13.1663 6.28247 13.6069 6.21427 14.0837C6.14607 14.5597 6.11197 15.0318 6.11197 15.5C6.11197 15.9682 6.1457 16.4407 6.21316 16.9175C6.28061 17.3943 6.37513 17.8341 6.49671 18.237M12.0954 18.237H17.9199C18.0044 17.7587 18.0637 17.2998 18.0978 16.8603C18.1334 16.4217 18.1512 15.9682 18.1512 15.5C18.1512 15.0318 18.1337 14.5783 18.0989 14.1397C18.0641 13.701 18.0048 13.2421 17.921 12.763H12.0943C12.0105 13.2413 11.9512 13.7002 11.9164 14.1397C11.8816 14.5783 11.8641 15.0318 11.8641 15.5C11.8641 15.9682 11.8816 16.4217 11.9164 16.8603C11.9512 17.299 12.0117 17.7579 12.0954 18.237ZM19.033 18.237H23.5186C23.6394 17.8333 23.734 17.3935 23.8022 16.9175C23.8696 16.4407 23.9033 15.9682 23.9033 15.5C23.9033 15.0318 23.8696 14.5593 23.8022 14.0825C23.7347 13.6057 23.6402 13.1659 23.5186 12.763H19.0318C19.1164 13.2413 19.1757 13.7076 19.2098 14.1618C19.2453 14.6161 19.2631 15.0621 19.2631 15.5C19.2631 15.9379 19.2457 16.3839 19.2109 16.8382C19.176 17.2924 19.1167 17.7591 19.033 18.2382M18.8017 11.5963H23.0649C22.4133 10.1154 21.5208 8.92544 20.3873 8.02633C19.2539 7.12722 17.9325 6.55517 16.4232 6.31017C16.9421 7.0265 17.4087 7.84589 17.8231 8.76833C18.2375 9.69 18.5637 10.6327 18.8017 11.5963ZM12.3601 11.5963H17.6552C17.3617 10.5012 16.9995 9.51111 16.5688 8.626C16.1381 7.74089 15.6178 6.918 15.0077 6.15733C14.3976 6.91722 13.8772 7.74011 13.4465 8.626C13.0158 9.51189 12.6529 10.502 12.3601 11.5963ZM6.9515 11.5963H11.2148C11.4527 10.6334 11.7789 9.69078 12.1933 8.76833C12.6077 7.84589 13.0743 7.0265 13.5932 6.31017C12.0706 6.55594 10.7459 7.1315 9.61909 8.03683C8.4923 8.94372 7.60274 10.1298 6.95039 11.5952" fill="#272727"/>
</svg>
