<svg width="12" height="12" viewBox="0 0 12 12" fill="none" xmlns="http://www.w3.org/2000/svg">
<path d="M11.4 5.5194H10.812C10.4802 5.5194 10.212 5.7348 10.212 6C10.212 6.2646 10.4802 6.4794 10.812 6.4794H11.4C11.7312 6.4794 12 6.2652 12 6C12 5.7354 11.7306 5.5194 11.4 5.5194ZM6 2.7C5.56626 2.69865 5.13654 2.78309 4.73555 2.94845C4.33457 3.11382 3.97025 3.35684 3.66354 3.66354C3.35684 3.97025 3.11382 4.33457 2.94845 4.73555C2.78309 5.13654 2.69865 5.56626 2.7 6C2.7 7.8306 4.1694 9.3 6 9.3C7.83 9.3 9.3 7.8306 9.3 6C9.3 4.1694 7.8294 2.7 6 2.7ZM6 8.4C4.6734 8.4 3.6 7.3254 3.6 6C3.6 4.6734 4.6734 3.6 6 3.6C6.63652 3.6 7.24697 3.85286 7.69706 4.30294C8.14714 4.75303 8.4 5.36348 8.4 6C8.4 6.63652 8.14714 7.24697 7.69706 7.69706C7.24697 8.14714 6.63652 8.4 6 8.4ZM1.8 6C1.8 5.7354 1.5306 5.5194 1.2 5.5194H0.6C0.2682 5.5194 0 5.7348 0 6C0 6.2646 0.2682 6.4794 0.6 6.4794H1.2C1.5306 6.4794 1.8 6.2646 1.8 6ZM6 1.8C6.2646 1.8 6.4794 1.5318 6.4794 1.2V0.6C6.4794 0.2682 6.2646 0 6 0C5.7354 0 5.5194 0.2682 5.5194 0.6V1.2C5.5194 1.5318 5.7348 1.8 6 1.8ZM6 10.2C5.7348 10.2 5.5194 10.4682 5.5194 10.8V11.4C5.5194 11.7318 5.7348 12 6 12C6.2646 12 6.4794 11.7318 6.4794 11.4V10.8C6.4794 10.4682 6.2646 10.2 6 10.2ZM10.419 2.2596C10.6536 2.025 10.6914 1.683 10.5042 1.4958C10.317 1.3086 9.9744 1.347 9.741 1.5816L9.321 2.001C9.0864 2.2356 9.0486 2.5776 9.2358 2.7648C9.423 2.952 9.7656 2.9136 9.9996 2.679L10.419 2.2596ZM2.0004 9.3198L1.5804 9.7404C1.3458 9.975 1.308 10.3158 1.4952 10.503C1.6824 10.6902 2.025 10.653 2.2584 10.4184L2.6784 9.999C2.913 9.7644 2.9508 9.4224 2.7636 9.2346C2.5764 9.0468 2.2338 9.0864 2.0004 9.3198ZM2.259 1.581C2.025 1.3464 1.6824 1.308 1.4952 1.4952C1.308 1.6824 1.3464 2.025 1.5798 2.2596L1.9998 2.679C2.2344 2.9136 2.5758 2.952 2.763 2.7648C2.9502 2.5776 2.9124 2.235 2.6784 2.001L2.259 1.581ZM9.3204 9.9996L9.7404 10.419C9.975 10.6536 10.3164 10.6908 10.5036 10.5048C10.6908 10.3176 10.653 9.975 10.4184 9.741L9.999 9.3216C9.7644 9.087 9.4224 9.0486 9.2346 9.2358C9.0468 9.423 9.0858 9.765 9.3204 9.9996Z" fill="#272727"/>
</svg>
