<svg width="19" height="19" viewBox="0 0 19 19" fill="none" xmlns="http://www.w3.org/2000/svg">
<path d="M6.00098 5.125C6.00098 4.23862 6.7841 3.375 7.75098 3.375C8.71785 3.375 9.50098 4.0925 9.50098 4.97888C9.50098 5.29825 9.39948 5.59575 9.2236 5.846C8.70035 6.5915 7.75098 7.30112 7.75098 8.1875" stroke="#272727" stroke-width="1.5" stroke-linecap="round"/>
<path d="M7.75098 10.375H7.75875" stroke="#272727" stroke-width="2" stroke-linecap="round" stroke-linejoin="round"/>
<path d="M5.56348 15.625C6.48223 16.3863 7.5891 16.871 8.85698 16.9541C9.85535 17.0197 10.8984 17.0197 11.8959 16.9541C12.2523 16.9295 12.6029 16.8504 12.9354 16.7196C13.2941 16.5735 13.4726 16.5009 13.5645 16.5122C13.6555 16.5227 13.7876 16.619 14.0519 16.8115C14.5182 17.151 15.1054 17.3943 15.9769 17.3741C16.417 17.3636 16.6375 17.3575 16.7355 17.1921C16.8344 17.0259 16.7119 16.7966 16.466 16.3372C16.1247 15.7002 15.9095 14.9714 16.2367 14.3869C16.7994 13.5521 17.278 12.5642 17.348 11.4967C17.3856 10.9236 17.3856 10.3295 17.348 9.7555C17.3023 9.06285 17.1341 8.3838 16.851 7.75" stroke="#272727" stroke-width="1.5" stroke-linecap="round" stroke-linejoin="round"/>
<path d="M9.27078 13.454C10.6868 13.3604 12.0205 12.7552 13.0234 11.7512C14.0263 10.7472 14.63 9.41279 14.722 7.99666C14.7605 7.42354 14.7605 6.82941 14.722 6.25541C14.6298 4.83944 14.026 3.50526 13.0231 2.50141C12.0203 1.49756 10.6867 0.892492 9.27078 0.798912C8.25887 0.733696 7.24382 0.733696 6.23191 0.798912C4.81563 0.892289 3.48161 1.49736 2.47838 2.5014C1.47515 3.50543 0.871149 4.83994 0.778908 6.25629C0.740364 6.83606 0.740364 7.41776 0.778908 7.99754C0.848908 9.06504 1.32753 10.0529 1.89016 10.8868C2.21741 11.4713 2.00128 12.2002 1.66091 12.838C1.41591 13.2965 1.29341 13.5258 1.39141 13.692C1.49028 13.8583 1.70991 13.8627 2.15091 13.874C3.02153 13.895 3.60866 13.6509 4.07503 13.3114C4.33928 13.1189 4.47141 13.0227 4.56241 13.0122C4.65341 13.0017 4.83366 13.0734 5.19241 13.2195C5.51441 13.3508 5.88803 13.4313 6.23191 13.454C7.22853 13.5197 8.27066 13.5197 9.27078 13.454Z" stroke="#272727" stroke-width="1.5" stroke-linejoin="round"/>
</svg>
