<svg width="17" height="18" viewBox="0 0 17 18" fill="none" xmlns="http://www.w3.org/2000/svg">
<path d="M16.0532 16.1418L14.935 17.2881L12.7002 14.994L13.8176 13.8469L16.0532 16.1418ZM7.11228 0.810033C7.31885 0.810538 7.5253 0.820282 7.73104 0.839236C7.45759 1.33365 7.27063 1.87342 7.17866 2.43407L7.11228 2.43244C4.05637 2.43244 1.58051 4.97395 1.58051 8.11088C1.58051 11.2478 4.05637 13.7893 7.11228 13.7893C10.1682 13.7893 12.644 11.2478 12.644 8.11088L12.6417 8.04193C13.1879 7.94727 13.7137 7.75508 14.1953 7.47409C14.2127 7.685 14.2246 7.89592 14.2246 8.11088C14.2246 12.141 11.0383 15.4117 7.11228 15.4117C3.1863 15.4117 0 12.141 0 8.11088C0 4.08081 3.1863 0.810033 7.11228 0.810033ZM11.4824 0.258413C11.512 0.182147 11.5632 0.116756 11.6294 0.0706903C11.6957 0.0246241 11.7738 0 11.8538 0C11.9338 0 12.0119 0.0246241 12.0781 0.0706903C12.1443 0.116756 12.1956 0.182147 12.2252 0.258413L12.4259 0.753248C12.7614 1.59291 13.3978 2.26853 14.204 2.64092L14.7714 2.90051C14.844 2.93497 14.9054 2.99002 14.9484 3.05916C14.9915 3.1283 15.0143 3.20864 15.0143 3.2907C15.0143 3.37276 14.9915 3.4531 14.9484 3.52224C14.9054 3.59138 14.844 3.64643 14.7714 3.68089L14.1708 3.95508C13.3848 4.31714 12.7594 4.96834 12.418 5.78029L12.2228 6.23943C12.1925 6.3142 12.1412 6.37806 12.0755 6.42299C12.0099 6.46791 11.9327 6.49188 11.8538 6.49188C11.7749 6.49188 11.6977 6.46791 11.6321 6.42299C11.5664 6.37806 11.5151 6.3142 11.4847 6.23943L11.2903 5.7811C10.9487 4.96856 10.3227 4.31701 9.53598 3.95508L8.93539 3.68089C8.86262 3.64653 8.80098 3.59147 8.75777 3.52224C8.71455 3.45301 8.69159 3.37252 8.69159 3.29029C8.69159 3.20807 8.71455 3.12758 8.75777 3.05835C8.80098 2.98912 8.86262 2.93406 8.93539 2.8997L9.50279 2.64011C10.309 2.26827 10.9457 1.59326 11.2816 0.75406L11.4824 0.258413Z" fill="#5D5D5D"/>
</svg>
