<svg width="18" height="17" viewBox="0 0 18 17" fill="none" xmlns="http://www.w3.org/2000/svg">
<path d="M6.40409 15.969C5.09473 15.578 3.90888 14.8547 2.96192 13.8695C3.26658 13.5082 3.4565 13.0641 3.50737 12.5942C3.55825 12.1243 3.46776 11.6499 3.24749 11.2318C3.02722 10.8136 2.68719 10.4706 2.27091 10.2468C1.85463 10.023 1.38103 9.92843 0.910712 9.97529C0.803325 9.45049 0.74948 8.91615 0.750004 8.38048C0.750004 7.55319 0.87667 6.75519 1.11259 6.00548H1.14584C1.54949 6.00561 1.94652 5.90285 2.29943 5.70692C2.65234 5.51099 2.94949 5.22834 3.16282 4.88566C3.37615 4.54299 3.49862 4.15159 3.51867 3.74844C3.53872 3.34528 3.45568 2.94367 3.2774 2.58152C4.20576 1.71775 5.32803 1.08962 6.54975 0.75C6.74861 1.14045 7.05161 1.46828 7.42522 1.69721C7.79883 1.92614 8.2285 2.04725 8.66667 2.04715C9.10484 2.04725 9.53451 1.92614 9.90812 1.69721C10.2817 1.46828 10.5847 1.14045 10.7836 0.75C12.0053 1.08962 13.1276 1.71775 14.0559 2.58152C13.8764 2.94621 13.7934 3.35088 13.815 3.75681C13.8366 4.16274 13.962 4.55634 14.1792 4.89993C14.3964 5.24352 14.6982 5.5256 15.0557 5.71917C15.4131 5.91274 15.8143 6.01132 16.2208 6.00548C16.4617 6.77409 16.584 7.57498 16.5833 8.38048C16.5833 8.92673 16.5279 9.46031 16.4226 9.97569C15.9523 9.92883 15.4787 10.0234 15.0624 10.2472C14.6461 10.471 14.3061 10.814 14.0858 11.2322C13.8656 11.6503 13.7751 12.1247 13.826 12.5946C13.8768 13.0645 14.0668 13.5085 14.3714 13.8699C13.4244 14.8549 12.2386 15.5781 10.9293 15.969C10.7755 15.4898 10.4735 15.0717 10.0669 14.7751C9.66027 14.4786 9.16997 14.3187 8.66667 14.3187C8.16337 14.3187 7.67307 14.4786 7.26644 14.7751C6.8598 15.0717 6.55785 15.4898 6.40409 15.969Z" stroke="#5D5D5D" stroke-width="1.5" stroke-linejoin="round"/>
<path d="M8.66683 11.1515C9.0307 11.1515 9.39101 11.0799 9.72718 10.9406C10.0634 10.8014 10.3688 10.5973 10.6261 10.34C10.8834 10.0827 11.0875 9.77722 11.2267 9.44105C11.366 9.10488 11.4377 8.74457 11.4377 8.3807C11.4377 8.01683 11.366 7.65652 11.2267 7.32035C11.0875 6.98417 10.8834 6.67872 10.6261 6.42142C10.3688 6.16413 10.0634 5.96003 9.72718 5.82078C9.39101 5.68153 9.0307 5.60986 8.66683 5.60986C7.93196 5.60986 7.22719 5.90179 6.70755 6.42142C6.18792 6.94105 5.896 7.64583 5.896 8.3807C5.896 9.11557 6.18792 9.82034 6.70755 10.34C7.22719 10.8596 7.93196 11.1515 8.66683 11.1515Z" stroke="#5D5D5D" stroke-width="1.5" stroke-linejoin="round"/>
</svg>
