<svg width="17" height="16" viewBox="0 0 17 16" fill="none" xmlns="http://www.w3.org/2000/svg">
<path fill-rule="evenodd" clip-rule="evenodd" d="M15.0565 1.51188L16.206 1.89505C16.261 1.91313 16.3089 1.94812 16.3429 1.99504C16.3768 2.04195 16.3951 2.09838 16.3951 2.1563C16.3951 2.21421 16.3768 2.27065 16.3429 2.31756C16.3089 2.36447 16.261 2.39946 16.206 2.41755L15.0565 2.80071C15.0159 2.81421 14.979 2.83697 14.9488 2.86721C14.9186 2.89744 14.8958 2.93431 14.8823 2.97488L14.5001 4.12346C14.482 4.17848 14.447 4.22639 14.4001 4.26035C14.3532 4.29431 14.2967 4.3126 14.2388 4.3126C14.1809 4.3126 14.1245 4.29431 14.0776 4.26035C14.0306 4.22639 13.9956 4.17848 13.9776 4.12346L13.5944 2.97396C13.5809 2.93339 13.5581 2.89653 13.5279 2.86629C13.4977 2.83606 13.4608 2.81329 13.4202 2.7998L12.2716 2.41755C12.2166 2.39946 12.1687 2.36447 12.1348 2.31756C12.1008 2.27065 12.0825 2.21421 12.0825 2.1563C12.0825 2.09838 12.1008 2.04195 12.1348 1.99504C12.1687 1.94812 12.2166 1.91313 12.2716 1.89505L13.4211 1.51188C13.4617 1.49839 13.4986 1.47562 13.5288 1.44539C13.5591 1.41515 13.5818 1.37829 13.5953 1.33771L13.9776 0.189131C13.9956 0.134113 14.0306 0.0862073 14.0776 0.0522458C14.1245 0.0182842 14.1809 0 14.2388 0C14.2967 0 14.3532 0.0182842 14.4001 0.0522458C14.447 0.0862073 14.482 0.134113 14.5001 0.189131L14.8832 1.33863C14.9107 1.42113 14.9749 1.4853 15.0574 1.5128M6.16756 1.28363C6.40406 0.573214 7.40873 0.574131 7.64523 1.28363L9.05415 5.50946L13.28 6.91838C13.9895 7.15488 13.9895 8.15955 13.28 8.39605L9.05415 9.80496L7.64523 14.0308C7.40873 14.7403 6.40406 14.7403 6.16756 14.0308L4.75865 9.80496L0.532812 8.39605C-0.177604 8.15955 -0.177604 7.15488 0.532812 6.91838L4.75865 5.50946L6.16756 1.28363ZM6.90548 3.41396L5.96773 6.2263C5.92946 6.34089 5.86507 6.44502 5.77964 6.53045C5.6942 6.61589 5.59008 6.68028 5.47548 6.71855L2.66315 7.6563L5.47548 8.59405C5.59008 8.63232 5.6942 8.69671 5.77964 8.78214C5.86507 8.86757 5.92946 8.9717 5.96773 9.0863L6.90548 11.8986L7.84323 9.0863C7.8815 8.9717 7.94589 8.86757 8.03132 8.78214C8.11675 8.69671 8.22088 8.63232 8.33548 8.59405L11.1478 7.6563L8.33548 6.71855C8.22088 6.68028 8.11675 6.61589 8.03132 6.53045C7.94589 6.44502 7.8815 6.34089 7.84323 6.2263L6.90548 3.41396ZM16.206 12.895L15.0565 12.5119C15.0159 12.4984 14.979 12.4756 14.9488 12.4454C14.9186 12.4152 14.8958 12.3783 14.8823 12.3377L14.5001 11.1891C14.482 11.1341 14.447 11.0862 14.4001 11.0522C14.3532 11.0183 14.2967 11 14.2388 11C14.1809 11 14.1245 11.0183 14.0776 11.0522C14.0306 11.0862 13.9956 11.1341 13.9776 11.1891L13.5944 12.3386C13.5809 12.3792 13.5581 12.4161 13.5279 12.4463C13.4977 12.4765 13.4608 12.4993 13.4202 12.5128L12.2716 12.895C12.2166 12.9131 12.1687 12.9481 12.1348 12.995C12.1008 13.0419 12.0825 13.0984 12.0825 13.1563C12.0825 13.2142 12.1008 13.2706 12.1348 13.3176C12.1687 13.3645 12.2166 13.3995 12.2716 13.4175L13.4211 13.8007C13.5036 13.8282 13.5678 13.8924 13.5953 13.9749L13.9776 15.1235C13.9956 15.1785 14.0306 15.2264 14.0776 15.2604C14.1245 15.2943 14.1809 15.3126 14.2388 15.3126C14.2967 15.3126 14.3532 15.2943 14.4001 15.2604C14.447 15.2264 14.482 15.1785 14.5001 15.1235L14.8832 13.974C14.8967 13.9334 14.9195 13.8965 14.9497 13.8663C14.98 13.8361 15.0168 13.8133 15.0574 13.7998L16.206 13.4175C16.261 13.3995 16.3089 13.3645 16.3429 13.3176C16.3768 13.2706 16.3951 13.2142 16.3951 13.1563C16.3951 13.0984 16.3768 13.0419 16.3429 12.995C16.3089 12.9481 16.261 12.9131 16.206 12.895Z" fill="#5D5D5D"/>
</svg>
