<svg width="30" height="31" viewBox="0 0 30 31" fill="none" xmlns="http://www.w3.org/2000/svg">
<path d="M2.49676 2.27017L3.53906 2.27053L5.22353 4.66267L7.55554 6.55709L4.18658 8.57706L3.53906 5.67265L2.25669 3.06722L2.49676 2.27017Z" fill="url(#paint0_linear_46_2232)"/>
<path d="M27.4384 2.33505L27.8141 3.25607L26.0669 5.60747L25.0433 8.35139L21.8391 6.10367L24.4648 4.4836L26.5671 2.41052L27.4384 2.33505Z" fill="url(#paint1_linear_46_2232)"/>
<ellipse cx="14.6306" cy="17.1785" rx="14.4167" ry="13.2024" fill="url(#paint2_linear_46_2232)"/>
<g filter="url(#filter0_d_46_2232)">
<path d="M5.5 17.3521C5.5 15.1351 7.29724 13.3379 9.51425 13.3379H19.267C21.7491 13.3379 23.7612 15.35 23.7612 17.832C23.7612 19.906 22.342 21.7106 20.3264 22.1995L14.6406 23.5787C14.6339 23.5803 14.6271 23.5811 14.6203 23.5811C14.5645 23.5811 14.5235 23.5287 14.5369 23.4745L14.9823 21.6784C14.988 21.6553 14.9991 21.6339 15.0148 21.6159C15.0994 21.5183 15.0301 21.3664 14.9009 21.3664H8.54861C6.86491 21.3664 5.5 20.0015 5.5 18.3178V17.3521Z" fill="#FEFBFB"/>
</g>
<ellipse cx="19.3162" cy="17.8927" rx="1.56181" ry="1.5934" fill="#2F2E41"/>
<ellipse cx="9.22441" cy="17.8927" rx="1.56181" ry="1.5934" fill="#2F2E41"/>
<defs>
<filter id="filter0_d_46_2232" x="0" y="8.83789" width="29.2612" height="21.2432" filterUnits="userSpaceOnUse" color-interpolation-filters="sRGB">
<feFlood flood-opacity="0" result="BackgroundImageFix"/>
<feColorMatrix in="SourceAlpha" type="matrix" values="0 0 0 0 0 0 0 0 0 0 0 0 0 0 0 0 0 0 127 0" result="hardAlpha"/>
<feOffset dy="1"/>
<feGaussianBlur stdDeviation="2.75"/>
<feComposite in2="hardAlpha" operator="out"/>
<feColorMatrix type="matrix" values="0 0 0 0 0 0 0 0 0 0 0 0 0 0 0 0 0 0 0.25 0"/>
<feBlend mode="normal" in2="BackgroundImageFix" result="effect1_dropShadow_46_2232"/>
<feBlend mode="normal" in="SourceGraphic" in2="effect1_dropShadow_46_2232" result="shape"/>
</filter>
<linearGradient id="paint0_linear_46_2232" x1="7.72764" y1="9.83191" x2="0.365054" y2="0.202895" gradientUnits="userSpaceOnUse">
<stop stop-color="#D3FFCA"/>
<stop offset="0.423688" stop-color="#5CDC43"/>
<stop offset="0.999372" stop-color="#0A710D"/>
</linearGradient>
<linearGradient id="paint1_linear_46_2232" x1="21.8814" y1="9.68505" x2="27.6429" y2="-0.873541" gradientUnits="userSpaceOnUse">
<stop stop-color="#D3FFCA"/>
<stop offset="0.423688" stop-color="#5CDC43"/>
<stop offset="0.999372" stop-color="#0A710D"/>
</linearGradient>
<linearGradient id="paint2_linear_46_2232" x1="16.7294" y1="42.566" x2="13.4529" y2="-8.24644" gradientUnits="userSpaceOnUse">
<stop stop-color="#D3FFCA"/>
<stop offset="0.423688" stop-color="#5CDC43"/>
<stop offset="0.999372" stop-color="#0A710D"/>
</linearGradient>
</defs>
</svg>
