<svg width="464" height="295" viewBox="0 0 464 295" fill="none" xmlns="http://www.w3.org/2000/svg">
<path d="M332.572 160.026L396.053 111.288L349.071 19.0196L392.762 25.0335L421.491 79.9106L440.219 129.08L361.333 194.635L332.572 160.026Z" fill="url(#paint0_linear_407_14)"/>
<rect y="126.428" width="135" height="48.51" transform="rotate(-39.7267 0 126.428)" fill="url(#paint1_linear_407_14)"/>
<rect x="33" y="279.241" width="135" height="48.51" transform="rotate(-71.5955 33 279.241)" fill="#AAAAAA"/>
<rect x="292.657" y="220.739" width="165.821" height="45" transform="rotate(-33.008 292.657 220.739)" fill="#272727"/>
<path d="M147.396 221.917L206.487 183.111L161.987 127.611L187.517 110.111L227.487 158.611L256.487 193.111L176.157 256.526L147.396 221.917Z" fill="#272727"/>
<path d="M249.229 117.15L188.73 129.368L231.73 186.731L188.73 196.111L127.23 129.368L167.487 91.2498L249.23 79.8155L249.229 117.15Z" fill="#272727"/>
<path d="M266.623 135.091L297.623 73.0907L320.245 3.09061L376.623 73.0905L347.5 117.591L309.623 117.591L297.623 199.591L266.623 135.091Z" fill="#AAAAAA"/>
<defs>
<linearGradient id="paint0_linear_407_14" x1="242.126" y1="51.1854" x2="391.461" y2="135.681" gradientUnits="userSpaceOnUse">
<stop stop-color="#A4B737"/>
<stop offset="1" stop-color="#00BB05"/>
</linearGradient>
<linearGradient id="paint1_linear_407_14" x1="4.84898e-06" y1="111.623" x2="7.75242" y2="172.937" gradientUnits="userSpaceOnUse">
<stop stop-color="#A4B737"/>
<stop offset="1" stop-color="#00BB05"/>
</linearGradient>
</defs>
</svg>
