<svg width="9" height="9" viewBox="0 0 9 9" fill="none" xmlns="http://www.w3.org/2000/svg">
<g clip-path="url(#clip0_46_2662)">
<path d="M4.5 0C2.01473 0 0 2.01473 0 4.5C0 6.98541 2.01473 9 4.5 9C6.98541 9 9 6.98541 9 4.5C9 2.01473 6.98541 0 4.5 0ZM4.5 8.44636C2.32889 8.44636 0.5625 6.67111 0.5625 4.49998C0.5625 2.32887 2.32889 0.562482 4.5 0.562482C6.67111 0.562482 8.4375 2.32888 8.4375 4.49998C8.4375 6.67108 6.67111 8.44636 4.5 8.44636ZM6.29592 2.85342L3.65568 5.51025L2.46669 4.32127C2.35687 4.21144 2.17883 4.21144 2.06887 4.32127C1.95904 4.43109 1.95904 4.60912 2.06887 4.71895L3.46091 6.11114C3.57074 6.22083 3.74877 6.22083 3.85874 6.11114C3.8714 6.09848 3.88223 6.08469 3.89208 6.07036L6.69389 3.25124C6.80358 3.14141 6.80358 2.96338 6.69389 2.85342C6.58392 2.74359 6.40589 2.74359 6.29592 2.85342Z" fill="white"/>
</g>
<defs>
<clipPath id="clip0_46_2662">
<rect width="9" height="9" fill="white"/>
</clipPath>
</defs>
</svg>
