<svg width="20" height="20" viewBox="0 0 20 20" fill="none" xmlns="http://www.w3.org/2000/svg">
<path fill-rule="evenodd" clip-rule="evenodd" d="M3.61238 6.00511H9.63216C9.83684 6.00511 10.0331 5.92658 10.1779 5.78679C10.3226 5.64701 10.4039 5.45742 10.4039 5.25974C10.4039 5.06205 10.3226 4.87247 10.1779 4.73268C10.0331 4.5929 9.83684 4.51437 9.63216 4.51437H3.35513C3.01398 4.51437 2.68681 4.64525 2.44559 4.87823C2.20437 5.1112 2.06885 5.42718 2.06885 5.75665V16.6887C2.06885 17.0182 2.20437 17.3342 2.44559 17.5671C2.68681 17.8001 3.01398 17.931 3.35513 17.931H14.6744C15.0155 17.931 15.3427 17.8001 15.5839 17.5671C15.8251 17.3342 15.9606 17.0182 15.9606 16.6887V10.6264C15.9606 10.4287 15.8793 10.2391 15.7346 10.0993C15.5899 9.95955 15.3936 9.88102 15.1889 9.88102C14.9842 9.88102 14.7879 9.95955 14.6432 10.0993C14.4984 10.2391 14.4171 10.4287 14.4171 10.6264V16.4403H3.61238V6.00511ZM16.9778 5.81032C17.1465 5.64738 17.2413 5.42641 17.2413 5.19601C17.2413 4.96561 17.1465 4.74464 16.9778 4.5817L16.0682 3.70316C15.9845 3.62234 15.8852 3.55823 15.7758 3.51449C15.6665 3.47075 15.5493 3.44824 15.431 3.44824C15.3126 3.44824 15.1954 3.47075 15.0861 3.51449C14.9768 3.55823 14.8774 3.62234 14.7937 3.70316L7.65129 10.6015C7.008 11.2228 6.59594 12.0324 6.47949 12.9037L6.3681 13.7381C6.36428 13.7666 6.36729 13.7956 6.3769 13.8229C6.38651 13.8501 6.40246 13.8749 6.42353 13.8953C6.44459 13.9157 6.47022 13.9311 6.49843 13.9404C6.52664 13.9497 6.55668 13.9527 6.58625 13.949L7.45038 13.8414C8.35261 13.729 9.19085 13.331 9.83411 12.7097L16.9778 5.81032ZM14.8043 7.90927L12.6228 5.80237L13.714 4.74792L15.8956 6.85508L14.8043 7.90927Z" fill="#272727"/>
</svg>
