<svg width="18" height="18" viewBox="0 0 18 18" fill="none" xmlns="http://www.w3.org/2000/svg">
<path d="M7.99519 7.99512C7.72763 8.26128 7.57659 8.62272 7.5752 9.00012C7.5752 9.37805 7.72533 9.74051 7.99257 10.0077C8.25981 10.275 8.62226 10.4251 9.0002 10.4251C9.37759 10.4237 9.73903 10.2727 10.0052 10.0051" stroke="url(#paint0_linear_46_3321)" stroke-width="1.5" stroke-linecap="round" stroke-linejoin="round"/>
<path d="M9.0001 4.7251C8.15458 4.7251 7.32806 4.97582 6.62504 5.44556C5.92202 5.91531 5.37408 6.58297 5.05051 7.36413C4.72695 8.14528 4.64229 9.00484 4.80724 9.83411C4.97219 10.6634 5.37935 11.4251 5.97722 12.023C6.57509 12.6208 7.33682 13.028 8.16609 13.193C8.99536 13.3579 9.85492 13.2732 10.6361 12.9497C11.4172 12.6261 12.0849 12.0782 12.5546 11.3752C13.0244 10.6721 13.2751 9.84561 13.2751 9.0001" stroke="url(#paint1_linear_46_3321)" stroke-width="1.5" stroke-linecap="round" stroke-linejoin="round"/>
<path d="M9 1.875C7.59081 1.875 6.21327 2.29287 5.04157 3.07578C3.86987 3.85868 2.95664 4.97146 2.41736 6.27338C1.87809 7.57531 1.73699 9.00791 2.01191 10.39C2.28683 11.7721 2.96542 13.0417 3.96187 14.0381C4.95832 15.0346 6.22787 15.7132 7.60999 15.9881C8.9921 16.263 10.4247 16.1219 11.7266 15.5826C13.0285 15.0434 14.1413 14.1301 14.9242 12.9584C15.7071 11.7867 16.125 10.4092 16.125 9M11.6438 6.357L9.7125 8.2875" stroke="url(#paint2_linear_46_3321)" stroke-width="1.5" stroke-linecap="round" stroke-linejoin="round"/>
<path d="M15.7049 4.38277L13.2749 4.72477L13.6169 2.29477C13.6194 2.26654 13.6135 2.23821 13.5998 2.21339C13.5861 2.18857 13.5654 2.16839 13.5402 2.15543C13.515 2.14247 13.4865 2.13731 13.4583 2.14062C13.4302 2.14394 13.4037 2.15556 13.3822 2.17402L11.7712 3.77677C11.6057 3.94343 11.484 4.14841 11.4169 4.37347C11.3497 4.59853 11.3393 4.83669 11.3864 5.06677L11.6429 6.35677L12.9329 6.61252C13.163 6.65966 13.4012 6.6492 13.6262 6.58207C13.8513 6.51495 14.0563 6.39324 14.2229 6.22777L15.8249 4.61752C15.8434 4.59597 15.8551 4.56937 15.8584 4.54115C15.8617 4.51293 15.8565 4.48437 15.8434 4.45913C15.8303 4.4339 15.81 4.41314 15.7851 4.39954C15.7601 4.38593 15.7317 4.38009 15.7034 4.38277" stroke="url(#paint3_linear_46_3321)" stroke-width="1.5" stroke-linecap="round" stroke-linejoin="round"/>
<defs>
<linearGradient id="paint0_linear_46_3321" x1="7.5752" y1="7.25349" x2="8.55223" y2="10.0302" gradientUnits="userSpaceOnUse">
<stop stop-color="#A4B737"/>
<stop offset="1" stop-color="#00BB05"/>
</linearGradient>
<linearGradient id="paint1_linear_46_3321" x1="4.7251" y1="2.11568" x2="8.16282" y2="11.8856" gradientUnits="userSpaceOnUse">
<stop stop-color="#A4B737"/>
<stop offset="1" stop-color="#00BB05"/>
</linearGradient>
<linearGradient id="paint2_linear_46_3321" x1="1.875" y1="-2.47403" x2="7.60453" y2="13.8092" gradientUnits="userSpaceOnUse">
<stop stop-color="#A4B737"/>
<stop offset="1" stop-color="#00BB05"/>
</linearGradient>
<linearGradient id="paint3_linear_46_3321" x1="11.3574" y1="0.765702" x2="13.1675" y2="5.90992" gradientUnits="userSpaceOnUse">
<stop stop-color="#A4B737"/>
<stop offset="1" stop-color="#00BB05"/>
</linearGradient>
</defs>
</svg>
