<svg width="26" height="26" viewBox="0 0 26 26" fill="none" xmlns="http://www.w3.org/2000/svg">
<path d="M12.4582 14.7084L18.4999 10.8333L12.4582 6.95825V14.7084ZM8.79217 18.4167C8.29312 18.4167 7.87676 18.2498 7.54309 17.9162C7.20942 17.5825 7.04223 17.1661 7.04151 16.6671V4.99959C7.04151 4.50125 7.2087 4.08489 7.54309 3.7505C7.87748 3.41611 8.29384 3.24928 8.79217 3.25H20.4586C20.9569 3.25 21.3733 3.41684 21.7077 3.7505C22.0421 4.08417 22.2089 4.50053 22.2082 4.99959V16.6671C22.2082 17.1654 22.0413 17.5814 21.7077 17.9151C21.374 18.2488 20.9573 18.4159 20.4575 18.4167H8.79217ZM8.79217 17.3333H20.4586C20.6247 17.3333 20.7775 17.264 20.9168 17.1253C21.0562 16.9867 21.1256 16.8339 21.1248 16.6671V4.99959C21.1248 4.83347 21.0555 4.68072 20.9168 4.54134C20.7782 4.40195 20.6251 4.33261 20.4575 4.33334H8.79217C8.62534 4.33334 8.47223 4.40267 8.33284 4.54134C8.19345 4.68 8.12412 4.83275 8.12484 4.99959V16.6671C8.12484 16.8332 8.19417 16.9859 8.33284 17.1253C8.47151 17.2647 8.62426 17.3341 8.79109 17.3333M5.54109 21.6667C5.04276 21.6667 4.6264 21.4998 4.29201 21.1662C3.95762 20.8325 3.79078 20.4161 3.79151 19.9171V7.16625H4.87484V19.9171C4.87484 20.0832 4.94417 20.2359 5.08284 20.3753C5.22151 20.5147 5.37426 20.5841 5.54109 20.5833H18.2919V21.6667H5.54109Z" fill="#272727"/>
</svg>
