<svg width="94" height="27" viewBox="0 0 94 27" fill="none" xmlns="http://www.w3.org/2000/svg">
<path d="M30.8367 18.9998L28.1067 9.89976H30.3557L31.7207 14.6838C31.7814 14.9004 31.8334 15.1214 31.8767 15.3468C31.9287 15.5634 31.9677 15.7714 31.9937 15.9708C32.0284 16.1701 32.0544 16.3564 32.0717 16.5298C32.089 16.6944 32.1064 16.8331 32.1237 16.9458H31.8377C31.8897 16.6251 31.933 16.3391 31.9677 16.0878C32.011 15.8364 32.0587 15.6024 32.1107 15.3858C32.1627 15.1604 32.2277 14.9264 32.3057 14.6838L33.6577 11.0828H35.4257L36.7517 14.6838C36.8557 14.9698 36.9424 15.2384 37.0117 15.4898C37.081 15.7411 37.133 15.9838 37.1677 16.2178C37.211 16.4431 37.2457 16.6684 37.2717 16.8938L37.0117 16.9328C37.029 16.7768 37.042 16.6338 37.0507 16.5038C37.0594 16.3651 37.068 16.2351 37.0767 16.1138C37.094 15.9838 37.1114 15.8494 37.1287 15.7108C37.146 15.5721 37.172 15.4204 37.2067 15.2558C37.2414 15.0824 37.289 14.8874 37.3497 14.6708L38.7017 9.89976H40.8987L38.1687 18.9998H36.4787L34.3207 13.7608L34.5677 13.7868L32.5787 18.9998H30.8367ZM42.0058 18.9998V12.0968H44.0858V18.9998H42.0058ZM43.0458 10.7318C42.6558 10.7318 42.3482 10.6408 42.1228 10.4588C41.9062 10.2681 41.7978 9.99942 41.7978 9.65276C41.7978 9.34076 41.9105 9.08509 42.1358 8.88576C42.3612 8.68642 42.6645 8.58676 43.0458 8.58676C43.4358 8.58676 43.7392 8.68209 43.9558 8.87276C44.1725 9.05476 44.2808 9.31476 44.2808 9.65276C44.2808 9.97342 44.1682 10.2334 43.9428 10.4328C43.7262 10.6321 43.4272 10.7318 43.0458 10.7318ZM48.6532 19.1428C48.0552 19.1428 47.5222 18.9911 47.0542 18.6878C46.5949 18.3758 46.2309 17.9511 45.9622 17.4138C45.6935 16.8678 45.5592 16.2481 45.5592 15.5548C45.5592 14.8614 45.6935 14.2461 45.9622 13.7088C46.2309 13.1628 46.5992 12.7338 47.0672 12.4218C47.5352 12.1098 48.0725 11.9538 48.6792 11.9538C48.9912 11.9538 49.2902 12.0014 49.5762 12.0968C49.8622 12.1921 50.1222 12.3221 50.3562 12.4868C50.5902 12.6514 50.7809 12.8421 50.9282 13.0588C51.0755 13.2668 51.1622 13.4834 51.1882 13.7088L50.6942 13.8258V9.37976H52.7872V18.9998H50.8502L50.7332 17.4268L51.1492 17.4918C51.1232 17.7084 51.0365 17.9164 50.8892 18.1158C50.7505 18.3151 50.5685 18.4928 50.3432 18.6488C50.1179 18.7961 49.8579 18.9131 49.5632 18.9998C49.2772 19.0951 48.9739 19.1428 48.6532 19.1428ZM49.1862 17.4138C49.5069 17.4138 49.7842 17.3358 50.0182 17.1798C50.2522 17.0238 50.4299 16.8071 50.5512 16.5298C50.6812 16.2524 50.7462 15.9274 50.7462 15.5548C50.7462 15.1734 50.6812 14.8441 50.5512 14.5668C50.4299 14.2894 50.2522 14.0728 50.0182 13.9168C49.7842 13.7608 49.5069 13.6828 49.1862 13.6828C48.8655 13.6828 48.5882 13.7608 48.3542 13.9168C48.1289 14.0728 47.9512 14.2894 47.8212 14.5668C47.6912 14.8441 47.6262 15.1734 47.6262 15.5548C47.6262 15.9274 47.6912 16.2524 47.8212 16.5298C47.9512 16.8071 48.1289 17.0238 48.3542 17.1798C48.5882 17.3358 48.8655 17.4138 49.1862 17.4138ZM54.663 18.9998V12.0968H56.743V18.9998H54.663ZM55.703 10.7318C55.313 10.7318 55.0054 10.6408 54.78 10.4588C54.5634 10.2681 54.455 9.99942 54.455 9.65276C54.455 9.34076 54.5677 9.08509 54.793 8.88576C55.0184 8.68642 55.3217 8.58676 55.703 8.58676C56.093 8.58676 56.3964 8.68209 56.613 8.87276C56.8297 9.05476 56.938 9.31476 56.938 9.65276C56.938 9.97342 56.8254 10.2334 56.6 10.4328C56.3834 10.6321 56.0844 10.7318 55.703 10.7318ZM60.5009 18.9998V11.8498H57.7969V9.89976H65.4799V11.8498H62.7109V18.9998H60.5009ZM67.8805 19.1428C67.3692 19.1428 66.9315 19.0344 66.5675 18.8178C66.2122 18.5924 65.9348 18.2718 65.7355 17.8558C65.5448 17.4398 65.4495 16.9414 65.4495 16.3608V12.0968H67.5425V16.0748C67.5425 16.3521 67.5858 16.5904 67.6725 16.7898C67.7592 16.9891 67.8892 17.1451 68.0625 17.2578C68.2358 17.3618 68.4438 17.4138 68.6865 17.4138C68.8685 17.4138 69.0332 17.3834 69.1805 17.3228C69.3365 17.2621 69.4665 17.1798 69.5705 17.0758C69.6832 16.9631 69.7698 16.8374 69.8305 16.6988C69.8912 16.5514 69.9215 16.3911 69.9215 16.2178V12.0968H72.0145V18.9998H70.0515L69.9605 17.5828L70.3505 17.4268C70.2465 17.7561 70.0732 18.0508 69.8305 18.3108C69.5878 18.5621 69.2975 18.7658 68.9595 18.9218C68.6215 19.0691 68.2618 19.1428 67.8805 19.1428ZM74.4403 18.9998V10.3548H76.5203V18.9998H74.4403ZM73.2183 13.9168V12.0968H77.8593V13.9168H73.2183ZM82.2345 19.1298C81.5152 19.1298 80.8739 18.9738 80.3105 18.6618C79.7559 18.3498 79.3139 17.9251 78.9845 17.3878C78.6639 16.8504 78.5035 16.2351 78.5035 15.5418C78.5035 14.8484 78.6639 14.2331 78.9845 13.6958C79.3139 13.1584 79.7559 12.7338 80.3105 12.4218C80.8739 12.1098 81.5152 11.9538 82.2345 11.9538C82.9539 11.9538 83.5909 12.1098 84.1455 12.4218C84.7089 12.7338 85.1509 13.1584 85.4715 13.6958C85.7922 14.2331 85.9525 14.8484 85.9525 15.5418C85.9525 16.2351 85.7922 16.8504 85.4715 17.3878C85.1509 17.9251 84.7089 18.3498 84.1455 18.6618C83.5909 18.9738 82.9539 19.1298 82.2345 19.1298ZM82.2345 17.3358C82.5465 17.3358 82.8239 17.2578 83.0665 17.1018C83.3092 16.9458 83.4999 16.7334 83.6385 16.4648C83.7772 16.1961 83.8422 15.8884 83.8335 15.5418C83.8422 15.1951 83.7772 14.8874 83.6385 14.6188C83.4999 14.3414 83.3092 14.1248 83.0665 13.9688C82.8239 13.8128 82.5465 13.7348 82.2345 13.7348C81.9225 13.7348 81.6409 13.8128 81.3895 13.9688C81.1469 14.1248 80.9562 14.3414 80.8175 14.6188C80.6789 14.8874 80.6139 15.1951 80.6225 15.5418C80.6139 15.8884 80.6789 16.1961 80.8175 16.4648C80.9562 16.7334 81.1469 16.9458 81.3895 17.1018C81.6409 17.2578 81.9225 17.3358 82.2345 17.3358ZM87.3126 18.9998V12.0968H89.2886L89.3796 14.3458L88.9896 13.9168C89.0936 13.5441 89.2626 13.2104 89.4966 12.9158C89.7393 12.6211 90.021 12.3871 90.3416 12.2138C90.6623 12.0404 91.0046 11.9538 91.3686 11.9538C91.5246 11.9538 91.6676 11.9668 91.7976 11.9928C91.9363 12.0188 92.062 12.0491 92.1746 12.0838L91.6026 14.3848C91.5073 14.3241 91.3773 14.2764 91.2126 14.2418C91.0566 14.1984 90.892 14.1768 90.7186 14.1768C90.528 14.1768 90.3503 14.2114 90.1856 14.2808C90.021 14.3414 89.8823 14.4324 89.7696 14.5538C89.657 14.6751 89.566 14.8181 89.4966 14.9828C89.436 15.1474 89.4056 15.3338 89.4056 15.5418V18.9998H87.3126Z" fill="#272727"/>
<path d="M2.97438 1.8624L3.85094 1.86269L5.26755 3.82521L7.22872 5.37941L4.39549 7.0366L3.85093 4.65381L2.77248 2.5163L2.97438 1.8624Z" fill="#272727"/>
<path d="M23.9501 1.9143L24.2661 2.66991L22.7967 4.59901L21.9358 6.85014L19.2412 5.00609L21.4493 3.67698L23.2173 1.97622L23.9501 1.9143Z" fill="#272727"/>
<ellipse cx="13.1789" cy="14.0945" rx="12.1242" ry="10.8313" fill="#4CAF50"/>
<g filter="url(#filter0_d_46_1684)">
<path d="M5.5 12.9454C5.5 11.1266 6.97446 9.6521 8.7933 9.6521H17.1798C19.2109 9.6521 20.8574 11.2986 20.8574 13.3297C20.8574 15.0346 19.6857 16.516 18.0266 16.9085L13.1869 18.0537C13.1814 18.055 13.1759 18.0557 13.1703 18.0557C13.1233 18.0557 13.0889 18.0114 13.1005 17.9659L13.4744 16.4949C13.4793 16.4758 13.4886 16.4581 13.5017 16.4434C13.5723 16.3641 13.516 16.2387 13.4098 16.2387H8.03513C6.63502 16.2387 5.5 15.1037 5.5 13.7036V12.9454Z" fill="#FEFBFB"/>
</g>
<ellipse cx="17.1191" cy="13.3861" rx="1.31346" ry="1.30722" fill="#2F2E41"/>
<ellipse cx="8.63182" cy="13.3861" rx="1.31346" ry="1.30722" fill="#2F2E41"/>
<g clip-path="url(#clip0_46_1684)">
<path d="M18.9763 19.8142C18.9069 19.5575 18.7714 19.3235 18.5834 19.1355C18.3954 18.9475 18.1614 18.812 17.9047 18.7426C16.9651 18.4863 13.1836 18.4863 13.1836 18.4863C13.1836 18.4863 9.40183 18.4941 8.46224 18.7503C8.20558 18.8198 7.9716 18.9553 7.7836 19.1433C7.59559 19.3313 7.46012 19.5653 7.39068 19.822C7.10647 21.4915 6.99623 24.0354 7.39848 25.6381C7.46793 25.8947 7.60341 26.1287 7.79141 26.3167C7.97941 26.5047 8.21339 26.6402 8.47004 26.7097C9.40964 26.9659 13.1913 26.9659 13.1913 26.9659C13.1913 26.9659 16.9729 26.9659 17.9125 26.7097C18.1691 26.6402 18.4031 26.5047 18.5911 26.3167C18.7791 26.1287 18.9146 25.8947 18.9841 25.6381C19.2838 23.9662 19.3762 21.4239 18.9763 19.8142Z" fill="#FF0000"/>
<path d="M11.98 24.543L15.1171 22.726L11.98 20.9089V24.543Z" fill="white"/>
</g>
<rect width="1.94593" height="4.08597" rx="0.972964" transform="matrix(0.715715 0.698392 -0.6984 0.715707 20.5552 19.0552)" fill="#FEFBFB"/>
<rect width="1.94593" height="4.08596" rx="0.972965" transform="matrix(-0.811772 0.583974 -0.583983 -0.811766 8.42578 22.7786)" fill="#FEFBFB"/>
<defs>
<filter id="filter0_d_46_1684" x="0" y="5.1521" width="26.3574" height="19.4036" filterUnits="userSpaceOnUse" color-interpolation-filters="sRGB">
<feFlood flood-opacity="0" result="BackgroundImageFix"/>
<feColorMatrix in="SourceAlpha" type="matrix" values="0 0 0 0 0 0 0 0 0 0 0 0 0 0 0 0 0 0 127 0" result="hardAlpha"/>
<feOffset dy="1"/>
<feGaussianBlur stdDeviation="2.75"/>
<feComposite in2="hardAlpha" operator="out"/>
<feColorMatrix type="matrix" values="0 0 0 0 0 0 0 0 0 0 0 0 0 0 0 0 0 0 0.25 0"/>
<feBlend mode="normal" in2="BackgroundImageFix" result="effect1_dropShadow_46_1684"/>
<feBlend mode="normal" in="SourceGraphic" in2="effect1_dropShadow_46_1684" result="shape"/>
</filter>
<clipPath id="clip0_46_1684">
<rect width="12.108" height="8.51341" fill="white" transform="translate(7.13574 18.4863)"/>
</clipPath>
</defs>
</svg>
