<svg width="28" height="28" viewBox="0 0 28 28" fill="none" xmlns="http://www.w3.org/2000/svg">
<g filter="url(#filter0_d_43_404)">
<circle cx="14" cy="14" r="13" fill="#4CAF50"/>
</g>
<path d="M9.125 16L8.5 18.5L11 17.875L18.2413 10.6338C18.4756 10.3993 18.6072 10.0815 18.6072 9.75C18.6072 9.41854 18.4756 9.10066 18.2413 8.86625L18.1337 8.75875C17.8993 8.52441 17.5815 8.39277 17.25 8.39277C16.9185 8.39277 16.6007 8.52441 16.3663 8.75875L9.125 16Z" stroke="white" stroke-width="2" stroke-linecap="round" stroke-linejoin="round"/>
<path d="M9.125 16L8.5 18.5L11 17.875L17.25 11.625L15.375 9.75L9.125 16Z" fill="white"/>
<path d="M15.375 9.75L17.25 11.625M14.125 18.5H19.125" stroke="white" stroke-width="2" stroke-linecap="round" stroke-linejoin="round"/>
<defs>
<filter id="filter0_d_43_404" x="0" y="0" width="28" height="28" filterUnits="userSpaceOnUse" color-interpolation-filters="sRGB">
<feFlood flood-opacity="0" result="BackgroundImageFix"/>
<feColorMatrix in="SourceAlpha" type="matrix" values="0 0 0 0 0 0 0 0 0 0 0 0 0 0 0 0 0 0 127 0" result="hardAlpha"/>
<feOffset/>
<feGaussianBlur stdDeviation="0.5"/>
<feComposite in2="hardAlpha" operator="out"/>
<feColorMatrix type="matrix" values="0 0 0 0 0.298039 0 0 0 0 0.686275 0 0 0 0 0.313726 0 0 0 1 0"/>
<feBlend mode="normal" in2="BackgroundImageFix" result="effect1_dropShadow_43_404"/>
<feBlend mode="normal" in="SourceGraphic" in2="effect1_dropShadow_43_404" result="shape"/>
</filter>
</defs>
</svg>
