<svg width="16" height="16" viewBox="0 0 16 16" fill="none" xmlns="http://www.w3.org/2000/svg">
<path d="M13.5001 14.0002C13.4345 14.0003 13.3694 13.9874 13.3088 13.9623C13.2481 13.9371 13.193 13.9002 13.1467 13.8537L2.1467 2.85366C2.05689 2.75913 2.00756 2.63326 2.00923 2.50288C2.0109 2.3725 2.06343 2.24792 2.15563 2.15572C2.24783 2.06352 2.3724 2.01099 2.50279 2.00932C2.63317 2.00765 2.75904 2.05698 2.85357 2.14679L13.8536 13.1468C13.9235 13.2167 13.971 13.3058 13.9903 13.4027C14.0096 13.4997 13.9997 13.6002 13.9619 13.6915C13.924 13.7829 13.86 13.8609 13.7778 13.9159C13.6956 13.9708 13.599 14.0002 13.5001 14.0002ZM7.98951 12.0002C6.69295 12.0002 5.44264 11.6165 4.27326 10.8596C3.20857 10.1721 2.25013 9.18741 1.50138 8.01585V8.01335C2.12451 7.12054 2.80701 6.36554 3.54013 5.75679C3.54677 5.75124 3.55218 5.74438 3.55602 5.73664C3.55987 5.7289 3.56207 5.72044 3.56248 5.71181C3.56289 5.70318 3.5615 5.69455 3.55841 5.68648C3.55532 5.67841 3.55059 5.67106 3.54451 5.66491L2.92201 5.04335C2.91095 5.0322 2.89609 5.02562 2.8804 5.02492C2.86471 5.02423 2.84933 5.02947 2.83732 5.0396C2.05857 5.69585 1.33576 6.50085 0.678572 7.44335C0.565505 7.60563 0.503235 7.79787 0.499673 7.99562C0.496112 8.19338 0.551421 8.38773 0.658572 8.55398C1.48388 9.84554 2.54607 10.9334 3.72982 11.6993C5.06263 12.5627 6.49701 13.0002 7.98951 13.0002C8.79512 12.9977 9.59503 12.865 10.3583 12.6071C10.3683 12.6037 10.3774 12.5978 10.3845 12.5899C10.3916 12.582 10.3967 12.5724 10.3991 12.5621C10.4015 12.5517 10.4012 12.5409 10.3983 12.5307C10.3953 12.5205 10.3899 12.5112 10.3823 12.5037L9.70795 11.8293C9.69242 11.8141 9.67323 11.8033 9.65224 11.7978C9.63126 11.7923 9.60921 11.7924 9.58826 11.798C9.06599 11.9325 8.52882 12.0005 7.98951 12.0002ZM15.3389 7.45648C14.512 6.17773 13.4392 5.09148 12.2367 4.31491C10.9064 3.45491 9.43764 3.00023 7.98951 3.00023C7.19244 3.00162 6.40128 3.13716 5.6492 3.40116C5.63918 3.40465 5.63021 3.41063 5.62314 3.41854C5.61607 3.42645 5.61113 3.43603 5.60878 3.44638C5.60644 3.45673 5.60677 3.4675 5.60974 3.47769C5.61271 3.48787 5.61822 3.49713 5.62576 3.5046L6.2992 4.17804C6.31488 4.19345 6.33434 4.20445 6.35563 4.20994C6.37692 4.21543 6.39927 4.2152 6.42045 4.20929C6.932 4.0709 7.45957 4.0006 7.98951 4.00023C9.26107 4.00023 10.5076 4.38866 11.6942 5.15648C12.7789 5.85648 13.7486 6.84023 14.4992 8.00023C14.4998 8.00094 14.5001 8.00182 14.5001 8.00273C14.5001 8.00363 14.4998 8.00451 14.4992 8.00523C13.9543 8.86302 13.2782 9.62996 12.4954 10.278C12.4887 10.2836 12.4833 10.2904 12.4794 10.2982C12.4755 10.3059 12.4732 10.3144 12.4728 10.3231C12.4723 10.3318 12.4737 10.3404 12.4768 10.3486C12.4799 10.3567 12.4847 10.3641 12.4908 10.3702L13.1126 10.9918C13.1236 11.0029 13.1384 11.0095 13.154 11.0102C13.1697 11.011 13.185 11.0059 13.197 10.9959C14.0326 10.2923 14.756 9.46523 15.342 8.54335C15.4456 8.3809 15.5004 8.19212 15.4998 7.99945C15.4993 7.80679 15.4434 7.61833 15.3389 7.45648Z" fill="#AAAAAA"/>
<path d="M8.00014 5C7.77543 4.99991 7.55142 5.02507 7.33233 5.075C7.32127 5.0773 7.31103 5.08255 7.30271 5.09021C7.2944 5.09786 7.28831 5.10763 7.28511 5.11846C7.2819 5.1293 7.28169 5.14081 7.28451 5.15175C7.28732 5.1627 7.29305 5.17268 7.30108 5.18063L10.8195 8.69813C10.8275 8.70616 10.8374 8.71189 10.8484 8.7147C10.8593 8.71751 10.8708 8.71731 10.8817 8.7141C10.8925 8.71089 10.9023 8.70481 10.9099 8.69649C10.9176 8.68818 10.9228 8.67794 10.9251 8.66688C11.0253 8.22751 11.0252 7.77123 10.9249 7.33191C10.8245 6.89259 10.6265 6.48152 10.3455 6.12923C10.0644 5.77695 9.70768 5.49249 9.30166 5.297C8.89563 5.1015 8.45078 4.99999 8.00014 5ZM5.18077 7.30188C5.17282 7.29384 5.16284 7.28811 5.1519 7.2853C5.14095 7.28249 5.12945 7.28269 5.11861 7.2859C5.10777 7.28911 5.098 7.29519 5.09035 7.30351C5.0827 7.31182 5.07744 7.32206 5.07514 7.33313C4.96181 7.82823 4.97605 8.34401 5.1165 8.83212C5.25696 9.32022 5.51904 9.76468 5.87819 10.1238C6.23734 10.483 6.6818 10.7451 7.1699 10.8855C7.65801 11.026 8.17379 11.0402 8.66889 10.9269C8.67996 10.9246 8.6902 10.9193 8.69851 10.9117C8.70683 10.904 8.71291 10.8942 8.71612 10.8834C8.71933 10.8726 8.71953 10.8611 8.71672 10.8501C8.71391 10.8392 8.70818 10.8292 8.70014 10.8213L5.18077 7.30188Z" fill="#AAAAAA"/>
</svg>
