<svg width="19" height="19" viewBox="0 0 19 19" fill="none" xmlns="http://www.w3.org/2000/svg">
<path fill-rule="evenodd" clip-rule="evenodd" d="M16.2531 9.08058C16.3643 9.19191 16.4268 9.34282 16.4268 9.50016C16.4268 9.65751 16.3643 9.80842 16.2531 9.91974L11.5031 14.6697C11.4488 14.7281 11.3832 14.7749 11.3104 14.8073C11.2375 14.8398 11.1589 14.8572 11.0792 14.8586C10.9995 14.86 10.9203 14.8454 10.8463 14.8155C10.7724 14.7856 10.7053 14.7412 10.6489 14.6848C10.5925 14.6284 10.548 14.5613 10.5182 14.4873C10.4883 14.4134 10.4737 14.3342 10.4751 14.2545C10.4765 14.1748 10.4939 14.0962 10.5264 14.0233C10.5588 13.9505 10.6056 13.8849 10.6639 13.8306L14.4006 10.0939H3.16686C3.00939 10.0939 2.85837 10.0314 2.74702 9.92001C2.63567 9.80866 2.57311 9.65763 2.57311 9.50016C2.57311 9.34269 2.63567 9.19167 2.74702 9.08032C2.85837 8.96897 3.00939 8.90641 3.16686 8.90641H14.4006L10.6639 5.16975C10.6056 5.11539 10.5588 5.04984 10.5264 4.977C10.4939 4.90417 10.4765 4.82555 10.4751 4.74583C10.4737 4.6661 10.4883 4.58691 10.5182 4.51298C10.548 4.43905 10.5925 4.37189 10.6489 4.31551C10.7053 4.25913 10.7724 4.21468 10.8463 4.18481C10.9203 4.15495 10.9995 4.14029 11.0792 4.14169C11.1589 4.1431 11.2375 4.16055 11.3104 4.193C11.3832 4.22545 11.4488 4.27224 11.5031 4.33058L16.2531 9.08058Z" fill="black"/>
</svg>
