<svg width="21" height="21" viewBox="0 0 21 21" fill="none" xmlns="http://www.w3.org/2000/svg">
<path fill-rule="evenodd" clip-rule="evenodd" d="M17.9638 10.036C18.0867 10.1591 18.1558 10.3259 18.1558 10.4998C18.1558 10.6737 18.0867 10.8405 17.9638 10.9635L12.7138 16.2135C12.6538 16.278 12.5813 16.3297 12.5008 16.3656C12.4203 16.4014 12.3334 16.4207 12.2453 16.4223C12.1572 16.4238 12.0697 16.4076 11.9879 16.3746C11.9062 16.3416 11.832 16.2925 11.7697 16.2302C11.7074 16.1679 11.6582 16.0936 11.6252 16.0119C11.5922 15.9302 11.576 15.8427 11.5776 15.7546C11.5791 15.6664 11.5984 15.5795 11.6343 15.499C11.6701 15.4185 11.7219 15.3461 11.7863 15.286L15.9163 11.156H3.50009C3.32604 11.156 3.15912 11.0869 3.03605 10.9638C2.91298 10.8407 2.84384 10.6738 2.84384 10.4998C2.84384 10.3257 2.91298 10.1588 3.03605 10.0357C3.15912 9.91266 3.32604 9.84352 3.50009 9.84352H15.9163L11.7863 5.71352C11.7219 5.65344 11.6701 5.58099 11.6343 5.50049C11.5984 5.41999 11.5791 5.33309 11.5776 5.24498C11.576 5.15686 11.5922 5.06933 11.6252 4.98762C11.6582 4.90591 11.7074 4.83168 11.7697 4.76936C11.832 4.70704 11.9062 4.65792 11.9879 4.62491C12.0697 4.5919 12.1572 4.5757 12.2453 4.57725C12.3334 4.57881 12.4203 4.59809 12.5008 4.63396C12.5813 4.66983 12.6538 4.72154 12.7138 4.78602L17.9638 10.036Z" fill="#F2F2F2"/>
</svg>
