<svg width="408" height="446" viewBox="0 0 408 446" fill="none" xmlns="http://www.w3.org/2000/svg">
<rect width="408" height="446" rx="26" fill="#F2F2F2" fill-opacity="0.7"/>
<g clip-path="url(#clip0_2014_450)">
<path d="M208.5 226.75C209.326 226.75 210.044 226.447 210.653 225.84C211.261 225.233 211.564 224.516 211.563 223.687C211.561 222.859 211.257 222.143 210.653 221.538C210.048 220.933 209.33 220.629 208.5 220.625C207.67 220.621 206.953 220.925 206.35 221.538C205.748 222.15 205.443 222.867 205.438 223.687C205.432 224.508 205.736 225.226 206.35 225.84C206.965 226.454 207.681 226.758 208.5 226.75ZM206.313 217.417H210.688C210.688 216.007 210.833 214.974 211.125 214.319C211.417 213.664 212.097 212.801 213.167 211.729C214.625 210.271 215.597 209.092 216.083 208.194C216.569 207.296 216.813 206.238 216.813 205.021C216.813 202.833 216.046 201.047 214.514 199.663C212.982 198.278 210.977 197.585 208.5 197.583C206.507 197.583 204.77 198.142 203.288 199.26C201.806 200.378 200.773 201.861 200.187 203.708L204.125 205.312C204.563 204.097 205.158 203.186 205.913 202.58C206.667 201.973 207.53 201.669 208.5 201.667C209.667 201.667 210.615 201.995 211.344 202.652C212.073 203.31 212.438 204.196 212.438 205.312C212.438 205.993 212.243 206.638 211.854 207.246C211.465 207.855 210.785 208.62 209.813 209.542C208.208 210.951 207.224 212.058 206.861 212.861C206.497 213.664 206.314 215.182 206.313 217.417ZM191 235.5C189.396 235.5 188.023 234.929 186.882 233.788C185.74 232.647 185.169 231.273 185.167 229.667V194.667C185.167 193.062 185.738 191.69 186.882 190.548C188.025 189.407 189.398 188.835 191 188.833H226C227.604 188.833 228.978 189.405 230.121 190.548C231.265 191.692 231.835 193.064 231.833 194.667V229.667C231.833 231.271 231.263 232.645 230.121 233.788C228.98 234.931 227.606 235.502 226 235.5H191ZM179.333 247.167C177.729 247.167 176.356 246.596 175.215 245.455C174.074 244.313 173.502 242.939 173.5 241.333V200.5H179.333V241.333H220.167V247.167H179.333Z" fill="url(#paint0_linear_2014_450)" fill-opacity="0.81"/>
</g>
<path d="M40.5842 340.812V338.545H54.0927V340.812H48.6467V356H46.0217V340.812H40.5842ZM58.9016 356.29C58.0721 356.29 57.3221 356.136 56.6516 355.83C55.9812 355.517 55.4499 355.065 55.0579 354.474C54.6715 353.884 54.4783 353.159 54.4783 352.301C54.4783 351.562 54.6204 350.955 54.9045 350.477C55.1886 350 55.5721 349.622 56.055 349.344C56.538 349.065 57.0778 348.855 57.6744 348.713C58.271 348.571 58.8789 348.463 59.4982 348.389C60.2823 348.298 60.9187 348.224 61.4073 348.168C61.896 348.105 62.2511 348.006 62.4727 347.869C62.6942 347.733 62.805 347.511 62.805 347.205V347.145C62.805 346.401 62.5948 345.824 62.1744 345.415C61.7596 345.006 61.1403 344.801 60.3164 344.801C59.4585 344.801 58.7823 344.991 58.288 345.372C57.7994 345.747 57.4613 346.165 57.2738 346.625L54.8789 346.08C55.163 345.284 55.5778 344.642 56.1232 344.153C56.6744 343.659 57.3079 343.301 58.0238 343.08C58.7397 342.852 59.4925 342.739 60.2823 342.739C60.805 342.739 61.359 342.801 61.9442 342.926C62.5352 343.045 63.0863 343.267 63.5977 343.591C64.1147 343.915 64.538 344.378 64.8675 344.98C65.1971 345.577 65.3619 346.352 65.3619 347.307V356H62.8732V354.21H62.771C62.6062 354.54 62.359 354.864 62.0295 355.182C61.6999 355.5 61.2766 355.764 60.7596 355.974C60.2425 356.185 59.6232 356.29 58.9016 356.29ZM59.4556 354.244C60.1602 354.244 60.7624 354.105 61.2624 353.827C61.7681 353.548 62.1516 353.185 62.413 352.736C62.68 352.281 62.8136 351.795 62.8136 351.278V349.591C62.7227 349.682 62.5465 349.767 62.2852 349.847C62.0295 349.92 61.7369 349.986 61.4073 350.043C61.0778 350.094 60.7567 350.142 60.4442 350.188C60.1317 350.227 59.8704 350.261 59.6602 350.29C59.1658 350.352 58.7141 350.457 58.305 350.605C57.9016 350.753 57.5778 350.966 57.3335 351.244C57.0948 351.517 56.9755 351.881 56.9755 352.335C56.9755 352.966 57.2085 353.443 57.6744 353.767C58.1403 354.085 58.734 354.244 59.4556 354.244ZM71.0998 351.56L71.0827 348.449H71.5259L76.7418 342.909H79.793L73.8441 349.216H73.4435L71.0998 351.56ZM68.756 356V338.545H71.3043V356H68.756ZM77.0231 356L72.3356 349.778L74.0913 347.997L80.1509 356H77.0231ZM87.2184 356.264C85.9286 356.264 84.8178 355.989 83.886 355.438C82.9599 354.881 82.244 354.099 81.7383 353.094C81.2383 352.082 80.9883 350.898 80.9883 349.54C80.9883 348.199 81.2383 347.017 81.7383 345.994C82.244 344.972 82.9485 344.173 83.8519 343.599C84.761 343.026 85.8235 342.739 87.0394 342.739C87.7781 342.739 88.494 342.861 89.1871 343.105C89.8803 343.349 90.5025 343.733 91.0536 344.256C91.6048 344.778 92.0394 345.457 92.3576 346.293C92.6758 347.122 92.8349 348.131 92.8349 349.318V350.222H82.4286V348.312H90.3377C90.3377 347.642 90.2013 347.048 89.9286 346.531C89.6559 346.009 89.2724 345.597 88.7781 345.295C88.2894 344.994 87.7156 344.844 87.0565 344.844C86.3406 344.844 85.7156 345.02 85.1815 345.372C84.6531 345.719 84.244 346.173 83.9542 346.736C83.6701 347.293 83.5281 347.898 83.5281 348.551V350.043C83.5281 350.918 83.6815 351.662 83.9883 352.276C84.3008 352.889 84.7354 353.358 85.2923 353.682C85.8491 354 86.4996 354.159 87.244 354.159C87.7269 354.159 88.1673 354.091 88.565 353.955C88.9627 353.812 89.3065 353.602 89.5962 353.324C89.886 353.045 90.1076 352.702 90.261 352.293L92.6729 352.727C92.4798 353.437 92.1332 354.06 91.6332 354.594C91.1388 355.122 90.5167 355.534 89.7667 355.83C89.0224 356.119 88.1729 356.264 87.2184 356.264ZM105.824 356.29C104.994 356.29 104.244 356.136 103.574 355.83C102.903 355.517 102.372 355.065 101.98 354.474C101.593 353.884 101.4 353.159 101.4 352.301C101.4 351.562 101.542 350.955 101.826 350.477C102.11 350 102.494 349.622 102.977 349.344C103.46 349.065 104 348.855 104.596 348.713C105.193 348.571 105.801 348.463 106.42 348.389C107.204 348.298 107.841 348.224 108.329 348.168C108.818 348.105 109.173 348.006 109.395 347.869C109.616 347.733 109.727 347.511 109.727 347.205V347.145C109.727 346.401 109.517 345.824 109.096 345.415C108.681 345.006 108.062 344.801 107.238 344.801C106.38 344.801 105.704 344.991 105.21 345.372C104.721 345.747 104.383 346.165 104.196 346.625L101.801 346.08C102.085 345.284 102.5 344.642 103.045 344.153C103.596 343.659 104.23 343.301 104.946 343.08C105.662 342.852 106.414 342.739 107.204 342.739C107.727 342.739 108.281 342.801 108.866 342.926C109.457 343.045 110.008 343.267 110.52 343.591C111.037 343.915 111.46 344.378 111.789 344.98C112.119 345.577 112.284 346.352 112.284 347.307V356H109.795V354.21H109.693C109.528 354.54 109.281 354.864 108.951 355.182C108.622 355.5 108.199 355.764 107.681 355.974C107.164 356.185 106.545 356.29 105.824 356.29ZM106.377 354.244C107.082 354.244 107.684 354.105 108.184 353.827C108.69 353.548 109.074 353.185 109.335 352.736C109.602 352.281 109.735 351.795 109.735 351.278V349.591C109.645 349.682 109.468 349.767 109.207 349.847C108.951 349.92 108.659 349.986 108.329 350.043C108 350.094 107.679 350.142 107.366 350.188C107.054 350.227 106.792 350.261 106.582 350.29C106.088 350.352 105.636 350.457 105.227 350.605C104.824 350.753 104.5 350.966 104.255 351.244C104.017 351.517 103.897 351.881 103.897 352.335C103.897 352.966 104.13 353.443 104.596 353.767C105.062 354.085 105.656 354.244 106.377 354.244ZM130.868 360.909V353.963H130.714C130.561 354.241 130.339 354.56 130.049 354.918C129.765 355.276 129.373 355.588 128.873 355.855C128.373 356.122 127.725 356.256 126.93 356.256C125.873 356.256 124.93 355.986 124.1 355.446C123.277 354.901 122.629 354.125 122.157 353.119C121.691 352.108 121.458 350.895 121.458 349.48C121.458 348.065 121.694 346.855 122.166 345.849C122.643 344.844 123.297 344.074 124.126 343.54C124.956 343.006 125.896 342.739 126.947 342.739C127.76 342.739 128.413 342.875 128.907 343.148C129.407 343.415 129.794 343.727 130.066 344.085C130.345 344.443 130.561 344.759 130.714 345.031H130.927V342.909H133.416V360.909H130.868ZM127.493 354.082C128.225 354.082 128.845 353.889 129.35 353.503C129.862 353.111 130.248 352.568 130.51 351.875C130.777 351.182 130.91 350.375 130.91 349.455C130.91 348.545 130.779 347.75 130.518 347.068C130.257 346.386 129.873 345.855 129.368 345.474C128.862 345.094 128.237 344.903 127.493 344.903C126.725 344.903 126.086 345.102 125.575 345.5C125.064 345.898 124.677 346.44 124.416 347.128C124.16 347.815 124.032 348.591 124.032 349.455C124.032 350.33 124.163 351.116 124.424 351.815C124.686 352.514 125.072 353.068 125.583 353.477C126.1 353.881 126.737 354.082 127.493 354.082ZM145.135 350.571V342.909H147.691V356H145.186V353.733H145.049C144.748 354.432 144.265 355.014 143.6 355.48C142.941 355.94 142.12 356.17 141.137 356.17C140.297 356.17 139.552 355.986 138.904 355.616C138.262 355.241 137.757 354.688 137.387 353.955C137.024 353.222 136.842 352.315 136.842 351.236V342.909H139.39V350.929C139.39 351.821 139.637 352.531 140.132 353.06C140.626 353.588 141.268 353.852 142.058 353.852C142.535 353.852 143.01 353.733 143.481 353.494C143.958 353.256 144.353 352.895 144.666 352.412C144.984 351.929 145.14 351.315 145.135 350.571ZM151.115 356V342.909H153.664V356H151.115ZM152.402 340.889C151.959 340.889 151.578 340.741 151.26 340.446C150.948 340.145 150.792 339.787 150.792 339.372C150.792 338.952 150.948 338.594 151.26 338.298C151.578 337.997 151.959 337.847 152.402 337.847C152.846 337.847 153.223 337.997 153.536 338.298C153.854 338.594 154.013 338.952 154.013 339.372C154.013 339.787 153.854 340.145 153.536 340.446C153.223 340.741 152.846 340.889 152.402 340.889ZM162.606 356.264C161.339 356.264 160.248 355.977 159.333 355.403C158.424 354.824 157.725 354.026 157.237 353.009C156.748 351.991 156.504 350.827 156.504 349.514C156.504 348.185 156.754 347.011 157.254 345.994C157.754 344.972 158.458 344.173 159.368 343.599C160.277 343.026 161.348 342.739 162.581 342.739C163.575 342.739 164.461 342.923 165.24 343.293C166.018 343.656 166.646 344.168 167.123 344.827C167.606 345.486 167.893 346.256 167.984 347.136H165.504C165.368 346.523 165.055 345.994 164.566 345.551C164.083 345.108 163.436 344.886 162.623 344.886C161.913 344.886 161.291 345.074 160.757 345.449C160.228 345.818 159.816 346.347 159.521 347.034C159.225 347.716 159.078 348.523 159.078 349.455C159.078 350.409 159.223 351.233 159.512 351.926C159.802 352.619 160.211 353.156 160.74 353.537C161.274 353.918 161.902 354.108 162.623 354.108C163.106 354.108 163.544 354.02 163.936 353.844C164.333 353.662 164.666 353.403 164.933 353.068C165.206 352.733 165.396 352.33 165.504 351.858H167.984C167.893 352.705 167.618 353.46 167.157 354.125C166.697 354.79 166.081 355.312 165.308 355.693C164.541 356.074 163.64 356.264 162.606 356.264ZM173.053 351.56L173.036 348.449H173.479L178.695 342.909H181.746L175.797 349.216H175.397L173.053 351.56ZM170.709 356V338.545H173.257V356H170.709ZM178.976 356L174.289 349.778L176.044 347.997L182.104 356H178.976ZM199.258 360.909V353.963H199.105C198.951 354.241 198.73 354.56 198.44 354.918C198.156 355.276 197.764 355.588 197.264 355.855C196.764 356.122 196.116 356.256 195.321 356.256C194.264 356.256 193.321 355.986 192.491 355.446C191.667 354.901 191.02 354.125 190.548 353.119C190.082 352.108 189.849 350.895 189.849 349.48C189.849 348.065 190.085 346.855 190.556 345.849C191.034 344.844 191.687 344.074 192.517 343.54C193.346 343.006 194.287 342.739 195.338 342.739C196.15 342.739 196.804 342.875 197.298 343.148C197.798 343.415 198.184 343.727 198.457 344.085C198.735 344.443 198.951 344.759 199.105 345.031H199.318V342.909H201.806V360.909H199.258ZM195.883 354.082C196.616 354.082 197.235 353.889 197.741 353.503C198.252 353.111 198.639 352.568 198.9 351.875C199.167 351.182 199.301 350.375 199.301 349.455C199.301 348.545 199.17 347.75 198.909 347.068C198.647 346.386 198.264 345.855 197.758 345.474C197.252 345.094 196.627 344.903 195.883 344.903C195.116 344.903 194.477 345.102 193.966 345.5C193.454 345.898 193.068 346.44 192.806 347.128C192.551 347.815 192.423 348.591 192.423 349.455C192.423 350.33 192.554 351.116 192.815 351.815C193.076 352.514 193.463 353.068 193.974 353.477C194.491 353.881 195.127 354.082 195.883 354.082ZM213.525 350.571V342.909H216.082V356H213.576V353.733H213.44C213.139 354.432 212.656 355.014 211.991 355.48C211.332 355.94 210.511 356.17 209.528 356.17C208.687 356.17 207.943 355.986 207.295 355.616C206.653 355.241 206.147 354.688 205.778 353.955C205.414 353.222 205.233 352.315 205.233 351.236V342.909H207.781V350.929C207.781 351.821 208.028 352.531 208.522 353.06C209.017 353.588 209.659 353.852 210.449 353.852C210.926 353.852 211.4 353.733 211.872 353.494C212.349 353.256 212.744 352.895 213.056 352.412C213.375 351.929 213.531 351.315 213.525 350.571ZM219.506 356V342.909H222.054V356H219.506ZM220.793 340.889C220.35 340.889 219.969 340.741 219.651 340.446C219.338 340.145 219.182 339.787 219.182 339.372C219.182 338.952 219.338 338.594 219.651 338.298C219.969 337.997 220.35 337.847 220.793 337.847C221.236 337.847 221.614 337.997 221.926 338.298C222.245 338.594 222.404 338.952 222.404 339.372C222.404 339.787 222.245 340.145 221.926 340.446C221.614 340.741 221.236 340.889 220.793 340.889ZM225.21 356V354.253L232.301 345.244V345.125H225.44V342.909H235.48V344.767L228.662 353.665V353.784H235.718V356H225.21ZM248.886 356.29C248.056 356.29 247.306 356.136 246.636 355.83C245.966 355.517 245.434 355.065 245.042 354.474C244.656 353.884 244.463 353.159 244.463 352.301C244.463 351.562 244.605 350.955 244.889 350.477C245.173 350 245.556 349.622 246.039 349.344C246.522 349.065 247.062 348.855 247.659 348.713C248.255 348.571 248.863 348.463 249.483 348.389C250.267 348.298 250.903 348.224 251.392 348.168C251.88 348.105 252.235 348.006 252.457 347.869C252.679 347.733 252.789 347.511 252.789 347.205V347.145C252.789 346.401 252.579 345.824 252.159 345.415C251.744 345.006 251.125 344.801 250.301 344.801C249.443 344.801 248.767 344.991 248.272 345.372C247.784 345.747 247.446 346.165 247.258 346.625L244.863 346.08C245.147 345.284 245.562 344.642 246.108 344.153C246.659 343.659 247.292 343.301 248.008 343.08C248.724 342.852 249.477 342.739 250.267 342.739C250.789 342.739 251.343 342.801 251.929 342.926C252.52 343.045 253.071 343.267 253.582 343.591C254.099 343.915 254.522 344.378 254.852 344.98C255.181 345.577 255.346 346.352 255.346 347.307V356H252.858V354.21H252.755C252.591 354.54 252.343 354.864 252.014 355.182C251.684 355.5 251.261 355.764 250.744 355.974C250.227 356.185 249.608 356.29 248.886 356.29ZM249.44 354.244C250.145 354.244 250.747 354.105 251.247 353.827C251.752 353.548 252.136 353.185 252.397 352.736C252.664 352.281 252.798 351.795 252.798 351.278V349.591C252.707 349.682 252.531 349.767 252.27 349.847C252.014 349.92 251.721 349.986 251.392 350.043C251.062 350.094 250.741 350.142 250.429 350.188C250.116 350.227 249.855 350.261 249.645 350.29C249.15 350.352 248.699 350.457 248.289 350.605C247.886 350.753 247.562 350.966 247.318 351.244C247.079 351.517 246.96 351.881 246.96 352.335C246.96 352.966 247.193 353.443 247.659 353.767C248.125 354.085 248.718 354.244 249.44 354.244ZM264.971 342.909V344.955H257.573V342.909H264.971ZM259.601 356V341.392C259.601 340.574 259.78 339.895 260.138 339.355C260.496 338.81 260.971 338.403 261.561 338.136C262.152 337.864 262.794 337.727 263.488 337.727C263.999 337.727 264.436 337.77 264.8 337.855C265.164 337.935 265.434 338.009 265.61 338.077L265.013 340.139C264.894 340.105 264.74 340.065 264.553 340.02C264.365 339.969 264.138 339.943 263.871 339.943C263.252 339.943 262.809 340.097 262.542 340.403C262.28 340.71 262.15 341.153 262.15 341.733V356H259.601ZM273.711 342.909V344.955H266.56V342.909H273.711ZM268.478 339.773H271.026V352.156C271.026 352.651 271.1 353.023 271.248 353.273C271.395 353.517 271.586 353.685 271.819 353.776C272.057 353.861 272.316 353.903 272.594 353.903C272.799 353.903 272.978 353.889 273.131 353.861C273.284 353.832 273.404 353.81 273.489 353.793L273.949 355.898C273.801 355.955 273.591 356.011 273.319 356.068C273.046 356.131 272.705 356.165 272.296 356.17C271.625 356.182 271 356.062 270.421 355.812C269.841 355.562 269.373 355.176 269.015 354.653C268.657 354.131 268.478 353.474 268.478 352.685V339.773ZM282.031 356.264C280.741 356.264 279.63 355.989 278.699 355.438C277.772 354.881 277.056 354.099 276.551 353.094C276.051 352.082 275.801 350.898 275.801 349.54C275.801 348.199 276.051 347.017 276.551 345.994C277.056 344.972 277.761 344.173 278.664 343.599C279.574 343.026 280.636 342.739 281.852 342.739C282.591 342.739 283.306 342.861 284 343.105C284.693 343.349 285.315 343.733 285.866 344.256C286.417 344.778 286.852 345.457 287.17 346.293C287.488 347.122 287.647 348.131 287.647 349.318V350.222H277.241V348.312H285.15C285.15 347.642 285.014 347.048 284.741 346.531C284.468 346.009 284.085 345.597 283.591 345.295C283.102 344.994 282.528 344.844 281.869 344.844C281.153 344.844 280.528 345.02 279.994 345.372C279.466 345.719 279.056 346.173 278.767 346.736C278.483 347.293 278.341 347.898 278.341 348.551V350.043C278.341 350.918 278.494 351.662 278.801 352.276C279.113 352.889 279.548 353.358 280.105 353.682C280.662 354 281.312 354.159 282.056 354.159C282.539 354.159 282.98 354.091 283.377 353.955C283.775 353.812 284.119 353.602 284.409 353.324C284.699 353.045 284.92 352.702 285.074 352.293L287.485 352.727C287.292 353.437 286.946 354.06 286.446 354.594C285.951 355.122 285.329 355.534 284.579 355.83C283.835 356.119 282.985 356.264 282.031 356.264ZM290.475 356V342.909H292.938V344.989H293.074C293.313 344.284 293.733 343.73 294.336 343.327C294.944 342.918 295.631 342.713 296.398 342.713C296.557 342.713 296.745 342.719 296.961 342.73C297.182 342.741 297.355 342.756 297.48 342.773V345.21C297.378 345.182 297.196 345.151 296.935 345.116C296.674 345.077 296.412 345.057 296.151 345.057C295.549 345.057 295.012 345.185 294.54 345.44C294.074 345.69 293.705 346.04 293.432 346.489C293.159 346.932 293.023 347.437 293.023 348.006V356H290.475ZM311.679 356.264C310.39 356.264 309.279 355.989 308.347 355.438C307.421 354.881 306.705 354.099 306.199 353.094C305.699 352.082 305.449 350.898 305.449 349.54C305.449 348.199 305.699 347.017 306.199 345.994C306.705 344.972 307.409 344.173 308.313 343.599C309.222 343.026 310.284 342.739 311.5 342.739C312.239 342.739 312.955 342.861 313.648 343.105C314.341 343.349 314.963 343.733 315.515 344.256C316.066 344.778 316.5 345.457 316.819 346.293C317.137 347.122 317.296 348.131 317.296 349.318V350.222H306.89V348.312H314.799C314.799 347.642 314.662 347.048 314.39 346.531C314.117 346.009 313.733 345.597 313.239 345.295C312.75 344.994 312.176 344.844 311.517 344.844C310.801 344.844 310.176 345.02 309.642 345.372C309.114 345.719 308.705 346.173 308.415 346.736C308.131 347.293 307.989 347.898 307.989 348.551V350.043C307.989 350.918 308.142 351.662 308.449 352.276C308.762 352.889 309.196 353.358 309.753 353.682C310.31 354 310.961 354.159 311.705 354.159C312.188 354.159 312.628 354.091 313.026 353.955C313.424 353.812 313.767 353.602 314.057 353.324C314.347 353.045 314.569 352.702 314.722 352.293L317.134 352.727C316.941 353.437 316.594 354.06 316.094 354.594C315.6 355.122 314.978 355.534 314.228 355.83C313.483 356.119 312.634 356.264 311.679 356.264ZM330.947 342.909L326.2 356H323.473L318.717 342.909H321.453L324.768 352.983H324.904L328.211 342.909H330.947ZM338.539 356.264C337.249 356.264 336.138 355.989 335.206 355.438C334.28 354.881 333.564 354.099 333.059 353.094C332.559 352.082 332.309 350.898 332.309 349.54C332.309 348.199 332.559 347.017 333.059 345.994C333.564 344.972 334.269 344.173 335.172 343.599C336.081 343.026 337.144 342.739 338.36 342.739C339.098 342.739 339.814 342.861 340.507 343.105C341.201 343.349 341.823 343.733 342.374 344.256C342.925 344.778 343.36 345.457 343.678 346.293C343.996 347.122 344.155 348.131 344.155 349.318V350.222H333.749V348.312H341.658C341.658 347.642 341.522 347.048 341.249 346.531C340.976 346.009 340.593 345.597 340.098 345.295C339.61 344.994 339.036 344.844 338.377 344.844C337.661 344.844 337.036 345.02 336.502 345.372C335.973 345.719 335.564 346.173 335.275 346.736C334.99 347.293 334.848 347.898 334.848 348.551V350.043C334.848 350.918 335.002 351.662 335.309 352.276C335.621 352.889 336.056 353.358 336.613 353.682C337.169 354 337.82 354.159 338.564 354.159C339.047 354.159 339.488 354.091 339.885 353.955C340.283 353.812 340.627 353.602 340.917 353.324C341.206 353.045 341.428 352.702 341.581 352.293L343.993 352.727C343.8 353.437 343.453 354.06 342.953 354.594C342.459 355.122 341.837 355.534 341.087 355.83C340.343 356.119 339.493 356.264 338.539 356.264ZM346.983 356V342.909H349.446V344.989H349.582C349.821 344.284 350.241 343.73 350.843 343.327C351.451 342.918 352.139 342.713 352.906 342.713C353.065 342.713 353.252 342.719 353.468 342.73C353.69 342.741 353.863 342.756 353.988 342.773V345.21C353.886 345.182 353.704 345.151 353.443 345.116C353.181 345.077 352.92 345.057 352.659 345.057C352.056 345.057 351.52 345.185 351.048 345.44C350.582 345.69 350.213 346.04 349.94 346.489C349.667 346.932 349.531 347.437 349.531 348.006V356H346.983ZM358.203 360.909C357.822 360.909 357.475 360.878 357.163 360.815C356.85 360.759 356.618 360.696 356.464 360.628L357.078 358.54C357.544 358.665 357.958 358.719 358.322 358.702C358.686 358.685 359.007 358.548 359.285 358.293C359.569 358.037 359.819 357.619 360.035 357.04L360.35 356.17L355.561 342.909H358.288L361.603 353.068H361.74L365.055 342.909H367.791L362.396 357.747C362.146 358.429 361.828 359.006 361.441 359.477C361.055 359.955 360.595 360.313 360.061 360.551C359.527 360.79 358.907 360.909 358.203 360.909ZM29.6815 371.909L24.9343 385H22.207L17.4513 371.909H20.1871L23.5025 381.983H23.6388L26.9457 371.909H29.6815ZM32.0763 385V371.909H34.6246V385H32.0763ZM33.3633 369.889C32.9201 369.889 32.5394 369.741 32.2212 369.446C31.9087 369.145 31.7525 368.787 31.7525 368.372C31.7525 367.952 31.9087 367.594 32.2212 367.298C32.5394 366.997 32.9201 366.847 33.3633 366.847C33.8065 366.847 34.1843 366.997 34.4968 367.298C34.815 367.594 34.9741 367.952 34.9741 368.372C34.9741 368.787 34.815 369.145 34.4968 369.446C34.1843 369.741 33.8065 369.889 33.3633 369.889ZM42.9535 385.256C41.8967 385.256 40.9535 384.986 40.1239 384.446C39.3001 383.901 38.6523 383.125 38.1808 382.119C37.7148 381.108 37.4819 379.895 37.4819 378.48C37.4819 377.065 37.7177 375.855 38.1893 374.849C38.6665 373.844 39.32 373.074 40.1495 372.54C40.979 372.006 41.9194 371.739 42.9705 371.739C43.783 371.739 44.4364 371.875 44.9308 372.148C45.4308 372.415 45.8171 372.727 46.0898 373.085C46.3683 373.443 46.5842 373.759 46.7376 374.031H46.891V367.545H49.4393V385H46.9506V382.963H46.7376C46.5842 383.241 46.3626 383.56 46.0728 383.918C45.7887 384.276 45.3967 384.588 44.8967 384.855C44.3967 385.122 43.7489 385.256 42.9535 385.256ZM43.516 383.082C44.2489 383.082 44.8683 382.889 45.3739 382.503C45.8853 382.111 46.2717 381.568 46.533 380.875C46.8001 380.182 46.9336 379.375 46.9336 378.455C46.9336 377.545 46.8029 376.75 46.5415 376.068C46.2802 375.386 45.8967 374.855 45.391 374.474C44.8853 374.094 44.2603 373.903 43.516 373.903C42.7489 373.903 42.1097 374.102 41.5984 374.5C41.087 374.898 40.7006 375.44 40.4393 376.128C40.1836 376.815 40.0558 377.591 40.0558 378.455C40.0558 379.33 40.1864 380.116 40.4478 380.815C40.7092 381.514 41.0955 382.068 41.6069 382.477C42.1239 382.881 42.7603 383.082 43.516 383.082ZM58.7184 385.264C57.4286 385.264 56.3178 384.989 55.386 384.438C54.4599 383.881 53.744 383.099 53.2383 382.094C52.7383 381.082 52.4883 379.898 52.4883 378.54C52.4883 377.199 52.7383 376.017 53.2383 374.994C53.744 373.972 54.4485 373.173 55.3519 372.599C56.261 372.026 57.3235 371.739 58.5394 371.739C59.2781 371.739 59.994 371.861 60.6871 372.105C61.3803 372.349 62.0025 372.733 62.5536 373.256C63.1048 373.778 63.5394 374.457 63.8576 375.293C64.1758 376.122 64.3349 377.131 64.3349 378.318V379.222H53.9286V377.312H61.8377C61.8377 376.642 61.7013 376.048 61.4286 375.531C61.1559 375.009 60.7724 374.597 60.2781 374.295C59.7894 373.994 59.2156 373.844 58.5565 373.844C57.8406 373.844 57.2156 374.02 56.6815 374.372C56.1531 374.719 55.744 375.173 55.4542 375.736C55.1701 376.293 55.0281 376.898 55.0281 377.551V379.043C55.0281 379.918 55.1815 380.662 55.4883 381.276C55.8008 381.889 56.2354 382.358 56.7923 382.682C57.3491 383 57.9996 383.159 58.744 383.159C59.2269 383.159 59.6673 383.091 60.065 382.955C60.4627 382.812 60.8065 382.602 61.0962 382.324C61.386 382.045 61.6076 381.702 61.761 381.293L64.1729 381.727C63.9798 382.437 63.6332 383.06 63.1332 383.594C62.6388 384.122 62.0167 384.534 61.2667 384.83C60.5224 385.119 59.6729 385.264 58.7184 385.264ZM72.6765 385.264C71.4492 385.264 70.3782 384.983 69.4634 384.42C68.5487 383.858 67.8384 383.071 67.3327 382.06C66.8271 381.048 66.5742 379.866 66.5742 378.514C66.5742 377.156 66.8271 375.969 67.3327 374.952C67.8384 373.935 68.5487 373.145 69.4634 372.582C70.3782 372.02 71.4492 371.739 72.6765 371.739C73.9038 371.739 74.9748 372.02 75.8896 372.582C76.8043 373.145 77.5146 373.935 78.0202 374.952C78.5259 375.969 78.7788 377.156 78.7788 378.514C78.7788 379.866 78.5259 381.048 78.0202 382.06C77.5146 383.071 76.8043 383.858 75.8896 384.42C74.9748 384.983 73.9038 385.264 72.6765 385.264ZM72.685 383.125C73.4805 383.125 74.1396 382.915 74.6623 382.494C75.185 382.074 75.5714 381.514 75.8214 380.815C76.0771 380.116 76.2049 379.347 76.2049 378.506C76.2049 377.67 76.0771 376.903 75.8214 376.205C75.5714 375.5 75.185 374.935 74.6623 374.509C74.1396 374.082 73.4805 373.869 72.685 373.869C71.8839 373.869 71.2191 374.082 70.6907 374.509C70.168 374.935 69.7788 375.5 69.5231 376.205C69.2731 376.903 69.1481 377.67 69.1481 378.506C69.1481 379.347 69.2731 380.116 69.5231 380.815C69.7788 381.514 70.168 382.074 70.6907 382.494C71.2191 382.915 71.8839 383.125 72.685 383.125ZM94.0856 371.909V373.955H86.935V371.909H94.0856ZM88.8526 368.773H91.4009V381.156C91.4009 381.651 91.4748 382.023 91.6225 382.273C91.7702 382.517 91.9606 382.685 92.1935 382.776C92.4322 382.861 92.6907 382.903 92.9691 382.903C93.1737 382.903 93.3526 382.889 93.506 382.861C93.6594 382.832 93.7788 382.81 93.864 382.793L94.3242 384.898C94.1765 384.955 93.9663 385.011 93.6935 385.068C93.4208 385.131 93.0799 385.165 92.6708 385.17C92.0004 385.182 91.3754 385.062 90.7958 384.812C90.2163 384.562 89.7475 384.176 89.3896 383.653C89.0316 383.131 88.8526 382.474 88.8526 381.685V368.773ZM102.278 385.264C101.051 385.264 99.9798 384.983 99.065 384.42C98.1502 383.858 97.44 383.071 96.9343 382.06C96.4286 381.048 96.1758 379.866 96.1758 378.514C96.1758 377.156 96.4286 375.969 96.9343 374.952C97.44 373.935 98.1502 373.145 99.065 372.582C99.9798 372.02 101.051 371.739 102.278 371.739C103.505 371.739 104.576 372.02 105.491 372.582C106.406 373.145 107.116 373.935 107.622 374.952C108.127 375.969 108.38 377.156 108.38 378.514C108.38 379.866 108.127 381.048 107.622 382.06C107.116 383.071 106.406 383.858 105.491 384.42C104.576 384.983 103.505 385.264 102.278 385.264ZM102.287 383.125C103.082 383.125 103.741 382.915 104.264 382.494C104.787 382.074 105.173 381.514 105.423 380.815C105.679 380.116 105.806 379.347 105.806 378.506C105.806 377.67 105.679 376.903 105.423 376.205C105.173 375.5 104.787 374.935 104.264 374.509C103.741 374.082 103.082 373.869 102.287 373.869C101.485 373.869 100.821 374.082 100.292 374.509C99.7695 374.935 99.3803 375.5 99.1246 376.205C98.8746 376.903 98.7496 377.67 98.7496 378.506C98.7496 379.347 98.8746 380.116 99.1246 380.815C99.3803 381.514 99.7695 382.074 100.292 382.494C100.821 382.915 101.485 383.125 102.287 383.125ZM123.687 371.909V373.955H116.537V371.909H123.687ZM118.454 368.773H121.002V381.156C121.002 381.651 121.076 382.023 121.224 382.273C121.372 382.517 121.562 382.685 121.795 382.776C122.034 382.861 122.292 382.903 122.571 382.903C122.775 382.903 122.954 382.889 123.108 382.861C123.261 382.832 123.38 382.81 123.466 382.793L123.926 384.898C123.778 384.955 123.568 385.011 123.295 385.068C123.022 385.131 122.681 385.165 122.272 385.17C121.602 385.182 120.977 385.062 120.397 384.812C119.818 384.562 119.349 384.176 118.991 383.653C118.633 383.131 118.454 382.474 118.454 381.685V368.773ZM132.007 385.264C130.718 385.264 129.607 384.989 128.675 384.438C127.749 383.881 127.033 383.099 126.527 382.094C126.027 381.082 125.777 379.898 125.777 378.54C125.777 377.199 126.027 376.017 126.527 374.994C127.033 373.972 127.738 373.173 128.641 372.599C129.55 372.026 130.613 371.739 131.828 371.739C132.567 371.739 133.283 371.861 133.976 372.105C134.669 372.349 135.292 372.733 135.843 373.256C136.394 373.778 136.828 374.457 137.147 375.293C137.465 376.122 137.624 377.131 137.624 378.318V379.222H127.218V377.312H135.127C135.127 376.642 134.99 376.048 134.718 375.531C134.445 375.009 134.061 374.597 133.567 374.295C133.078 373.994 132.505 373.844 131.846 373.844C131.13 373.844 130.505 374.02 129.971 374.372C129.442 374.719 129.033 375.173 128.743 375.736C128.459 376.293 128.317 376.898 128.317 377.551V379.043C128.317 379.918 128.471 380.662 128.777 381.276C129.09 381.889 129.525 382.358 130.081 382.682C130.638 383 131.289 383.159 132.033 383.159C132.516 383.159 132.956 383.091 133.354 382.955C133.752 382.812 134.096 382.602 134.385 382.324C134.675 382.045 134.897 381.702 135.05 381.293L137.462 381.727C137.269 382.437 136.922 383.06 136.422 383.594C135.928 384.122 135.306 384.534 134.556 384.83C133.811 385.119 132.962 385.264 132.007 385.264ZM150.261 375.105L147.951 375.514C147.855 375.219 147.701 374.937 147.491 374.67C147.287 374.403 147.008 374.185 146.656 374.014C146.304 373.844 145.863 373.759 145.335 373.759C144.613 373.759 144.011 373.92 143.528 374.244C143.045 374.562 142.804 374.974 142.804 375.48C142.804 375.918 142.966 376.27 143.289 376.537C143.613 376.804 144.136 377.023 144.858 377.193L146.937 377.67C148.142 377.949 149.039 378.378 149.63 378.957C150.221 379.537 150.517 380.29 150.517 381.216C150.517 382 150.289 382.699 149.835 383.312C149.386 383.92 148.758 384.398 147.951 384.744C147.15 385.091 146.221 385.264 145.164 385.264C143.699 385.264 142.502 384.952 141.576 384.327C140.65 383.696 140.082 382.801 139.872 381.642L142.335 381.267C142.488 381.909 142.804 382.395 143.281 382.724C143.758 383.048 144.38 383.21 145.147 383.21C145.983 383.21 146.65 383.037 147.15 382.69C147.65 382.338 147.9 381.909 147.9 381.403C147.9 380.994 147.747 380.651 147.44 380.372C147.139 380.094 146.676 379.884 146.051 379.741L143.835 379.256C142.613 378.977 141.71 378.534 141.125 377.926C140.545 377.318 140.255 376.548 140.255 375.616C140.255 374.844 140.471 374.168 140.903 373.588C141.335 373.009 141.931 372.557 142.693 372.233C143.454 371.903 144.326 371.739 145.309 371.739C146.724 371.739 147.838 372.045 148.65 372.659C149.463 373.267 150 374.082 150.261 375.105ZM159.429 371.909V373.955H152.279V371.909H159.429ZM154.196 368.773H156.745V381.156C156.745 381.651 156.819 382.023 156.966 382.273C157.114 382.517 157.304 382.685 157.537 382.776C157.776 382.861 158.034 382.903 158.313 382.903C158.517 382.903 158.696 382.889 158.85 382.861C159.003 382.832 159.123 382.81 159.208 382.793L159.668 384.898C159.52 384.955 159.31 385.011 159.037 385.068C158.765 385.131 158.424 385.165 158.015 385.17C157.344 385.182 156.719 385.062 156.14 384.812C155.56 384.562 155.091 384.176 154.733 383.653C154.375 383.131 154.196 382.474 154.196 381.685V368.773ZM170.211 389.909C169.83 389.909 169.483 389.878 169.171 389.815C168.858 389.759 168.625 389.696 168.472 389.628L169.086 387.54C169.551 387.665 169.966 387.719 170.33 387.702C170.694 387.685 171.015 387.548 171.293 387.293C171.577 387.037 171.827 386.619 172.043 386.04L172.358 385.17L167.569 371.909H170.296L173.611 382.068H173.748L177.063 371.909H179.799L174.404 386.747C174.154 387.429 173.836 388.006 173.449 388.477C173.063 388.955 172.603 389.313 172.069 389.551C171.534 389.79 170.915 389.909 170.211 389.909ZM187.262 385.264C186.035 385.264 184.964 384.983 184.049 384.42C183.135 383.858 182.424 383.071 181.919 382.06C181.413 381.048 181.16 379.866 181.16 378.514C181.16 377.156 181.413 375.969 181.919 374.952C182.424 373.935 183.135 373.145 184.049 372.582C184.964 372.02 186.035 371.739 187.262 371.739C188.49 371.739 189.561 372.02 190.475 372.582C191.39 373.145 192.1 373.935 192.606 374.952C193.112 375.969 193.365 377.156 193.365 378.514C193.365 379.866 193.112 381.048 192.606 382.06C192.1 383.071 191.39 383.858 190.475 384.42C189.561 384.983 188.49 385.264 187.262 385.264ZM187.271 383.125C188.066 383.125 188.725 382.915 189.248 382.494C189.771 382.074 190.157 381.514 190.407 380.815C190.663 380.116 190.791 379.347 190.791 378.506C190.791 377.67 190.663 376.903 190.407 376.205C190.157 375.5 189.771 374.935 189.248 374.509C188.725 374.082 188.066 373.869 187.271 373.869C186.47 373.869 185.805 374.082 185.277 374.509C184.754 374.935 184.365 375.5 184.109 376.205C183.859 376.903 183.734 377.67 183.734 378.506C183.734 379.347 183.859 380.116 184.109 380.815C184.365 381.514 184.754 382.074 185.277 382.494C185.805 382.915 186.47 383.125 187.271 383.125ZM204.502 379.571V371.909H207.059V385H204.553V382.733H204.417C204.115 383.432 203.632 384.014 202.968 384.48C202.309 384.94 201.488 385.17 200.505 385.17C199.664 385.17 198.919 384.986 198.272 384.616C197.63 384.241 197.124 383.688 196.755 382.955C196.391 382.222 196.209 381.315 196.209 380.236V371.909H198.757V379.929C198.757 380.821 199.005 381.531 199.499 382.06C199.993 382.588 200.635 382.852 201.425 382.852C201.902 382.852 202.377 382.733 202.848 382.494C203.326 382.256 203.721 381.895 204.033 381.412C204.351 380.929 204.507 380.315 204.502 379.571ZM210.483 385V371.909H212.946V373.989H213.082C213.321 373.284 213.741 372.73 214.343 372.327C214.951 371.918 215.639 371.713 216.406 371.713C216.565 371.713 216.752 371.719 216.968 371.73C217.19 371.741 217.363 371.756 217.488 371.773V374.21C217.386 374.182 217.204 374.151 216.943 374.116C216.681 374.077 216.42 374.057 216.159 374.057C215.556 374.057 215.02 374.185 214.548 374.44C214.082 374.69 213.713 375.04 213.44 375.489C213.167 375.932 213.031 376.437 213.031 377.006V385H210.483ZM234.338 379.571V371.909H236.895V385H234.389V382.733H234.252C233.951 383.432 233.468 384.014 232.804 384.48C232.145 384.94 231.324 385.17 230.341 385.17C229.5 385.17 228.755 384.986 228.108 384.616C227.466 384.241 226.96 383.688 226.591 382.955C226.227 382.222 226.045 381.315 226.045 380.236V371.909H228.593V379.929C228.593 380.821 228.841 381.531 229.335 382.06C229.829 382.588 230.471 382.852 231.261 382.852C231.738 382.852 232.213 382.733 232.684 382.494C233.162 382.256 233.556 381.895 233.869 381.412C234.187 380.929 234.343 380.315 234.338 379.571ZM242.867 377.227V385H240.319V371.909H242.765V374.04H242.926C243.228 373.347 243.699 372.79 244.341 372.369C244.989 371.949 245.804 371.739 246.787 371.739C247.679 371.739 248.461 371.926 249.131 372.301C249.801 372.67 250.321 373.222 250.691 373.955C251.06 374.687 251.245 375.594 251.245 376.673V385H248.696V376.98C248.696 376.031 248.449 375.29 247.955 374.756C247.461 374.216 246.782 373.946 245.918 373.946C245.327 373.946 244.801 374.074 244.341 374.33C243.887 374.585 243.526 374.96 243.259 375.455C242.998 375.943 242.867 376.534 242.867 377.227ZM259.563 385.256C258.506 385.256 257.563 384.986 256.733 384.446C255.909 383.901 255.262 383.125 254.79 382.119C254.324 381.108 254.091 379.895 254.091 378.48C254.091 377.065 254.327 375.855 254.799 374.849C255.276 373.844 255.929 373.074 256.759 372.54C257.588 372.006 258.529 371.739 259.58 371.739C260.392 371.739 261.046 371.875 261.54 372.148C262.04 372.415 262.426 372.727 262.699 373.085C262.978 373.443 263.194 373.759 263.347 374.031H263.5V367.545H266.049V385H263.56V382.963H263.347C263.194 383.241 262.972 383.56 262.682 383.918C262.398 384.276 262.006 384.588 261.506 384.855C261.006 385.122 260.358 385.256 259.563 385.256ZM260.125 383.082C260.858 383.082 261.478 382.889 261.983 382.503C262.495 382.111 262.881 381.568 263.142 380.875C263.409 380.182 263.543 379.375 263.543 378.455C263.543 377.545 263.412 376.75 263.151 376.068C262.89 375.386 262.506 374.855 262 374.474C261.495 374.094 260.87 373.903 260.125 373.903C259.358 373.903 258.719 374.102 258.208 374.5C257.696 374.898 257.31 375.44 257.049 376.128C256.793 376.815 256.665 377.591 256.665 378.455C256.665 379.33 256.796 380.116 257.057 380.815C257.319 381.514 257.705 382.068 258.216 382.477C258.733 382.881 259.37 383.082 260.125 383.082ZM275.328 385.264C274.038 385.264 272.927 384.989 271.995 384.438C271.069 383.881 270.353 383.099 269.848 382.094C269.348 381.082 269.098 379.898 269.098 378.54C269.098 377.199 269.348 376.017 269.848 374.994C270.353 373.972 271.058 373.173 271.961 372.599C272.87 372.026 273.933 371.739 275.149 371.739C275.887 371.739 276.603 371.861 277.297 372.105C277.99 372.349 278.612 372.733 279.163 373.256C279.714 373.778 280.149 374.457 280.467 375.293C280.785 376.122 280.944 377.131 280.944 378.318V379.222H270.538V377.312H278.447C278.447 376.642 278.311 376.048 278.038 375.531C277.765 375.009 277.382 374.597 276.887 374.295C276.399 373.994 275.825 373.844 275.166 373.844C274.45 373.844 273.825 374.02 273.291 374.372C272.762 374.719 272.353 375.173 272.064 375.736C271.779 376.293 271.637 376.898 271.637 377.551V379.043C271.637 379.918 271.791 380.662 272.098 381.276C272.41 381.889 272.845 382.358 273.402 382.682C273.958 383 274.609 383.159 275.353 383.159C275.836 383.159 276.277 383.091 276.674 382.955C277.072 382.812 277.416 382.602 277.706 382.324C277.995 382.045 278.217 381.702 278.37 381.293L280.782 381.727C280.589 382.437 280.243 383.06 279.743 383.594C279.248 384.122 278.626 384.534 277.876 384.83C277.132 385.119 276.282 385.264 275.328 385.264ZM283.772 385V371.909H286.235V373.989H286.371C286.61 373.284 287.03 372.73 287.632 372.327C288.24 371.918 288.928 371.713 289.695 371.713C289.854 371.713 290.042 371.719 290.257 371.73C290.479 371.741 290.652 371.756 290.777 371.773V374.21C290.675 374.182 290.493 374.151 290.232 374.116C289.971 374.077 289.709 374.057 289.448 374.057C288.846 374.057 288.309 374.185 287.837 374.44C287.371 374.69 287.002 375.04 286.729 375.489C286.456 375.932 286.32 376.437 286.32 377.006V385H283.772ZM302.792 375.105L300.483 375.514C300.386 375.219 300.233 374.937 300.022 374.67C299.818 374.403 299.539 374.185 299.187 374.014C298.835 373.844 298.395 373.759 297.866 373.759C297.145 373.759 296.542 373.92 296.059 374.244C295.576 374.562 295.335 374.974 295.335 375.48C295.335 375.918 295.497 376.27 295.821 376.537C296.145 376.804 296.667 377.023 297.389 377.193L299.468 377.67C300.673 377.949 301.571 378.378 302.162 378.957C302.752 379.537 303.048 380.29 303.048 381.216C303.048 382 302.821 382.699 302.366 383.312C301.917 383.92 301.289 384.398 300.483 384.744C299.681 385.091 298.752 385.264 297.696 385.264C296.23 385.264 295.034 384.952 294.108 384.327C293.181 383.696 292.613 382.801 292.403 381.642L294.866 381.267C295.02 381.909 295.335 382.395 295.812 382.724C296.289 383.048 296.912 383.21 297.679 383.21C298.514 383.21 299.181 383.037 299.681 382.69C300.181 382.338 300.431 381.909 300.431 381.403C300.431 380.994 300.278 380.651 299.971 380.372C299.67 380.094 299.207 379.884 298.582 379.741L296.366 379.256C295.145 378.977 294.241 378.534 293.656 377.926C293.076 377.318 292.787 376.548 292.787 375.616C292.787 374.844 293.002 374.168 293.434 373.588C293.866 373.009 294.463 372.557 295.224 372.233C295.985 371.903 296.858 371.739 297.841 371.739C299.255 371.739 300.369 372.045 301.181 372.659C301.994 373.267 302.531 374.082 302.792 375.105ZM311.961 371.909V373.955H304.81V371.909H311.961ZM306.728 368.773H309.276V381.156C309.276 381.651 309.35 382.023 309.498 382.273C309.645 382.517 309.836 382.685 310.069 382.776C310.307 382.861 310.566 382.903 310.844 382.903C311.049 382.903 311.228 382.889 311.381 382.861C311.534 382.832 311.654 382.81 311.739 382.793L312.199 384.898C312.051 384.955 311.841 385.011 311.569 385.068C311.296 385.131 310.955 385.165 310.546 385.17C309.875 385.182 309.25 385.062 308.671 384.812C308.091 384.562 307.623 384.176 307.265 383.653C306.907 383.131 306.728 382.474 306.728 381.685V368.773ZM318.589 385.29C317.76 385.29 317.01 385.136 316.339 384.83C315.669 384.517 315.137 384.065 314.745 383.474C314.359 382.884 314.166 382.159 314.166 381.301C314.166 380.562 314.308 379.955 314.592 379.477C314.876 379 315.26 378.622 315.743 378.344C316.225 378.065 316.765 377.855 317.362 377.713C317.958 377.571 318.566 377.463 319.186 377.389C319.97 377.298 320.606 377.224 321.095 377.168C321.583 377.105 321.939 377.006 322.16 376.869C322.382 376.733 322.493 376.511 322.493 376.205V376.145C322.493 375.401 322.282 374.824 321.862 374.415C321.447 374.006 320.828 373.801 320.004 373.801C319.146 373.801 318.47 373.991 317.975 374.372C317.487 374.747 317.149 375.165 316.961 375.625L314.566 375.08C314.85 374.284 315.265 373.642 315.811 373.153C316.362 372.659 316.995 372.301 317.711 372.08C318.427 371.852 319.18 371.739 319.97 371.739C320.493 371.739 321.047 371.801 321.632 371.926C322.223 372.045 322.774 372.267 323.285 372.591C323.802 372.915 324.225 373.378 324.555 373.98C324.885 374.577 325.049 375.352 325.049 376.307V385H322.561V383.21H322.458C322.294 383.54 322.047 383.864 321.717 384.182C321.387 384.5 320.964 384.764 320.447 384.974C319.93 385.185 319.311 385.29 318.589 385.29ZM319.143 383.244C319.848 383.244 320.45 383.105 320.95 382.827C321.456 382.548 321.839 382.185 322.1 381.736C322.368 381.281 322.501 380.795 322.501 380.278V378.591C322.41 378.682 322.234 378.767 321.973 378.847C321.717 378.92 321.424 378.986 321.095 379.043C320.765 379.094 320.444 379.142 320.132 379.188C319.819 379.227 319.558 379.261 319.348 379.29C318.853 379.352 318.402 379.457 317.993 379.605C317.589 379.753 317.265 379.966 317.021 380.244C316.782 380.517 316.663 380.881 316.663 381.335C316.663 381.966 316.896 382.443 317.362 382.767C317.828 383.085 318.422 383.244 319.143 383.244ZM330.992 377.227V385H328.444V371.909H330.89V374.04H331.051C331.353 373.347 331.824 372.79 332.466 372.369C333.114 371.949 333.929 371.739 334.912 371.739C335.804 371.739 336.586 371.926 337.256 372.301C337.926 372.67 338.446 373.222 338.816 373.955C339.185 374.687 339.37 375.594 339.37 376.673V385H336.821V376.98C336.821 376.031 336.574 375.29 336.08 374.756C335.586 374.216 334.907 373.946 334.043 373.946C333.452 373.946 332.926 374.074 332.466 374.33C332.012 374.585 331.651 374.96 331.384 375.455C331.123 375.943 330.992 376.534 330.992 377.227ZM347.688 385.256C346.631 385.256 345.688 384.986 344.858 384.446C344.034 383.901 343.387 383.125 342.915 382.119C342.449 381.108 342.216 379.895 342.216 378.48C342.216 377.065 342.452 375.855 342.924 374.849C343.401 373.844 344.054 373.074 344.884 372.54C345.713 372.006 346.654 371.739 347.705 371.739C348.517 371.739 349.171 371.875 349.665 372.148C350.165 372.415 350.551 372.727 350.824 373.085C351.103 373.443 351.319 373.759 351.472 374.031H351.625V367.545H354.174V385H351.685V382.963H351.472C351.319 383.241 351.097 383.56 350.807 383.918C350.523 384.276 350.131 384.588 349.631 384.855C349.131 385.122 348.483 385.256 347.688 385.256ZM348.25 383.082C348.983 383.082 349.603 382.889 350.108 382.503C350.62 382.111 351.006 381.568 351.267 380.875C351.534 380.182 351.668 379.375 351.668 378.455C351.668 377.545 351.537 376.75 351.276 376.068C351.015 375.386 350.631 374.855 350.125 374.474C349.62 374.094 348.995 373.903 348.25 373.903C347.483 373.903 346.844 374.102 346.333 374.5C345.821 374.898 345.435 375.44 345.174 376.128C344.918 376.815 344.79 377.591 344.79 378.455C344.79 379.33 344.921 380.116 345.182 380.815C345.444 381.514 345.83 382.068 346.341 382.477C346.858 382.881 347.495 383.082 348.25 383.082ZM357.811 385V371.909H360.359V385H357.811ZM359.098 369.889C358.654 369.889 358.274 369.741 357.956 369.446C357.643 369.145 357.487 368.787 357.487 368.372C357.487 367.952 357.643 367.594 357.956 367.298C358.274 366.997 358.654 366.847 359.098 366.847C359.541 366.847 359.919 366.997 360.231 367.298C360.549 367.594 360.708 367.952 360.708 368.372C360.708 368.787 360.549 369.145 360.231 369.446C359.919 369.741 359.541 369.889 359.098 369.889ZM366.336 377.227V385H363.787V371.909H366.233V374.04H366.395C366.696 373.347 367.168 372.79 367.81 372.369C368.458 371.949 369.273 371.739 370.256 371.739C371.148 371.739 371.929 371.926 372.6 372.301C373.27 372.67 373.79 373.222 374.159 373.955C374.529 374.687 374.713 375.594 374.713 376.673V385H372.165V376.98C372.165 376.031 371.918 375.29 371.424 374.756C370.929 374.216 370.25 373.946 369.387 373.946C368.796 373.946 368.27 374.074 367.81 374.33C367.355 374.585 366.995 374.96 366.728 375.455C366.466 375.943 366.336 376.534 366.336 377.227ZM383.62 390.182C382.58 390.182 381.685 390.045 380.935 389.773C380.191 389.5 379.583 389.139 379.111 388.69C378.64 388.241 378.287 387.75 378.054 387.216L380.245 386.312C380.398 386.562 380.603 386.827 380.858 387.105C381.12 387.389 381.472 387.631 381.915 387.83C382.364 388.028 382.941 388.128 383.645 388.128C384.611 388.128 385.409 387.892 386.04 387.42C386.671 386.955 386.986 386.21 386.986 385.188V382.614H386.824C386.671 382.892 386.449 383.202 386.159 383.543C385.875 383.884 385.483 384.179 384.983 384.429C384.483 384.679 383.833 384.804 383.032 384.804C381.998 384.804 381.066 384.562 380.236 384.08C379.412 383.591 378.759 382.872 378.276 381.923C377.799 380.969 377.56 379.795 377.56 378.403C377.56 377.011 377.796 375.818 378.267 374.824C378.745 373.83 379.398 373.068 380.228 372.54C381.057 372.006 381.998 371.739 383.049 371.739C383.861 371.739 384.517 371.875 385.017 372.148C385.517 372.415 385.907 372.727 386.185 373.085C386.469 373.443 386.688 373.759 386.841 374.031H387.029V371.909H389.526V385.29C389.526 386.415 389.265 387.338 388.742 388.06C388.219 388.781 387.512 389.315 386.62 389.662C385.733 390.009 384.733 390.182 383.62 390.182ZM383.594 382.69C384.327 382.69 384.946 382.52 385.452 382.179C385.963 381.832 386.35 381.338 386.611 380.696C386.878 380.048 387.012 379.273 387.012 378.369C387.012 377.489 386.881 376.713 386.62 376.043C386.358 375.372 385.975 374.849 385.469 374.474C384.963 374.094 384.338 373.903 383.594 373.903C382.827 373.903 382.188 374.102 381.676 374.5C381.165 374.892 380.779 375.426 380.517 376.102C380.262 376.778 380.134 377.534 380.134 378.369C380.134 379.227 380.265 379.98 380.526 380.628C380.787 381.276 381.174 381.781 381.685 382.145C382.202 382.509 382.838 382.69 383.594 382.69ZM29.3118 414.29C28.4822 414.29 27.7322 414.136 27.0618 413.83C26.3913 413.517 25.8601 413.065 25.468 412.474C25.0817 411.884 24.8885 411.159 24.8885 410.301C24.8885 409.562 25.0305 408.955 25.3146 408.477C25.5987 408 25.9822 407.622 26.4652 407.344C26.9482 407.065 27.4879 406.855 28.0845 406.713C28.6811 406.571 29.2891 406.463 29.9084 406.389C30.6925 406.298 31.3288 406.224 31.8175 406.168C32.3061 406.105 32.6612 406.006 32.8828 405.869C33.1044 405.733 33.2152 405.511 33.2152 405.205V405.145C33.2152 404.401 33.005 403.824 32.5845 403.415C32.1697 403.006 31.5504 402.801 30.7266 402.801C29.8686 402.801 29.1925 402.991 28.6982 403.372C28.2095 403.747 27.8714 404.165 27.6839 404.625L25.2891 404.08C25.5732 403.284 25.9879 402.642 26.5334 402.153C27.0845 401.659 27.718 401.301 28.4339 401.08C29.1499 400.852 29.9027 400.739 30.6925 400.739C31.2152 400.739 31.7692 400.801 32.3544 400.926C32.9453 401.045 33.4964 401.267 34.0078 401.591C34.5249 401.915 34.9482 402.378 35.2777 402.98C35.6072 403.577 35.772 404.352 35.772 405.307V414H33.2834V412.21H33.1811C33.0163 412.54 32.7692 412.864 32.4396 413.182C32.1101 413.5 31.6868 413.764 31.1697 413.974C30.6527 414.185 30.0334 414.29 29.3118 414.29ZM29.8658 412.244C30.5703 412.244 31.1726 412.105 31.6726 411.827C32.1783 411.548 32.5618 411.185 32.8232 410.736C33.0902 410.281 33.2237 409.795 33.2237 409.278V407.591C33.1328 407.682 32.9567 407.767 32.6953 407.847C32.4396 407.92 32.147 407.986 31.8175 408.043C31.4879 408.094 31.1669 408.142 30.8544 408.188C30.5419 408.227 30.2805 408.261 30.0703 408.29C29.576 408.352 29.1243 408.457 28.7152 408.605C28.3118 408.753 27.9879 408.966 27.7436 409.244C27.505 409.517 27.3857 409.881 27.3857 410.335C27.3857 410.966 27.6186 411.443 28.0845 411.767C28.5504 412.085 29.1442 412.244 29.8658 412.244ZM41.7145 406.227V414H39.1662V400.909H41.6122V403.04H41.7741C42.0753 402.347 42.5469 401.79 43.1889 401.369C43.8366 400.949 44.652 400.739 45.6349 400.739C46.527 400.739 47.3082 400.926 47.9787 401.301C48.6491 401.67 49.169 402.222 49.5384 402.955C49.9077 403.687 50.0923 404.594 50.0923 405.673V414H47.544V405.98C47.544 405.031 47.2969 404.29 46.8026 403.756C46.3082 403.216 45.6293 402.946 44.7656 402.946C44.1747 402.946 43.6491 403.074 43.1889 403.33C42.7344 403.585 42.3736 403.96 42.1065 404.455C41.8452 404.943 41.7145 405.534 41.7145 406.227ZM58.4105 414.256C57.3537 414.256 56.4105 413.986 55.581 413.446C54.7571 412.901 54.1094 412.125 53.6378 411.119C53.1719 410.108 52.9389 408.895 52.9389 407.48C52.9389 406.065 53.1747 404.855 53.6463 403.849C54.1236 402.844 54.777 402.074 55.6065 401.54C56.4361 401.006 57.3764 400.739 58.4276 400.739C59.2401 400.739 59.8935 400.875 60.3878 401.148C60.8878 401.415 61.2741 401.727 61.5469 402.085C61.8253 402.443 62.0412 402.759 62.1946 403.031H62.348V396.545H64.8963V414H62.4077V411.963H62.1946C62.0412 412.241 61.8196 412.56 61.5298 412.918C61.2457 413.276 60.8537 413.588 60.3537 413.855C59.8537 414.122 59.206 414.256 58.4105 414.256ZM58.973 412.082C59.706 412.082 60.3253 411.889 60.831 411.503C61.3423 411.111 61.7287 410.568 61.9901 409.875C62.2571 409.182 62.3906 408.375 62.3906 407.455C62.3906 406.545 62.2599 405.75 61.9986 405.068C61.7372 404.386 61.3537 403.855 60.848 403.474C60.3423 403.094 59.7173 402.903 58.973 402.903C58.206 402.903 57.5668 403.102 57.0554 403.5C56.544 403.898 56.1577 404.44 55.8963 405.128C55.6406 405.815 55.5128 406.591 55.5128 407.455C55.5128 408.33 55.6435 409.116 55.9048 409.815C56.1662 410.514 56.5526 411.068 57.0639 411.477C57.581 411.881 58.2173 412.082 58.973 412.082ZM74.8849 414V400.909H77.331V403.04H77.4929C77.7656 402.318 78.2116 401.756 78.831 401.352C79.4503 400.943 80.1918 400.739 81.0554 400.739C81.9304 400.739 82.6634 400.943 83.2543 401.352C83.8509 401.761 84.2912 402.324 84.5753 403.04H84.7116C85.0241 402.341 85.5213 401.784 86.2031 401.369C86.8849 400.949 87.6974 400.739 88.6406 400.739C89.8281 400.739 90.7969 401.111 91.5469 401.855C92.3026 402.599 92.6804 403.722 92.6804 405.222V414H90.1321V405.46C90.1321 404.574 89.8906 403.932 89.4077 403.534C88.9247 403.136 88.348 402.938 87.6776 402.938C86.848 402.938 86.2031 403.193 85.7429 403.705C85.2827 404.21 85.0526 404.861 85.0526 405.656V414H82.5128V405.298C82.5128 404.588 82.2912 404.017 81.848 403.585C81.4048 403.153 80.8281 402.938 80.1179 402.938C79.6349 402.938 79.1889 403.065 78.7798 403.321C78.3764 403.571 78.0497 403.92 77.7997 404.369C77.5554 404.818 77.4332 405.338 77.4332 405.929V414H74.8849ZM99.9055 414.29C99.076 414.29 98.326 414.136 97.6555 413.83C96.9851 413.517 96.4538 413.065 96.0618 412.474C95.6754 411.884 95.4822 411.159 95.4822 410.301C95.4822 409.562 95.6243 408.955 95.9084 408.477C96.1925 408 96.576 407.622 97.0589 407.344C97.5419 407.065 98.0817 406.855 98.6783 406.713C99.2749 406.571 99.8828 406.463 100.502 406.389C101.286 406.298 101.923 406.224 102.411 406.168C102.9 406.105 103.255 406.006 103.477 405.869C103.698 405.733 103.809 405.511 103.809 405.205V405.145C103.809 404.401 103.599 403.824 103.178 403.415C102.763 403.006 102.144 402.801 101.32 402.801C100.462 402.801 99.7862 402.991 99.2919 403.372C98.8033 403.747 98.4652 404.165 98.2777 404.625L95.8828 404.08C96.1669 403.284 96.5817 402.642 97.1271 402.153C97.6783 401.659 98.3118 401.301 99.0277 401.08C99.7436 400.852 100.496 400.739 101.286 400.739C101.809 400.739 102.363 400.801 102.948 400.926C103.539 401.045 104.09 401.267 104.602 401.591C105.119 401.915 105.542 402.378 105.871 402.98C106.201 403.577 106.366 404.352 106.366 405.307V414H103.877V412.21H103.775C103.61 412.54 103.363 412.864 103.033 413.182C102.704 413.5 102.281 413.764 101.763 413.974C101.246 414.185 100.627 414.29 99.9055 414.29ZM100.46 412.244C101.164 412.244 101.766 412.105 102.266 411.827C102.772 411.548 103.156 411.185 103.417 410.736C103.684 410.281 103.817 409.795 103.817 409.278V407.591C103.727 407.682 103.55 407.767 103.289 407.847C103.033 407.92 102.741 407.986 102.411 408.043C102.082 408.094 101.761 408.142 101.448 408.188C101.136 408.227 100.874 408.261 100.664 408.29C100.17 408.352 99.718 408.457 99.3089 408.605C98.9055 408.753 98.5817 408.966 98.3374 409.244C98.0987 409.517 97.9794 409.881 97.9794 410.335C97.9794 410.966 98.2124 411.443 98.6783 411.767C99.1442 412.085 99.7379 412.244 100.46 412.244ZM112.104 409.56L112.087 406.449H112.53L117.746 400.909H120.797L114.848 407.216H114.447L112.104 409.56ZM109.76 414V396.545H112.308V414H109.76ZM118.027 414L113.339 407.778L115.095 405.997L121.155 414H118.027ZM128.222 414.264C126.933 414.264 125.822 413.989 124.89 413.438C123.964 412.881 123.248 412.099 122.742 411.094C122.242 410.082 121.992 408.898 121.992 407.54C121.992 406.199 122.242 405.017 122.742 403.994C123.248 402.972 123.952 402.173 124.856 401.599C125.765 401.026 126.827 400.739 128.043 400.739C128.782 400.739 129.498 400.861 130.191 401.105C130.884 401.349 131.506 401.733 132.058 402.256C132.609 402.778 133.043 403.457 133.362 404.293C133.68 405.122 133.839 406.131 133.839 407.318V408.222H123.433V406.312H131.342C131.342 405.642 131.205 405.048 130.933 404.531C130.66 404.009 130.276 403.597 129.782 403.295C129.293 402.994 128.719 402.844 128.06 402.844C127.344 402.844 126.719 403.02 126.185 403.372C125.657 403.719 125.248 404.173 124.958 404.736C124.674 405.293 124.532 405.898 124.532 406.551V408.043C124.532 408.918 124.685 409.662 124.992 410.276C125.305 410.889 125.739 411.358 126.296 411.682C126.853 412 127.504 412.159 128.248 412.159C128.731 412.159 129.171 412.091 129.569 411.955C129.967 411.812 130.31 411.602 130.6 411.324C130.89 411.045 131.112 410.702 131.265 410.293L133.677 410.727C133.484 411.437 133.137 412.06 132.637 412.594C132.143 413.122 131.521 413.534 130.771 413.83C130.026 414.119 129.177 414.264 128.222 414.264ZM149.129 400.909V402.955H141.978V400.909H149.129ZM143.896 397.773H146.444V410.156C146.444 410.651 146.518 411.023 146.665 411.273C146.813 411.517 147.004 411.685 147.237 411.776C147.475 411.861 147.734 411.903 148.012 411.903C148.217 411.903 148.396 411.889 148.549 411.861C148.702 411.832 148.822 411.81 148.907 411.793L149.367 413.898C149.219 413.955 149.009 414.011 148.737 414.068C148.464 414.131 148.123 414.165 147.714 414.17C147.043 414.182 146.418 414.062 145.839 413.812C145.259 413.562 144.79 413.176 144.433 412.653C144.075 412.131 143.896 411.474 143.896 410.685V397.773ZM154.777 406.227V414H152.229V396.545H154.743V403.04H154.905C155.212 402.335 155.68 401.776 156.311 401.361C156.942 400.946 157.766 400.739 158.783 400.739C159.68 400.739 160.464 400.923 161.135 401.293C161.811 401.662 162.334 402.213 162.703 402.946C163.078 403.673 163.266 404.582 163.266 405.673V414H160.717V405.98C160.717 405.02 160.47 404.276 159.976 403.747C159.482 403.213 158.794 402.946 157.913 402.946C157.311 402.946 156.771 403.074 156.294 403.33C155.822 403.585 155.45 403.96 155.178 404.455C154.911 404.943 154.777 405.534 154.777 406.227ZM172.308 414.264C171.018 414.264 169.908 413.989 168.976 413.438C168.05 412.881 167.334 412.099 166.828 411.094C166.328 410.082 166.078 408.898 166.078 407.54C166.078 406.199 166.328 405.017 166.828 403.994C167.334 402.972 168.038 402.173 168.942 401.599C169.851 401.026 170.913 400.739 172.129 400.739C172.868 400.739 173.584 400.861 174.277 401.105C174.97 401.349 175.592 401.733 176.143 402.256C176.695 402.778 177.129 403.457 177.447 404.293C177.766 405.122 177.925 406.131 177.925 407.318V408.222H167.518V406.312H175.428C175.428 405.642 175.291 405.048 175.018 404.531C174.746 404.009 174.362 403.597 173.868 403.295C173.379 402.994 172.805 402.844 172.146 402.844C171.43 402.844 170.805 403.02 170.271 403.372C169.743 403.719 169.334 404.173 169.044 404.736C168.76 405.293 168.618 405.898 168.618 406.551V408.043C168.618 408.918 168.771 409.662 169.078 410.276C169.391 410.889 169.825 411.358 170.382 411.682C170.939 412 171.589 412.159 172.334 412.159C172.817 412.159 173.257 412.091 173.655 411.955C174.053 411.812 174.396 411.602 174.686 411.324C174.976 411.045 175.197 410.702 175.351 410.293L177.763 410.727C177.57 411.437 177.223 412.06 176.723 412.594C176.229 413.122 175.607 413.534 174.857 413.83C174.112 414.119 173.263 414.264 172.308 414.264ZM187.104 414V400.909H189.652V414H187.104ZM188.391 398.889C187.947 398.889 187.567 398.741 187.249 398.446C186.936 398.145 186.78 397.787 186.78 397.372C186.78 396.952 186.936 396.594 187.249 396.298C187.567 395.997 187.947 395.847 188.391 395.847C188.834 395.847 189.212 395.997 189.524 396.298C189.842 396.594 190.001 396.952 190.001 397.372C190.001 397.787 189.842 398.145 189.524 398.446C189.212 398.741 188.834 398.889 188.391 398.889ZM195.629 406.227V414H193.08V400.909H195.526V403.04H195.688C195.989 402.347 196.461 401.79 197.103 401.369C197.751 400.949 198.566 400.739 199.549 400.739C200.441 400.739 201.222 400.926 201.893 401.301C202.563 401.67 203.083 402.222 203.452 402.955C203.822 403.687 204.006 404.594 204.006 405.673V414H201.458V405.98C201.458 405.031 201.211 404.29 200.717 403.756C200.222 403.216 199.543 402.946 198.68 402.946C198.089 402.946 197.563 403.074 197.103 403.33C196.648 403.585 196.288 403.96 196.021 404.455C195.759 404.943 195.629 405.534 195.629 406.227ZM213.654 400.909V402.955H206.256V400.909H213.654ZM208.285 414V399.392C208.285 398.574 208.464 397.895 208.822 397.355C209.18 396.81 209.654 396.403 210.245 396.136C210.836 395.864 211.478 395.727 212.171 395.727C212.683 395.727 213.12 395.77 213.484 395.855C213.847 395.935 214.117 396.009 214.293 396.077L213.697 398.139C213.577 398.105 213.424 398.065 213.237 398.02C213.049 397.969 212.822 397.943 212.555 397.943C211.935 397.943 211.492 398.097 211.225 398.403C210.964 398.71 210.833 399.153 210.833 399.733V414H208.285ZM221.282 414.264C220.055 414.264 218.984 413.983 218.069 413.42C217.154 412.858 216.444 412.071 215.938 411.06C215.433 410.048 215.18 408.866 215.18 407.514C215.18 406.156 215.433 404.969 215.938 403.952C216.444 402.935 217.154 402.145 218.069 401.582C218.984 401.02 220.055 400.739 221.282 400.739C222.509 400.739 223.58 401.02 224.495 401.582C225.41 402.145 226.12 402.935 226.626 403.952C227.131 404.969 227.384 406.156 227.384 407.514C227.384 408.866 227.131 410.048 226.626 411.06C226.12 412.071 225.41 412.858 224.495 413.42C223.58 413.983 222.509 414.264 221.282 414.264ZM221.29 412.125C222.086 412.125 222.745 411.915 223.268 411.494C223.79 411.074 224.177 410.514 224.427 409.815C224.683 409.116 224.81 408.347 224.81 407.506C224.81 406.67 224.683 405.903 224.427 405.205C224.177 404.5 223.79 403.935 223.268 403.509C222.745 403.082 222.086 402.869 221.29 402.869C220.489 402.869 219.825 403.082 219.296 403.509C218.773 403.935 218.384 404.5 218.129 405.205C217.879 405.903 217.754 406.67 217.754 407.506C217.754 408.347 217.879 409.116 218.129 409.815C218.384 410.514 218.773 411.074 219.296 411.494C219.825 411.915 220.489 412.125 221.29 412.125ZM230.229 414V400.909H232.692V402.989H232.828C233.067 402.284 233.487 401.73 234.089 401.327C234.697 400.918 235.385 400.713 236.152 400.713C236.311 400.713 236.499 400.719 236.714 400.73C236.936 400.741 237.109 400.756 237.234 400.773V403.21C237.132 403.182 236.95 403.151 236.689 403.116C236.428 403.077 236.166 403.057 235.905 403.057C235.303 403.057 234.766 403.185 234.294 403.44C233.828 403.69 233.459 404.04 233.186 404.489C232.913 404.932 232.777 405.437 232.777 406.006V414H230.229ZM239.44 414V400.909H241.886V403.04H242.048C242.32 402.318 242.766 401.756 243.386 401.352C244.005 400.943 244.746 400.739 245.61 400.739C246.485 400.739 247.218 400.943 247.809 401.352C248.406 401.761 248.846 402.324 249.13 403.04H249.266C249.579 402.341 250.076 401.784 250.758 401.369C251.44 400.949 252.252 400.739 253.195 400.739C254.383 400.739 255.352 401.111 256.102 401.855C256.857 402.599 257.235 403.722 257.235 405.222V414H254.687V405.46C254.687 404.574 254.445 403.932 253.962 403.534C253.479 403.136 252.903 402.938 252.232 402.938C251.403 402.938 250.758 403.193 250.298 403.705C249.837 404.21 249.607 404.861 249.607 405.656V414H247.067V405.298C247.067 404.588 246.846 404.017 246.403 403.585C245.96 403.153 245.383 402.938 244.673 402.938C244.19 402.938 243.744 403.065 243.335 403.321C242.931 403.571 242.604 403.92 242.354 404.369C242.11 404.818 241.988 405.338 241.988 405.929V414H239.44ZM264.46 414.29C263.631 414.29 262.881 414.136 262.21 413.83C261.54 413.517 261.009 413.065 260.616 412.474C260.23 411.884 260.037 411.159 260.037 410.301C260.037 409.562 260.179 408.955 260.463 408.477C260.747 408 261.131 407.622 261.614 407.344C262.097 407.065 262.636 406.855 263.233 406.713C263.83 406.571 264.438 406.463 265.057 406.389C265.841 406.298 266.477 406.224 266.966 406.168C267.455 406.105 267.81 406.006 268.031 405.869C268.253 405.733 268.364 405.511 268.364 405.205V405.145C268.364 404.401 268.153 403.824 267.733 403.415C267.318 403.006 266.699 402.801 265.875 402.801C265.017 402.801 264.341 402.991 263.847 403.372C263.358 403.747 263.02 404.165 262.832 404.625L260.438 404.08C260.722 403.284 261.136 402.642 261.682 402.153C262.233 401.659 262.866 401.301 263.582 401.08C264.298 400.852 265.051 400.739 265.841 400.739C266.364 400.739 266.918 400.801 267.503 400.926C268.094 401.045 268.645 401.267 269.156 401.591C269.673 401.915 270.097 402.378 270.426 402.98C270.756 403.577 270.92 404.352 270.92 405.307V414H268.432V412.21H268.33C268.165 412.54 267.918 412.864 267.588 413.182C267.259 413.5 266.835 413.764 266.318 413.974C265.801 414.185 265.182 414.29 264.46 414.29ZM265.014 412.244C265.719 412.244 266.321 412.105 266.821 411.827C267.327 411.548 267.71 411.185 267.972 410.736C268.239 410.281 268.372 409.795 268.372 409.278V407.591C268.281 407.682 268.105 407.767 267.844 407.847C267.588 407.92 267.295 407.986 266.966 408.043C266.636 408.094 266.315 408.142 266.003 408.188C265.69 408.227 265.429 408.261 265.219 408.29C264.724 408.352 264.273 408.457 263.864 408.605C263.46 408.753 263.136 408.966 262.892 409.244C262.653 409.517 262.534 409.881 262.534 410.335C262.534 410.966 262.767 411.443 263.233 411.767C263.699 412.085 264.293 412.244 265.014 412.244ZM280.425 400.909V402.955H273.275V400.909H280.425ZM275.192 397.773H277.741V410.156C277.741 410.651 277.815 411.023 277.962 411.273C278.11 411.517 278.3 411.685 278.533 411.776C278.772 411.861 279.031 411.903 279.309 411.903C279.513 411.903 279.692 411.889 279.846 411.861C279.999 411.832 280.119 411.81 280.204 411.793L280.664 413.898C280.516 413.955 280.306 414.011 280.033 414.068C279.761 414.131 279.42 414.165 279.011 414.17C278.34 414.182 277.715 414.062 277.136 413.812C276.556 413.562 276.087 413.176 275.729 412.653C275.371 412.131 275.192 411.474 275.192 410.685V397.773ZM283.244 414V400.909H285.793V414H283.244ZM284.531 398.889C284.088 398.889 283.707 398.741 283.389 398.446C283.077 398.145 282.92 397.787 282.92 397.372C282.92 396.952 283.077 396.594 283.389 396.298C283.707 395.997 284.088 395.847 284.531 395.847C284.974 395.847 285.352 395.997 285.665 396.298C285.983 396.594 286.142 396.952 286.142 397.372C286.142 397.787 285.983 398.145 285.665 398.446C285.352 398.741 284.974 398.889 284.531 398.889ZM294.735 414.264C293.508 414.264 292.437 413.983 291.522 413.42C290.607 412.858 289.897 412.071 289.391 411.06C288.886 410.048 288.633 408.866 288.633 407.514C288.633 406.156 288.886 404.969 289.391 403.952C289.897 402.935 290.607 402.145 291.522 401.582C292.437 401.02 293.508 400.739 294.735 400.739C295.962 400.739 297.033 401.02 297.948 401.582C298.863 402.145 299.573 402.935 300.079 403.952C300.585 404.969 300.837 406.156 300.837 407.514C300.837 408.866 300.585 410.048 300.079 411.06C299.573 412.071 298.863 412.858 297.948 413.42C297.033 413.983 295.962 414.264 294.735 414.264ZM294.744 412.125C295.539 412.125 296.198 411.915 296.721 411.494C297.244 411.074 297.63 410.514 297.88 409.815C298.136 409.116 298.263 408.347 298.263 407.506C298.263 406.67 298.136 405.903 297.88 405.205C297.63 404.5 297.244 403.935 296.721 403.509C296.198 403.082 295.539 402.869 294.744 402.869C293.942 402.869 293.278 403.082 292.749 403.509C292.227 403.935 291.837 404.5 291.582 405.205C291.332 405.903 291.207 406.67 291.207 407.506C291.207 408.347 291.332 409.116 291.582 409.815C291.837 410.514 292.227 411.074 292.749 411.494C293.278 411.915 293.942 412.125 294.744 412.125ZM306.23 406.227V414H303.682V400.909H306.128V403.04H306.29C306.591 402.347 307.063 401.79 307.705 401.369C308.352 400.949 309.168 400.739 310.151 400.739C311.043 400.739 311.824 400.926 312.494 401.301C313.165 401.67 313.685 402.222 314.054 402.955C314.423 403.687 314.608 404.594 314.608 405.673V414H312.06V405.98C312.06 405.031 311.813 404.29 311.318 403.756C310.824 403.216 310.145 402.946 309.281 402.946C308.69 402.946 308.165 403.074 307.705 403.33C307.25 403.585 306.889 403.96 306.622 404.455C306.361 404.943 306.23 405.534 306.23 406.227ZM334.187 404.105L331.877 404.514C331.781 404.219 331.627 403.937 331.417 403.67C331.212 403.403 330.934 403.185 330.582 403.014C330.229 402.844 329.789 402.759 329.261 402.759C328.539 402.759 327.937 402.92 327.454 403.244C326.971 403.562 326.729 403.974 326.729 404.48C326.729 404.918 326.891 405.27 327.215 405.537C327.539 405.804 328.062 406.023 328.783 406.193L330.863 406.67C332.067 406.949 332.965 407.378 333.556 407.957C334.147 408.537 334.442 409.29 334.442 410.216C334.442 411 334.215 411.699 333.761 412.312C333.312 412.92 332.684 413.398 331.877 413.744C331.076 414.091 330.147 414.264 329.09 414.264C327.624 414.264 326.428 413.952 325.502 413.327C324.576 412.696 324.008 411.801 323.798 410.642L326.261 410.267C326.414 410.909 326.729 411.395 327.207 411.724C327.684 412.048 328.306 412.21 329.073 412.21C329.908 412.21 330.576 412.037 331.076 411.69C331.576 411.338 331.826 410.909 331.826 410.403C331.826 409.994 331.673 409.651 331.366 409.372C331.065 409.094 330.602 408.884 329.977 408.741L327.761 408.256C326.539 407.977 325.636 407.534 325.05 406.926C324.471 406.318 324.181 405.548 324.181 404.616C324.181 403.844 324.397 403.168 324.829 402.588C325.261 402.009 325.857 401.557 326.619 401.233C327.38 400.903 328.252 400.739 329.235 400.739C330.65 400.739 331.763 401.045 332.576 401.659C333.388 402.267 333.925 403.082 334.187 404.105ZM343.355 400.909V402.955H336.205V400.909H343.355ZM338.122 397.773H340.67V410.156C340.67 410.651 340.744 411.023 340.892 411.273C341.04 411.517 341.23 411.685 341.463 411.776C341.702 411.861 341.96 411.903 342.239 411.903C342.443 411.903 342.622 411.889 342.776 411.861C342.929 411.832 343.048 411.81 343.134 411.793L343.594 413.898C343.446 413.955 343.236 414.011 342.963 414.068C342.69 414.131 342.349 414.165 341.94 414.17C341.27 414.182 340.645 414.062 340.065 413.812C339.486 413.562 339.017 413.176 338.659 412.653C338.301 412.131 338.122 411.474 338.122 410.685V397.773ZM346.174 414V400.909H348.722V414H346.174ZM347.461 398.889C347.018 398.889 346.637 398.741 346.319 398.446C346.006 398.145 345.85 397.787 345.85 397.372C345.85 396.952 346.006 396.594 346.319 396.298C346.637 395.997 347.018 395.847 347.461 395.847C347.904 395.847 348.282 395.997 348.594 396.298C348.913 396.594 349.072 396.952 349.072 397.372C349.072 397.787 348.913 398.145 348.594 398.446C348.282 398.741 347.904 398.889 347.461 398.889ZM357.665 414.264C356.398 414.264 355.307 413.977 354.392 413.403C353.483 412.824 352.784 412.026 352.295 411.009C351.807 409.991 351.562 408.827 351.562 407.514C351.562 406.185 351.812 405.011 352.312 403.994C352.812 402.972 353.517 402.173 354.426 401.599C355.335 401.026 356.406 400.739 357.639 400.739C358.634 400.739 359.52 400.923 360.298 401.293C361.077 401.656 361.705 402.168 362.182 402.827C362.665 403.486 362.952 404.256 363.043 405.136H360.562C360.426 404.523 360.114 403.994 359.625 403.551C359.142 403.108 358.494 402.886 357.682 402.886C356.972 402.886 356.349 403.074 355.815 403.449C355.287 403.818 354.875 404.347 354.58 405.034C354.284 405.716 354.136 406.523 354.136 407.455C354.136 408.409 354.281 409.233 354.571 409.926C354.861 410.619 355.27 411.156 355.798 411.537C356.332 411.918 356.96 412.108 357.682 412.108C358.165 412.108 358.602 412.02 358.994 411.844C359.392 411.662 359.724 411.403 359.991 411.068C360.264 410.733 360.455 410.33 360.562 409.858H363.043C362.952 410.705 362.676 411.46 362.216 412.125C361.756 412.79 361.139 413.312 360.366 413.693C359.599 414.074 358.699 414.264 357.665 414.264ZM368.112 409.56L368.094 406.449H368.538L373.754 400.909H376.805L370.856 407.216H370.455L368.112 409.56ZM365.768 414V396.545H368.316V414H365.768ZM374.035 414L369.347 407.778L371.103 405.997L377.163 414H374.035ZM380.806 414.162C380.34 414.162 379.94 413.997 379.604 413.668C379.269 413.332 379.102 412.929 379.102 412.457C379.102 411.991 379.269 411.594 379.604 411.264C379.94 410.929 380.34 410.761 380.806 410.761C381.272 410.761 381.673 410.929 382.008 411.264C382.343 411.594 382.511 411.991 382.511 412.457C382.511 412.77 382.431 413.057 382.272 413.318C382.119 413.574 381.914 413.778 381.658 413.932C381.403 414.085 381.119 414.162 380.806 414.162Z" fill="#5D5D5D"/>
<path d="M172.169 293.182H175.987L178.249 296.114L179.862 298.023L183.737 303H179.646L177.01 299.659L175.885 298.068L172.169 293.182ZM184.294 289.364C184.294 291.871 183.824 294.019 182.885 295.807C181.953 297.587 180.68 298.951 179.067 299.898C177.461 300.845 175.639 301.318 173.601 301.318C171.563 301.318 169.737 300.845 168.124 299.898C166.518 298.943 165.245 297.576 164.305 295.795C163.374 294.008 162.908 291.864 162.908 289.364C162.908 286.856 163.374 284.712 164.305 282.932C165.245 281.144 166.518 279.777 168.124 278.83C169.737 277.883 171.563 277.409 173.601 277.409C175.639 277.409 177.461 277.883 179.067 278.83C180.68 279.777 181.953 281.144 182.885 282.932C183.824 284.712 184.294 286.856 184.294 289.364ZM180.055 289.364C180.055 287.598 179.779 286.11 179.226 284.898C178.68 283.678 177.923 282.758 176.953 282.136C175.983 281.508 174.866 281.193 173.601 281.193C172.336 281.193 171.218 281.508 170.249 282.136C169.279 282.758 168.518 283.678 167.964 284.898C167.419 286.11 167.146 287.598 167.146 289.364C167.146 291.129 167.419 292.621 167.964 293.841C168.518 295.053 169.279 295.973 170.249 296.602C171.218 297.223 172.336 297.534 173.601 297.534C174.866 297.534 175.983 297.223 176.953 296.602C177.923 295.973 178.68 295.053 179.226 293.841C179.779 292.621 180.055 291.129 180.055 289.364ZM199.254 293.659V283.545H203.368V301H199.379V297.898H199.197C198.804 298.875 198.156 299.674 197.254 300.295C196.36 300.917 195.258 301.227 193.947 301.227C192.804 301.227 191.792 300.973 190.913 300.466C190.042 299.951 189.36 299.205 188.868 298.227C188.375 297.242 188.129 296.053 188.129 294.659V283.545H192.243V294.023C192.243 295.129 192.546 296.008 193.152 296.659C193.758 297.311 194.554 297.636 195.538 297.636C196.144 297.636 196.732 297.489 197.3 297.193C197.868 296.898 198.334 296.458 198.697 295.875C199.069 295.284 199.254 294.545 199.254 293.659ZM207.598 301V283.545H211.712V301H207.598ZM209.666 281.068C209.015 281.068 208.454 280.852 207.984 280.42C207.515 279.981 207.28 279.455 207.28 278.841C207.28 278.22 207.515 277.693 207.984 277.261C208.454 276.822 209.015 276.602 209.666 276.602C210.325 276.602 210.886 276.822 211.348 277.261C211.818 277.693 212.053 278.22 212.053 278.841C212.053 279.455 211.818 279.981 211.348 280.42C210.886 280.852 210.325 281.068 209.666 281.068ZM215.714 301V298.386L224.714 287.102V286.955H216.01V283.545H229.749V286.352L221.18 297.443V297.591H230.044V301H215.714Z" fill="#272727"/>
<defs>
<linearGradient id="paint0_linear_2014_450" x1="173.5" y1="171.03" x2="196.954" y2="237.687" gradientUnits="userSpaceOnUse">
<stop stop-color="#A4B737"/>
<stop offset="1" stop-color="#00BB05"/>
</linearGradient>
<clipPath id="clip0_2014_450">
<rect width="70" height="70" fill="white" transform="translate(168 183)"/>
</clipPath>
</defs>
</svg>
