<svg width="408" height="446" viewBox="0 0 408 446" fill="none" xmlns="http://www.w3.org/2000/svg">
<rect width="408" height="446" rx="26" fill="#F2F2F2" fill-opacity="0.7"/>
<path d="M171.86 178.829L174.536 178.83L178.861 184.971L184.848 189.835L176.199 195.021L174.536 187.565L171.244 180.875L171.86 178.829Z" fill="url(#paint0_linear_2014_435)" fill-opacity="0.81"/>
<path d="M235.895 178.994L236.86 181.359L232.374 187.396L229.746 194.44L221.52 188.67L228.261 184.51L233.658 179.188L235.895 178.994Z" fill="url(#paint1_linear_2014_435)" fill-opacity="0.81"/>
<ellipse cx="203.014" cy="217.104" rx="37.0137" ry="33.896" fill="url(#paint2_linear_2014_435)" fill-opacity="0.81"/>
<g filter="url(#filter1_d_2014_435)">
<path d="M179.572 217.554C179.572 211.862 184.186 207.248 189.878 207.248H214.917C221.29 207.248 226.456 212.414 226.456 218.786C226.456 224.111 222.812 228.744 217.637 229.999L203.039 233.54C203.022 233.544 203.005 233.546 202.987 233.546C202.844 233.546 202.739 233.412 202.773 233.273L203.917 228.661C203.931 228.602 203.96 228.547 204 228.501C204.217 228.25 204.04 227.86 203.708 227.86H187.399C183.076 227.86 179.572 224.356 179.572 220.033V217.554Z" fill="#FEFBFB"/>
</g>
<ellipse cx="215.044" cy="218.94" rx="4.00982" ry="4.0909" fill="#2F2E41"/>
<ellipse cx="189.135" cy="218.94" rx="4.00982" ry="4.0909" fill="#2F2E41"/>
<path d="M17.1616 352H14.3661L20.6474 334.545H23.69L29.9712 352H27.1758L22.2411 337.716H22.1048L17.1616 352ZM17.6303 345.165H26.6985V347.381H17.6303V345.165ZM42.0032 342.105L39.6935 342.514C39.5969 342.219 39.4435 341.937 39.2333 341.67C39.0288 341.403 38.7504 341.185 38.3981 341.014C38.0458 340.844 37.6055 340.759 37.0771 340.759C36.3555 340.759 35.7532 340.92 35.2702 341.244C34.7873 341.562 34.5458 341.974 34.5458 342.48C34.5458 342.918 34.7077 343.27 35.0316 343.537C35.3555 343.804 35.8782 344.023 36.5998 344.193L38.6793 344.67C39.8839 344.949 40.7816 345.378 41.3725 345.957C41.9634 346.537 42.2589 347.29 42.2589 348.216C42.2589 349 42.0316 349.699 41.5771 350.312C41.1282 350.92 40.5004 351.398 39.6935 351.744C38.8924 352.091 37.9634 352.264 36.9066 352.264C35.4407 352.264 34.2447 351.952 33.3185 351.327C32.3924 350.696 31.8242 349.801 31.614 348.642L34.0771 348.267C34.2305 348.909 34.5458 349.395 35.0231 349.724C35.5004 350.048 36.1225 350.21 36.8896 350.21C37.7248 350.21 38.3924 350.037 38.8924 349.69C39.3924 349.338 39.6424 348.909 39.6424 348.403C39.6424 347.994 39.489 347.651 39.1822 347.372C38.881 347.094 38.418 346.884 37.793 346.741L35.5771 346.256C34.3555 345.977 33.4521 345.534 32.8668 344.926C32.2873 344.318 31.9975 343.548 31.9975 342.616C31.9975 341.844 32.2134 341.168 32.6452 340.588C33.0771 340.009 33.6737 339.557 34.435 339.233C35.1964 338.903 36.0685 338.739 37.0515 338.739C38.4663 338.739 39.5799 339.045 40.3924 339.659C41.2049 340.267 41.7418 341.082 42.0032 342.105ZM47.4045 347.56L47.3874 344.449H47.8306L53.0465 338.909H56.0977L50.1488 345.216H49.7482L47.4045 347.56ZM45.0607 352V334.545H47.609V352H45.0607ZM53.3278 352L48.6403 345.778L50.396 343.997L56.4556 352H53.3278ZM70.2859 352.264C69.0586 352.264 67.9876 351.983 67.0728 351.42C66.158 350.858 65.4478 350.071 64.9421 349.06C64.4364 348.048 64.1836 346.866 64.1836 345.514C64.1836 344.156 64.4364 342.969 64.9421 341.952C65.4478 340.935 66.158 340.145 67.0728 339.582C67.9876 339.02 69.0586 338.739 70.2859 338.739C71.5131 338.739 72.5842 339.02 73.4989 339.582C74.4137 340.145 75.1239 340.935 75.6296 341.952C76.1353 342.969 76.3881 344.156 76.3881 345.514C76.3881 346.866 76.1353 348.048 75.6296 349.06C75.1239 350.071 74.4137 350.858 73.4989 351.42C72.5842 351.983 71.5131 352.264 70.2859 352.264ZM70.2944 350.125C71.0898 350.125 71.7489 349.915 72.2717 349.494C72.7944 349.074 73.1808 348.514 73.4308 347.815C73.6864 347.116 73.8143 346.347 73.8143 345.506C73.8143 344.67 73.6864 343.903 73.4308 343.205C73.1808 342.5 72.7944 341.935 72.2717 341.509C71.7489 341.082 71.0898 340.869 70.2944 340.869C69.4933 340.869 68.8285 341.082 68.3001 341.509C67.7773 341.935 67.3881 342.5 67.1325 343.205C66.8825 343.903 66.7575 344.67 66.7575 345.506C66.7575 346.347 66.8825 347.116 67.1325 347.815C67.3881 348.514 67.7773 349.074 68.3001 349.494C68.8285 349.915 69.4933 350.125 70.2944 350.125ZM87.5252 346.571V338.909H90.082V352H87.5763V349.733H87.44C87.1388 350.432 86.6559 351.014 85.9911 351.48C85.332 351.94 84.511 352.17 83.5281 352.17C82.6871 352.17 81.9428 351.986 81.2951 351.616C80.6531 351.241 80.1474 350.688 79.7781 349.955C79.4144 349.222 79.2326 348.315 79.2326 347.236V338.909H81.7809V346.929C81.7809 347.821 82.0281 348.531 82.5224 349.06C83.0167 349.588 83.6587 349.852 84.4485 349.852C84.9258 349.852 85.4002 349.733 85.8718 349.494C86.3491 349.256 86.744 348.895 87.0565 348.412C87.3746 347.929 87.5309 347.315 87.5252 346.571ZM93.506 352V338.909H95.9691V340.989H96.1055C96.3441 340.284 96.7646 339.73 97.3668 339.327C97.9748 338.918 98.6623 338.713 99.4293 338.713C99.5884 338.713 99.7759 338.719 99.9918 338.73C100.213 338.741 100.387 338.756 100.512 338.773V341.21C100.409 341.182 100.228 341.151 99.9663 341.116C99.7049 341.077 99.4435 341.057 99.1822 341.057C98.5799 341.057 98.043 341.185 97.5714 341.44C97.1055 341.69 96.7362 342.04 96.4634 342.489C96.1907 342.932 96.0543 343.437 96.0543 344.006V352H93.506ZM108.412 336.812V334.545H121.921V336.812H116.475V352H113.85V336.812H108.412ZM131.213 346.571V338.909H133.77V352H131.264V349.733H131.127C130.826 350.432 130.343 351.014 129.679 351.48C129.02 351.94 128.199 352.17 127.216 352.17C126.375 352.17 125.63 351.986 124.983 351.616C124.341 351.241 123.835 350.688 123.466 349.955C123.102 349.222 122.92 348.315 122.92 347.236V338.909H125.468V346.929C125.468 347.821 125.716 348.531 126.21 349.06C126.704 349.588 127.346 349.852 128.136 349.852C128.613 349.852 129.088 349.733 129.559 349.494C130.037 349.256 130.431 348.895 130.744 348.412C131.062 347.929 131.218 347.315 131.213 346.571ZM143.304 338.909V340.955H136.154V338.909H143.304ZM138.071 335.773H140.62V348.156C140.62 348.651 140.694 349.023 140.841 349.273C140.989 349.517 141.179 349.685 141.412 349.776C141.651 349.861 141.909 349.903 142.188 349.903C142.392 349.903 142.571 349.889 142.725 349.861C142.878 349.832 142.998 349.81 143.083 349.793L143.543 351.898C143.395 351.955 143.185 352.011 142.912 352.068C142.64 352.131 142.299 352.165 141.89 352.17C141.219 352.182 140.594 352.062 140.015 351.812C139.435 351.562 138.966 351.176 138.608 350.653C138.25 350.131 138.071 349.474 138.071 348.685V335.773ZM151.497 352.264C150.27 352.264 149.199 351.983 148.284 351.42C147.369 350.858 146.659 350.071 146.153 349.06C145.647 348.048 145.395 346.866 145.395 345.514C145.395 344.156 145.647 342.969 146.153 341.952C146.659 340.935 147.369 340.145 148.284 339.582C149.199 339.02 150.27 338.739 151.497 338.739C152.724 338.739 153.795 339.02 154.71 339.582C155.625 340.145 156.335 340.935 156.841 341.952C157.346 342.969 157.599 344.156 157.599 345.514C157.599 346.866 157.346 348.048 156.841 349.06C156.335 350.071 155.625 350.858 154.71 351.42C153.795 351.983 152.724 352.264 151.497 352.264ZM151.505 350.125C152.301 350.125 152.96 349.915 153.483 349.494C154.005 349.074 154.392 348.514 154.642 347.815C154.897 347.116 155.025 346.347 155.025 345.506C155.025 344.67 154.897 343.903 154.642 343.205C154.392 342.5 154.005 341.935 153.483 341.509C152.96 341.082 152.301 340.869 151.505 340.869C150.704 340.869 150.039 341.082 149.511 341.509C148.988 341.935 148.599 342.5 148.343 343.205C148.093 343.903 147.968 344.67 147.968 345.506C147.968 346.347 148.093 347.116 148.343 347.815C148.599 348.514 148.988 349.074 149.511 349.494C150.039 349.915 150.704 350.125 151.505 350.125ZM160.444 352V338.909H162.907V340.989H163.043C163.282 340.284 163.702 339.73 164.304 339.327C164.912 338.918 165.6 338.713 166.367 338.713C166.526 338.713 166.713 338.719 166.929 338.73C167.151 338.741 167.324 338.756 167.449 338.773V341.21C167.347 341.182 167.165 341.151 166.904 341.116C166.642 341.077 166.381 341.057 166.12 341.057C165.517 341.057 164.98 341.185 164.509 341.44C164.043 341.69 163.674 342.04 163.401 342.489C163.128 342.932 162.992 343.437 162.992 344.006V352H160.444ZM179.816 352.29C178.986 352.29 178.236 352.136 177.566 351.83C176.895 351.517 176.364 351.065 175.972 350.474C175.586 349.884 175.392 349.159 175.392 348.301C175.392 347.562 175.534 346.955 175.819 346.477C176.103 346 176.486 345.622 176.969 345.344C177.452 345.065 177.992 344.855 178.588 344.713C179.185 344.571 179.793 344.463 180.412 344.389C181.196 344.298 181.833 344.224 182.321 344.168C182.81 344.105 183.165 344.006 183.387 343.869C183.608 343.733 183.719 343.511 183.719 343.205V343.145C183.719 342.401 183.509 341.824 183.088 341.415C182.674 341.006 182.054 340.801 181.23 340.801C180.373 340.801 179.696 340.991 179.202 341.372C178.713 341.747 178.375 342.165 178.188 342.625L175.793 342.08C176.077 341.284 176.492 340.642 177.037 340.153C177.588 339.659 178.222 339.301 178.938 339.08C179.654 338.852 180.407 338.739 181.196 338.739C181.719 338.739 182.273 338.801 182.858 338.926C183.449 339.045 184 339.267 184.512 339.591C185.029 339.915 185.452 340.378 185.782 340.98C186.111 341.577 186.276 342.352 186.276 343.307V352H183.787V350.21H183.685C183.52 350.54 183.273 350.864 182.944 351.182C182.614 351.5 182.191 351.764 181.674 351.974C181.157 352.185 180.537 352.29 179.816 352.29ZM180.37 350.244C181.074 350.244 181.676 350.105 182.176 349.827C182.682 349.548 183.066 349.185 183.327 348.736C183.594 348.281 183.728 347.795 183.728 347.278V345.591C183.637 345.682 183.461 345.767 183.199 345.847C182.944 345.92 182.651 345.986 182.321 346.043C181.992 346.094 181.671 346.142 181.358 346.188C181.046 346.227 180.784 346.261 180.574 346.29C180.08 346.352 179.628 346.457 179.219 346.605C178.816 346.753 178.492 346.966 178.248 347.244C178.009 347.517 177.89 347.881 177.89 348.335C177.89 348.966 178.123 349.443 178.588 349.767C179.054 350.085 179.648 350.244 180.37 350.244ZM192.218 344.227V352H189.67V338.909H192.116V341.04H192.278C192.579 340.347 193.051 339.79 193.693 339.369C194.341 338.949 195.156 338.739 196.139 338.739C197.031 338.739 197.812 338.926 198.483 339.301C199.153 339.67 199.673 340.222 200.042 340.955C200.412 341.687 200.596 342.594 200.596 343.673V352H198.048V343.98C198.048 343.031 197.801 342.29 197.306 341.756C196.812 341.216 196.133 340.946 195.27 340.946C194.679 340.946 194.153 341.074 193.693 341.33C193.238 341.585 192.877 341.96 192.61 342.455C192.349 342.943 192.218 343.534 192.218 344.227ZM205.156 356.909C204.775 356.909 204.429 356.878 204.116 356.815C203.804 356.759 203.571 356.696 203.417 356.628L204.031 354.54C204.497 354.665 204.912 354.719 205.275 354.702C205.639 354.685 205.96 354.548 206.238 354.293C206.522 354.037 206.772 353.619 206.988 353.04L207.304 352.17L202.514 338.909H205.241L208.556 349.068H208.693L212.008 338.909H214.744L209.349 353.747C209.099 354.429 208.781 355.006 208.395 355.477C208.008 355.955 207.548 356.313 207.014 356.551C206.48 356.79 205.86 356.909 205.156 356.909ZM232.328 356.909V349.963H232.175C232.022 350.241 231.8 350.56 231.51 350.918C231.226 351.276 230.834 351.588 230.334 351.855C229.834 352.122 229.186 352.256 228.391 352.256C227.334 352.256 226.391 351.986 225.561 351.446C224.738 350.901 224.09 350.125 223.618 349.119C223.152 348.108 222.919 346.895 222.919 345.48C222.919 344.065 223.155 342.855 223.627 341.849C224.104 340.844 224.757 340.074 225.587 339.54C226.417 339.006 227.357 338.739 228.408 338.739C229.221 338.739 229.874 338.875 230.368 339.148C230.868 339.415 231.255 339.727 231.527 340.085C231.806 340.443 232.022 340.759 232.175 341.031H232.388V338.909H234.877V356.909H232.328ZM228.953 350.082C229.686 350.082 230.306 349.889 230.811 349.503C231.323 349.111 231.709 348.568 231.971 347.875C232.238 347.182 232.371 346.375 232.371 345.455C232.371 344.545 232.24 343.75 231.979 343.068C231.718 342.386 231.334 341.855 230.828 341.474C230.323 341.094 229.698 340.903 228.953 340.903C228.186 340.903 227.547 341.102 227.036 341.5C226.525 341.898 226.138 342.44 225.877 343.128C225.621 343.815 225.493 344.591 225.493 345.455C225.493 346.33 225.624 347.116 225.885 347.815C226.147 348.514 226.533 349.068 227.044 349.477C227.561 349.881 228.198 350.082 228.953 350.082ZM246.596 346.571V338.909H249.152V352H246.647V349.733H246.51C246.209 350.432 245.726 351.014 245.061 351.48C244.402 351.94 243.581 352.17 242.598 352.17C241.757 352.17 241.013 351.986 240.365 351.616C239.723 351.241 239.218 350.688 238.848 349.955C238.485 349.222 238.303 348.315 238.303 347.236V338.909H240.851V346.929C240.851 347.821 241.098 348.531 241.593 349.06C242.087 349.588 242.729 349.852 243.519 349.852C243.996 349.852 244.471 349.733 244.942 349.494C245.419 349.256 245.814 348.895 246.127 348.412C246.445 347.929 246.601 347.315 246.596 346.571ZM258.218 352.264C256.929 352.264 255.818 351.989 254.886 351.438C253.96 350.881 253.244 350.099 252.738 349.094C252.238 348.082 251.988 346.898 251.988 345.54C251.988 344.199 252.238 343.017 252.738 341.994C253.244 340.972 253.949 340.173 254.852 339.599C255.761 339.026 256.824 338.739 258.039 338.739C258.778 338.739 259.494 338.861 260.187 339.105C260.88 339.349 261.502 339.733 262.054 340.256C262.605 340.778 263.039 341.457 263.358 342.293C263.676 343.122 263.835 344.131 263.835 345.318V346.222H253.429V344.312H261.338C261.338 343.642 261.201 343.048 260.929 342.531C260.656 342.009 260.272 341.597 259.778 341.295C259.289 340.994 258.716 340.844 258.056 340.844C257.341 340.844 256.716 341.02 256.181 341.372C255.653 341.719 255.244 342.173 254.954 342.736C254.67 343.293 254.528 343.898 254.528 344.551V346.043C254.528 346.918 254.681 347.662 254.988 348.276C255.301 348.889 255.735 349.358 256.292 349.682C256.849 350 257.5 350.159 258.244 350.159C258.727 350.159 259.167 350.091 259.565 349.955C259.963 349.812 260.306 349.602 260.596 349.324C260.886 349.045 261.108 348.702 261.261 348.293L263.673 348.727C263.48 349.437 263.133 350.06 262.633 350.594C262.139 351.122 261.517 351.534 260.767 351.83C260.022 352.119 259.173 352.264 258.218 352.264ZM276.472 342.105L274.162 342.514C274.066 342.219 273.912 341.937 273.702 341.67C273.498 341.403 273.219 341.185 272.867 341.014C272.515 340.844 272.074 340.759 271.546 340.759C270.824 340.759 270.222 340.92 269.739 341.244C269.256 341.562 269.015 341.974 269.015 342.48C269.015 342.918 269.176 343.27 269.5 343.537C269.824 343.804 270.347 344.023 271.069 344.193L273.148 344.67C274.353 344.949 275.25 345.378 275.841 345.957C276.432 346.537 276.728 347.29 276.728 348.216C276.728 349 276.5 349.699 276.046 350.312C275.597 350.92 274.969 351.398 274.162 351.744C273.361 352.091 272.432 352.264 271.375 352.264C269.909 352.264 268.713 351.952 267.787 351.327C266.861 350.696 266.293 349.801 266.083 348.642L268.546 348.267C268.699 348.909 269.015 349.395 269.492 349.724C269.969 350.048 270.591 350.21 271.358 350.21C272.194 350.21 272.861 350.037 273.361 349.69C273.861 349.338 274.111 348.909 274.111 348.403C274.111 347.994 273.958 347.651 273.651 347.372C273.35 347.094 272.887 346.884 272.262 346.741L270.046 346.256C268.824 345.977 267.921 345.534 267.336 344.926C266.756 344.318 266.466 343.548 266.466 342.616C266.466 341.844 266.682 341.168 267.114 340.588C267.546 340.009 268.142 339.557 268.904 339.233C269.665 338.903 270.537 338.739 271.52 338.739C272.935 338.739 274.049 339.045 274.861 339.659C275.674 340.267 276.211 341.082 276.472 342.105ZM285.64 338.909V340.955H278.49V338.909H285.64ZM280.407 335.773H282.956V348.156C282.956 348.651 283.029 349.023 283.177 349.273C283.325 349.517 283.515 349.685 283.748 349.776C283.987 349.861 284.245 349.903 284.524 349.903C284.728 349.903 284.907 349.889 285.061 349.861C285.214 349.832 285.333 349.81 285.419 349.793L285.879 351.898C285.731 351.955 285.521 352.011 285.248 352.068C284.975 352.131 284.635 352.165 284.225 352.17C283.555 352.182 282.93 352.062 282.35 351.812C281.771 351.562 281.302 351.176 280.944 350.653C280.586 350.131 280.407 349.474 280.407 348.685V335.773ZM288.459 352V338.909H291.007V352H288.459ZM289.746 336.889C289.303 336.889 288.922 336.741 288.604 336.446C288.292 336.145 288.135 335.787 288.135 335.372C288.135 334.952 288.292 334.594 288.604 334.298C288.922 333.997 289.303 333.847 289.746 333.847C290.189 333.847 290.567 333.997 290.88 334.298C291.198 334.594 291.357 334.952 291.357 335.372C291.357 335.787 291.198 336.145 290.88 336.446C290.567 336.741 290.189 336.889 289.746 336.889ZM299.95 352.264C298.723 352.264 297.652 351.983 296.737 351.42C295.822 350.858 295.112 350.071 294.606 349.06C294.1 348.048 293.848 346.866 293.848 345.514C293.848 344.156 294.1 342.969 294.606 341.952C295.112 340.935 295.822 340.145 296.737 339.582C297.652 339.02 298.723 338.739 299.95 338.739C301.177 338.739 302.248 339.02 303.163 339.582C304.078 340.145 304.788 340.935 305.294 341.952C305.799 342.969 306.052 344.156 306.052 345.514C306.052 346.866 305.799 348.048 305.294 349.06C304.788 350.071 304.078 350.858 303.163 351.42C302.248 351.983 301.177 352.264 299.95 352.264ZM299.958 350.125C300.754 350.125 301.413 349.915 301.936 349.494C302.458 349.074 302.845 348.514 303.095 347.815C303.35 347.116 303.478 346.347 303.478 345.506C303.478 344.67 303.35 343.903 303.095 343.205C302.845 342.5 302.458 341.935 301.936 341.509C301.413 341.082 300.754 340.869 299.958 340.869C299.157 340.869 298.493 341.082 297.964 341.509C297.441 341.935 297.052 342.5 296.797 343.205C296.547 343.903 296.422 344.67 296.422 345.506C296.422 346.347 296.547 347.116 296.797 347.815C297.052 348.514 297.441 349.074 297.964 349.494C298.493 349.915 299.157 350.125 299.958 350.125ZM311.445 344.227V352H308.897V338.909H311.343V341.04H311.505C311.806 340.347 312.277 339.79 312.919 339.369C313.567 338.949 314.382 338.739 315.365 338.739C316.257 338.739 317.039 338.926 317.709 339.301C318.38 339.67 318.9 340.222 319.269 340.955C319.638 341.687 319.823 342.594 319.823 343.673V352H317.275V343.98C317.275 343.031 317.027 342.29 316.533 341.756C316.039 341.216 315.36 340.946 314.496 340.946C313.905 340.946 313.38 341.074 312.919 341.33C312.465 341.585 312.104 341.96 311.837 342.455C311.576 342.943 311.445 343.534 311.445 344.227ZM333.402 352.29C332.572 352.29 331.822 352.136 331.152 351.83C330.481 351.517 329.95 351.065 329.558 350.474C329.172 349.884 328.978 349.159 328.978 348.301C328.978 347.562 329.12 346.955 329.404 346.477C329.689 346 330.072 345.622 330.555 345.344C331.038 345.065 331.578 344.855 332.174 344.713C332.771 344.571 333.379 344.463 333.998 344.389C334.782 344.298 335.419 344.224 335.907 344.168C336.396 344.105 336.751 344.006 336.973 343.869C337.194 343.733 337.305 343.511 337.305 343.205V343.145C337.305 342.401 337.095 341.824 336.674 341.415C336.26 341.006 335.64 340.801 334.816 340.801C333.958 340.801 333.282 340.991 332.788 341.372C332.299 341.747 331.961 342.165 331.774 342.625L329.379 342.08C329.663 341.284 330.078 340.642 330.623 340.153C331.174 339.659 331.808 339.301 332.524 339.08C333.24 338.852 333.993 338.739 334.782 338.739C335.305 338.739 335.859 338.801 336.444 338.926C337.035 339.045 337.586 339.267 338.098 339.591C338.615 339.915 339.038 340.378 339.368 340.98C339.697 341.577 339.862 342.352 339.862 343.307V352H337.373V350.21H337.271C337.106 350.54 336.859 350.864 336.529 351.182C336.2 351.5 335.777 351.764 335.26 351.974C334.743 352.185 334.123 352.29 333.402 352.29ZM333.956 350.244C334.66 350.244 335.262 350.105 335.762 349.827C336.268 349.548 336.652 349.185 336.913 348.736C337.18 348.281 337.314 347.795 337.314 347.278V345.591C337.223 345.682 337.047 345.767 336.785 345.847C336.529 345.92 336.237 345.986 335.907 346.043C335.578 346.094 335.257 346.142 334.944 346.188C334.632 346.227 334.37 346.261 334.16 346.29C333.666 346.352 333.214 346.457 332.805 346.605C332.402 346.753 332.078 346.966 331.833 347.244C331.595 347.517 331.475 347.881 331.475 348.335C331.475 348.966 331.708 349.443 332.174 349.767C332.64 350.085 333.234 350.244 333.956 350.244ZM343.461 352V334.545H346.009V341.031H346.162C346.31 340.759 346.523 340.443 346.801 340.085C347.08 339.727 347.466 339.415 347.961 339.148C348.455 338.875 349.108 338.739 349.921 338.739C350.978 338.739 351.921 339.006 352.75 339.54C353.58 340.074 354.23 340.844 354.702 341.849C355.179 342.855 355.418 344.065 355.418 345.48C355.418 346.895 355.182 348.108 354.711 349.119C354.239 350.125 353.591 350.901 352.767 351.446C351.944 351.986 351.003 352.256 349.946 352.256C349.151 352.256 348.5 352.122 347.995 351.855C347.495 351.588 347.103 351.276 346.819 350.918C346.534 350.56 346.316 350.241 346.162 349.963H345.949V352H343.461ZM345.958 345.455C345.958 346.375 346.091 347.182 346.358 347.875C346.625 348.568 347.012 349.111 347.517 349.503C348.023 349.889 348.642 350.082 349.375 350.082C350.137 350.082 350.773 349.881 351.284 349.477C351.796 349.068 352.182 348.514 352.444 347.815C352.711 347.116 352.844 346.33 352.844 345.455C352.844 344.591 352.713 343.815 352.452 343.128C352.196 342.44 351.81 341.898 351.293 341.5C350.782 341.102 350.142 340.903 349.375 340.903C348.637 340.903 348.012 341.094 347.5 341.474C346.995 341.855 346.611 342.386 346.35 343.068C346.088 343.75 345.958 344.545 345.958 345.455ZM363.794 352.264C362.566 352.264 361.495 351.983 360.581 351.42C359.666 350.858 358.956 350.071 358.45 349.06C357.944 348.048 357.691 346.866 357.691 345.514C357.691 344.156 357.944 342.969 358.45 341.952C358.956 340.935 359.666 340.145 360.581 339.582C361.495 339.02 362.566 338.739 363.794 338.739C365.021 338.739 366.092 339.02 367.007 339.582C367.922 340.145 368.632 340.935 369.137 341.952C369.643 342.969 369.896 344.156 369.896 345.514C369.896 346.866 369.643 348.048 369.137 349.06C368.632 350.071 367.922 350.858 367.007 351.42C366.092 351.983 365.021 352.264 363.794 352.264ZM363.802 350.125C364.598 350.125 365.257 349.915 365.779 349.494C366.302 349.074 366.689 348.514 366.939 347.815C367.194 347.116 367.322 346.347 367.322 345.506C367.322 344.67 367.194 343.903 366.939 343.205C366.689 342.5 366.302 341.935 365.779 341.509C365.257 341.082 364.598 340.869 363.802 340.869C363.001 340.869 362.336 341.082 361.808 341.509C361.285 341.935 360.896 342.5 360.64 343.205C360.39 343.903 360.265 344.67 360.265 345.506C360.265 346.347 360.39 347.116 360.64 347.815C360.896 348.514 361.285 349.074 361.808 349.494C362.336 349.915 363.001 350.125 363.802 350.125ZM381.033 346.571V338.909H383.59V352H381.084V349.733H380.948C380.647 350.432 380.164 351.014 379.499 351.48C378.84 351.94 378.019 352.17 377.036 352.17C376.195 352.17 375.451 351.986 374.803 351.616C374.161 351.241 373.655 350.688 373.286 349.955C372.922 349.222 372.74 348.315 372.74 347.236V338.909H375.289V346.929C375.289 347.821 375.536 348.531 376.03 349.06C376.525 349.588 377.167 349.852 377.956 349.852C378.434 349.852 378.908 349.733 379.38 349.494C379.857 349.256 380.252 348.895 380.564 348.412C380.882 347.929 381.039 347.315 381.033 346.571ZM393.125 338.909V340.955H385.974V338.909H393.125ZM387.892 335.773H390.44V348.156C390.44 348.651 390.514 349.023 390.662 349.273C390.809 349.517 391 349.685 391.233 349.776C391.471 349.861 391.73 349.903 392.008 349.903C392.213 349.903 392.392 349.889 392.545 349.861C392.699 349.832 392.818 349.81 392.903 349.793L393.363 351.898C393.216 351.955 393.005 352.011 392.733 352.068C392.46 352.131 392.119 352.165 391.71 352.17C391.039 352.182 390.414 352.062 389.835 351.812C389.255 351.562 388.787 351.176 388.429 350.653C388.071 350.131 387.892 349.474 387.892 348.685V335.773ZM54.5465 367.909V369.955H47.396V367.909H54.5465ZM49.3136 364.773H51.8619V377.156C51.8619 377.651 51.9357 378.023 52.0835 378.273C52.2312 378.517 52.4215 378.685 52.6545 378.776C52.8931 378.861 53.1516 378.903 53.43 378.903C53.6346 378.903 53.8136 378.889 53.967 378.861C54.1204 378.832 54.2397 378.81 54.3249 378.793L54.7852 380.898C54.6374 380.955 54.4272 381.011 54.1545 381.068C53.8817 381.131 53.5408 381.165 53.1317 381.17C52.4613 381.182 51.8363 381.062 51.2567 380.812C50.6772 380.562 50.2085 380.176 49.8505 379.653C49.4925 379.131 49.3136 378.474 49.3136 377.685V364.773ZM60.195 373.227V381H57.6467V363.545H60.1609V370.04H60.3228C60.6296 369.335 61.0984 368.776 61.729 368.361C62.3597 367.946 63.1836 367.739 64.2006 367.739C65.0984 367.739 65.8825 367.923 66.5529 368.293C67.229 368.662 67.7518 369.213 68.1211 369.946C68.4961 370.673 68.6836 371.582 68.6836 372.673V381H66.1353V372.98C66.1353 372.02 65.8881 371.276 65.3938 370.747C64.8995 370.213 64.212 369.946 63.3313 369.946C62.729 369.946 62.1893 370.074 61.712 370.33C61.2404 370.585 60.8683 370.96 60.5955 371.455C60.3285 371.943 60.195 372.534 60.195 373.227ZM77.7262 381.264C76.4364 381.264 75.3256 380.989 74.3938 380.438C73.4677 379.881 72.7518 379.099 72.2461 378.094C71.7461 377.082 71.4961 375.898 71.4961 374.54C71.4961 373.199 71.7461 372.017 72.2461 370.994C72.7518 369.972 73.4563 369.173 74.3597 368.599C75.2688 368.026 76.3313 367.739 77.5472 367.739C78.2859 367.739 79.0018 367.861 79.695 368.105C80.3881 368.349 81.0103 368.733 81.5614 369.256C82.1126 369.778 82.5472 370.457 82.8654 371.293C83.1836 372.122 83.3427 373.131 83.3427 374.318V375.222H72.9364V373.312H80.8455C80.8455 372.642 80.7092 372.048 80.4364 371.531C80.1637 371.009 79.7802 370.597 79.2859 370.295C78.7972 369.994 78.2234 369.844 77.5643 369.844C76.8484 369.844 76.2234 370.02 75.6893 370.372C75.1609 370.719 74.7518 371.173 74.462 371.736C74.1779 372.293 74.0359 372.898 74.0359 373.551V375.043C74.0359 375.918 74.1893 376.662 74.4961 377.276C74.8086 377.889 75.2433 378.358 75.8001 378.682C76.3569 379 77.0075 379.159 77.7518 379.159C78.2347 379.159 78.6751 379.091 79.0728 378.955C79.4705 378.812 79.8143 378.602 80.104 378.324C80.3938 378.045 80.6154 377.702 80.7688 377.293L83.1808 377.727C82.9876 378.437 82.641 379.06 82.141 379.594C81.6467 380.122 81.0245 380.534 80.2745 380.83C79.5302 381.119 78.6808 381.264 77.7262 381.264ZM103.721 367.909L98.9734 381H96.2461L91.4904 367.909H94.2262L97.5415 377.983H97.6779L100.985 367.909H103.721ZM106.115 381V367.909H108.664V381H106.115ZM107.402 365.889C106.959 365.889 106.578 365.741 106.26 365.446C105.948 365.145 105.792 364.787 105.792 364.372C105.792 363.952 105.948 363.594 106.26 363.298C106.578 362.997 106.959 362.847 107.402 362.847C107.846 362.847 108.223 362.997 108.536 363.298C108.854 363.594 109.013 363.952 109.013 364.372C109.013 364.787 108.854 365.145 108.536 365.446C108.223 365.741 107.846 365.889 107.402 365.889ZM116.993 381.256C115.936 381.256 114.993 380.986 114.163 380.446C113.339 379.901 112.691 379.125 112.22 378.119C111.754 377.108 111.521 375.895 111.521 374.48C111.521 373.065 111.757 371.855 112.228 370.849C112.706 369.844 113.359 369.074 114.189 368.54C115.018 368.006 115.958 367.739 117.01 367.739C117.822 367.739 118.475 367.875 118.97 368.148C119.47 368.415 119.856 368.727 120.129 369.085C120.407 369.443 120.623 369.759 120.777 370.031H120.93V363.545H123.478V381H120.99V378.963H120.777C120.623 379.241 120.402 379.56 120.112 379.918C119.828 380.276 119.436 380.588 118.936 380.855C118.436 381.122 117.788 381.256 116.993 381.256ZM117.555 379.082C118.288 379.082 118.907 378.889 119.413 378.503C119.924 378.111 120.311 377.568 120.572 376.875C120.839 376.182 120.973 375.375 120.973 374.455C120.973 373.545 120.842 372.75 120.581 372.068C120.319 371.386 119.936 370.855 119.43 370.474C118.924 370.094 118.299 369.903 117.555 369.903C116.788 369.903 116.149 370.102 115.637 370.5C115.126 370.898 114.74 371.44 114.478 372.128C114.223 372.815 114.095 373.591 114.095 374.455C114.095 375.33 114.225 376.116 114.487 376.815C114.748 377.514 115.135 378.068 115.646 378.477C116.163 378.881 116.799 379.082 117.555 379.082ZM132.757 381.264C131.468 381.264 130.357 380.989 129.425 380.438C128.499 379.881 127.783 379.099 127.277 378.094C126.777 377.082 126.527 375.898 126.527 374.54C126.527 373.199 126.777 372.017 127.277 370.994C127.783 369.972 128.488 369.173 129.391 368.599C130.3 368.026 131.363 367.739 132.578 367.739C133.317 367.739 134.033 367.861 134.726 368.105C135.419 368.349 136.042 368.733 136.593 369.256C137.144 369.778 137.578 370.457 137.897 371.293C138.215 372.122 138.374 373.131 138.374 374.318V375.222H127.968V373.312H135.877C135.877 372.642 135.74 372.048 135.468 371.531C135.195 371.009 134.811 370.597 134.317 370.295C133.828 369.994 133.255 369.844 132.596 369.844C131.88 369.844 131.255 370.02 130.721 370.372C130.192 370.719 129.783 371.173 129.493 371.736C129.209 372.293 129.067 372.898 129.067 373.551V375.043C129.067 375.918 129.221 376.662 129.527 377.276C129.84 377.889 130.275 378.358 130.831 378.682C131.388 379 132.039 379.159 132.783 379.159C133.266 379.159 133.706 379.091 134.104 378.955C134.502 378.812 134.846 378.602 135.135 378.324C135.425 378.045 135.647 377.702 135.8 377.293L138.212 377.727C138.019 378.437 137.672 379.06 137.172 379.594C136.678 380.122 136.056 380.534 135.306 380.83C134.561 381.119 133.712 381.264 132.757 381.264ZM146.716 381.264C145.488 381.264 144.417 380.983 143.502 380.42C142.588 379.858 141.877 379.071 141.372 378.06C140.866 377.048 140.613 375.866 140.613 374.514C140.613 373.156 140.866 371.969 141.372 370.952C141.877 369.935 142.588 369.145 143.502 368.582C144.417 368.02 145.488 367.739 146.716 367.739C147.943 367.739 149.014 368.02 149.929 368.582C150.843 369.145 151.554 369.935 152.059 370.952C152.565 371.969 152.818 373.156 152.818 374.514C152.818 375.866 152.565 377.048 152.059 378.06C151.554 379.071 150.843 379.858 149.929 380.42C149.014 380.983 147.943 381.264 146.716 381.264ZM146.724 379.125C147.52 379.125 148.179 378.915 148.701 378.494C149.224 378.074 149.61 377.514 149.86 376.815C150.116 376.116 150.244 375.347 150.244 374.506C150.244 373.67 150.116 372.903 149.86 372.205C149.61 371.5 149.224 370.935 148.701 370.509C148.179 370.082 147.52 369.869 146.724 369.869C145.923 369.869 145.258 370.082 144.73 370.509C144.207 370.935 143.818 371.5 143.562 372.205C143.312 372.903 143.187 373.67 143.187 374.506C143.187 375.347 143.312 376.116 143.562 376.815C143.818 377.514 144.207 378.074 144.73 378.494C145.258 378.915 145.923 379.125 146.724 379.125ZM165.824 381.29C164.994 381.29 164.244 381.136 163.574 380.83C162.903 380.517 162.372 380.065 161.98 379.474C161.593 378.884 161.4 378.159 161.4 377.301C161.4 376.562 161.542 375.955 161.826 375.477C162.11 375 162.494 374.622 162.977 374.344C163.46 374.065 164 373.855 164.596 373.713C165.193 373.571 165.801 373.463 166.42 373.389C167.204 373.298 167.841 373.224 168.329 373.168C168.818 373.105 169.173 373.006 169.395 372.869C169.616 372.733 169.727 372.511 169.727 372.205V372.145C169.727 371.401 169.517 370.824 169.096 370.415C168.681 370.006 168.062 369.801 167.238 369.801C166.38 369.801 165.704 369.991 165.21 370.372C164.721 370.747 164.383 371.165 164.196 371.625L161.801 371.08C162.085 370.284 162.5 369.642 163.045 369.153C163.596 368.659 164.23 368.301 164.946 368.08C165.662 367.852 166.414 367.739 167.204 367.739C167.727 367.739 168.281 367.801 168.866 367.926C169.457 368.045 170.008 368.267 170.52 368.591C171.037 368.915 171.46 369.378 171.789 369.98C172.119 370.577 172.284 371.352 172.284 372.307V381H169.795V379.21H169.693C169.528 379.54 169.281 379.864 168.951 380.182C168.622 380.5 168.199 380.764 167.681 380.974C167.164 381.185 166.545 381.29 165.824 381.29ZM166.377 379.244C167.082 379.244 167.684 379.105 168.184 378.827C168.69 378.548 169.074 378.185 169.335 377.736C169.602 377.281 169.735 376.795 169.735 376.278V374.591C169.645 374.682 169.468 374.767 169.207 374.847C168.951 374.92 168.659 374.986 168.329 375.043C168 375.094 167.679 375.142 167.366 375.188C167.054 375.227 166.792 375.261 166.582 375.29C166.088 375.352 165.636 375.457 165.227 375.605C164.824 375.753 164.5 375.966 164.255 376.244C164.017 376.517 163.897 376.881 163.897 377.335C163.897 377.966 164.13 378.443 164.596 378.767C165.062 379.085 165.656 379.244 166.377 379.244ZM178.226 373.227V381H175.678V367.909H178.124V370.04H178.286C178.587 369.347 179.059 368.79 179.701 368.369C180.348 367.949 181.164 367.739 182.147 367.739C183.039 367.739 183.82 367.926 184.49 368.301C185.161 368.67 185.681 369.222 186.05 369.955C186.419 370.687 186.604 371.594 186.604 372.673V381H184.056V372.98C184.056 372.031 183.809 371.29 183.314 370.756C182.82 370.216 182.141 369.946 181.277 369.946C180.686 369.946 180.161 370.074 179.701 370.33C179.246 370.585 178.885 370.96 178.618 371.455C178.357 371.943 178.226 372.534 178.226 373.227ZM194.922 381.256C193.865 381.256 192.922 380.986 192.093 380.446C191.269 379.901 190.621 379.125 190.15 378.119C189.684 377.108 189.451 375.895 189.451 374.48C189.451 373.065 189.686 371.855 190.158 370.849C190.635 369.844 191.289 369.074 192.118 368.54C192.948 368.006 193.888 367.739 194.939 367.739C195.752 367.739 196.405 367.875 196.9 368.148C197.4 368.415 197.786 368.727 198.059 369.085C198.337 369.443 198.553 369.759 198.706 370.031H198.86V363.545H201.408V381H198.919V378.963H198.706C198.553 379.241 198.331 379.56 198.042 379.918C197.757 380.276 197.365 380.588 196.865 380.855C196.365 381.122 195.718 381.256 194.922 381.256ZM195.485 379.082C196.218 379.082 196.837 378.889 197.343 378.503C197.854 378.111 198.24 377.568 198.502 376.875C198.769 376.182 198.902 375.375 198.902 374.455C198.902 373.545 198.772 372.75 198.51 372.068C198.249 371.386 197.865 370.855 197.36 370.474C196.854 370.094 196.229 369.903 195.485 369.903C194.718 369.903 194.078 370.102 193.567 370.5C193.056 370.898 192.669 371.44 192.408 372.128C192.152 372.815 192.025 373.591 192.025 374.455C192.025 375.33 192.155 376.116 192.417 376.815C192.678 377.514 193.064 378.068 193.576 378.477C194.093 378.881 194.729 379.082 195.485 379.082ZM211.397 381V367.909H213.945V381H211.397ZM212.684 365.889C212.24 365.889 211.86 365.741 211.542 365.446C211.229 365.145 211.073 364.787 211.073 364.372C211.073 363.952 211.229 363.594 211.542 363.298C211.86 362.997 212.24 362.847 212.684 362.847C213.127 362.847 213.505 362.997 213.817 363.298C214.135 363.594 214.294 363.952 214.294 364.372C214.294 364.787 214.135 365.145 213.817 365.446C213.505 365.741 213.127 365.889 212.684 365.889ZM223.484 367.909V369.955H216.333V367.909H223.484ZM218.251 364.773H220.799V377.156C220.799 377.651 220.873 378.023 221.021 378.273C221.169 378.517 221.359 378.685 221.592 378.776C221.831 378.861 222.089 378.903 222.368 378.903C222.572 378.903 222.751 378.889 222.904 378.861C223.058 378.832 223.177 378.81 223.262 378.793L223.723 380.898C223.575 380.955 223.365 381.011 223.092 381.068C222.819 381.131 222.478 381.165 222.069 381.17C221.399 381.182 220.774 381.062 220.194 380.812C219.615 380.562 219.146 380.176 218.788 379.653C218.43 379.131 218.251 378.474 218.251 377.685V364.773ZM235.493 381L231.64 367.909H234.274L236.839 377.523H236.967L239.541 367.909H242.174L244.731 377.48H244.859L247.407 367.909H250.041L246.197 381H243.598L240.939 371.548H240.743L238.083 381H235.493ZM252.459 381V367.909H255.007V381H252.459ZM253.746 365.889C253.303 365.889 252.922 365.741 252.604 365.446C252.292 365.145 252.135 364.787 252.135 364.372C252.135 363.952 252.292 363.594 252.604 363.298C252.922 362.997 253.303 362.847 253.746 362.847C254.189 362.847 254.567 362.997 254.88 363.298C255.198 363.594 255.357 363.952 255.357 364.372C255.357 364.787 255.198 365.145 254.88 365.446C254.567 365.741 254.189 365.889 253.746 365.889ZM260.984 363.545V381H258.436V363.545H260.984ZM266.961 363.545V381H264.412V363.545H266.961ZM276.74 385.909V367.909H279.229V370.031H279.442C279.59 369.759 279.803 369.443 280.081 369.085C280.36 368.727 280.746 368.415 281.24 368.148C281.735 367.875 282.388 367.739 283.201 367.739C284.257 367.739 285.201 368.006 286.03 368.54C286.86 369.074 287.51 369.844 287.982 370.849C288.459 371.855 288.698 373.065 288.698 374.48C288.698 375.895 288.462 377.108 287.99 378.119C287.519 379.125 286.871 379.901 286.047 380.446C285.223 380.986 284.283 381.256 283.226 381.256C282.431 381.256 281.78 381.122 281.275 380.855C280.775 380.588 280.382 380.276 280.098 379.918C279.814 379.56 279.596 379.241 279.442 378.963H279.289V385.909H276.74ZM279.238 374.455C279.238 375.375 279.371 376.182 279.638 376.875C279.905 377.568 280.292 378.111 280.797 378.503C281.303 378.889 281.922 379.082 282.655 379.082C283.417 379.082 284.053 378.881 284.564 378.477C285.076 378.068 285.462 377.514 285.723 376.815C285.99 376.116 286.124 375.33 286.124 374.455C286.124 373.591 285.993 372.815 285.732 372.128C285.476 371.44 285.09 370.898 284.573 370.5C284.061 370.102 283.422 369.903 282.655 369.903C281.917 369.903 281.292 370.094 280.78 370.474C280.275 370.855 279.891 371.386 279.63 372.068C279.368 372.75 279.238 373.545 279.238 374.455ZM291.553 381V367.909H294.016V369.989H294.152C294.391 369.284 294.811 368.73 295.414 368.327C296.022 367.918 296.709 367.713 297.476 367.713C297.635 367.713 297.823 367.719 298.039 367.73C298.26 367.741 298.434 367.756 298.559 367.773V370.21C298.456 370.182 298.275 370.151 298.013 370.116C297.752 370.077 297.49 370.057 297.229 370.057C296.627 370.057 296.09 370.185 295.618 370.44C295.152 370.69 294.783 371.04 294.51 371.489C294.238 371.932 294.101 372.437 294.101 373.006V381H291.553ZM305.809 381.264C304.582 381.264 303.511 380.983 302.596 380.42C301.681 379.858 300.971 379.071 300.466 378.06C299.96 377.048 299.707 375.866 299.707 374.514C299.707 373.156 299.96 371.969 300.466 370.952C300.971 369.935 301.681 369.145 302.596 368.582C303.511 368.02 304.582 367.739 305.809 367.739C307.037 367.739 308.108 368.02 309.022 368.582C309.937 369.145 310.647 369.935 311.153 370.952C311.659 371.969 311.912 373.156 311.912 374.514C311.912 375.866 311.659 377.048 311.153 378.06C310.647 379.071 309.937 379.858 309.022 380.42C308.108 380.983 307.037 381.264 305.809 381.264ZM305.818 379.125C306.613 379.125 307.272 378.915 307.795 378.494C308.318 378.074 308.704 377.514 308.954 376.815C309.21 376.116 309.338 375.347 309.338 374.506C309.338 373.67 309.21 372.903 308.954 372.205C308.704 371.5 308.318 370.935 307.795 370.509C307.272 370.082 306.613 369.869 305.818 369.869C305.017 369.869 304.352 370.082 303.824 370.509C303.301 370.935 302.912 371.5 302.656 372.205C302.406 372.903 302.281 373.67 302.281 374.506C302.281 375.347 302.406 376.116 302.656 376.815C302.912 377.514 303.301 378.074 303.824 378.494C304.352 378.915 305.017 379.125 305.818 379.125ZM325.51 367.909L320.762 381H318.035L313.279 367.909H316.015L319.331 377.983H319.467L322.774 367.909H325.51ZM327.904 381V367.909H330.453V381H327.904ZM329.191 365.889C328.748 365.889 328.368 365.741 328.049 365.446C327.737 365.145 327.581 364.787 327.581 364.372C327.581 363.952 327.737 363.594 328.049 363.298C328.368 362.997 328.748 362.847 329.191 362.847C329.635 362.847 330.012 362.997 330.325 363.298C330.643 363.594 330.802 363.952 330.802 364.372C330.802 364.787 330.643 365.145 330.325 365.446C330.012 365.741 329.635 365.889 329.191 365.889ZM338.782 381.256C337.725 381.256 336.782 380.986 335.952 380.446C335.128 379.901 334.48 379.125 334.009 378.119C333.543 377.108 333.31 375.895 333.31 374.48C333.31 373.065 333.546 371.855 334.017 370.849C334.495 369.844 335.148 369.074 335.978 368.54C336.807 368.006 337.748 367.739 338.799 367.739C339.611 367.739 340.265 367.875 340.759 368.148C341.259 368.415 341.645 368.727 341.918 369.085C342.196 369.443 342.412 369.759 342.566 370.031H342.719V363.545H345.267V381H342.779V378.963H342.566C342.412 379.241 342.191 379.56 341.901 379.918C341.617 380.276 341.225 380.588 340.725 380.855C340.225 381.122 339.577 381.256 338.782 381.256ZM339.344 379.082C340.077 379.082 340.696 378.889 341.202 378.503C341.713 378.111 342.1 377.568 342.361 376.875C342.628 376.182 342.762 375.375 342.762 374.455C342.762 373.545 342.631 372.75 342.37 372.068C342.108 371.386 341.725 370.855 341.219 370.474C340.713 370.094 340.088 369.903 339.344 369.903C338.577 369.903 337.938 370.102 337.426 370.5C336.915 370.898 336.529 371.44 336.267 372.128C336.012 372.815 335.884 373.591 335.884 374.455C335.884 375.33 336.015 376.116 336.276 376.815C336.537 377.514 336.924 378.068 337.435 378.477C337.952 378.881 338.588 379.082 339.344 379.082ZM354.547 381.264C353.257 381.264 352.146 380.989 351.214 380.438C350.288 379.881 349.572 379.099 349.066 378.094C348.566 377.082 348.316 375.898 348.316 374.54C348.316 373.199 348.566 372.017 349.066 370.994C349.572 369.972 350.277 369.173 351.18 368.599C352.089 368.026 353.152 367.739 354.368 367.739C355.106 367.739 355.822 367.861 356.515 368.105C357.208 368.349 357.831 368.733 358.382 369.256C358.933 369.778 359.368 370.457 359.686 371.293C360.004 372.122 360.163 373.131 360.163 374.318V375.222H349.757V373.312H357.666C357.666 372.642 357.529 372.048 357.257 371.531C356.984 371.009 356.6 370.597 356.106 370.295C355.618 369.994 355.044 369.844 354.385 369.844C353.669 369.844 353.044 370.02 352.51 370.372C351.981 370.719 351.572 371.173 351.282 371.736C350.998 372.293 350.856 372.898 350.856 373.551V375.043C350.856 375.918 351.01 376.662 351.316 377.276C351.629 377.889 352.064 378.358 352.62 378.682C353.177 379 353.828 379.159 354.572 379.159C355.055 379.159 355.495 379.091 355.893 378.955C356.291 378.812 356.635 378.602 356.924 378.324C357.214 378.045 357.436 377.702 357.589 377.293L360.001 377.727C359.808 378.437 359.461 379.06 358.961 379.594C358.467 380.122 357.845 380.534 357.095 380.83C356.35 381.119 355.501 381.264 354.547 381.264ZM144.683 410.29C143.853 410.29 143.103 410.136 142.433 409.83C141.762 409.517 141.231 409.065 140.839 408.474C140.453 407.884 140.26 407.159 140.26 406.301C140.26 405.562 140.402 404.955 140.686 404.477C140.97 404 141.353 403.622 141.836 403.344C142.319 403.065 142.859 402.855 143.456 402.713C144.052 402.571 144.66 402.463 145.279 402.389C146.064 402.298 146.7 402.224 147.189 402.168C147.677 402.105 148.032 402.006 148.254 401.869C148.475 401.733 148.586 401.511 148.586 401.205V401.145C148.586 400.401 148.376 399.824 147.956 399.415C147.541 399.006 146.922 398.801 146.098 398.801C145.24 398.801 144.564 398.991 144.069 399.372C143.581 399.747 143.243 400.165 143.055 400.625L140.66 400.08C140.944 399.284 141.359 398.642 141.904 398.153C142.456 397.659 143.089 397.301 143.805 397.08C144.521 396.852 145.274 396.739 146.064 396.739C146.586 396.739 147.14 396.801 147.725 396.926C148.316 397.045 148.868 397.267 149.379 397.591C149.896 397.915 150.319 398.378 150.649 398.98C150.978 399.577 151.143 400.352 151.143 401.307V410H148.654V408.21H148.552C148.387 408.54 148.14 408.864 147.811 409.182C147.481 409.5 147.058 409.764 146.541 409.974C146.024 410.185 145.404 410.29 144.683 410.29ZM145.237 408.244C145.941 408.244 146.544 408.105 147.044 407.827C147.549 407.548 147.933 407.185 148.194 406.736C148.461 406.281 148.595 405.795 148.595 405.278V403.591C148.504 403.682 148.328 403.767 148.066 403.847C147.811 403.92 147.518 403.986 147.189 404.043C146.859 404.094 146.538 404.142 146.225 404.188C145.913 404.227 145.652 404.261 145.441 404.29C144.947 404.352 144.495 404.457 144.086 404.605C143.683 404.753 143.359 404.966 143.115 405.244C142.876 405.517 142.757 405.881 142.757 406.335C142.757 406.966 142.99 407.443 143.456 407.767C143.922 408.085 144.515 408.244 145.237 408.244ZM164.347 400.105L162.037 400.514C161.941 400.219 161.787 399.937 161.577 399.67C161.373 399.403 161.094 399.185 160.742 399.014C160.39 398.844 159.949 398.759 159.421 398.759C158.699 398.759 158.097 398.92 157.614 399.244C157.131 399.562 156.89 399.974 156.89 400.48C156.89 400.918 157.051 401.27 157.375 401.537C157.699 401.804 158.222 402.023 158.944 402.193L161.023 402.67C162.228 402.949 163.125 403.378 163.716 403.957C164.307 404.537 164.603 405.29 164.603 406.216C164.603 407 164.375 407.699 163.921 408.312C163.472 408.92 162.844 409.398 162.037 409.744C161.236 410.091 160.307 410.264 159.25 410.264C157.784 410.264 156.588 409.952 155.662 409.327C154.736 408.696 154.168 407.801 153.958 406.642L156.421 406.267C156.574 406.909 156.89 407.395 157.367 407.724C157.844 408.048 158.466 408.21 159.233 408.21C160.069 408.21 160.736 408.037 161.236 407.69C161.736 407.338 161.986 406.909 161.986 406.403C161.986 405.994 161.833 405.651 161.526 405.372C161.225 405.094 160.762 404.884 160.137 404.741L157.921 404.256C156.699 403.977 155.796 403.534 155.211 402.926C154.631 402.318 154.341 401.548 154.341 400.616C154.341 399.844 154.557 399.168 154.989 398.588C155.421 398.009 156.017 397.557 156.779 397.233C157.54 396.903 158.412 396.739 159.395 396.739C160.81 396.739 161.924 397.045 162.736 397.659C163.549 398.267 164.086 399.082 164.347 400.105ZM177.214 400.105L174.904 400.514C174.808 400.219 174.654 399.937 174.444 399.67C174.24 399.403 173.961 399.185 173.609 399.014C173.257 398.844 172.816 398.759 172.288 398.759C171.566 398.759 170.964 398.92 170.481 399.244C169.998 399.562 169.757 399.974 169.757 400.48C169.757 400.918 169.919 401.27 170.243 401.537C170.566 401.804 171.089 402.023 171.811 402.193L173.89 402.67C175.095 402.949 175.993 403.378 176.583 403.957C177.174 404.537 177.47 405.29 177.47 406.216C177.47 407 177.243 407.699 176.788 408.312C176.339 408.92 175.711 409.398 174.904 409.744C174.103 410.091 173.174 410.264 172.118 410.264C170.652 410.264 169.456 409.952 168.529 409.327C167.603 408.696 167.035 407.801 166.825 406.642L169.288 406.267C169.441 406.909 169.757 407.395 170.234 407.724C170.711 408.048 171.333 408.21 172.1 408.21C172.936 408.21 173.603 408.037 174.103 407.69C174.603 407.338 174.853 406.909 174.853 406.403C174.853 405.994 174.7 405.651 174.393 405.372C174.092 405.094 173.629 404.884 173.004 404.741L170.788 404.256C169.566 403.977 168.663 403.534 168.078 402.926C167.498 402.318 167.208 401.548 167.208 400.616C167.208 399.844 167.424 399.168 167.856 398.588C168.288 398.009 168.885 397.557 169.646 397.233C170.407 396.903 171.279 396.739 172.262 396.739C173.677 396.739 174.791 397.045 175.603 397.659C176.416 398.267 176.953 399.082 177.214 400.105ZM180.272 410V396.909H182.82V410H180.272ZM181.559 394.889C181.115 394.889 180.735 394.741 180.417 394.446C180.104 394.145 179.948 393.787 179.948 393.372C179.948 392.952 180.104 392.594 180.417 392.298C180.735 391.997 181.115 391.847 181.559 391.847C182.002 391.847 182.38 391.997 182.692 392.298C183.01 392.594 183.169 392.952 183.169 393.372C183.169 393.787 183.01 394.145 182.692 394.446C182.38 394.741 182.002 394.889 181.559 394.889ZM196.058 400.105L193.748 400.514C193.652 400.219 193.498 399.937 193.288 399.67C193.083 399.403 192.805 399.185 192.453 399.014C192.1 398.844 191.66 398.759 191.132 398.759C190.41 398.759 189.808 398.92 189.325 399.244C188.842 399.562 188.6 399.974 188.6 400.48C188.6 400.918 188.762 401.27 189.086 401.537C189.41 401.804 189.933 402.023 190.654 402.193L192.734 402.67C193.939 402.949 194.836 403.378 195.427 403.957C196.018 404.537 196.314 405.29 196.314 406.216C196.314 407 196.086 407.699 195.632 408.312C195.183 408.92 194.555 409.398 193.748 409.744C192.947 410.091 192.018 410.264 190.961 410.264C189.495 410.264 188.299 409.952 187.373 409.327C186.447 408.696 185.879 407.801 185.669 406.642L188.132 406.267C188.285 406.909 188.6 407.395 189.078 407.724C189.555 408.048 190.177 408.21 190.944 408.21C191.779 408.21 192.447 408.037 192.947 407.69C193.447 407.338 193.697 406.909 193.697 406.403C193.697 405.994 193.544 405.651 193.237 405.372C192.936 405.094 192.473 404.884 191.848 404.741L189.632 404.256C188.41 403.977 187.507 403.534 186.922 402.926C186.342 402.318 186.052 401.548 186.052 400.616C186.052 399.844 186.268 399.168 186.7 398.588C187.132 398.009 187.728 397.557 188.49 397.233C189.251 396.903 190.123 396.739 191.106 396.739C192.521 396.739 193.635 397.045 194.447 397.659C195.26 398.267 195.797 399.082 196.058 400.105ZM205.226 396.909V398.955H198.076V396.909H205.226ZM199.993 393.773H202.542V406.156C202.542 406.651 202.615 407.023 202.763 407.273C202.911 407.517 203.101 407.685 203.334 407.776C203.573 407.861 203.831 407.903 204.11 407.903C204.314 407.903 204.493 407.889 204.647 407.861C204.8 407.832 204.919 407.81 205.005 407.793L205.465 409.898C205.317 409.955 205.107 410.011 204.834 410.068C204.561 410.131 204.221 410.165 203.811 410.17C203.141 410.182 202.516 410.062 201.936 409.812C201.357 409.562 200.888 409.176 200.53 408.653C200.172 408.131 199.993 407.474 199.993 406.685V393.773ZM211.855 410.29C211.025 410.29 210.275 410.136 209.605 409.83C208.934 409.517 208.403 409.065 208.011 408.474C207.625 407.884 207.431 407.159 207.431 406.301C207.431 405.562 207.574 404.955 207.858 404.477C208.142 404 208.525 403.622 209.008 403.344C209.491 403.065 210.031 402.855 210.627 402.713C211.224 402.571 211.832 402.463 212.451 402.389C213.235 402.298 213.872 402.224 214.36 402.168C214.849 402.105 215.204 402.006 215.426 401.869C215.647 401.733 215.758 401.511 215.758 401.205V401.145C215.758 400.401 215.548 399.824 215.127 399.415C214.713 399.006 214.093 398.801 213.27 398.801C212.412 398.801 211.735 398.991 211.241 399.372C210.752 399.747 210.414 400.165 210.227 400.625L207.832 400.08C208.116 399.284 208.531 398.642 209.076 398.153C209.627 397.659 210.261 397.301 210.977 397.08C211.693 396.852 212.446 396.739 213.235 396.739C213.758 396.739 214.312 396.801 214.897 396.926C215.488 397.045 216.039 397.267 216.551 397.591C217.068 397.915 217.491 398.378 217.821 398.98C218.15 399.577 218.315 400.352 218.315 401.307V410H215.826V408.21H215.724C215.559 408.54 215.312 408.864 214.983 409.182C214.653 409.5 214.23 409.764 213.713 409.974C213.196 410.185 212.576 410.29 211.855 410.29ZM212.409 408.244C213.113 408.244 213.716 408.105 214.216 407.827C214.721 407.548 215.105 407.185 215.366 406.736C215.633 406.281 215.767 405.795 215.767 405.278V403.591C215.676 403.682 215.5 403.767 215.238 403.847C214.983 403.92 214.69 403.986 214.36 404.043C214.031 404.094 213.71 404.142 213.397 404.188C213.085 404.227 212.824 404.261 212.613 404.29C212.119 404.352 211.667 404.457 211.258 404.605C210.855 404.753 210.531 404.966 210.287 405.244C210.048 405.517 209.929 405.881 209.929 406.335C209.929 406.966 210.162 407.443 210.627 407.767C211.093 408.085 211.687 408.244 212.409 408.244ZM224.257 402.227V410H221.709V396.909H224.155V399.04H224.317C224.618 398.347 225.09 397.79 225.732 397.369C226.38 396.949 227.195 396.739 228.178 396.739C229.07 396.739 229.851 396.926 230.522 397.301C231.192 397.67 231.712 398.222 232.081 398.955C232.451 399.687 232.635 400.594 232.635 401.673V410H230.087V401.98C230.087 401.031 229.84 400.29 229.346 399.756C228.851 399.216 228.172 398.946 227.309 398.946C226.718 398.946 226.192 399.074 225.732 399.33C225.277 399.585 224.917 399.96 224.65 400.455C224.388 400.943 224.257 401.534 224.257 402.227ZM241.567 410.264C240.3 410.264 239.209 409.977 238.294 409.403C237.385 408.824 236.686 408.026 236.198 407.009C235.709 405.991 235.465 404.827 235.465 403.514C235.465 402.185 235.715 401.011 236.215 399.994C236.715 398.972 237.419 398.173 238.328 397.599C239.238 397.026 240.309 396.739 241.542 396.739C242.536 396.739 243.422 396.923 244.201 397.293C244.979 397.656 245.607 398.168 246.084 398.827C246.567 399.486 246.854 400.256 246.945 401.136H244.465C244.328 400.523 244.016 399.994 243.527 399.551C243.044 399.108 242.397 398.886 241.584 398.886C240.874 398.886 240.252 399.074 239.718 399.449C239.189 399.818 238.777 400.347 238.482 401.034C238.186 401.716 238.039 402.523 238.039 403.455C238.039 404.409 238.184 405.233 238.473 405.926C238.763 406.619 239.172 407.156 239.701 407.537C240.235 407.918 240.863 408.108 241.584 408.108C242.067 408.108 242.505 408.02 242.897 407.844C243.294 407.662 243.627 407.403 243.894 407.068C244.167 406.733 244.357 406.33 244.465 405.858H246.945C246.854 406.705 246.578 407.46 246.118 408.125C245.658 408.79 245.042 409.312 244.269 409.693C243.502 410.074 242.601 410.264 241.567 410.264ZM255.312 410.264C254.022 410.264 252.912 409.989 251.98 409.438C251.054 408.881 250.338 408.099 249.832 407.094C249.332 406.082 249.082 404.898 249.082 403.54C249.082 402.199 249.332 401.017 249.832 399.994C250.338 398.972 251.042 398.173 251.946 397.599C252.855 397.026 253.917 396.739 255.133 396.739C255.872 396.739 256.588 396.861 257.281 397.105C257.974 397.349 258.596 397.733 259.147 398.256C259.699 398.778 260.133 399.457 260.451 400.293C260.77 401.122 260.929 402.131 260.929 403.318V404.222H250.522V402.312H258.431C258.431 401.642 258.295 401.048 258.022 400.531C257.75 400.009 257.366 399.597 256.872 399.295C256.383 398.994 255.809 398.844 255.15 398.844C254.434 398.844 253.809 399.02 253.275 399.372C252.747 399.719 252.338 400.173 252.048 400.736C251.764 401.293 251.622 401.898 251.622 402.551V404.043C251.622 404.918 251.775 405.662 252.082 406.276C252.395 406.889 252.829 407.358 253.386 407.682C253.943 408 254.593 408.159 255.338 408.159C255.821 408.159 256.261 408.091 256.659 407.955C257.056 407.812 257.4 407.602 257.69 407.324C257.98 407.045 258.201 406.702 258.355 406.293L260.767 406.727C260.574 407.437 260.227 408.06 259.727 408.594C259.233 409.122 258.61 409.534 257.86 409.83C257.116 410.119 256.267 410.264 255.312 410.264ZM265.435 410.162C264.969 410.162 264.569 409.997 264.233 409.668C263.898 409.332 263.73 408.929 263.73 408.457C263.73 407.991 263.898 407.594 264.233 407.264C264.569 406.929 264.969 406.761 265.435 406.761C265.901 406.761 266.301 406.929 266.637 407.264C266.972 407.594 267.14 407.991 267.14 408.457C267.14 408.77 267.06 409.057 266.901 409.318C266.748 409.574 266.543 409.778 266.287 409.932C266.032 410.085 265.748 410.162 265.435 410.162Z" fill="#5D5D5D"/>
<path d="M181.247 285.58H176.997C176.876 284.883 176.652 284.265 176.327 283.727C176.001 283.182 175.596 282.72 175.111 282.341C174.626 281.962 174.073 281.678 173.452 281.489C172.838 281.292 172.175 281.193 171.463 281.193C170.198 281.193 169.077 281.511 168.099 282.148C167.122 282.777 166.357 283.701 165.804 284.92C165.251 286.133 164.974 287.614 164.974 289.364C164.974 291.144 165.251 292.644 165.804 293.864C166.365 295.076 167.13 295.992 168.099 296.614C169.077 297.227 170.194 297.534 171.452 297.534C172.149 297.534 172.8 297.443 173.406 297.261C174.02 297.072 174.569 296.795 175.054 296.432C175.546 296.068 175.959 295.621 176.293 295.091C176.634 294.561 176.868 293.955 176.997 293.273L181.247 293.295C181.088 294.402 180.743 295.439 180.213 296.409C179.69 297.379 179.005 298.235 178.156 298.977C177.308 299.712 176.315 300.288 175.179 300.705C174.043 301.114 172.781 301.318 171.395 301.318C169.349 301.318 167.524 300.845 165.918 299.898C164.312 298.951 163.046 297.583 162.122 295.795C161.198 294.008 160.736 291.864 160.736 289.364C160.736 286.856 161.202 284.712 162.134 282.932C163.065 281.144 164.334 279.777 165.94 278.83C167.546 277.883 169.365 277.409 171.395 277.409C172.69 277.409 173.895 277.591 175.009 277.955C176.122 278.318 177.115 278.852 177.986 279.557C178.857 280.254 179.573 281.11 180.134 282.125C180.702 283.133 181.073 284.284 181.247 285.58ZM189.04 290.773V301H184.926V277.727H188.949V286.511H189.153C189.563 285.527 190.195 284.75 191.051 284.182C191.915 283.606 193.013 283.318 194.347 283.318C195.559 283.318 196.616 283.572 197.517 284.08C198.419 284.587 199.116 285.33 199.608 286.307C200.108 287.284 200.358 288.477 200.358 289.886V301H196.244V290.523C196.244 289.348 195.941 288.436 195.335 287.784C194.737 287.125 193.896 286.795 192.812 286.795C192.085 286.795 191.434 286.955 190.858 287.273C190.29 287.583 189.843 288.034 189.517 288.625C189.199 289.216 189.04 289.932 189.04 290.773ZM209.574 301.352C208.468 301.352 207.472 301.155 206.585 300.761C205.706 300.36 205.009 299.769 204.494 298.989C203.987 298.208 203.733 297.246 203.733 296.102C203.733 295.117 203.915 294.303 204.278 293.659C204.642 293.015 205.138 292.5 205.767 292.114C206.396 291.727 207.104 291.436 207.892 291.239C208.688 291.034 209.509 290.886 210.358 290.795C211.381 290.689 212.21 290.595 212.847 290.511C213.483 290.42 213.945 290.284 214.233 290.102C214.528 289.913 214.676 289.621 214.676 289.227V289.159C214.676 288.303 214.422 287.64 213.915 287.17C213.407 286.701 212.676 286.466 211.722 286.466C210.714 286.466 209.915 286.686 209.324 287.125C208.741 287.564 208.347 288.083 208.142 288.682L204.301 288.136C204.604 287.076 205.104 286.189 205.801 285.477C206.498 284.758 207.35 284.22 208.358 283.864C209.366 283.5 210.479 283.318 211.699 283.318C212.54 283.318 213.377 283.417 214.21 283.614C215.044 283.811 215.805 284.136 216.494 284.591C217.184 285.038 217.737 285.648 218.153 286.42C218.578 287.193 218.79 288.159 218.79 289.318V301H214.835V298.602H214.699C214.449 299.087 214.097 299.542 213.642 299.966C213.195 300.383 212.631 300.72 211.949 300.977C211.275 301.227 210.483 301.352 209.574 301.352ZM210.642 298.33C211.468 298.33 212.184 298.167 212.79 297.841C213.396 297.508 213.862 297.068 214.188 296.523C214.521 295.977 214.688 295.383 214.688 294.739V292.682C214.559 292.788 214.339 292.886 214.028 292.977C213.725 293.068 213.384 293.148 213.006 293.216C212.627 293.284 212.252 293.345 211.881 293.398C211.509 293.451 211.188 293.496 210.915 293.534C210.301 293.617 209.752 293.754 209.267 293.943C208.782 294.133 208.4 294.398 208.119 294.739C207.839 295.072 207.699 295.504 207.699 296.034C207.699 296.792 207.975 297.364 208.528 297.75C209.081 298.136 209.786 298.33 210.642 298.33ZM231.642 283.545V286.727H221.608V283.545H231.642ZM224.085 279.364H228.199V295.75C228.199 296.303 228.282 296.727 228.449 297.023C228.623 297.311 228.85 297.508 229.131 297.614C229.411 297.72 229.722 297.773 230.062 297.773C230.32 297.773 230.555 297.754 230.767 297.716C230.987 297.678 231.153 297.644 231.267 297.614L231.96 300.83C231.741 300.905 231.426 300.989 231.017 301.08C230.616 301.17 230.123 301.223 229.54 301.239C228.509 301.269 227.581 301.114 226.756 300.773C225.93 300.424 225.275 299.886 224.79 299.159C224.313 298.432 224.078 297.523 224.085 296.432V279.364Z" fill="#272727"/>
<defs>
<filter id="filter1_d_2014_435" x="174.072" y="202.748" width="57.8838" height="37.2986" filterUnits="userSpaceOnUse" color-interpolation-filters="sRGB">
<feFlood flood-opacity="0" result="BackgroundImageFix"/>
<feColorMatrix in="SourceAlpha" type="matrix" values="0 0 0 0 0 0 0 0 0 0 0 0 0 0 0 0 0 0 127 0" result="hardAlpha"/>
<feOffset dy="1"/>
<feGaussianBlur stdDeviation="2.75"/>
<feComposite in2="hardAlpha" operator="out"/>
<feColorMatrix type="matrix" values="0 0 0 0 0 0 0 0 0 0 0 0 0 0 0 0 0 0 0.25 0"/>
<feBlend mode="normal" in2="BackgroundImageFix" result="effect1_dropShadow_2014_435"/>
<feBlend mode="normal" in="SourceGraphic" in2="effect1_dropShadow_2014_435" result="shape"/>
</filter>
<linearGradient id="paint0_linear_2014_435" x1="164.498" y1="177.508" x2="180.611" y2="186.444" gradientUnits="userSpaceOnUse">
<stop stop-color="#A4B737"/>
<stop offset="1" stop-color="#00BB05"/>
</linearGradient>
<linearGradient id="paint1_linear_2014_435" x1="234.54" y1="172.012" x2="232.622" y2="189.589" gradientUnits="userSpaceOnUse">
<stop stop-color="#A4B737"/>
<stop offset="1" stop-color="#00BB05"/>
</linearGradient>
<linearGradient id="paint2_linear_2014_435" x1="166" y1="162.518" x2="191.413" y2="241.385" gradientUnits="userSpaceOnUse">
<stop stop-color="#A4B737"/>
<stop offset="1" stop-color="#00BB05"/>
</linearGradient>
</defs>
</svg>
