<svg width="408" height="446" viewBox="0 0 408 446" fill="none" xmlns="http://www.w3.org/2000/svg">
<rect width="408" height="446" rx="26" fill="#F2F2F2" fill-opacity="0.7"/>
<path d="M219.114 218.99C219.795 218.552 220.135 217.944 220.135 217.167C220.135 216.389 219.795 215.781 219.114 215.344L204.895 206.229C204.166 205.743 203.425 205.706 202.67 206.118C201.916 206.531 201.539 207.175 201.541 208.052V226.281C201.541 227.156 201.919 227.801 202.673 228.215C203.427 228.629 204.168 228.592 204.895 228.104L219.114 218.99ZM191.333 240.5C189.729 240.5 188.356 239.929 187.215 238.788C186.073 237.647 185.502 236.273 185.5 234.667V199.667C185.5 198.063 186.071 196.69 187.215 195.548C188.358 194.407 189.731 193.835 191.333 193.833H226.333C227.937 193.833 229.311 194.405 230.454 195.548C231.598 196.692 232.168 198.064 232.166 199.667V234.667C232.166 236.271 231.596 237.645 230.454 238.788C229.313 239.931 227.939 240.502 226.333 240.5H191.333ZM179.666 252.167C178.062 252.167 176.689 251.596 175.548 250.455C174.407 249.313 173.835 247.939 173.833 246.333V208.417C173.833 207.59 174.113 206.898 174.673 206.34C175.233 205.782 175.925 205.502 176.75 205.5C177.574 205.498 178.267 205.778 178.829 206.34C179.391 206.902 179.67 207.594 179.666 208.417V246.333H217.583C218.409 246.333 219.103 246.613 219.663 247.173C220.223 247.733 220.502 248.426 220.5 249.25C220.498 250.074 220.218 250.768 219.66 251.33C219.102 251.892 218.409 252.171 217.583 252.167H179.666Z" fill="url(#paint0_linear_2016_518)" fill-opacity="0.81"/>
<path d="M166.702 301V277.727H170.918V297.466H181.168V301H166.702ZM184.645 301V283.545H188.759V301H184.645ZM186.713 281.068C186.062 281.068 185.501 280.852 185.031 280.42C184.562 279.981 184.327 279.455 184.327 278.841C184.327 278.22 184.562 277.693 185.031 277.261C185.501 276.822 186.062 276.602 186.713 276.602C187.372 276.602 187.933 276.822 188.395 277.261C188.865 277.693 189.099 278.22 189.099 278.841C189.099 279.455 188.865 279.981 188.395 280.42C187.933 280.852 187.372 281.068 186.713 281.068ZM197.102 290.773V301H192.989V283.545H196.92V286.511H197.125C197.527 285.534 198.167 284.758 199.045 284.182C199.932 283.606 201.027 283.318 202.33 283.318C203.534 283.318 204.583 283.576 205.477 284.091C206.379 284.606 207.076 285.352 207.568 286.33C208.068 287.307 208.314 288.492 208.307 289.886V301H204.193V290.523C204.193 289.356 203.89 288.443 203.284 287.784C202.686 287.125 201.856 286.795 200.795 286.795C200.076 286.795 199.436 286.955 198.875 287.273C198.322 287.583 197.886 288.034 197.568 288.625C197.258 289.216 197.102 289.932 197.102 290.773ZM216.239 295.523L216.227 290.557H216.886L223.159 283.545H227.966L220.25 292.136H219.398L216.239 295.523ZM212.489 301V277.727H216.602V301H212.489ZM223.443 301L217.761 293.057L220.534 290.159L228.364 301H223.443Z" fill="#272727"/>
<path d="M28.4148 344.222H25.7557C25.6534 343.653 25.4631 343.153 25.1847 342.722C24.9063 342.29 24.5653 341.923 24.1619 341.622C23.7585 341.321 23.3068 341.094 22.8068 340.94C22.3125 340.787 21.7869 340.71 21.2301 340.71C20.2244 340.71 19.3239 340.963 18.5284 341.469C17.7386 341.974 17.1136 342.716 16.6534 343.693C16.1989 344.67 15.9716 345.864 15.9716 347.273C15.9716 348.693 16.1989 349.892 16.6534 350.869C17.1136 351.847 17.7415 352.585 18.5369 353.085C19.3324 353.585 20.2273 353.835 21.2216 353.835C21.7727 353.835 22.2955 353.761 22.7898 353.614C23.2898 353.46 23.7415 353.236 24.1449 352.94C24.5483 352.645 24.8892 352.284 25.1676 351.858C25.4517 351.426 25.6477 350.932 25.7557 350.375L28.4148 350.384C28.2727 351.241 27.9972 352.031 27.5881 352.753C27.1847 353.469 26.6648 354.088 26.0284 354.611C25.3977 355.128 24.6761 355.528 23.8636 355.812C23.0511 356.097 22.1648 356.239 21.2045 356.239C19.6932 356.239 18.3466 355.881 17.1648 355.165C15.983 354.443 15.0511 353.412 14.3693 352.071C13.6932 350.73 13.3551 349.131 13.3551 347.273C13.3551 345.409 13.696 343.81 14.3778 342.474C15.0597 341.134 15.9915 340.105 17.1733 339.389C18.3551 338.668 19.6989 338.307 21.2045 338.307C22.1307 338.307 22.9943 338.44 23.7955 338.707C24.6023 338.969 25.3267 339.355 25.9688 339.866C26.6108 340.372 27.142 340.991 27.5625 341.724C27.983 342.452 28.267 343.284 28.4148 344.222ZM33.9098 348.227V356H31.3615V338.545H33.8757V345.04H34.0376C34.3445 344.335 34.8132 343.776 35.4439 343.361C36.0746 342.946 36.8984 342.739 37.9155 342.739C38.8132 342.739 39.5973 342.923 40.2678 343.293C40.9439 343.662 41.4666 344.213 41.8359 344.946C42.2109 345.673 42.3984 346.582 42.3984 347.673V356H39.8501V347.98C39.8501 347.02 39.603 346.276 39.1087 345.747C38.6143 345.213 37.9268 344.946 37.0462 344.946C36.4439 344.946 35.9041 345.074 35.4268 345.33C34.9553 345.585 34.5831 345.96 34.3104 346.455C34.0433 346.943 33.9098 347.534 33.9098 348.227ZM51.3132 356.264C50.0859 356.264 49.0149 355.983 48.1001 355.42C47.1854 354.858 46.4751 354.071 45.9695 353.06C45.4638 352.048 45.2109 350.866 45.2109 349.514C45.2109 348.156 45.4638 346.969 45.9695 345.952C46.4751 344.935 47.1854 344.145 48.1001 343.582C49.0149 343.02 50.0859 342.739 51.3132 342.739C52.5405 342.739 53.6115 343.02 54.5263 343.582C55.4411 344.145 56.1513 344.935 56.657 345.952C57.1626 346.969 57.4155 348.156 57.4155 349.514C57.4155 350.866 57.1626 352.048 56.657 353.06C56.1513 354.071 55.4411 354.858 54.5263 355.42C53.6115 355.983 52.5405 356.264 51.3132 356.264ZM51.3217 354.125C52.1172 354.125 52.7763 353.915 53.299 353.494C53.8217 353.074 54.2081 352.514 54.4581 351.815C54.7138 351.116 54.8416 350.347 54.8416 349.506C54.8416 348.67 54.7138 347.903 54.4581 347.205C54.2081 346.5 53.8217 345.935 53.299 345.509C52.7763 345.082 52.1172 344.869 51.3217 344.869C50.5206 344.869 49.8558 345.082 49.3274 345.509C48.8047 345.935 48.4155 346.5 48.1598 347.205C47.9098 347.903 47.7848 348.67 47.7848 349.506C47.7848 350.347 47.9098 351.116 48.1598 351.815C48.4155 352.514 48.8047 353.074 49.3274 353.494C49.8558 353.915 50.5206 354.125 51.3217 354.125ZM65.7741 356.264C64.5469 356.264 63.4759 355.983 62.5611 355.42C61.6463 354.858 60.9361 354.071 60.4304 353.06C59.9247 352.048 59.6719 350.866 59.6719 349.514C59.6719 348.156 59.9247 346.969 60.4304 345.952C60.9361 344.935 61.6463 344.145 62.5611 343.582C63.4759 343.02 64.5469 342.739 65.7741 342.739C67.0014 342.739 68.0724 343.02 68.9872 343.582C69.902 344.145 70.6122 344.935 71.1179 345.952C71.6236 346.969 71.8764 348.156 71.8764 349.514C71.8764 350.866 71.6236 352.048 71.1179 353.06C70.6122 354.071 69.902 354.858 68.9872 355.42C68.0724 355.983 67.0014 356.264 65.7741 356.264ZM65.7827 354.125C66.5781 354.125 67.2372 353.915 67.7599 353.494C68.2827 353.074 68.669 352.514 68.919 351.815C69.1747 351.116 69.3026 350.347 69.3026 349.506C69.3026 348.67 69.1747 347.903 68.919 347.205C68.669 346.5 68.2827 345.935 67.7599 345.509C67.2372 345.082 66.5781 344.869 65.7827 344.869C64.9815 344.869 64.3168 345.082 63.7884 345.509C63.2656 345.935 62.8764 346.5 62.6207 347.205C62.3707 347.903 62.2457 348.67 62.2457 349.506C62.2457 350.347 62.3707 351.116 62.6207 351.815C62.8764 352.514 63.2656 353.074 63.7884 353.494C64.3168 353.915 64.9815 354.125 65.7827 354.125ZM84.5305 346.105L82.2209 346.514C82.1243 346.219 81.9709 345.937 81.7607 345.67C81.5561 345.403 81.2777 345.185 80.9254 345.014C80.5732 344.844 80.1328 344.759 79.6044 344.759C78.8828 344.759 78.2805 344.92 77.7976 345.244C77.3146 345.562 77.0732 345.974 77.0732 346.48C77.0732 346.918 77.2351 347.27 77.5589 347.537C77.8828 347.804 78.4055 348.023 79.1271 348.193L81.2067 348.67C82.4112 348.949 83.3089 349.378 83.8999 349.957C84.4908 350.537 84.7862 351.29 84.7862 352.216C84.7862 353 84.5589 353.699 84.1044 354.312C83.6555 354.92 83.0277 355.398 82.2209 355.744C81.4197 356.091 80.4908 356.264 79.4339 356.264C77.968 356.264 76.772 355.952 75.8459 355.327C74.9197 354.696 74.3516 353.801 74.1413 352.642L76.6044 352.267C76.7578 352.909 77.0732 353.395 77.5504 353.724C78.0277 354.048 78.6499 354.21 79.4169 354.21C80.2521 354.21 80.9197 354.037 81.4197 353.69C81.9197 353.338 82.1697 352.909 82.1697 352.403C82.1697 351.994 82.0163 351.651 81.7095 351.372C81.4084 351.094 80.9453 350.884 80.3203 350.741L78.1044 350.256C76.8828 349.977 75.9794 349.534 75.3942 348.926C74.8146 348.318 74.5249 347.548 74.5249 346.616C74.5249 345.844 74.7408 345.168 75.1726 344.588C75.6044 344.009 76.201 343.557 76.9624 343.233C77.7237 342.903 78.5959 342.739 79.5788 342.739C80.9936 342.739 82.1072 343.045 82.9197 343.659C83.7322 344.267 84.2692 345.082 84.5305 346.105ZM93.2301 356.264C91.9403 356.264 90.8295 355.989 89.8977 355.438C88.9716 354.881 88.2557 354.099 87.75 353.094C87.25 352.082 87 350.898 87 349.54C87 348.199 87.25 347.017 87.75 345.994C88.2557 344.972 88.9602 344.173 89.8636 343.599C90.7727 343.026 91.8352 342.739 93.0511 342.739C93.7898 342.739 94.5057 342.861 95.1989 343.105C95.892 343.349 96.5142 343.733 97.0653 344.256C97.6165 344.778 98.0511 345.457 98.3693 346.293C98.6875 347.122 98.8466 348.131 98.8466 349.318V350.222H88.4403V348.312H96.3494C96.3494 347.642 96.2131 347.048 95.9403 346.531C95.6676 346.009 95.2841 345.597 94.7898 345.295C94.3011 344.994 93.7273 344.844 93.0682 344.844C92.3523 344.844 91.7273 345.02 91.1932 345.372C90.6648 345.719 90.2557 346.173 89.9659 346.736C89.6818 347.293 89.5398 347.898 89.5398 348.551V350.043C89.5398 350.918 89.6932 351.662 90 352.276C90.3125 352.889 90.7472 353.358 91.304 353.682C91.8608 354 92.5114 354.159 93.2557 354.159C93.7386 354.159 94.179 354.091 94.5767 353.955C94.9744 353.812 95.3182 353.602 95.608 353.324C95.8977 353.045 96.1193 352.702 96.2727 352.293L98.6847 352.727C98.4915 353.437 98.1449 354.06 97.6449 354.594C97.1506 355.122 96.5284 355.534 95.7784 355.83C95.0341 356.119 94.1847 356.264 93.2301 356.264ZM111.835 356.29C111.006 356.29 110.256 356.136 109.585 355.83C108.915 355.517 108.384 355.065 107.991 354.474C107.605 353.884 107.412 353.159 107.412 352.301C107.412 351.562 107.554 350.955 107.838 350.477C108.122 350 108.506 349.622 108.989 349.344C109.472 349.065 110.011 348.855 110.608 348.713C111.205 348.571 111.813 348.463 112.432 348.389C113.216 348.298 113.852 348.224 114.341 348.168C114.83 348.105 115.185 348.006 115.406 347.869C115.628 347.733 115.739 347.511 115.739 347.205V347.145C115.739 346.401 115.528 345.824 115.108 345.415C114.693 345.006 114.074 344.801 113.25 344.801C112.392 344.801 111.716 344.991 111.222 345.372C110.733 345.747 110.395 346.165 110.207 346.625L107.812 346.08C108.097 345.284 108.511 344.642 109.057 344.153C109.608 343.659 110.241 343.301 110.957 343.08C111.673 342.852 112.426 342.739 113.216 342.739C113.739 342.739 114.293 342.801 114.878 342.926C115.469 343.045 116.02 343.267 116.531 343.591C117.048 343.915 117.472 344.378 117.801 344.98C118.131 345.577 118.295 346.352 118.295 347.307V356H115.807V354.21H115.705C115.54 354.54 115.293 354.864 114.963 355.182C114.634 355.5 114.21 355.764 113.693 355.974C113.176 356.185 112.557 356.29 111.835 356.29ZM112.389 354.244C113.094 354.244 113.696 354.105 114.196 353.827C114.702 353.548 115.085 353.185 115.347 352.736C115.614 352.281 115.747 351.795 115.747 351.278V349.591C115.656 349.682 115.48 349.767 115.219 349.847C114.963 349.92 114.67 349.986 114.341 350.043C114.011 350.094 113.69 350.142 113.378 350.188C113.065 350.227 112.804 350.261 112.594 350.29C112.099 350.352 111.648 350.457 111.239 350.605C110.835 350.753 110.511 350.966 110.267 351.244C110.028 351.517 109.909 351.881 109.909 352.335C109.909 352.966 110.142 353.443 110.608 353.767C111.074 354.085 111.668 354.244 112.389 354.244ZM124.238 348.227V356H121.69V342.909H124.136V345.04H124.298C124.599 344.347 125.07 343.79 125.712 343.369C126.36 342.949 127.175 342.739 128.158 342.739C129.05 342.739 129.832 342.926 130.502 343.301C131.173 343.67 131.692 344.222 132.062 344.955C132.431 345.687 132.616 346.594 132.616 347.673V356H130.067V347.98C130.067 347.031 129.82 346.29 129.326 345.756C128.832 345.216 128.153 344.946 127.289 344.946C126.698 344.946 126.173 345.074 125.712 345.33C125.258 345.585 124.897 345.96 124.63 346.455C124.369 346.943 124.238 347.534 124.238 348.227ZM137.175 360.909C136.795 360.909 136.448 360.878 136.136 360.815C135.823 360.759 135.59 360.696 135.437 360.628L136.05 358.54C136.516 358.665 136.931 358.719 137.295 358.702C137.658 358.685 137.979 358.548 138.258 358.293C138.542 358.037 138.792 357.619 139.008 357.04L139.323 356.17L134.533 342.909H137.261L140.576 353.068H140.712L144.028 342.909H146.763L141.369 357.747C141.119 358.429 140.8 359.006 140.414 359.477C140.028 359.955 139.567 360.313 139.033 360.551C138.499 360.79 137.88 360.909 137.175 360.909ZM161.152 356.264C159.862 356.264 158.751 355.989 157.82 355.438C156.893 354.881 156.178 354.099 155.672 353.094C155.172 352.082 154.922 350.898 154.922 349.54C154.922 348.199 155.172 347.017 155.672 345.994C156.178 344.972 156.882 344.173 157.786 343.599C158.695 343.026 159.757 342.739 160.973 342.739C161.712 342.739 162.428 342.861 163.121 343.105C163.814 343.349 164.436 343.733 164.987 344.256C165.538 344.778 165.973 345.457 166.291 346.293C166.609 347.122 166.768 348.131 166.768 349.318V350.222H156.362V348.312H164.271C164.271 347.642 164.135 347.048 163.862 346.531C163.589 346.009 163.206 345.597 162.712 345.295C162.223 344.994 161.649 344.844 160.99 344.844C160.274 344.844 159.649 345.02 159.115 345.372C158.587 345.719 158.178 346.173 157.888 346.736C157.604 347.293 157.462 347.898 157.462 348.551V350.043C157.462 350.918 157.615 351.662 157.922 352.276C158.234 352.889 158.669 353.358 159.226 353.682C159.783 354 160.433 354.159 161.178 354.159C161.661 354.159 162.101 354.091 162.499 353.955C162.896 353.812 163.24 353.602 163.53 353.324C163.82 353.045 164.041 352.702 164.195 352.293L166.607 352.727C166.413 353.437 166.067 354.06 165.567 354.594C165.072 355.122 164.45 355.534 163.7 355.83C162.956 356.119 162.107 356.264 161.152 356.264ZM174.496 356.256C173.44 356.256 172.496 355.986 171.667 355.446C170.843 354.901 170.195 354.125 169.724 353.119C169.258 352.108 169.025 350.895 169.025 349.48C169.025 348.065 169.261 346.855 169.732 345.849C170.21 344.844 170.863 344.074 171.692 343.54C172.522 343.006 173.462 342.739 174.513 342.739C175.326 342.739 175.979 342.875 176.474 343.148C176.974 343.415 177.36 343.727 177.633 344.085C177.911 344.443 178.127 344.759 178.281 345.031H178.434V338.545H180.982V356H178.494V353.963H178.281C178.127 354.241 177.906 354.56 177.616 354.918C177.332 355.276 176.94 355.588 176.44 355.855C175.94 356.122 175.292 356.256 174.496 356.256ZM175.059 354.082C175.792 354.082 176.411 353.889 176.917 353.503C177.428 353.111 177.815 352.568 178.076 351.875C178.343 351.182 178.477 350.375 178.477 349.455C178.477 348.545 178.346 347.75 178.085 347.068C177.823 346.386 177.44 345.855 176.934 345.474C176.428 345.094 175.803 344.903 175.059 344.903C174.292 344.903 173.653 345.102 173.141 345.5C172.63 345.898 172.244 346.44 171.982 347.128C171.727 347.815 171.599 348.591 171.599 349.455C171.599 350.33 171.729 351.116 171.991 351.815C172.252 352.514 172.638 353.068 173.15 353.477C173.667 353.881 174.303 354.082 175.059 354.082ZM192.912 350.571V342.909H195.469V356H192.963V353.733H192.827C192.526 354.432 192.043 355.014 191.378 355.48C190.719 355.94 189.898 356.17 188.915 356.17C188.074 356.17 187.33 355.986 186.682 355.616C186.04 355.241 185.534 354.688 185.165 353.955C184.801 353.222 184.619 352.315 184.619 351.236V342.909H187.168V350.929C187.168 351.821 187.415 352.531 187.909 353.06C188.403 353.588 189.045 353.852 189.835 353.852C190.313 353.852 190.787 353.733 191.259 353.494C191.736 353.256 192.131 352.895 192.443 352.412C192.761 351.929 192.918 351.315 192.912 350.571ZM204.407 356.264C203.14 356.264 202.049 355.977 201.134 355.403C200.225 354.824 199.526 354.026 199.038 353.009C198.549 351.991 198.305 350.827 198.305 349.514C198.305 348.185 198.555 347.011 199.055 345.994C199.555 344.972 200.259 344.173 201.168 343.599C202.077 343.026 203.148 342.739 204.381 342.739C205.376 342.739 206.262 342.923 207.04 343.293C207.819 343.656 208.447 344.168 208.924 344.827C209.407 345.486 209.694 346.256 209.785 347.136H207.305C207.168 346.523 206.856 345.994 206.367 345.551C205.884 345.108 205.237 344.886 204.424 344.886C203.714 344.886 203.092 345.074 202.558 345.449C202.029 345.818 201.617 346.347 201.322 347.034C201.026 347.716 200.879 348.523 200.879 349.455C200.879 350.409 201.023 351.233 201.313 351.926C201.603 352.619 202.012 353.156 202.54 353.537C203.075 353.918 203.702 354.108 204.424 354.108C204.907 354.108 205.344 354.02 205.737 353.844C206.134 353.662 206.467 353.403 206.734 353.068C207.006 352.733 207.197 352.33 207.305 351.858H209.785C209.694 352.705 209.418 353.46 208.958 354.125C208.498 354.79 207.881 355.312 207.109 355.693C206.342 356.074 205.441 356.264 204.407 356.264ZM216.32 356.29C215.49 356.29 214.74 356.136 214.07 355.83C213.399 355.517 212.868 355.065 212.476 354.474C212.089 353.884 211.896 353.159 211.896 352.301C211.896 351.562 212.038 350.955 212.322 350.477C212.607 350 212.99 349.622 213.473 349.344C213.956 349.065 214.496 348.855 215.092 348.713C215.689 348.571 216.297 348.463 216.916 348.389C217.7 348.298 218.337 348.224 218.825 348.168C219.314 348.105 219.669 348.006 219.891 347.869C220.112 347.733 220.223 347.511 220.223 347.205V347.145C220.223 346.401 220.013 345.824 219.592 345.415C219.178 345.006 218.558 344.801 217.734 344.801C216.876 344.801 216.2 344.991 215.706 345.372C215.217 345.747 214.879 346.165 214.692 346.625L212.297 346.08C212.581 345.284 212.996 344.642 213.541 344.153C214.092 343.659 214.726 343.301 215.442 343.08C216.158 342.852 216.911 342.739 217.7 342.739C218.223 342.739 218.777 342.801 219.362 342.926C219.953 343.045 220.504 343.267 221.016 343.591C221.533 343.915 221.956 344.378 222.286 344.98C222.615 345.577 222.78 346.352 222.78 347.307V356H220.291V354.21H220.189C220.024 354.54 219.777 354.864 219.447 355.182C219.118 355.5 218.695 355.764 218.178 355.974C217.661 356.185 217.041 356.29 216.32 356.29ZM216.874 354.244C217.578 354.244 218.18 354.105 218.68 353.827C219.186 353.548 219.57 353.185 219.831 352.736C220.098 352.281 220.232 351.795 220.232 351.278V349.591C220.141 349.682 219.964 349.767 219.703 349.847C219.447 349.92 219.155 349.986 218.825 350.043C218.496 350.094 218.175 350.142 217.862 350.188C217.55 350.227 217.288 350.261 217.078 350.29C216.584 350.352 216.132 350.457 215.723 350.605C215.32 350.753 214.996 350.966 214.751 351.244C214.513 351.517 214.393 351.881 214.393 352.335C214.393 352.966 214.626 353.443 215.092 353.767C215.558 354.085 216.152 354.244 216.874 354.244ZM232.285 342.909V344.955H225.134V342.909H232.285ZM227.052 339.773H229.6V352.156C229.6 352.651 229.674 353.023 229.822 353.273C229.969 353.517 230.16 353.685 230.393 353.776C230.631 353.861 230.89 353.903 231.168 353.903C231.373 353.903 231.552 353.889 231.705 353.861C231.859 353.832 231.978 353.81 232.063 353.793L232.523 355.898C232.376 355.955 232.165 356.011 231.893 356.068C231.62 356.131 231.279 356.165 230.87 356.17C230.2 356.182 229.575 356.062 228.995 355.812C228.415 355.562 227.947 355.176 227.589 354.653C227.231 354.131 227.052 353.474 227.052 352.685V339.773ZM235.104 356V342.909H237.652V356H235.104ZM236.391 340.889C235.947 340.889 235.567 340.741 235.249 340.446C234.936 340.145 234.78 339.787 234.78 339.372C234.78 338.952 234.936 338.594 235.249 338.298C235.567 337.997 235.947 337.847 236.391 337.847C236.834 337.847 237.212 337.997 237.524 338.298C237.842 338.594 238.001 338.952 238.001 339.372C238.001 339.787 237.842 340.145 237.524 340.446C237.212 340.741 236.834 340.889 236.391 340.889ZM246.594 356.264C245.367 356.264 244.296 355.983 243.381 355.42C242.467 354.858 241.756 354.071 241.251 353.06C240.745 352.048 240.492 350.866 240.492 349.514C240.492 348.156 240.745 346.969 241.251 345.952C241.756 344.935 242.467 344.145 243.381 343.582C244.296 343.02 245.367 342.739 246.594 342.739C247.822 342.739 248.893 343.02 249.808 343.582C250.722 344.145 251.433 344.935 251.938 345.952C252.444 346.969 252.697 348.156 252.697 349.514C252.697 350.866 252.444 352.048 251.938 353.06C251.433 354.071 250.722 354.858 249.808 355.42C248.893 355.983 247.822 356.264 246.594 356.264ZM246.603 354.125C247.398 354.125 248.058 353.915 248.58 353.494C249.103 353.074 249.489 352.514 249.739 351.815C249.995 351.116 250.123 350.347 250.123 349.506C250.123 348.67 249.995 347.903 249.739 347.205C249.489 346.5 249.103 345.935 248.58 345.509C248.058 345.082 247.398 344.869 246.603 344.869C245.802 344.869 245.137 345.082 244.609 345.509C244.086 345.935 243.697 346.5 243.441 347.205C243.191 347.903 243.066 348.67 243.066 349.506C243.066 350.347 243.191 351.116 243.441 351.815C243.697 352.514 244.086 353.074 244.609 353.494C245.137 353.915 245.802 354.125 246.603 354.125ZM258.089 348.227V356H255.541V342.909H257.987V345.04H258.149C258.45 344.347 258.922 343.79 259.564 343.369C260.212 342.949 261.027 342.739 262.01 342.739C262.902 342.739 263.683 342.926 264.354 343.301C265.024 343.67 265.544 344.222 265.913 344.955C266.283 345.687 266.467 346.594 266.467 347.673V356H263.919V347.98C263.919 347.031 263.672 346.29 263.178 345.756C262.683 345.216 262.004 344.946 261.141 344.946C260.55 344.946 260.024 345.074 259.564 345.33C259.109 345.585 258.749 345.96 258.482 346.455C258.22 346.943 258.089 347.534 258.089 348.227ZM273.695 356.29C272.865 356.29 272.115 356.136 271.445 355.83C270.774 355.517 270.243 355.065 269.851 354.474C269.464 353.884 269.271 353.159 269.271 352.301C269.271 351.562 269.413 350.955 269.697 350.477C269.982 350 270.365 349.622 270.848 349.344C271.331 349.065 271.871 348.855 272.467 348.713C273.064 348.571 273.672 348.463 274.291 348.389C275.075 348.298 275.712 348.224 276.2 348.168C276.689 348.105 277.044 348.006 277.266 347.869C277.487 347.733 277.598 347.511 277.598 347.205V347.145C277.598 346.401 277.388 345.824 276.967 345.415C276.553 345.006 275.933 344.801 275.109 344.801C274.251 344.801 273.575 344.991 273.081 345.372C272.592 345.747 272.254 346.165 272.067 346.625L269.672 346.08C269.956 345.284 270.371 344.642 270.916 344.153C271.467 343.659 272.101 343.301 272.817 343.08C273.533 342.852 274.286 342.739 275.075 342.739C275.598 342.739 276.152 342.801 276.737 342.926C277.328 343.045 277.879 343.267 278.391 343.591C278.908 343.915 279.331 344.378 279.661 344.98C279.99 345.577 280.155 346.352 280.155 347.307V356H277.666V354.21H277.564C277.399 354.54 277.152 354.864 276.822 355.182C276.493 355.5 276.07 355.764 275.553 355.974C275.036 356.185 274.416 356.29 273.695 356.29ZM274.249 354.244C274.953 354.244 275.555 354.105 276.055 353.827C276.561 353.548 276.945 353.185 277.206 352.736C277.473 352.281 277.607 351.795 277.607 351.278V349.591C277.516 349.682 277.339 349.767 277.078 349.847C276.822 349.92 276.53 349.986 276.2 350.043C275.871 350.094 275.55 350.142 275.237 350.188C274.925 350.227 274.663 350.261 274.453 350.29C273.959 350.352 273.507 350.457 273.098 350.605C272.695 350.753 272.371 350.966 272.126 351.244C271.888 351.517 271.768 351.881 271.768 352.335C271.768 352.966 272.001 353.443 272.467 353.767C272.933 354.085 273.527 354.244 274.249 354.244ZM286.097 338.545V356H283.549V338.545H286.097ZM307.076 342.909L302.329 356H299.602L294.846 342.909H297.582L300.897 352.983H301.033L304.34 342.909H307.076ZM309.471 356V342.909H312.019V356H309.471ZM310.758 340.889C310.315 340.889 309.934 340.741 309.616 340.446C309.303 340.145 309.147 339.787 309.147 339.372C309.147 338.952 309.303 338.594 309.616 338.298C309.934 337.997 310.315 337.847 310.758 337.847C311.201 337.847 311.579 337.997 311.891 338.298C312.21 338.594 312.369 338.952 312.369 339.372C312.369 339.787 312.21 340.145 311.891 340.446C311.579 340.741 311.201 340.889 310.758 340.889ZM320.348 356.256C319.291 356.256 318.348 355.986 317.518 355.446C316.695 354.901 316.047 354.125 315.575 353.119C315.109 352.108 314.876 350.895 314.876 349.48C314.876 348.065 315.112 346.855 315.584 345.849C316.061 344.844 316.714 344.074 317.544 343.54C318.374 343.006 319.314 342.739 320.365 342.739C321.178 342.739 321.831 342.875 322.325 343.148C322.825 343.415 323.212 343.727 323.484 344.085C323.763 344.443 323.979 344.759 324.132 345.031H324.286V338.545H326.834V356H324.345V353.963H324.132C323.979 354.241 323.757 354.56 323.467 354.918C323.183 355.276 322.791 355.588 322.291 355.855C321.791 356.122 321.143 356.256 320.348 356.256ZM320.911 354.082C321.643 354.082 322.263 353.889 322.768 353.503C323.28 353.111 323.666 352.568 323.928 351.875C324.195 351.182 324.328 350.375 324.328 349.455C324.328 348.545 324.197 347.75 323.936 347.068C323.675 346.386 323.291 345.855 322.786 345.474C322.28 345.094 321.655 344.903 320.911 344.903C320.143 344.903 319.504 345.102 318.993 345.5C318.482 345.898 318.095 346.44 317.834 347.128C317.578 347.815 317.45 348.591 317.45 349.455C317.45 350.33 317.581 351.116 317.842 351.815C318.104 352.514 318.49 353.068 319.001 353.477C319.518 353.881 320.155 354.082 320.911 354.082ZM336.113 356.264C334.823 356.264 333.712 355.989 332.781 355.438C331.854 354.881 331.138 354.099 330.633 353.094C330.133 352.082 329.883 350.898 329.883 349.54C329.883 348.199 330.133 347.017 330.633 345.994C331.138 344.972 331.843 344.173 332.746 343.599C333.656 343.026 334.718 342.739 335.934 342.739C336.673 342.739 337.388 342.861 338.082 343.105C338.775 343.349 339.397 343.733 339.948 344.256C340.499 344.778 340.934 345.457 341.252 346.293C341.57 347.122 341.729 348.131 341.729 349.318V350.222H331.323V348.312H339.232C339.232 347.642 339.096 347.048 338.823 346.531C338.55 346.009 338.167 345.597 337.673 345.295C337.184 344.994 336.61 344.844 335.951 344.844C335.235 344.844 334.61 345.02 334.076 345.372C333.548 345.719 333.138 346.173 332.849 346.736C332.565 347.293 332.423 347.898 332.423 348.551V350.043C332.423 350.918 332.576 351.662 332.883 352.276C333.195 352.889 333.63 353.358 334.187 353.682C334.744 354 335.394 354.159 336.138 354.159C336.621 354.159 337.062 354.091 337.46 353.955C337.857 353.812 338.201 353.602 338.491 353.324C338.781 353.045 339.002 352.702 339.156 352.293L341.567 352.727C341.374 353.437 341.028 354.06 340.528 354.594C340.033 355.122 339.411 355.534 338.661 355.83C337.917 356.119 337.067 356.264 336.113 356.264ZM350.071 356.264C348.844 356.264 347.773 355.983 346.858 355.42C345.943 354.858 345.233 354.071 344.727 353.06C344.222 352.048 343.969 350.866 343.969 349.514C343.969 348.156 344.222 346.969 344.727 345.952C345.233 344.935 345.943 344.145 346.858 343.582C347.773 343.02 348.844 342.739 350.071 342.739C351.298 342.739 352.369 343.02 353.284 343.582C354.199 344.145 354.909 344.935 355.415 345.952C355.92 346.969 356.173 348.156 356.173 349.514C356.173 350.866 355.92 352.048 355.415 353.06C354.909 354.071 354.199 354.858 353.284 355.42C352.369 355.983 351.298 356.264 350.071 356.264ZM350.08 354.125C350.875 354.125 351.534 353.915 352.057 353.494C352.58 353.074 352.966 352.514 353.216 351.815C353.472 351.116 353.599 350.347 353.599 349.506C353.599 348.67 353.472 347.903 353.216 347.205C352.966 346.5 352.58 345.935 352.057 345.509C351.534 345.082 350.875 344.869 350.08 344.869C349.278 344.869 348.614 345.082 348.085 345.509C347.563 345.935 347.173 346.5 346.918 347.205C346.668 347.903 346.543 348.67 346.543 349.506C346.543 350.347 346.668 351.116 346.918 351.815C347.173 352.514 347.563 353.074 348.085 353.494C348.614 353.915 349.278 354.125 350.08 354.125ZM15.3239 389.909C14.9432 389.909 14.5966 389.878 14.2841 389.815C13.9716 389.759 13.7386 389.696 13.5852 389.628L14.1989 387.54C14.6648 387.665 15.0795 387.719 15.4432 387.702C15.8068 387.685 16.1278 387.548 16.4062 387.293C16.6903 387.037 16.9403 386.619 17.1562 386.04L17.4716 385.17L12.6818 371.909H15.4091L18.7244 382.068H18.8608L22.1761 371.909H24.9119L19.517 386.747C19.267 387.429 18.9489 388.006 18.5625 388.477C18.1761 388.955 17.7159 389.313 17.1818 389.551C16.6477 389.79 16.0284 389.909 15.3239 389.909ZM32.3757 385.264C31.1484 385.264 30.0774 384.983 29.1626 384.42C28.2479 383.858 27.5376 383.071 27.032 382.06C26.5263 381.048 26.2734 379.866 26.2734 378.514C26.2734 377.156 26.5263 375.969 27.032 374.952C27.5376 373.935 28.2479 373.145 29.1626 372.582C30.0774 372.02 31.1484 371.739 32.3757 371.739C33.603 371.739 34.674 372.02 35.5888 372.582C36.5036 373.145 37.2138 373.935 37.7195 374.952C38.2251 375.969 38.478 377.156 38.478 378.514C38.478 379.866 38.2251 381.048 37.7195 382.06C37.2138 383.071 36.5036 383.858 35.5888 384.42C34.674 384.983 33.603 385.264 32.3757 385.264ZM32.3842 383.125C33.1797 383.125 33.8388 382.915 34.3615 382.494C34.8842 382.074 35.2706 381.514 35.5206 380.815C35.7763 380.116 35.9041 379.347 35.9041 378.506C35.9041 377.67 35.7763 376.903 35.5206 376.205C35.2706 375.5 34.8842 374.935 34.3615 374.509C33.8388 374.082 33.1797 373.869 32.3842 373.869C31.5831 373.869 30.9183 374.082 30.3899 374.509C29.8672 374.935 29.478 375.5 29.2223 376.205C28.9723 376.903 28.8473 377.67 28.8473 378.506C28.8473 379.347 28.9723 380.116 29.2223 380.815C29.478 381.514 29.8672 382.074 30.3899 382.494C30.9183 382.915 31.5831 383.125 32.3842 383.125ZM49.6151 379.571V371.909H52.1719V385H49.6662V382.733H49.5298C49.2287 383.432 48.7457 384.014 48.081 384.48C47.4219 384.94 46.6009 385.17 45.6179 385.17C44.777 385.17 44.0327 384.986 43.3849 384.616C42.7429 384.241 42.2372 383.688 41.8679 382.955C41.5043 382.222 41.3224 381.315 41.3224 380.236V371.909H43.8707V379.929C43.8707 380.821 44.1179 381.531 44.6122 382.06C45.1065 382.588 45.7486 382.852 46.5384 382.852C47.0156 382.852 47.4901 382.733 47.9616 382.494C48.4389 382.256 48.8338 381.895 49.1463 381.412C49.4645 380.929 49.6207 380.315 49.6151 379.571ZM64.7855 385L60.9332 371.909H63.5668L66.1321 381.523H66.2599L68.8338 371.909H71.4673L74.0241 381.48H74.152L76.7003 371.909H79.3338L75.4901 385H72.8906L70.2315 375.548H70.0355L67.3764 385H64.7855ZM85.5618 385.29C84.7322 385.29 83.9822 385.136 83.3118 384.83C82.6413 384.517 82.1101 384.065 81.718 383.474C81.3317 382.884 81.1385 382.159 81.1385 381.301C81.1385 380.562 81.2805 379.955 81.5646 379.477C81.8487 379 82.2322 378.622 82.7152 378.344C83.1982 378.065 83.7379 377.855 84.3345 377.713C84.9311 377.571 85.5391 377.463 86.1584 377.389C86.9425 377.298 87.5788 377.224 88.0675 377.168C88.5561 377.105 88.9112 377.006 89.1328 376.869C89.3544 376.733 89.4652 376.511 89.4652 376.205V376.145C89.4652 375.401 89.255 374.824 88.8345 374.415C88.4197 374.006 87.8004 373.801 86.9766 373.801C86.1186 373.801 85.4425 373.991 84.9482 374.372C84.4595 374.747 84.1214 375.165 83.9339 375.625L81.5391 375.08C81.8232 374.284 82.2379 373.642 82.7834 373.153C83.3345 372.659 83.968 372.301 84.6839 372.08C85.3999 371.852 86.1527 371.739 86.9425 371.739C87.4652 371.739 88.0192 371.801 88.6044 371.926C89.1953 372.045 89.7464 372.267 90.2578 372.591C90.7749 372.915 91.1982 373.378 91.5277 373.98C91.8572 374.577 92.022 375.352 92.022 376.307V385H89.5334V383.21H89.4311C89.2663 383.54 89.0192 383.864 88.6896 384.182C88.3601 384.5 87.9368 384.764 87.4197 384.974C86.9027 385.185 86.2834 385.29 85.5618 385.29ZM86.1158 383.244C86.8203 383.244 87.4226 383.105 87.9226 382.827C88.4283 382.548 88.8118 382.185 89.0732 381.736C89.3402 381.281 89.4737 380.795 89.4737 380.278V378.591C89.3828 378.682 89.2067 378.767 88.9453 378.847C88.6896 378.92 88.397 378.986 88.0675 379.043C87.7379 379.094 87.4169 379.142 87.1044 379.188C86.7919 379.227 86.5305 379.261 86.3203 379.29C85.826 379.352 85.3743 379.457 84.9652 379.605C84.5618 379.753 84.2379 379.966 83.9936 380.244C83.755 380.517 83.6357 380.881 83.6357 381.335C83.6357 381.966 83.8686 382.443 84.3345 382.767C84.8004 383.085 85.3942 383.244 86.1158 383.244ZM97.9645 377.227V385H95.4162V371.909H97.8622V374.04H98.0241C98.3253 373.347 98.7969 372.79 99.4389 372.369C100.087 371.949 100.902 371.739 101.885 371.739C102.777 371.739 103.558 371.926 104.229 372.301C104.899 372.67 105.419 373.222 105.788 373.955C106.158 374.687 106.342 375.594 106.342 376.673V385H103.794V376.98C103.794 376.031 103.547 375.29 103.053 374.756C102.558 374.216 101.879 373.946 101.016 373.946C100.425 373.946 99.8991 374.074 99.4389 374.33C98.9844 374.585 98.6236 374.96 98.3565 375.455C98.0952 375.943 97.9645 376.534 97.9645 377.227ZM115.871 371.909V373.955H108.72V371.909H115.871ZM110.638 368.773H113.186V381.156C113.186 381.651 113.26 382.023 113.408 382.273C113.555 382.517 113.746 382.685 113.979 382.776C114.217 382.861 114.476 382.903 114.754 382.903C114.959 382.903 115.138 382.889 115.291 382.861C115.445 382.832 115.564 382.81 115.649 382.793L116.109 384.898C115.962 384.955 115.751 385.011 115.479 385.068C115.206 385.131 114.865 385.165 114.456 385.17C113.786 385.182 113.161 385.062 112.581 384.812C112.001 384.562 111.533 384.176 111.175 383.653C110.817 383.131 110.638 382.474 110.638 381.685V368.773ZM122.005 382.614L121.877 383.543C121.792 384.224 121.647 384.935 121.442 385.673C121.244 386.418 121.036 387.108 120.82 387.744C120.61 388.381 120.437 388.886 120.3 389.261H118.494C118.567 388.909 118.67 388.432 118.8 387.83C118.931 387.233 119.059 386.565 119.184 385.827C119.309 385.088 119.403 384.335 119.465 383.568L119.55 382.614H122.005ZM137.188 385.264C135.921 385.264 134.83 384.977 133.915 384.403C133.006 383.824 132.308 383.026 131.819 382.009C131.33 380.991 131.086 379.827 131.086 378.514C131.086 377.185 131.336 376.011 131.836 374.994C132.336 373.972 133.04 373.173 133.95 372.599C134.859 372.026 135.93 371.739 137.163 371.739C138.157 371.739 139.043 371.923 139.822 372.293C140.6 372.656 141.228 373.168 141.705 373.827C142.188 374.486 142.475 375.256 142.566 376.136H140.086C139.95 375.523 139.637 374.994 139.148 374.551C138.665 374.108 138.018 373.886 137.205 373.886C136.495 373.886 135.873 374.074 135.339 374.449C134.81 374.818 134.398 375.347 134.103 376.034C133.808 376.716 133.66 377.523 133.66 378.455C133.66 379.409 133.805 380.233 134.094 380.926C134.384 381.619 134.793 382.156 135.322 382.537C135.856 382.918 136.484 383.108 137.205 383.108C137.688 383.108 138.126 383.02 138.518 382.844C138.915 382.662 139.248 382.403 139.515 382.068C139.788 381.733 139.978 381.33 140.086 380.858H142.566C142.475 381.705 142.2 382.46 141.739 383.125C141.279 383.79 140.663 384.312 139.89 384.693C139.123 385.074 138.222 385.264 137.188 385.264ZM150.805 385.264C149.578 385.264 148.507 384.983 147.592 384.42C146.678 383.858 145.967 383.071 145.462 382.06C144.956 381.048 144.703 379.866 144.703 378.514C144.703 377.156 144.956 375.969 145.462 374.952C145.967 373.935 146.678 373.145 147.592 372.582C148.507 372.02 149.578 371.739 150.805 371.739C152.033 371.739 153.104 372.02 154.018 372.582C154.933 373.145 155.643 373.935 156.149 374.952C156.655 375.969 156.908 377.156 156.908 378.514C156.908 379.866 156.655 381.048 156.149 382.06C155.643 383.071 154.933 383.858 154.018 384.42C153.104 384.983 152.033 385.264 150.805 385.264ZM150.814 383.125C151.609 383.125 152.268 382.915 152.791 382.494C153.314 382.074 153.7 381.514 153.95 380.815C154.206 380.116 154.334 379.347 154.334 378.506C154.334 377.67 154.206 376.903 153.95 376.205C153.7 375.5 153.314 374.935 152.791 374.509C152.268 374.082 151.609 373.869 150.814 373.869C150.013 373.869 149.348 374.082 148.82 374.509C148.297 374.935 147.908 375.5 147.652 376.205C147.402 376.903 147.277 377.67 147.277 378.506C147.277 379.347 147.402 380.116 147.652 380.815C147.908 381.514 148.297 382.074 148.82 382.494C149.348 382.915 150.013 383.125 150.814 383.125ZM159.752 389.909V371.909H162.241V374.031H162.454C162.602 373.759 162.815 373.443 163.093 373.085C163.371 372.727 163.758 372.415 164.252 372.148C164.746 371.875 165.4 371.739 166.212 371.739C167.269 371.739 168.212 372.006 169.042 372.54C169.871 373.074 170.522 373.844 170.994 374.849C171.471 375.855 171.71 377.065 171.71 378.48C171.71 379.895 171.474 381.108 171.002 382.119C170.531 383.125 169.883 383.901 169.059 384.446C168.235 384.986 167.295 385.256 166.238 385.256C165.442 385.256 164.792 385.122 164.286 384.855C163.786 384.588 163.394 384.276 163.11 383.918C162.826 383.56 162.607 383.241 162.454 382.963H162.3V389.909H159.752ZM162.249 378.455C162.249 379.375 162.383 380.182 162.65 380.875C162.917 381.568 163.303 382.111 163.809 382.503C164.315 382.889 164.934 383.082 165.667 383.082C166.428 383.082 167.065 382.881 167.576 382.477C168.087 382.068 168.474 381.514 168.735 380.815C169.002 380.116 169.136 379.33 169.136 378.455C169.136 377.591 169.005 376.815 168.744 376.128C168.488 375.44 168.102 374.898 167.585 374.5C167.073 374.102 166.434 373.903 165.667 373.903C164.928 373.903 164.303 374.094 163.792 374.474C163.286 374.855 162.903 375.386 162.641 376.068C162.38 376.75 162.249 377.545 162.249 378.455ZM175.73 389.909C175.349 389.909 175.003 389.878 174.69 389.815C174.378 389.759 174.145 389.696 173.991 389.628L174.605 387.54C175.071 387.665 175.486 387.719 175.849 387.702C176.213 387.685 176.534 387.548 176.812 387.293C177.097 387.037 177.347 386.619 177.562 386.04L177.878 385.17L173.088 371.909H175.815L179.131 382.068H179.267L182.582 371.909H185.318L179.923 386.747C179.673 387.429 179.355 388.006 178.969 388.477C178.582 388.955 178.122 389.313 177.588 389.551C177.054 389.79 176.435 389.909 175.73 389.909ZM194.065 385V371.909H196.613V385H194.065ZM195.352 369.889C194.908 369.889 194.528 369.741 194.21 369.446C193.897 369.145 193.741 368.787 193.741 368.372C193.741 367.952 193.897 367.594 194.21 367.298C194.528 366.997 194.908 366.847 195.352 366.847C195.795 366.847 196.173 366.997 196.485 367.298C196.803 367.594 196.962 367.952 196.962 368.372C196.962 368.787 196.803 369.145 196.485 369.446C196.173 369.741 195.795 369.889 195.352 369.889ZM206.152 371.909V373.955H199.001V371.909H206.152ZM200.919 368.773H203.467V381.156C203.467 381.651 203.541 382.023 203.689 382.273C203.837 382.517 204.027 382.685 204.26 382.776C204.499 382.861 204.757 382.903 205.036 382.903C205.24 382.903 205.419 382.889 205.572 382.861C205.726 382.832 205.845 382.81 205.93 382.793L206.391 384.898C206.243 384.955 206.033 385.011 205.76 385.068C205.487 385.131 205.146 385.165 204.737 385.17C204.067 385.182 203.442 385.062 202.862 384.812C202.283 384.562 201.814 384.176 201.456 383.653C201.098 383.131 200.919 382.474 200.919 381.685V368.773ZM218.57 375.105L216.26 375.514C216.163 375.219 216.01 374.937 215.8 374.67C215.595 374.403 215.317 374.185 214.964 374.014C214.612 373.844 214.172 373.759 213.643 373.759C212.922 373.759 212.32 373.92 211.837 374.244C211.354 374.562 211.112 374.974 211.112 375.48C211.112 375.918 211.274 376.27 211.598 376.537C211.922 376.804 212.445 377.023 213.166 377.193L215.246 377.67C216.45 377.949 217.348 378.378 217.939 378.957C218.53 379.537 218.825 380.29 218.825 381.216C218.825 382 218.598 382.699 218.143 383.312C217.695 383.92 217.067 384.398 216.26 384.744C215.459 385.091 214.53 385.264 213.473 385.264C212.007 385.264 210.811 384.952 209.885 384.327C208.959 383.696 208.391 382.801 208.18 381.642L210.643 381.267C210.797 381.909 211.112 382.395 211.589 382.724C212.067 383.048 212.689 383.21 213.456 383.21C214.291 383.21 214.959 383.037 215.459 382.69C215.959 382.338 216.209 381.909 216.209 381.403C216.209 380.994 216.055 380.651 215.749 380.372C215.447 380.094 214.984 379.884 214.359 379.741L212.143 379.256C210.922 378.977 210.018 378.534 209.433 377.926C208.854 377.318 208.564 376.548 208.564 375.616C208.564 374.844 208.78 374.168 209.212 373.588C209.643 373.009 210.24 372.557 211.001 372.233C211.763 371.903 212.635 371.739 213.618 371.739C215.033 371.739 216.146 372.045 216.959 372.659C217.771 373.267 218.308 374.082 218.57 375.105ZM230.527 367.545V385H227.979V367.545H230.527ZM233.955 385V371.909H236.504V385H233.955ZM235.242 369.889C234.799 369.889 234.418 369.741 234.1 369.446C233.788 369.145 233.631 368.787 233.631 368.372C233.631 367.952 233.788 367.594 234.1 367.298C234.418 366.997 234.799 366.847 235.242 366.847C235.685 366.847 236.063 366.997 236.376 367.298C236.694 367.594 236.853 367.952 236.853 368.372C236.853 368.787 236.694 369.145 236.376 369.446C236.063 369.741 235.685 369.889 235.242 369.889ZM242.48 377.227V385H239.932V371.909H242.378V374.04H242.54C242.841 373.347 243.313 372.79 243.955 372.369C244.602 371.949 245.418 371.739 246.401 371.739C247.293 371.739 248.074 371.926 248.744 372.301C249.415 372.67 249.935 373.222 250.304 373.955C250.673 374.687 250.858 375.594 250.858 376.673V385H248.31V376.98C248.31 376.031 248.063 375.29 247.568 374.756C247.074 374.216 246.395 373.946 245.531 373.946C244.94 373.946 244.415 374.074 243.955 374.33C243.5 374.585 243.139 374.96 242.872 375.455C242.611 375.943 242.48 376.534 242.48 377.227ZM256.619 380.56L256.602 377.449H257.045L262.261 371.909H265.312L259.364 378.216H258.963L256.619 380.56ZM254.276 385V367.545H256.824V385H254.276ZM262.543 385L257.855 378.778L259.611 376.997L265.67 385H262.543ZM270.95 382.614L270.822 383.543C270.737 384.224 270.592 384.935 270.388 385.673C270.189 386.418 269.982 387.108 269.766 387.744C269.555 388.381 269.382 388.886 269.246 389.261H267.439C267.513 388.909 267.615 388.432 267.746 387.83C267.876 387.233 268.004 386.565 268.129 385.827C268.254 385.088 268.348 384.335 268.411 383.568L268.496 382.614H270.95ZM284.429 385.29C283.599 385.29 282.849 385.136 282.179 384.83C281.509 384.517 280.977 384.065 280.585 383.474C280.199 382.884 280.006 382.159 280.006 381.301C280.006 380.562 280.148 379.955 280.432 379.477C280.716 379 281.099 378.622 281.582 378.344C282.065 378.065 282.605 377.855 283.202 377.713C283.798 377.571 284.406 377.463 285.026 377.389C285.81 377.298 286.446 377.224 286.935 377.168C287.423 377.105 287.778 377.006 288 376.869C288.222 376.733 288.332 376.511 288.332 376.205V376.145C288.332 375.401 288.122 374.824 287.702 374.415C287.287 374.006 286.668 373.801 285.844 373.801C284.986 373.801 284.31 373.991 283.815 374.372C283.327 374.747 282.989 375.165 282.801 375.625L280.406 375.08C280.69 374.284 281.105 373.642 281.651 373.153C282.202 372.659 282.835 372.301 283.551 372.08C284.267 371.852 285.02 371.739 285.81 371.739C286.332 371.739 286.886 371.801 287.472 371.926C288.063 372.045 288.614 372.267 289.125 372.591C289.642 372.915 290.065 373.378 290.395 373.98C290.724 374.577 290.889 375.352 290.889 376.307V385H288.401V383.21H288.298C288.134 383.54 287.886 383.864 287.557 384.182C287.227 384.5 286.804 384.764 286.287 384.974C285.77 385.185 285.151 385.29 284.429 385.29ZM284.983 383.244C285.688 383.244 286.29 383.105 286.79 382.827C287.295 382.548 287.679 382.185 287.94 381.736C288.207 381.281 288.341 380.795 288.341 380.278V378.591C288.25 378.682 288.074 378.767 287.812 378.847C287.557 378.92 287.264 378.986 286.935 379.043C286.605 379.094 286.284 379.142 285.972 379.188C285.659 379.227 285.398 379.261 285.188 379.29C284.693 379.352 284.241 379.457 283.832 379.605C283.429 379.753 283.105 379.966 282.861 380.244C282.622 380.517 282.503 380.881 282.503 381.335C282.503 381.966 282.736 382.443 283.202 382.767C283.668 383.085 284.261 383.244 284.983 383.244ZM296.832 377.227V385H294.283V371.909H296.729V374.04H296.891C297.192 373.347 297.664 372.79 298.306 372.369C298.954 371.949 299.769 371.739 300.752 371.739C301.644 371.739 302.425 371.926 303.096 372.301C303.766 372.67 304.286 373.222 304.656 373.955C305.025 374.687 305.21 375.594 305.21 376.673V385H302.661V376.98C302.661 376.031 302.414 375.29 301.92 374.756C301.425 374.216 300.746 373.946 299.883 373.946C299.292 373.946 298.766 374.074 298.306 374.33C297.852 374.585 297.491 374.96 297.224 375.455C296.962 375.943 296.832 376.534 296.832 377.227ZM313.528 385.256C312.471 385.256 311.528 384.986 310.698 384.446C309.874 383.901 309.227 383.125 308.755 382.119C308.289 381.108 308.056 379.895 308.056 378.48C308.056 377.065 308.292 375.855 308.763 374.849C309.241 373.844 309.894 373.074 310.724 372.54C311.553 372.006 312.494 371.739 313.545 371.739C314.357 371.739 315.011 371.875 315.505 372.148C316.005 372.415 316.391 372.727 316.664 373.085C316.942 373.443 317.158 373.759 317.312 374.031H317.465V367.545H320.013V385H317.525V382.963H317.312C317.158 383.241 316.937 383.56 316.647 383.918C316.363 384.276 315.971 384.588 315.471 384.855C314.971 385.122 314.323 385.256 313.528 385.256ZM314.09 383.082C314.823 383.082 315.442 382.889 315.948 382.503C316.46 382.111 316.846 381.568 317.107 380.875C317.374 380.182 317.508 379.375 317.508 378.455C317.508 377.545 317.377 376.75 317.116 376.068C316.854 375.386 316.471 374.855 315.965 374.474C315.46 374.094 314.835 373.903 314.09 373.903C313.323 373.903 312.684 374.102 312.173 374.5C311.661 374.898 311.275 375.44 311.013 376.128C310.758 376.815 310.63 377.591 310.63 378.455C310.63 379.33 310.761 380.116 311.022 380.815C311.283 381.514 311.67 382.068 312.181 382.477C312.698 382.881 313.335 383.082 314.09 383.082ZM330.002 389.909V371.909H332.491V374.031H332.704C332.852 373.759 333.065 373.443 333.343 373.085C333.621 372.727 334.008 372.415 334.502 372.148C334.996 371.875 335.65 371.739 336.462 371.739C337.519 371.739 338.462 372.006 339.292 372.54C340.121 373.074 340.772 373.844 341.244 374.849C341.721 375.855 341.96 377.065 341.96 378.48C341.96 379.895 341.724 381.108 341.252 382.119C340.781 383.125 340.133 383.901 339.309 384.446C338.485 384.986 337.545 385.256 336.488 385.256C335.692 385.256 335.042 385.122 334.536 384.855C334.036 384.588 333.644 384.276 333.36 383.918C333.076 383.56 332.857 383.241 332.704 382.963H332.55V389.909H330.002ZM332.499 378.455C332.499 379.375 332.633 380.182 332.9 380.875C333.167 381.568 333.553 382.111 334.059 382.503C334.565 382.889 335.184 383.082 335.917 383.082C336.678 383.082 337.315 382.881 337.826 382.477C338.337 382.068 338.724 381.514 338.985 380.815C339.252 380.116 339.386 379.33 339.386 378.455C339.386 377.591 339.255 376.815 338.994 376.128C338.738 375.44 338.352 374.898 337.835 374.5C337.323 374.102 336.684 373.903 335.917 373.903C335.178 373.903 334.553 374.094 334.042 374.474C333.536 374.855 333.153 375.386 332.891 376.068C332.63 376.75 332.499 377.545 332.499 378.455ZM348.624 385.29C347.795 385.29 347.045 385.136 346.374 384.83C345.704 384.517 345.173 384.065 344.781 383.474C344.394 382.884 344.201 382.159 344.201 381.301C344.201 380.562 344.343 379.955 344.627 379.477C344.911 379 345.295 378.622 345.778 378.344C346.261 378.065 346.8 377.855 347.397 377.713C347.994 377.571 348.602 377.463 349.221 377.389C350.005 377.298 350.641 377.224 351.13 377.168C351.619 377.105 351.974 377.006 352.195 376.869C352.417 376.733 352.528 376.511 352.528 376.205V376.145C352.528 375.401 352.317 374.824 351.897 374.415C351.482 374.006 350.863 373.801 350.039 373.801C349.181 373.801 348.505 373.991 348.011 374.372C347.522 374.747 347.184 375.165 346.996 375.625L344.602 375.08C344.886 374.284 345.3 373.642 345.846 373.153C346.397 372.659 347.031 372.301 347.746 372.08C348.462 371.852 349.215 371.739 350.005 371.739C350.528 371.739 351.082 371.801 351.667 371.926C352.258 372.045 352.809 372.267 353.32 372.591C353.837 372.915 354.261 373.378 354.59 373.98C354.92 374.577 355.085 375.352 355.085 376.307V385H352.596V383.21H352.494C352.329 383.54 352.082 383.864 351.752 384.182C351.423 384.5 350.999 384.764 350.482 384.974C349.965 385.185 349.346 385.29 348.624 385.29ZM349.178 383.244C349.883 383.244 350.485 383.105 350.985 382.827C351.491 382.548 351.874 382.185 352.136 381.736C352.403 381.281 352.536 380.795 352.536 380.278V378.591C352.445 378.682 352.269 378.767 352.008 378.847C351.752 378.92 351.46 378.986 351.13 379.043C350.8 379.094 350.479 379.142 350.167 379.188C349.854 379.227 349.593 379.261 349.383 379.29C348.888 379.352 348.437 379.457 348.028 379.605C347.624 379.753 347.3 379.966 347.056 380.244C346.817 380.517 346.698 380.881 346.698 381.335C346.698 381.966 346.931 382.443 347.397 382.767C347.863 383.085 348.457 383.244 349.178 383.244ZM368.288 375.105L365.979 375.514C365.882 375.219 365.729 374.937 365.518 374.67C365.314 374.403 365.036 374.185 364.683 374.014C364.331 373.844 363.891 373.759 363.362 373.759C362.641 373.759 362.038 373.92 361.555 374.244C361.072 374.562 360.831 374.974 360.831 375.48C360.831 375.918 360.993 376.27 361.317 376.537C361.641 376.804 362.163 377.023 362.885 377.193L364.964 377.67C366.169 377.949 367.067 378.378 367.658 378.957C368.249 379.537 368.544 380.29 368.544 381.216C368.544 382 368.317 382.699 367.862 383.312C367.413 383.92 366.786 384.398 365.979 384.744C365.178 385.091 364.249 385.264 363.192 385.264C361.726 385.264 360.53 384.952 359.604 384.327C358.678 383.696 358.109 382.801 357.899 381.642L360.362 381.267C360.516 381.909 360.831 382.395 361.308 382.724C361.786 383.048 362.408 383.21 363.175 383.21C364.01 383.21 364.678 383.037 365.178 382.69C365.678 382.338 365.928 381.909 365.928 381.403C365.928 380.994 365.774 380.651 365.467 380.372C365.166 380.094 364.703 379.884 364.078 379.741L361.862 379.256C360.641 378.977 359.737 378.534 359.152 377.926C358.572 377.318 358.283 376.548 358.283 375.616C358.283 374.844 358.499 374.168 358.93 373.588C359.362 373.009 359.959 372.557 360.72 372.233C361.482 371.903 362.354 371.739 363.337 371.739C364.751 371.739 365.865 372.045 366.678 372.659C367.49 373.267 368.027 374.082 368.288 375.105ZM377.457 371.909V373.955H370.306V371.909H377.457ZM372.224 368.773H374.772V381.156C374.772 381.651 374.846 382.023 374.994 382.273C375.141 382.517 375.332 382.685 375.565 382.776C375.803 382.861 376.062 382.903 376.34 382.903C376.545 382.903 376.724 382.889 376.877 382.861C377.031 382.832 377.15 382.81 377.235 382.793L377.695 384.898C377.548 384.955 377.337 385.011 377.065 385.068C376.792 385.131 376.451 385.165 376.042 385.17C375.371 385.182 374.746 385.062 374.167 384.812C373.587 384.562 373.119 384.176 372.761 383.653C372.403 383.131 372.224 382.474 372.224 381.685V368.773ZM385.777 385.264C384.487 385.264 383.376 384.989 382.445 384.438C381.518 383.881 380.803 383.099 380.297 382.094C379.797 381.082 379.547 379.898 379.547 378.54C379.547 377.199 379.797 376.017 380.297 374.994C380.803 373.972 381.507 373.173 382.411 372.599C383.32 372.026 384.382 371.739 385.598 371.739C386.337 371.739 387.053 371.861 387.746 372.105C388.439 372.349 389.061 372.733 389.612 373.256C390.163 373.778 390.598 374.457 390.916 375.293C391.234 376.122 391.393 377.131 391.393 378.318V379.222H380.987V377.312H388.896C388.896 376.642 388.76 376.048 388.487 375.531C388.214 375.009 387.831 374.597 387.337 374.295C386.848 373.994 386.274 373.844 385.615 373.844C384.899 373.844 384.274 374.02 383.74 374.372C383.212 374.719 382.803 375.173 382.513 375.736C382.229 376.293 382.087 376.898 382.087 377.551V379.043C382.087 379.918 382.24 380.662 382.547 381.276C382.859 381.889 383.294 382.358 383.851 382.682C384.408 383 385.058 383.159 385.803 383.159C386.286 383.159 386.726 383.091 387.124 382.955C387.521 382.812 387.865 382.602 388.155 382.324C388.445 382.045 388.666 381.702 388.82 381.293L391.232 381.727C391.038 382.437 390.692 383.06 390.192 383.594C389.697 384.122 389.075 384.534 388.325 384.83C387.581 385.119 386.732 385.264 385.777 385.264ZM13.7131 414V400.909H16.2614V414H13.7131ZM15 398.889C14.5568 398.889 14.1761 398.741 13.858 398.446C13.5455 398.145 13.3892 397.787 13.3892 397.372C13.3892 396.952 13.5455 396.594 13.858 396.298C14.1761 395.997 14.5568 395.847 15 395.847C15.4432 395.847 15.821 395.997 16.1335 396.298C16.4517 396.594 16.6108 396.952 16.6108 397.372C16.6108 397.787 16.4517 398.145 16.1335 398.446C15.821 398.741 15.4432 398.889 15 398.889ZM25.8004 400.909V402.955H18.6499V400.909H25.8004ZM20.5675 397.773H23.1158V410.156C23.1158 410.651 23.1896 411.023 23.3374 411.273C23.4851 411.517 23.6754 411.685 23.9084 411.776C24.147 411.861 24.4055 411.903 24.6839 411.903C24.8885 411.903 25.0675 411.889 25.2209 411.861C25.3743 411.832 25.4936 411.81 25.5788 411.793L26.0391 413.898C25.8913 413.955 25.6811 414.011 25.4084 414.068C25.1357 414.131 24.7947 414.165 24.3857 414.17C23.7152 414.182 23.0902 414.062 22.5107 413.812C21.9311 413.562 21.4624 413.176 21.1044 412.653C20.7464 412.131 20.5675 411.474 20.5675 410.685V397.773ZM34.9709 414V400.909H37.5192V414H34.9709ZM36.2578 398.889C35.8146 398.889 35.4339 398.741 35.1158 398.446C34.8033 398.145 34.647 397.787 34.647 397.372C34.647 396.952 34.8033 396.594 35.1158 396.298C35.4339 395.997 35.8146 395.847 36.2578 395.847C36.701 395.847 37.0788 395.997 37.3913 396.298C37.7095 396.594 37.8686 396.952 37.8686 397.372C37.8686 397.787 37.7095 398.145 37.3913 398.446C37.0788 398.741 36.701 398.889 36.2578 398.889ZM43.4957 406.227V414H40.9474V400.909H43.3935V403.04H43.5554C43.8565 402.347 44.3281 401.79 44.9702 401.369C45.6179 400.949 46.4332 400.739 47.4162 400.739C48.3082 400.739 49.0895 400.926 49.7599 401.301C50.4304 401.67 50.9503 402.222 51.3196 402.955C51.6889 403.687 51.8736 404.594 51.8736 405.673V414H49.3253V405.98C49.3253 405.031 49.0781 404.29 48.5838 403.756C48.0895 403.216 47.4105 402.946 46.5469 402.946C45.956 402.946 45.4304 403.074 44.9702 403.33C44.5156 403.585 44.1548 403.96 43.8878 404.455C43.6264 404.943 43.4957 405.534 43.4957 406.227ZM61.402 400.909V402.955H54.2514V400.909H61.402ZM56.169 397.773H58.7173V410.156C58.7173 410.651 58.7912 411.023 58.9389 411.273C59.0866 411.517 59.277 411.685 59.5099 411.776C59.7486 411.861 60.0071 411.903 60.2855 411.903C60.4901 411.903 60.669 411.889 60.8224 411.861C60.9759 411.832 61.0952 411.81 61.1804 411.793L61.6406 413.898C61.4929 413.955 61.2827 414.011 61.0099 414.068C60.7372 414.131 60.3963 414.165 59.9872 414.17C59.3168 414.182 58.6918 414.062 58.1122 413.812C57.5327 413.562 57.0639 413.176 56.706 412.653C56.348 412.131 56.169 411.474 56.169 410.685V397.773ZM69.5945 414.264C68.3672 414.264 67.2962 413.983 66.3814 413.42C65.4666 412.858 64.7564 412.071 64.2507 411.06C63.745 410.048 63.4922 408.866 63.4922 407.514C63.4922 406.156 63.745 404.969 64.2507 403.952C64.7564 402.935 65.4666 402.145 66.3814 401.582C67.2962 401.02 68.3672 400.739 69.5945 400.739C70.8217 400.739 71.8928 401.02 72.8075 401.582C73.7223 402.145 74.4325 402.935 74.9382 403.952C75.4439 404.969 75.6967 406.156 75.6967 407.514C75.6967 408.866 75.4439 410.048 74.9382 411.06C74.4325 412.071 73.7223 412.858 72.8075 413.42C71.8928 413.983 70.8217 414.264 69.5945 414.264ZM69.603 412.125C70.3984 412.125 71.0575 411.915 71.5803 411.494C72.103 411.074 72.4893 410.514 72.7393 409.815C72.995 409.116 73.1229 408.347 73.1229 407.506C73.1229 406.67 72.995 405.903 72.7393 405.205C72.4893 404.5 72.103 403.935 71.5803 403.509C71.0575 403.082 70.3984 402.869 69.603 402.869C68.8018 402.869 68.1371 403.082 67.6087 403.509C67.0859 403.935 66.6967 404.5 66.4411 405.205C66.1911 405.903 66.0661 406.67 66.0661 407.506C66.0661 408.347 66.1911 409.116 66.4411 409.815C66.6967 410.514 67.0859 411.074 67.6087 411.494C68.1371 411.915 68.8018 412.125 69.603 412.125ZM90.407 414.264C89.1797 414.264 88.1087 413.983 87.1939 413.42C86.2791 412.858 85.5689 412.071 85.0632 411.06C84.5575 410.048 84.3047 408.866 84.3047 407.514C84.3047 406.156 84.5575 404.969 85.0632 403.952C85.5689 402.935 86.2791 402.145 87.1939 401.582C88.1087 401.02 89.1797 400.739 90.407 400.739C91.6342 400.739 92.7053 401.02 93.62 401.582C94.5348 402.145 95.245 402.935 95.7507 403.952C96.2564 404.969 96.5092 406.156 96.5092 407.514C96.5092 408.866 96.2564 410.048 95.7507 411.06C95.245 412.071 94.5348 412.858 93.62 413.42C92.7053 413.983 91.6342 414.264 90.407 414.264ZM90.4155 412.125C91.2109 412.125 91.87 411.915 92.3928 411.494C92.9155 411.074 93.3018 410.514 93.5518 409.815C93.8075 409.116 93.9354 408.347 93.9354 407.506C93.9354 406.67 93.8075 405.903 93.5518 405.205C93.3018 404.5 92.9155 403.935 92.3928 403.509C91.87 403.082 91.2109 402.869 90.4155 402.869C89.6143 402.869 88.9496 403.082 88.4212 403.509C87.8984 403.935 87.5092 404.5 87.2536 405.205C87.0036 405.903 86.8786 406.67 86.8786 407.506C86.8786 408.347 87.0036 409.116 87.2536 409.815C87.5092 410.514 87.8984 411.074 88.4212 411.494C88.9496 411.915 89.6143 412.125 90.4155 412.125ZM107.646 408.571V400.909H110.203V414H107.697V411.733H107.561C107.26 412.432 106.777 413.014 106.112 413.48C105.453 413.94 104.632 414.17 103.649 414.17C102.808 414.17 102.064 413.986 101.416 413.616C100.774 413.241 100.268 412.688 99.8991 411.955C99.5355 411.222 99.3537 410.315 99.3537 409.236V400.909H101.902V408.929C101.902 409.821 102.149 410.531 102.643 411.06C103.138 411.588 103.78 411.852 104.57 411.852C105.047 411.852 105.521 411.733 105.993 411.494C106.47 411.256 106.865 410.895 107.178 410.412C107.496 409.929 107.652 409.315 107.646 408.571ZM113.627 414V400.909H116.09V402.989H116.227C116.465 402.284 116.886 401.73 117.488 401.327C118.096 400.918 118.783 400.713 119.55 400.713C119.71 400.713 119.897 400.719 120.113 400.73C120.335 400.741 120.508 400.756 120.633 400.773V403.21C120.531 403.182 120.349 403.151 120.087 403.116C119.826 403.077 119.565 403.057 119.303 403.057C118.701 403.057 118.164 403.185 117.692 403.44C117.227 403.69 116.857 404.04 116.585 404.489C116.312 404.932 116.175 405.437 116.175 406.006V414H113.627ZM138.999 404.105L136.69 404.514C136.593 404.219 136.44 403.937 136.229 403.67C136.025 403.403 135.746 403.185 135.394 403.014C135.042 402.844 134.602 402.759 134.073 402.759C133.352 402.759 132.749 402.92 132.266 403.244C131.783 403.562 131.542 403.974 131.542 404.48C131.542 404.918 131.704 405.27 132.028 405.537C132.352 405.804 132.874 406.023 133.596 406.193L135.675 406.67C136.88 406.949 137.778 407.378 138.369 407.957C138.96 408.537 139.255 409.29 139.255 410.216C139.255 411 139.028 411.699 138.573 412.312C138.124 412.92 137.496 413.398 136.69 413.744C135.888 414.091 134.96 414.264 133.903 414.264C132.437 414.264 131.241 413.952 130.315 413.327C129.388 412.696 128.82 411.801 128.61 410.642L131.073 410.267C131.227 410.909 131.542 411.395 132.019 411.724C132.496 412.048 133.119 412.21 133.886 412.21C134.721 412.21 135.388 412.037 135.888 411.69C136.388 411.338 136.638 410.909 136.638 410.403C136.638 409.994 136.485 409.651 136.178 409.372C135.877 409.094 135.414 408.884 134.789 408.741L132.573 408.256C131.352 407.977 130.448 407.534 129.863 406.926C129.283 406.318 128.994 405.548 128.994 404.616C128.994 403.844 129.21 403.168 129.641 402.588C130.073 402.009 130.67 401.557 131.431 401.233C132.192 400.903 133.065 400.739 134.048 400.739C135.462 400.739 136.576 401.045 137.388 401.659C138.201 402.267 138.738 403.082 138.999 404.105ZM147.699 414.264C146.409 414.264 145.298 413.989 144.366 413.438C143.44 412.881 142.724 412.099 142.219 411.094C141.719 410.082 141.469 408.898 141.469 407.54C141.469 406.199 141.719 405.017 142.219 403.994C142.724 402.972 143.429 402.173 144.332 401.599C145.241 401.026 146.304 400.739 147.52 400.739C148.259 400.739 148.974 400.861 149.668 401.105C150.361 401.349 150.983 401.733 151.534 402.256C152.085 402.778 152.52 403.457 152.838 404.293C153.156 405.122 153.315 406.131 153.315 407.318V408.222H142.909V406.312H150.818C150.818 405.642 150.682 405.048 150.409 404.531C150.136 404.009 149.753 403.597 149.259 403.295C148.77 402.994 148.196 402.844 147.537 402.844C146.821 402.844 146.196 403.02 145.662 403.372C145.134 403.719 144.724 404.173 144.435 404.736C144.151 405.293 144.009 405.898 144.009 406.551V408.043C144.009 408.918 144.162 409.662 144.469 410.276C144.781 410.889 145.216 411.358 145.773 411.682C146.33 412 146.98 412.159 147.724 412.159C148.207 412.159 148.648 412.091 149.045 411.955C149.443 411.812 149.787 411.602 150.077 411.324C150.366 411.045 150.588 410.702 150.741 410.293L153.153 410.727C152.96 411.437 152.614 412.06 152.114 412.594C151.619 413.122 150.997 413.534 150.247 413.83C149.503 414.119 148.653 414.264 147.699 414.264ZM159.952 414.29C159.123 414.29 158.373 414.136 157.702 413.83C157.032 413.517 156.501 413.065 156.109 412.474C155.722 411.884 155.529 411.159 155.529 410.301C155.529 409.562 155.671 408.955 155.955 408.477C156.239 408 156.623 407.622 157.106 407.344C157.589 407.065 158.129 406.855 158.725 406.713C159.322 406.571 159.93 406.463 160.549 406.389C161.333 406.298 161.969 406.224 162.458 406.168C162.947 406.105 163.302 406.006 163.523 405.869C163.745 405.733 163.856 405.511 163.856 405.205V405.145C163.856 404.401 163.646 403.824 163.225 403.415C162.81 403.006 162.191 402.801 161.367 402.801C160.509 402.801 159.833 402.991 159.339 403.372C158.85 403.747 158.512 404.165 158.325 404.625L155.93 404.08C156.214 403.284 156.629 402.642 157.174 402.153C157.725 401.659 158.359 401.301 159.075 401.08C159.79 400.852 160.543 400.739 161.333 400.739C161.856 400.739 162.41 400.801 162.995 400.926C163.586 401.045 164.137 401.267 164.648 401.591C165.165 401.915 165.589 402.378 165.918 402.98C166.248 403.577 166.413 404.352 166.413 405.307V414H163.924V412.21H163.822C163.657 412.54 163.41 412.864 163.08 413.182C162.751 413.5 162.327 413.764 161.81 413.974C161.293 414.185 160.674 414.29 159.952 414.29ZM160.506 412.244C161.211 412.244 161.813 412.105 162.313 411.827C162.819 411.548 163.202 411.185 163.464 410.736C163.731 410.281 163.864 409.795 163.864 409.278V407.591C163.773 407.682 163.597 407.767 163.336 407.847C163.08 407.92 162.788 407.986 162.458 408.043C162.129 408.094 161.808 408.142 161.495 408.188C161.183 408.227 160.921 408.261 160.711 408.29C160.217 408.352 159.765 408.457 159.356 408.605C158.952 408.753 158.629 408.966 158.384 409.244C158.146 409.517 158.026 409.881 158.026 410.335C158.026 410.966 158.259 411.443 158.725 411.767C159.191 412.085 159.785 412.244 160.506 412.244ZM169.807 414V400.909H172.27V402.989H172.406C172.645 402.284 173.065 401.73 173.668 401.327C174.276 400.918 174.963 400.713 175.73 400.713C175.889 400.713 176.077 400.719 176.293 400.73C176.514 400.741 176.688 400.756 176.812 400.773V403.21C176.71 403.182 176.528 403.151 176.267 403.116C176.006 403.077 175.744 403.057 175.483 403.057C174.881 403.057 174.344 403.185 173.872 403.44C173.406 403.69 173.037 404.04 172.764 404.489C172.491 404.932 172.355 405.437 172.355 406.006V414H169.807ZM184.063 414.264C182.796 414.264 181.705 413.977 180.79 413.403C179.881 412.824 179.183 412.026 178.694 411.009C178.205 409.991 177.961 408.827 177.961 407.514C177.961 406.185 178.211 405.011 178.711 403.994C179.211 402.972 179.915 402.173 180.825 401.599C181.734 401.026 182.805 400.739 184.038 400.739C185.032 400.739 185.918 400.923 186.697 401.293C187.475 401.656 188.103 402.168 188.58 402.827C189.063 403.486 189.35 404.256 189.441 405.136H186.961C186.825 404.523 186.512 403.994 186.023 403.551C185.54 403.108 184.893 402.886 184.08 402.886C183.37 402.886 182.748 403.074 182.214 403.449C181.685 403.818 181.273 404.347 180.978 405.034C180.683 405.716 180.535 406.523 180.535 407.455C180.535 408.409 180.68 409.233 180.969 409.926C181.259 410.619 181.668 411.156 182.197 411.537C182.731 411.918 183.359 412.108 184.08 412.108C184.563 412.108 185.001 412.02 185.393 411.844C185.79 411.662 186.123 411.403 186.39 411.068C186.663 410.733 186.853 410.33 186.961 409.858H189.441C189.35 410.705 189.075 411.46 188.614 412.125C188.154 412.79 187.538 413.312 186.765 413.693C185.998 414.074 185.097 414.264 184.063 414.264ZM194.714 406.227V414H192.166V396.545H194.68V403.04H194.842C195.149 402.335 195.618 401.776 196.249 401.361C196.879 400.946 197.703 400.739 198.72 400.739C199.618 400.739 200.402 400.923 201.072 401.293C201.749 401.662 202.271 402.213 202.641 402.946C203.016 403.673 203.203 404.582 203.203 405.673V414H200.655V405.98C200.655 405.02 200.408 404.276 199.913 403.747C199.419 403.213 198.732 402.946 197.851 402.946C197.249 402.946 196.709 403.074 196.232 403.33C195.76 403.585 195.388 403.96 195.115 404.455C194.848 404.943 194.714 405.534 194.714 406.227ZM213.16 414V396.545H215.708V403.031H215.862C216.009 402.759 216.222 402.443 216.501 402.085C216.779 401.727 217.165 401.415 217.66 401.148C218.154 400.875 218.808 400.739 219.62 400.739C220.677 400.739 221.62 401.006 222.45 401.54C223.279 402.074 223.93 402.844 224.401 403.849C224.879 404.855 225.117 406.065 225.117 407.48C225.117 408.895 224.881 410.108 224.41 411.119C223.938 412.125 223.29 412.901 222.467 413.446C221.643 413.986 220.702 414.256 219.646 414.256C218.85 414.256 218.2 414.122 217.694 413.855C217.194 413.588 216.802 413.276 216.518 412.918C216.234 412.56 216.015 412.241 215.862 411.963H215.648V414H213.16ZM215.657 407.455C215.657 408.375 215.79 409.182 216.058 409.875C216.325 410.568 216.711 411.111 217.217 411.503C217.722 411.889 218.342 412.082 219.075 412.082C219.836 412.082 220.472 411.881 220.984 411.477C221.495 411.068 221.881 410.514 222.143 409.815C222.41 409.116 222.543 408.33 222.543 407.455C222.543 406.591 222.413 405.815 222.151 405.128C221.896 404.44 221.509 403.898 220.992 403.5C220.481 403.102 219.842 402.903 219.075 402.903C218.336 402.903 217.711 403.094 217.2 403.474C216.694 403.855 216.31 404.386 216.049 405.068C215.788 405.75 215.657 406.545 215.657 407.455ZM231.788 414.29C230.959 414.29 230.209 414.136 229.538 413.83C228.868 413.517 228.337 413.065 227.945 412.474C227.558 411.884 227.365 411.159 227.365 410.301C227.365 409.562 227.507 408.955 227.791 408.477C228.075 408 228.459 407.622 228.942 407.344C229.425 407.065 229.964 406.855 230.561 406.713C231.158 406.571 231.766 406.463 232.385 406.389C233.169 406.298 233.805 406.224 234.294 406.168C234.783 406.105 235.138 406.006 235.359 405.869C235.581 405.733 235.692 405.511 235.692 405.205V405.145C235.692 404.401 235.482 403.824 235.061 403.415C234.646 403.006 234.027 402.801 233.203 402.801C232.345 402.801 231.669 402.991 231.175 403.372C230.686 403.747 230.348 404.165 230.161 404.625L227.766 404.08C228.05 403.284 228.464 402.642 229.01 402.153C229.561 401.659 230.195 401.301 230.911 401.08C231.626 400.852 232.379 400.739 233.169 400.739C233.692 400.739 234.246 400.801 234.831 400.926C235.422 401.045 235.973 401.267 236.484 401.591C237.001 401.915 237.425 402.378 237.754 402.98C238.084 403.577 238.249 404.352 238.249 405.307V414H235.76V412.21H235.658C235.493 412.54 235.246 412.864 234.916 413.182C234.587 413.5 234.163 413.764 233.646 413.974C233.129 414.185 232.51 414.29 231.788 414.29ZM232.342 412.244C233.047 412.244 233.649 412.105 234.149 411.827C234.655 411.548 235.038 411.185 235.3 410.736C235.567 410.281 235.7 409.795 235.7 409.278V407.591C235.609 407.682 235.433 407.767 235.172 407.847C234.916 407.92 234.624 407.986 234.294 408.043C233.964 408.094 233.643 408.142 233.331 408.188C233.018 408.227 232.757 408.261 232.547 408.29C232.053 408.352 231.601 408.457 231.192 408.605C230.788 408.753 230.464 408.966 230.22 409.244C229.982 409.517 229.862 409.881 229.862 410.335C229.862 410.966 230.095 411.443 230.561 411.767C231.027 412.085 231.621 412.244 232.342 412.244ZM241.643 414V400.909H244.106V402.989H244.242C244.481 402.284 244.901 401.73 245.504 401.327C246.112 400.918 246.799 400.713 247.566 400.713C247.725 400.713 247.913 400.719 248.129 400.73C248.35 400.741 248.523 400.756 248.648 400.773V403.21C248.546 403.182 248.364 403.151 248.103 403.116C247.842 403.077 247.58 403.057 247.319 403.057C246.717 403.057 246.18 403.185 245.708 403.44C245.242 403.69 244.873 404.04 244.6 404.489C244.327 404.932 244.191 405.437 244.191 406.006V414H241.643ZM251.033 414.162C250.567 414.162 250.166 413.997 249.831 413.668C249.496 413.332 249.328 412.929 249.328 412.457C249.328 411.991 249.496 411.594 249.831 411.264C250.166 410.929 250.567 410.761 251.033 410.761C251.499 410.761 251.899 410.929 252.234 411.264C252.57 411.594 252.737 411.991 252.737 412.457C252.737 412.77 252.658 413.057 252.499 413.318C252.345 413.574 252.141 413.778 251.885 413.932C251.629 414.085 251.345 414.162 251.033 414.162Z" fill="#5D5D5D"/>
<defs>
<linearGradient id="paint0_linear_2016_518" x1="173.833" y1="176.03" x2="197.287" y2="242.687" gradientUnits="userSpaceOnUse">
<stop stop-color="#A4B737"/>
<stop offset="1" stop-color="#00BB05"/>
</linearGradient>
</defs>
</svg>
