<svg width="19" height="19" viewBox="0 0 19 19" fill="none" xmlns="http://www.w3.org/2000/svg">
<path d="M7.03421 5.15337C6.96971 5.1463 6.90445 5.15218 6.84226 5.17065C6.78006 5.18913 6.72218 5.21984 6.672 5.26098C6.62183 5.30212 6.58037 5.35286 6.55006 5.41023C6.51975 5.4676 6.50119 5.53044 6.49548 5.59507C6.48978 5.65971 6.49703 5.72483 6.51681 5.78662C6.5366 5.84842 6.56852 5.90564 6.61071 5.95494C6.6529 6.00423 6.7045 6.04461 6.76249 6.07371C6.82049 6.1028 6.88371 6.12003 6.94845 6.12437L11.6173 6.53883L5.1295 11.6683C5.02808 11.7485 4.96266 11.8657 4.94765 11.9941C4.93263 12.1225 4.96925 12.2517 5.04944 12.3531C5.12963 12.4545 5.24682 12.5199 5.37524 12.5349C5.50366 12.5499 5.63278 12.5133 5.7342 12.4331L12.223 7.30285L11.549 11.9432C11.5383 12.0072 11.5405 12.0727 11.5554 12.1358C11.5704 12.1989 11.5977 12.2585 11.636 12.3109C11.6742 12.3633 11.7225 12.4076 11.7781 12.4411C11.8337 12.4746 11.8953 12.4967 11.9596 12.506C12.0238 12.5154 12.0892 12.5118 12.152 12.4956C12.2148 12.4793 12.2738 12.4507 12.3254 12.4113C12.377 12.372 12.4202 12.3228 12.4525 12.2665C12.4849 12.2103 12.5056 12.1481 12.5136 12.0837L13.339 6.4014C13.3595 6.26033 13.3331 6.11644 13.2638 5.99186C13.2322 5.92723 13.1867 5.8704 13.1306 5.82543C13.026 5.7313 12.8938 5.67361 12.7537 5.66105L7.03421 5.15337Z" fill="white"/>
</svg>
