<svg width="17" height="17" viewBox="0 0 17 17" fill="none" xmlns="http://www.w3.org/2000/svg">
<path d="M4.95833 2.125C4.29958 2.125 3.97021 2.125 3.70033 2.19725C3.33988 2.29376 3.0112 2.48349 2.74734 2.74734C2.48349 3.0112 2.29376 3.33988 2.19725 3.70033C2.125 3.97021 2.125 4.29958 2.125 4.95833V12.0417C2.125 12.7004 2.125 13.0298 2.19725 13.2997C2.29376 13.6601 2.48349 13.9888 2.74734 14.2527C3.0112 14.5165 3.33988 14.7062 3.70033 14.8028C3.97021 14.875 4.29958 14.875 4.95833 14.875M11.6875 11.6875C11.6875 11.6875 14.875 9.34008 14.875 8.5C14.875 7.65992 11.6875 5.3125 11.6875 5.3125M14.1667 8.5H5.66667" stroke="#5D5D5D" stroke-width="1.5" stroke-linecap="round" stroke-linejoin="round"/>
</svg>
