<svg width="30" height="30" viewBox="0 0 30 30" fill="none" xmlns="http://www.w3.org/2000/svg">
<circle cx="15" cy="15" r="15" fill="#EBF8F1"/>
<path d="M11.8182 6C11.6494 6 11.4875 6.07414 11.3682 6.20611C11.2489 6.33808 11.1818 6.51707 11.1818 6.7037V7.40741H10.0682C9.51967 7.40741 8.99362 7.64836 8.60576 8.07726C8.2179 8.50617 8 9.08788 8 9.69444V22.713C8 23.3195 8.2179 23.9012 8.60576 24.3301C8.99362 24.759 9.51967 25 10.0682 25H15.9545V20.9537C15.9545 20.3471 16.1724 19.7654 16.5603 19.3365C16.9482 18.9076 17.4742 18.6667 18.0227 18.6667H22V9.69444C22 9.08788 21.7821 8.50617 21.3942 8.07726C21.0064 7.64836 20.4803 7.40741 19.9318 7.40741H18.8182V6.7037C18.8182 6.51707 18.7511 6.33808 18.6318 6.20611C18.5125 6.07414 18.3506 6 18.1818 6C18.013 6 17.8512 6.07414 17.7318 6.20611C17.6125 6.33808 17.5455 6.51707 17.5455 6.7037V7.40741H15.6364V6.7037C15.6364 6.51707 15.5693 6.33808 15.45 6.20611C15.3306 6.07414 15.1688 6 15 6C14.8312 6 14.6694 6.07414 14.55 6.20611C14.4307 6.33808 14.3636 6.51707 14.3636 6.7037V7.40741H12.4545V6.7037C12.4545 6.51707 12.3875 6.33808 12.2682 6.20611C12.1488 6.07414 11.987 6 11.8182 6ZM21.6271 20.0741H18.0227C17.5836 20.0741 17.2273 20.4681 17.2273 20.9537V24.9057C17.2754 24.8749 17.3197 24.8373 17.359 24.7938L21.6271 20.0741ZM11.1818 12.3333C11.1818 12.1467 11.2489 11.9677 11.3682 11.8357C11.4875 11.7038 11.6494 11.6296 11.8182 11.6296H18.1818C18.3506 11.6296 18.5125 11.7038 18.6318 11.8357C18.7511 11.9677 18.8182 12.1467 18.8182 12.3333C18.8182 12.52 18.7511 12.699 18.6318 12.8309C18.5125 12.9629 18.3506 13.037 18.1818 13.037H11.8182C11.6494 13.037 11.4875 12.9629 11.3682 12.8309C11.2489 12.699 11.1818 12.52 11.1818 12.3333ZM11.8182 15.1481H18.1818C18.3506 15.1481 18.5125 15.2223 18.6318 15.3543C18.7511 15.4862 18.8182 15.6652 18.8182 15.8519C18.8182 16.0385 18.7511 16.2175 18.6318 16.3494C18.5125 16.4814 18.3506 16.5556 18.1818 16.5556H11.8182C11.6494 16.5556 11.4875 16.4814 11.3682 16.3494C11.2489 16.2175 11.1818 16.0385 11.1818 15.8519C11.1818 15.6652 11.2489 15.4862 11.3682 15.3543C11.4875 15.2223 11.6494 15.1481 11.8182 15.1481ZM11.1818 19.3704C11.1818 19.1837 11.2489 19.0047 11.3682 18.8728C11.4875 18.7408 11.6494 18.6667 11.8182 18.6667H14.3636C14.5324 18.6667 14.6943 18.7408 14.8136 18.8728C14.933 19.0047 15 19.1837 15 19.3704C15 19.557 14.933 19.736 14.8136 19.868C14.6943 19.9999 14.5324 20.0741 14.3636 20.0741H11.8182C11.6494 20.0741 11.4875 19.9999 11.3682 19.868C11.2489 19.736 11.1818 19.557 11.1818 19.3704Z" fill="#009C4B"/>
</svg>
