<svg width="9" height="9" viewBox="0 0 9 9" fill="none" xmlns="http://www.w3.org/2000/svg">
<path d="M4.07138 0.00320832L4.125 0C4.23726 1.4809e-05 4.34561 0.0412299 4.4295 0.115828C4.5134 0.190426 4.56699 0.293218 4.58013 0.404708L4.58333 0.458333V3.66667H7.79167C7.90393 3.66668 8.01228 3.7079 8.09617 3.78249C8.18006 3.85709 8.23366 3.95989 8.24679 4.07138L8.25 4.125C8.24999 4.23726 8.20877 4.34561 8.13417 4.4295C8.05957 4.5134 7.95678 4.56699 7.84529 4.58013L7.79167 4.58333H4.58333V7.79167C4.58332 7.90393 4.5421 8.01228 4.46751 8.09617C4.39291 8.18006 4.29011 8.23366 4.17863 8.24679L4.125 8.25C4.01274 8.24999 3.90439 8.20877 3.8205 8.13417C3.7366 8.05957 3.68301 7.95678 3.66988 7.84529L3.66667 7.79167V4.58333H0.458333C0.346072 4.58332 0.237721 4.5421 0.15383 4.46751C0.0699385 4.39291 0.0163429 4.29011 0.00320832 4.17863L0 4.125C1.4809e-05 4.01274 0.0412299 3.90439 0.115828 3.8205C0.190426 3.7366 0.293218 3.68301 0.404708 3.66988L0.458333 3.66667H3.66667V0.458333C3.66668 0.346072 3.7079 0.237721 3.78249 0.15383C3.85709 0.0699385 3.95989 0.0163429 4.07138 0.00320832Z" fill="#F2F2F2"/>
</svg>
