<svg width="21" height="21" viewBox="0 0 21 21" fill="none" xmlns="http://www.w3.org/2000/svg">
<path d="M7.4375 6.5625C7.4375 5.67612 8.22062 4.8125 9.1875 4.8125C10.1544 4.8125 10.9375 5.53 10.9375 6.41638C10.9375 6.73575 10.836 7.03325 10.6601 7.2835C10.1369 8.029 9.1875 8.73862 9.1875 9.625" stroke="#F2F2F2" stroke-width="1.5" stroke-linecap="round"/>
<path d="M9.1875 11.8125H9.19527" stroke="#F2F2F2" stroke-width="2" stroke-linecap="round" stroke-linejoin="round"/>
<path d="M7 17.0625C7.91875 17.8238 9.02562 18.3085 10.2935 18.3916C11.2919 18.4572 12.3349 18.4572 13.3324 18.3916C13.6888 18.367 14.0394 18.2879 14.3719 18.1571C14.7306 18.011 14.9091 17.9384 15.001 17.9497C15.092 17.9602 15.2241 18.0565 15.4884 18.249C15.9548 18.5885 16.5419 18.8318 17.4134 18.8116C17.8535 18.8011 18.074 18.795 18.172 18.6296C18.2709 18.4634 18.1484 18.2341 17.9025 17.7747C17.5612 17.1377 17.346 16.4089 17.6732 15.8244C18.2359 14.9896 18.7145 14.0017 18.7845 12.9342C18.8221 12.3611 18.8221 11.767 18.7845 11.193C18.7389 10.5003 18.5706 9.8213 18.2875 9.1875" stroke="#F2F2F2" stroke-width="1.5" stroke-linecap="round" stroke-linejoin="round"/>
<path d="M10.7073 14.8915C12.1233 14.7979 13.457 14.1927 14.4599 13.1887C15.4628 12.1847 16.0665 10.8503 16.1586 9.43416C16.1971 8.86104 16.1971 8.26691 16.1586 7.69291C16.0663 6.27694 15.4626 4.94276 14.4597 3.93891C13.4568 2.93506 12.1232 2.32999 10.7073 2.23641C9.6954 2.1712 8.68034 2.1712 7.66843 2.23641C6.25216 2.32979 4.91813 2.93486 3.9149 3.9389C2.91168 4.94293 2.30767 6.27744 2.21543 7.69379C2.17689 8.27356 2.17689 8.85526 2.21543 9.43504C2.28543 10.5025 2.76406 11.4904 3.32668 12.3243C3.65393 12.9088 3.43781 13.6377 3.09743 14.2755C2.85243 14.734 2.72993 14.9633 2.82793 15.1295C2.92681 15.2958 3.14643 15.3002 3.58743 15.3115C4.45806 15.3325 5.04518 15.0884 5.51156 14.7489C5.77581 14.5564 5.90793 14.4602 5.99893 14.4497C6.08993 14.4392 6.27018 14.5109 6.62893 14.657C6.95093 14.7883 7.32456 14.8688 7.66843 14.8915C8.66506 14.9572 9.70718 14.9572 10.7073 14.8915Z" stroke="#F2F2F2" stroke-width="1.5" stroke-linejoin="round"/>
</svg>
