<svg width="19" height="19" viewBox="0 0 19 19" fill="none" xmlns="http://www.w3.org/2000/svg">
<path d="M7.23758 17.0886C5.92823 16.6976 4.74238 15.9743 3.79542 14.9891C4.10008 14.6278 4.29 14.1837 4.34087 13.7138C4.39174 13.244 4.30126 12.7696 4.08099 12.3514C3.86072 11.9332 3.52069 11.5903 3.10441 11.3664C2.68812 11.1426 2.21452 11.0481 1.74421 11.0949C1.63682 10.5701 1.58298 10.0358 1.5835 9.50011C1.5835 8.67282 1.71017 7.87482 1.94608 7.12511H1.97933C2.38299 7.12524 2.78001 7.02248 3.13292 6.82655C3.48583 6.63062 3.78298 6.34797 3.99631 6.00529C4.20964 5.66262 4.33212 5.27122 4.35216 4.86807C4.37221 4.46491 4.28918 4.0633 4.1109 3.70115C5.03926 2.83738 6.16152 2.20925 7.38325 1.86963C7.58211 2.26008 7.8851 2.58791 8.25872 2.81684C8.63233 3.04577 9.06199 3.16688 9.50017 3.16677C9.93834 3.16688 10.368 3.04577 10.7416 2.81684C11.1152 2.58791 11.4182 2.26008 11.6171 1.86963C12.8388 2.20925 13.9611 2.83738 14.8894 3.70115C14.7099 4.06584 14.6269 4.47051 14.6485 4.87644C14.67 5.28237 14.7955 5.67597 15.0127 6.01956C15.2299 6.36314 15.5317 6.64522 15.8892 6.8388C16.2466 7.03237 16.6478 7.13095 17.0542 7.12511C17.2952 7.89372 17.4175 8.6946 17.4168 9.50011C17.4168 10.0464 17.3614 10.5799 17.2561 11.0953C16.7858 11.0485 16.3122 11.143 15.8959 11.3668C15.4796 11.5907 15.1396 11.9336 14.9193 12.3518C14.6991 12.77 14.6086 13.2443 14.6595 13.7142C14.7103 14.1841 14.9003 14.6282 15.2049 14.9895C14.2579 15.9746 13.0721 16.6977 11.7627 17.0886C11.609 16.6094 11.307 16.1914 10.9004 15.8948C10.4938 15.5982 10.0035 15.4384 9.50017 15.4384C8.99687 15.4384 8.50656 15.5982 8.09993 15.8948C7.6933 16.1914 7.39134 16.6094 7.23758 17.0886Z" stroke="#F2F2F2" stroke-width="1.5" stroke-linejoin="round"/>
<path d="M9.50033 12.2709C9.8642 12.2709 10.2245 12.1992 10.5607 12.06C10.8969 11.9208 11.2023 11.7167 11.4596 11.4594C11.7169 11.2021 11.921 10.8966 12.0602 10.5604C12.1995 10.2243 12.2712 9.86395 12.2712 9.50008C12.2712 9.13621 12.1995 8.7759 12.0602 8.43973C11.921 8.10356 11.7169 7.7981 11.4596 7.54081C11.2023 7.28351 10.8969 7.07941 10.5607 6.94016C10.2245 6.80092 9.8642 6.72925 9.50033 6.72925C8.76546 6.72925 8.06068 7.02117 7.54105 7.54081C7.02142 8.06044 6.72949 8.76521 6.72949 9.50008C6.72949 10.235 7.02142 10.9397 7.54105 11.4594C8.06068 11.979 8.76546 12.2709 9.50033 12.2709Z" stroke="#F2F2F2" stroke-width="1.5" stroke-linejoin="round"/>
</svg>
