<svg width="17" height="17" viewBox="0 0 17 17" fill="none" xmlns="http://www.w3.org/2000/svg">
<path fill-rule="evenodd" clip-rule="evenodd" d="M13.0855 3.66927L13.9541 3.9588C13.9957 3.97246 14.0319 3.9989 14.0575 4.03435C14.0832 4.0698 14.097 4.11244 14.097 4.1562C14.097 4.19996 14.0832 4.24261 14.0575 4.27806C14.0319 4.3135 13.9957 4.33994 13.9541 4.35361L13.0855 4.64314C13.0549 4.65333 13.027 4.67054 13.0041 4.69338C12.9813 4.71623 12.9641 4.74408 12.9539 4.77474L12.6651 5.64264C12.6514 5.68421 12.625 5.72041 12.5895 5.74607C12.5541 5.77173 12.5114 5.78555 12.4677 5.78555C12.4239 5.78555 12.3813 5.77173 12.3458 5.74607C12.3104 5.72041 12.2839 5.68421 12.2703 5.64264L11.9807 4.77405C11.9705 4.74339 11.9533 4.71553 11.9305 4.69269C11.9076 4.66984 11.8798 4.65264 11.8491 4.64245L10.9812 4.35361C10.9397 4.33994 10.9035 4.3135 10.8778 4.27806C10.8521 4.24261 10.8383 4.19996 10.8383 4.1562C10.8383 4.11244 10.8521 4.0698 10.8778 4.03435C10.9035 3.9989 10.9397 3.97246 10.9812 3.9588L11.8498 3.66927C11.8805 3.65907 11.9083 3.64187 11.9312 3.61902C11.954 3.59618 11.9712 3.56832 11.9814 3.53766L12.2703 2.66977C12.2839 2.62819 12.3104 2.592 12.3458 2.56633C12.3813 2.54067 12.4239 2.52686 12.4677 2.52686C12.5114 2.52686 12.5541 2.54067 12.5895 2.56633C12.625 2.592 12.6514 2.62819 12.6651 2.66977L12.9546 3.53835C12.9754 3.60069 13.0239 3.64918 13.0862 3.66996M6.36884 3.4968C6.54755 2.95999 7.3067 2.96068 7.4854 3.4968L8.55001 6.68993L11.7431 7.75454C12.2793 7.93324 12.2793 8.69239 11.7431 8.8711L8.55001 9.9357L7.4854 13.1288C7.3067 13.665 6.54755 13.665 6.36884 13.1288L5.30423 9.9357L2.1111 8.8711C1.57429 8.69239 1.57429 7.93324 2.1111 7.75454L5.30423 6.68993L6.36884 3.4968ZM6.92643 5.10652L6.21785 7.23158C6.18893 7.31818 6.14027 7.39686 6.07572 7.46141C6.01116 7.52597 5.93248 7.57462 5.84589 7.60354L3.72083 8.31212L5.84589 9.02071C5.93248 9.04963 6.01116 9.09828 6.07572 9.16284C6.14027 9.22739 6.18893 9.30607 6.21785 9.39266L6.92643 11.5177L7.63501 9.39266C7.66393 9.30607 7.71259 9.22739 7.77714 9.16284C7.8417 9.09828 7.92038 9.04963 8.00697 9.02071L10.132 8.31212L8.00697 7.60354C7.92038 7.57462 7.8417 7.52597 7.77714 7.46141C7.71259 7.39686 7.66393 7.31818 7.63501 7.23158L6.92643 5.10652ZM13.9541 12.2706L13.0855 11.9811C13.0549 11.9709 13.027 11.9537 13.0041 11.9309C12.9813 11.908 12.9641 11.8802 12.9539 11.8495L12.6651 10.9816C12.6514 10.94 12.625 10.9038 12.5895 10.8782C12.5541 10.8525 12.5114 10.8387 12.4677 10.8387C12.4239 10.8387 12.3813 10.8525 12.3458 10.8782C12.3104 10.9038 12.2839 10.94 12.2703 10.9816L11.9807 11.8502C11.9705 11.8809 11.9533 11.9087 11.9305 11.9316C11.9076 11.9544 11.8798 11.9716 11.8491 11.9818L10.9812 12.2706C10.9397 12.2843 10.9035 12.3107 10.8778 12.3462C10.8521 12.3816 10.8383 12.4243 10.8383 12.468C10.8383 12.5118 10.8521 12.5545 10.8778 12.5899C10.9035 12.6253 10.9397 12.6518 10.9812 12.6655L11.8498 12.955C11.9122 12.9758 11.9606 13.0242 11.9814 13.0866L12.2703 13.9545C12.2839 13.9961 12.3104 14.0323 12.3458 14.0579C12.3813 14.0836 12.4239 14.0974 12.4677 14.0974C12.5114 14.0974 12.5541 14.0836 12.5895 14.0579C12.625 14.0323 12.6514 13.9961 12.6651 13.9545L12.9546 13.0859C12.9648 13.0552 12.982 13.0274 13.0048 13.0045C13.0277 12.9817 13.0555 12.9645 13.0862 12.9543L13.9541 12.6655C13.9957 12.6518 14.0319 12.6253 14.0575 12.5899C14.0832 12.5545 14.097 12.5118 14.097 12.468C14.097 12.4243 14.0832 12.3816 14.0575 12.3462C14.0319 12.3107 13.9957 12.2843 13.9541 12.2706Z" fill="white"/>
</svg>
