<svg width="15" height="15" viewBox="0 0 15 15" fill="none" xmlns="http://www.w3.org/2000/svg">
<path d="M5.94536 8.12664L6.40212 6.63889L5.20148 5.67316H6.68923L7.15905 4.21151L7.62886 5.67316H9.11661L7.90292 6.63889L8.35969 8.12664L7.15905 7.20006L5.94536 8.12664ZM4.02694 12.9814V8.94882C3.69633 8.58341 3.43968 8.16579 3.25697 7.69598C3.07426 7.22616 2.98291 6.7259 2.98291 6.19518C2.98291 5.02934 3.38747 4.04186 4.1966 3.23273C5.00573 2.42361 5.99321 2.01904 7.15905 2.01904C8.32488 2.01904 9.31237 2.42361 10.1215 3.23273C10.9306 4.04186 11.3352 5.02934 11.3352 6.19518C11.3352 6.7259 11.2438 7.22616 11.0611 7.69598C10.8784 8.16579 10.6218 8.58341 10.2911 8.94882V12.9814L7.15905 11.9374L4.02694 12.9814ZM7.15905 9.32728C8.02908 9.32728 8.7686 9.02277 9.37762 8.41375C9.98664 7.80473 10.2911 7.06521 10.2911 6.19518C10.2911 5.32515 9.98664 4.58563 9.37762 3.97661C8.7686 3.36759 8.02908 3.06308 7.15905 3.06308C6.28902 3.06308 5.54949 3.36759 4.94047 3.97661C4.33145 4.58563 4.02694 5.32515 4.02694 6.19518C4.02694 7.06521 4.33145 7.80473 4.94047 8.41375C5.54949 9.02277 6.28902 9.32728 7.15905 9.32728ZM5.07098 11.4284L7.15905 10.8933L9.24712 11.4284V9.81015C8.94261 9.98415 8.61408 10.1213 8.26155 10.2215C7.90901 10.3217 7.54151 10.3717 7.15905 10.3713C6.77658 10.371 6.40891 10.3209 6.05602 10.221C5.70314 10.1211 5.37479 9.98433 5.07098 9.81067V11.4284Z" fill="#009C4B"/>
</svg>
