<svg width="94" height="27" viewBox="0 0 94 27" fill="none" xmlns="http://www.w3.org/2000/svg">
<path d="M30.8367 19L28.1067 9.9H30.3557L31.7207 14.684C31.7814 14.9007 31.8334 15.1217 31.8767 15.347C31.9287 15.5637 31.9677 15.7717 31.9937 15.971C32.0284 16.1703 32.0544 16.3567 32.0717 16.53C32.089 16.6947 32.1064 16.8333 32.1237 16.946H31.8377C31.8897 16.6253 31.933 16.3393 31.9677 16.088C32.011 15.8367 32.0587 15.6027 32.1107 15.386C32.1627 15.1607 32.2277 14.9267 32.3057 14.684L33.6577 11.083H35.4257L36.7517 14.684C36.8557 14.97 36.9424 15.2387 37.0117 15.49C37.081 15.7413 37.133 15.984 37.1677 16.218C37.211 16.4433 37.2457 16.6687 37.2717 16.894L37.0117 16.933C37.029 16.777 37.042 16.634 37.0507 16.504C37.0594 16.3653 37.068 16.2353 37.0767 16.114C37.094 15.984 37.1114 15.8497 37.1287 15.711C37.146 15.5723 37.172 15.4207 37.2067 15.256C37.2414 15.0827 37.289 14.8877 37.3497 14.671L38.7017 9.9H40.8987L38.1687 19H36.4787L34.3207 13.761L34.5677 13.787L32.5787 19H30.8367ZM42.0058 19V12.097H44.0858V19H42.0058ZM43.0458 10.732C42.6558 10.732 42.3482 10.641 42.1228 10.459C41.9062 10.2683 41.7978 9.99967 41.7978 9.653C41.7978 9.341 41.9105 9.08533 42.1358 8.886C42.3612 8.68667 42.6645 8.587 43.0458 8.587C43.4358 8.587 43.7392 8.68233 43.9558 8.873C44.1725 9.055 44.2808 9.315 44.2808 9.653C44.2808 9.97367 44.1682 10.2337 43.9428 10.433C43.7262 10.6323 43.4272 10.732 43.0458 10.732ZM48.6532 19.143C48.0552 19.143 47.5222 18.9913 47.0542 18.688C46.5949 18.376 46.2309 17.9513 45.9622 17.414C45.6935 16.868 45.5592 16.2483 45.5592 15.555C45.5592 14.8617 45.6935 14.2463 45.9622 13.709C46.2309 13.163 46.5992 12.734 47.0672 12.422C47.5352 12.11 48.0725 11.954 48.6792 11.954C48.9912 11.954 49.2902 12.0017 49.5762 12.097C49.8622 12.1923 50.1222 12.3223 50.3562 12.487C50.5902 12.6517 50.7809 12.8423 50.9282 13.059C51.0755 13.267 51.1622 13.4837 51.1882 13.709L50.6942 13.826V9.38H52.7872V19H50.8502L50.7332 17.427L51.1492 17.492C51.1232 17.7087 51.0365 17.9167 50.8892 18.116C50.7505 18.3153 50.5685 18.493 50.3432 18.649C50.1179 18.7963 49.8579 18.9133 49.5632 19C49.2772 19.0953 48.9739 19.143 48.6532 19.143ZM49.1862 17.414C49.5069 17.414 49.7842 17.336 50.0182 17.18C50.2522 17.024 50.4299 16.8073 50.5512 16.53C50.6812 16.2527 50.7462 15.9277 50.7462 15.555C50.7462 15.1737 50.6812 14.8443 50.5512 14.567C50.4299 14.2897 50.2522 14.073 50.0182 13.917C49.7842 13.761 49.5069 13.683 49.1862 13.683C48.8655 13.683 48.5882 13.761 48.3542 13.917C48.1289 14.073 47.9512 14.2897 47.8212 14.567C47.6912 14.8443 47.6262 15.1737 47.6262 15.555C47.6262 15.9277 47.6912 16.2527 47.8212 16.53C47.9512 16.8073 48.1289 17.024 48.3542 17.18C48.5882 17.336 48.8655 17.414 49.1862 17.414ZM54.663 19V12.097H56.743V19H54.663ZM55.703 10.732C55.313 10.732 55.0054 10.641 54.78 10.459C54.5634 10.2683 54.455 9.99967 54.455 9.653C54.455 9.341 54.5677 9.08533 54.793 8.886C55.0184 8.68667 55.3217 8.587 55.703 8.587C56.093 8.587 56.3964 8.68233 56.613 8.873C56.8297 9.055 56.938 9.315 56.938 9.653C56.938 9.97367 56.8254 10.2337 56.6 10.433C56.3834 10.6323 56.0844 10.732 55.703 10.732ZM60.5009 19V11.85H57.7969V9.9H65.4799V11.85H62.7109V19H60.5009ZM67.8805 19.143C67.3692 19.143 66.9315 19.0347 66.5675 18.818C66.2122 18.5927 65.9348 18.272 65.7355 17.856C65.5448 17.44 65.4495 16.9417 65.4495 16.361V12.097H67.5425V16.075C67.5425 16.3523 67.5858 16.5907 67.6725 16.79C67.7592 16.9893 67.8892 17.1453 68.0625 17.258C68.2358 17.362 68.4438 17.414 68.6865 17.414C68.8685 17.414 69.0332 17.3837 69.1805 17.323C69.3365 17.2623 69.4665 17.18 69.5705 17.076C69.6832 16.9633 69.7698 16.8377 69.8305 16.699C69.8912 16.5517 69.9215 16.3913 69.9215 16.218V12.097H72.0145V19H70.0515L69.9605 17.583L70.3505 17.427C70.2465 17.7563 70.0732 18.051 69.8305 18.311C69.5878 18.5623 69.2975 18.766 68.9595 18.922C68.6215 19.0693 68.2618 19.143 67.8805 19.143ZM74.4403 19V10.355H76.5203V19H74.4403ZM73.2183 13.917V12.097H77.8593V13.917H73.2183ZM82.2345 19.13C81.5152 19.13 80.8739 18.974 80.3105 18.662C79.7559 18.35 79.3139 17.9253 78.9845 17.388C78.6639 16.8507 78.5035 16.2353 78.5035 15.542C78.5035 14.8487 78.6639 14.2333 78.9845 13.696C79.3139 13.1587 79.7559 12.734 80.3105 12.422C80.8739 12.11 81.5152 11.954 82.2345 11.954C82.9539 11.954 83.5909 12.11 84.1455 12.422C84.7089 12.734 85.1509 13.1587 85.4715 13.696C85.7922 14.2333 85.9525 14.8487 85.9525 15.542C85.9525 16.2353 85.7922 16.8507 85.4715 17.388C85.1509 17.9253 84.7089 18.35 84.1455 18.662C83.5909 18.974 82.9539 19.13 82.2345 19.13ZM82.2345 17.336C82.5465 17.336 82.8239 17.258 83.0665 17.102C83.3092 16.946 83.4999 16.7337 83.6385 16.465C83.7772 16.1963 83.8422 15.8887 83.8335 15.542C83.8422 15.1953 83.7772 14.8877 83.6385 14.619C83.4999 14.3417 83.3092 14.125 83.0665 13.969C82.8239 13.813 82.5465 13.735 82.2345 13.735C81.9225 13.735 81.6409 13.813 81.3895 13.969C81.1469 14.125 80.9562 14.3417 80.8175 14.619C80.6789 14.8877 80.6139 15.1953 80.6225 15.542C80.6139 15.8887 80.6789 16.1963 80.8175 16.465C80.9562 16.7337 81.1469 16.946 81.3895 17.102C81.6409 17.258 81.9225 17.336 82.2345 17.336ZM87.3126 19V12.097H89.2886L89.3796 14.346L88.9896 13.917C89.0936 13.5443 89.2626 13.2107 89.4966 12.916C89.7393 12.6213 90.021 12.3873 90.3416 12.214C90.6623 12.0407 91.0046 11.954 91.3686 11.954C91.5246 11.954 91.6676 11.967 91.7976 11.993C91.9363 12.019 92.062 12.0493 92.1746 12.084L91.6026 14.385C91.5073 14.3243 91.3773 14.2767 91.2126 14.242C91.0566 14.1987 90.892 14.177 90.7186 14.177C90.528 14.177 90.3503 14.2117 90.1856 14.281C90.021 14.3417 89.8823 14.4327 89.7696 14.554C89.657 14.6753 89.566 14.8183 89.4966 14.983C89.436 15.1477 89.4056 15.334 89.4056 15.542V19H87.3126Z" fill="#F2F2F2"/>
<path d="M2.97438 1.86265L3.85094 1.86294L5.26755 3.82546L7.22872 5.37965L4.39549 7.03685L3.85093 4.65405L2.77248 2.51655L2.97438 1.86265Z" fill="#272727"/>
<path d="M23.9501 1.91454L24.2661 2.67015L22.7967 4.59925L21.9358 6.85038L19.2412 5.00633L21.4493 3.67723L23.2173 1.97646L23.9501 1.91454Z" fill="#272727"/>
<ellipse cx="13.1789" cy="14.0947" rx="12.1242" ry="10.8313" fill="#4CAF50"/>
<g filter="url(#filter0_d_46_1992)">
<path d="M5.5 12.9456C5.5 11.1268 6.97446 9.65234 8.7933 9.65234H17.1798C19.2109 9.65234 20.8574 11.2989 20.8574 13.33C20.8574 15.0349 19.6857 16.5162 18.0266 16.9088L13.1869 18.054C13.1814 18.0553 13.1759 18.0559 13.1703 18.0559C13.1233 18.0559 13.0889 18.0117 13.1005 17.9662L13.4744 16.4951C13.4793 16.476 13.4886 16.4584 13.5017 16.4437C13.5723 16.3644 13.516 16.2389 13.4098 16.2389H8.03513C6.63502 16.2389 5.5 15.1039 5.5 13.7038V12.9456Z" fill="#FEFBFB"/>
</g>
<ellipse cx="17.1191" cy="13.3863" rx="1.31346" ry="1.30722" fill="#2F2E41"/>
<ellipse cx="8.63182" cy="13.3863" rx="1.31346" ry="1.30722" fill="#2F2E41"/>
<g clip-path="url(#clip0_46_1992)">
<path d="M18.9763 19.8144C18.9069 19.5578 18.7714 19.3238 18.5834 19.1358C18.3954 18.9478 18.1614 18.8123 17.9047 18.7428C16.9651 18.4866 13.1836 18.4866 13.1836 18.4866C13.1836 18.4866 9.40183 18.4943 8.46224 18.7506C8.20558 18.82 7.9716 18.9555 7.7836 19.1436C7.59559 19.3316 7.46012 19.5656 7.39068 19.8222C7.10647 21.4917 6.99623 24.0356 7.39848 25.6383C7.46793 25.895 7.60341 26.1289 7.79141 26.317C7.97941 26.505 8.21339 26.6405 8.47004 26.7099C9.40964 26.9662 13.1913 26.9662 13.1913 26.9662C13.1913 26.9662 16.9729 26.9662 17.9125 26.7099C18.1691 26.6405 18.4031 26.505 18.5911 26.317C18.7791 26.129 18.9146 25.895 18.9841 25.6383C19.2838 23.9665 19.3762 21.4241 18.9763 19.8144Z" fill="#FF0000"/>
<path d="M11.98 24.5433L15.1171 22.7262L11.98 20.9092V24.5433Z" fill="white"/>
</g>
<rect width="1.94593" height="4.08597" rx="0.972964" transform="matrix(0.715715 0.698392 -0.6984 0.715707 20.5552 19.0554)" fill="#FEFBFB"/>
<rect width="1.94593" height="4.08596" rx="0.972965" transform="matrix(-0.811772 0.583974 -0.583983 -0.811766 8.42578 22.7788)" fill="#FEFBFB"/>
<defs>
<filter id="filter0_d_46_1992" x="0" y="5.15234" width="26.3574" height="19.4036" filterUnits="userSpaceOnUse" color-interpolation-filters="sRGB">
<feFlood flood-opacity="0" result="BackgroundImageFix"/>
<feColorMatrix in="SourceAlpha" type="matrix" values="0 0 0 0 0 0 0 0 0 0 0 0 0 0 0 0 0 0 127 0" result="hardAlpha"/>
<feOffset dy="1"/>
<feGaussianBlur stdDeviation="2.75"/>
<feComposite in2="hardAlpha" operator="out"/>
<feColorMatrix type="matrix" values="0 0 0 0 0 0 0 0 0 0 0 0 0 0 0 0 0 0 0.25 0"/>
<feBlend mode="normal" in2="BackgroundImageFix" result="effect1_dropShadow_46_1992"/>
<feBlend mode="normal" in="SourceGraphic" in2="effect1_dropShadow_46_1992" result="shape"/>
</filter>
<clipPath id="clip0_46_1992">
<rect width="12.108" height="8.51341" fill="white" transform="translate(7.13574 18.4866)"/>
</clipPath>
</defs>
</svg>
