<svg width="11" height="11" viewBox="0 0 11 11" fill="none" xmlns="http://www.w3.org/2000/svg">
<path d="M5.36818 11C6.93242 11 8.26223 10.4507 9.35762 9.35217C10.453 8.25361 11.0005 6.92019 11 5.3519C11 4.18933 10.6684 3.12208 10.0053 2.15013C9.34166 1.17725 8.40068 0.477591 7.18233 0.0511592C7.03872 0.000796994 6.91294 -0.0123821 6.805 0.0116224C6.69705 0.0356268 6.60765 0.0824592 6.53678 0.152119C6.46592 0.221779 6.42086 0.311207 6.40162 0.420404C6.38285 0.530071 6.39763 0.645151 6.44597 0.765644C6.53702 0.990156 6.60319 1.21749 6.64449 1.44765C6.68579 1.67781 6.70621 1.92021 6.70574 2.17484C6.70574 3.43013 6.26786 4.49692 5.39212 5.3752C4.51637 6.25348 3.45242 6.69285 2.20028 6.69332C1.8727 6.69332 1.57304 6.65849 1.3013 6.58883C1.0291 6.51917 0.797255 6.46269 0.605772 6.41939C0.503461 6.40056 0.409832 6.40292 0.324885 6.42645C0.239939 6.44999 0.172123 6.4914 0.121436 6.55071C0.0660563 6.60954 0.028511 6.68203 0.00879955 6.76816C-0.00997257 6.85429 0.00129128 6.95243 0.0425911 7.06257C0.378154 8.21572 1.0359 9.16013 2.01584 9.8958C2.99578 10.6315 4.11322 10.9995 5.36818 11ZM5.36818 10.294C4.33568 10.294 3.40878 10.0085 2.58747 9.4376C1.76616 8.86667 1.16778 8.12253 0.792326 7.20518C1.02699 7.26402 1.26164 7.31109 1.4963 7.34639C1.73096 7.38169 1.96562 7.39934 2.20028 7.39934C3.64344 7.39934 4.87258 6.89054 5.88772 5.87294C6.90285 4.85534 7.41018 3.62264 7.40971 2.17484C7.40971 1.93951 7.39212 1.70417 7.35692 1.46883C7.32172 1.23349 7.27479 0.998157 7.21612 0.76282C8.13129 1.13936 8.87352 1.73947 9.4428 2.56315C10.0121 3.38683 10.2965 4.31642 10.296 5.3519C10.296 6.71686 9.81497 7.88178 8.85287 8.84666C7.89077 9.81155 6.7292 10.294 5.36818 10.294Z" fill="#F2F2F2"/>
</svg>
