<svg width="14" height="14" viewBox="0 0 14 14" fill="none" xmlns="http://www.w3.org/2000/svg">
<path d="M6.99984 1.1665C5.91687 1.1665 4.87826 1.59671 4.11248 2.36248C3.34671 3.12826 2.9165 4.16687 2.9165 5.24984C2.9165 6.63817 3.61067 7.85733 4.6665 8.59817V9.9165C4.6665 10.0712 4.72796 10.2196 4.83736 10.329C4.94675 10.4384 5.09513 10.4998 5.24984 10.4998H8.74984C8.90455 10.4998 9.05292 10.4384 9.16232 10.329C9.27171 10.2196 9.33317 10.0712 9.33317 9.9165V8.59817C10.389 7.85733 11.0832 6.63817 11.0832 5.24984C11.0832 4.16687 10.653 3.12826 9.88719 2.36248C9.12142 1.59671 8.0828 1.1665 6.99984 1.1665ZM5.24984 12.2498C5.24984 12.4045 5.3113 12.5529 5.42069 12.6623C5.53009 12.7717 5.67846 12.8332 5.83317 12.8332H8.1665C8.32121 12.8332 8.46959 12.7717 8.57898 12.6623C8.68838 12.5529 8.74984 12.4045 8.74984 12.2498V11.6665H5.24984V12.2498Z" fill="#4CAF50"/>
</svg>
