<svg width="30" height="30" viewBox="0 0 30 30" fill="none" xmlns="http://www.w3.org/2000/svg">
<circle cx="15" cy="15" r="15" fill="#131313"/>
<g clip-path="url(#clip0_41_392)">
<path d="M15 23.14C15.315 23.1327 15.6172 23.0143 15.8533 22.8057C16.0894 22.5971 16.2441 22.3117 16.29 22H13.66C13.7072 22.3202 13.8692 22.6123 14.1157 22.822C14.3621 23.0317 14.6764 23.1447 15 23.14Z" fill="#F2F2F2"/>
<path d="M22.255 19.915C21.7728 19.4852 21.3507 18.9924 21 18.45C20.6167 17.7014 20.3872 16.8837 20.325 16.045V13.575C20.3228 13.275 20.296 12.9756 20.245 12.68C19.8514 12.6017 19.4731 12.4598 19.125 12.26C19.2577 12.6874 19.3251 13.1324 19.325 13.58V16.05C19.3857 17.0731 19.6671 18.071 20.15 18.975C20.4953 19.5219 20.9049 20.0255 21.37 20.475H8.56499C9.03009 20.0255 9.43968 19.5219 9.78499 18.975C10.2679 18.071 10.5493 17.0731 10.61 16.05V13.575C10.6074 12.9963 10.7189 12.4228 10.9382 11.8874C11.1575 11.3519 11.4803 10.8649 11.8881 10.4543C12.2959 10.0438 12.7806 9.71766 13.3146 9.4947C13.8486 9.27174 14.4213 9.15631 15 9.155C15.8469 9.15538 16.6749 9.40585 17.38 9.875C17.3023 9.58948 17.2587 9.29577 17.25 9V8.685C16.7279 8.42835 16.167 8.25942 15.59 8.185V7.555C15.59 7.37796 15.5197 7.20818 15.3945 7.083C15.2693 6.95782 15.0995 6.8875 14.9225 6.8875C14.7455 6.8875 14.5757 6.95782 14.4505 7.083C14.3253 7.20818 14.255 7.37796 14.255 7.555V8.21C12.9629 8.39227 11.7803 9.03587 10.9256 10.022C10.0709 11.0081 9.60186 12.2701 9.60499 13.575V16.045C9.54277 16.8837 9.31326 17.7014 8.92999 18.45C8.58544 18.9912 8.17009 19.4839 7.69499 19.915C7.64166 19.9619 7.59891 20.0195 7.5696 20.0842C7.54029 20.1488 7.52508 20.219 7.52499 20.29V20.97C7.52499 21.1026 7.57767 21.2298 7.67144 21.3236C7.76521 21.4173 7.89239 21.47 8.02499 21.47H21.925C22.0576 21.47 22.1848 21.4173 22.2785 21.3236C22.3723 21.2298 22.425 21.1026 22.425 20.97V20.29C22.4249 20.219 22.4097 20.1488 22.3804 20.0842C22.3511 20.0195 22.3083 19.9619 22.255 19.915Z" fill="#F2F2F2"/>
<path d="M21 11.5C22.3807 11.5 23.5 10.3807 23.5 9C23.5 7.61929 22.3807 6.5 21 6.5C19.6193 6.5 18.5 7.61929 18.5 9C18.5 10.3807 19.6193 11.5 21 11.5Z" fill="#A2000A"/>
</g>
<defs>
<clipPath id="clip0_41_392">
<rect width="18" height="18" fill="white" transform="translate(6 6)"/>
</clipPath>
</defs>
</svg>
